<?xml version="1.0" encoding="UTF-8" standalone="no"?>
<!DOCTYPE svg PUBLIC "-//W3C//DTD SVG 1.1//EN"
 "http://www.w3.org/Graphics/SVG/1.1/DTD/svg11.dtd">
<!-- Generated by graphviz version 2.36.0 (20140111.2315)
 -->
<!-- Title: IControl.h Pages: 1 -->
<svg width="826pt" height="140pt"
 viewBox="0.00 0.00 826.00 140.00" xmlns="http://www.w3.org/2000/svg" xmlns:xlink="http://www.w3.org/1999/xlink">
<g id="graph0" class="graph" transform="scale(1 1) rotate(0) translate(4 136)">
<title>IControl.h</title>
<polygon fill="white" stroke="none" points="-4,4 -4,-136 822,-136 822,4 -4,4"/>
<!-- Node1 -->
<g id="node1" class="node"><title>Node1</title>
<polygon fill="#bfbfbf" stroke="black" points="310.5,-112.5 310.5,-131.5 369.5,-131.5 369.5,-112.5 310.5,-112.5"/>
<text text-anchor="middle" x="340" y="-119.5" font-family="Helvetica,sans-Serif" font-size="10.00">IControl.h</text>
</g>
<!-- Node2 -->
<g id="node2" class="node"><title>Node2</title>
<g id="a_node2"><a xlink:href="_i_control_8cpp_source.html" target="_top" xlink:title="IControl.cpp">
<polygon fill="white" stroke="black" points="0,-56.5 0,-75.5 70,-75.5 70,-56.5 0,-56.5"/>
<text text-anchor="middle" x="35" y="-63.5" font-family="Helvetica,sans-Serif" font-size="10.00">IControl.cpp</text>
</a>
</g>
</g>
<!-- Node1&#45;&gt;Node2 -->
<g id="edge1" class="edge"><title>Node1&#45;&gt;Node2</title>
<path fill="none" stroke="midnightblue" d="M300.202,-114.533C248.964,-106.116 157.206,-90.7366 79,-76 76.0884,-75.4514 73.0716,-74.8673 70.0452,-74.2704"/>
<polygon fill="midnightblue" stroke="midnightblue" points="299.763,-118.007 310.198,-116.171 300.896,-111.1 299.763,-118.007"/>
</g>
<!-- Node3 -->
<g id="node3" class="node"><title>Node3</title>
<g id="a_node3"><a xlink:href="_i_controls_8h.html" target="_top" xlink:title="A collection of IControls for common UI widgets, such as knobs, sliders, switches. ">
<polygon fill="white" stroke="black" points="88.5,-56.5 88.5,-75.5 153.5,-75.5 153.5,-56.5 88.5,-56.5"/>
<text text-anchor="middle" x="121" y="-63.5" font-family="Helvetica,sans-Serif" font-size="10.00">IControls.h</text>
</a>
</g>
</g>
<!-- Node1&#45;&gt;Node3 -->
<g id="edge2" class="edge"><title>Node1&#45;&gt;Node3</title>
<path fill="none" stroke="midnightblue" d="M300.586,-111.282C258.579,-100.924 192.836,-84.713 153.628,-75.0452"/>
<polygon fill="midnightblue" stroke="midnightblue" points="299.918,-114.721 310.465,-113.717 301.593,-107.925 299.918,-114.721"/>
</g>
<!-- Node5 -->
<g id="node5" class="node"><title>Node5</title>
<g id="a_node5"><a xlink:href="_i_graphics_live_edit_8h_source.html" target="_top" xlink:title="IGraphicsLiveEdit.h">
<polygon fill="white" stroke="black" points="172,-56.5 172,-75.5 274,-75.5 274,-56.5 172,-56.5"/>
<text text-anchor="middle" x="223" y="-63.5" font-family="Helvetica,sans-Serif" font-size="10.00">IGraphicsLiveEdit.h</text>
</a>
</g>
</g>
<!-- Node1&#45;&gt;Node5 -->
<g id="edge4" class="edge"><title>Node1&#45;&gt;Node5</title>
<path fill="none" stroke="midnightblue" d="M312.336,-108.232C290.451,-98.1312 260.503,-84.3091 241.452,-75.5164"/>
<polygon fill="midnightblue" stroke="midnightblue" points="310.915,-111.431 321.461,-112.444 313.848,-105.075 310.915,-111.431"/>
</g>
<!-- Node6 -->
<g id="node6" class="node"><title>Node6</title>
<g id="a_node6"><a xlink:href="_i_graphics_8cpp_source.html" target="_top" xlink:title="IGraphics.cpp">
<polygon fill="white" stroke="black" points="223.5,-0.5 223.5,-19.5 300.5,-19.5 300.5,-0.5 223.5,-0.5"/>
<text text-anchor="middle" x="262" y="-7.5" font-family="Helvetica,sans-Serif" font-size="10.00">IGraphics.cpp</text>
</a>
</g>
</g>
<!-- Node1&#45;&gt;Node6 -->
<g id="edge6" class="edge"><title>Node1&#45;&gt;Node6</title>
<path fill="none" stroke="midnightblue" d="M327.915,-103.957C311.011,-80.1184 280.939,-37.7088 268.092,-19.5914"/>
<polygon fill="midnightblue" stroke="midnightblue" points="325.24,-106.236 333.879,-112.368 330.95,-102.187 325.24,-106.236"/>
</g>
<!-- Node7 -->
<g id="node7" class="node"><title>Node7</title>
<g id="a_node7"><a xlink:href="_i_graphics_mac_8mm_source.html" target="_top" xlink:title="IGraphicsMac.mm">
<polygon fill="white" stroke="black" points="330.5,-56.5 330.5,-75.5 427.5,-75.5 427.5,-56.5 330.5,-56.5"/>
<text text-anchor="middle" x="379" y="-63.5" font-family="Helvetica,sans-Serif" font-size="10.00">IGraphicsMac.mm</text>
</a>
</g>
</g>
<!-- Node1&#45;&gt;Node7 -->
<g id="edge7" class="edge"><title>Node1&#45;&gt;Node7</title>
<path fill="none" stroke="midnightblue" d="M352.382,-103.855C359.135,-94.5048 367.209,-83.3265 372.68,-75.7511"/>
<polygon fill="midnightblue" stroke="midnightblue" points="349.458,-101.927 346.44,-112.083 355.132,-106.025 349.458,-101.927"/>
</g>
<!-- Node8 -->
<g id="node8" class="node"><title>Node8</title>
<g id="a_node8"><a xlink:href="_i_graphics_mac__view_8mm_source.html" target="_top" xlink:title="IGraphicsMac_view.mm">
<polygon fill="white" stroke="black" points="446,-56.5 446,-75.5 568,-75.5 568,-56.5 446,-56.5"/>
<text text-anchor="middle" x="507" y="-63.5" font-family="Helvetica,sans-Serif" font-size="10.00">IGraphicsMac_view.mm</text>
</a>
</g>
</g>
<!-- Node1&#45;&gt;Node8 -->
<g id="edge8" class="edge"><title>Node1&#45;&gt;Node8</title>
<path fill="none" stroke="midnightblue" d="M376.17,-109.304C407.637,-99.1294 452.494,-84.6246 480.662,-75.5164"/>
<polygon fill="midnightblue" stroke="midnightblue" points="374.9,-106.037 366.462,-112.444 377.053,-112.697 374.9,-106.037"/>
</g>
<!-- Node9 -->
<g id="node9" class="node"><title>Node9</title>
<g id="a_node9"><a xlink:href="_i_graphics_win_8cpp_source.html" target="_top" xlink:title="IGraphicsWin.cpp">
<polygon fill="white" stroke="black" points="586.5,-56.5 586.5,-75.5 681.5,-75.5 681.5,-56.5 586.5,-56.5"/>
<text text-anchor="middle" x="634" y="-63.5" font-family="Helvetica,sans-Serif" font-size="10.00">IGraphicsWin.cpp</text>
</a>
</g>
</g>
<!-- Node1&#45;&gt;Node9 -->
<g id="edge9" class="edge"><title>Node1&#45;&gt;Node9</title>
<path fill="none" stroke="midnightblue" d="M379.424,-113.759C433.438,-103.838 530.271,-86.0522 587.678,-75.5081"/>
<polygon fill="midnightblue" stroke="midnightblue" points="378.739,-110.326 369.536,-115.575 380.004,-117.211 378.739,-110.326"/>
</g>
<!-- Node10 -->
<g id="node10" class="node"><title>Node10</title>
<g id="a_node10"><a xlink:href="_i_plug_base_graphics_8cpp_source.html" target="_top" xlink:title="IPlugBaseGraphics.cpp">
<polygon fill="white" stroke="black" points="699.5,-56.5 699.5,-75.5 818.5,-75.5 818.5,-56.5 699.5,-56.5"/>
<text text-anchor="middle" x="759" y="-63.5" font-family="Helvetica,sans-Serif" font-size="10.00">IPlugBaseGraphics.cpp</text>
</a>
</g>
</g>
<!-- Node1&#45;&gt;Node10 -->
<g id="edge10" class="edge"><title>Node1&#45;&gt;Node10</title>
<path fill="none" stroke="midnightblue" d="M379.695,-115.92C444.599,-107.61 577.484,-90.5711 690,-76 692.995,-75.6121 696.063,-75.2142 699.162,-74.8118"/>
<polygon fill="midnightblue" stroke="midnightblue" points="378.977,-112.484 369.502,-117.225 379.866,-119.427 378.977,-112.484"/>
</g>
<!-- Node4 -->
<g id="node4" class="node"><title>Node4</title>
<g id="a_node4"><a xlink:href="_i_controls_8cpp_source.html" target="_top" xlink:title="IControls.cpp">
<polygon fill="white" stroke="black" points="83.5,-0.5 83.5,-19.5 158.5,-19.5 158.5,-0.5 83.5,-0.5"/>
<text text-anchor="middle" x="121" y="-7.5" font-family="Helvetica,sans-Serif" font-size="10.00">IControls.cpp</text>
</a>
</g>
</g>
<!-- Node3&#45;&gt;Node4 -->
<g id="edge3" class="edge"><title>Node3&#45;&gt;Node4</title>
<path fill="none" stroke="midnightblue" d="M121,-45.8045C121,-36.9102 121,-26.7798 121,-19.7511"/>
<polygon fill="midnightblue" stroke="midnightblue" points="117.5,-46.083 121,-56.083 124.5,-46.083 117.5,-46.083"/>
</g>
<!-- Node5&#45;&gt;Node6 -->
<g id="edge5" class="edge"><title>Node5&#45;&gt;Node6</title>
<path fill="none" stroke="midnightblue" d="M235.382,-47.8554C242.135,-38.5048 250.209,-27.3265 255.68,-19.7511"/>
<polygon fill="midnightblue" stroke="midnightblue" points="232.458,-45.927 229.44,-56.083 238.132,-50.0254 232.458,-45.927"/>
</g>
</g>
</svg>
