<?xml version="1.0" encoding="UTF-8" standalone="no"?>
<!DOCTYPE svg PUBLIC "-//W3C//DTD SVG 1.1//EN"
 "http://www.w3.org/Graphics/SVG/1.1/DTD/svg11.dtd">
<!-- Generated by graphviz version 2.36.0 (20140111.2315)
 -->
<!-- Title: IControls.h Pages: 1 -->
<!--zoomable 476 -->
<svg id="main" version="1.1" xmlns="http://www.w3.org/2000/svg" xmlns:xlink="http://www.w3.org/1999/xlink" xml:space="preserve" onload="init(evt)">
<style type="text/css"><![CDATA[
.edge:hover path { stroke: red; }
.edge:hover polygon { stroke: red; fill: red; }
]]></style>
<script type="text/javascript"><![CDATA[
var edges = document.getElementsByTagName('g');
if (edges && edges.length) {
  for (var i=0;i<edges.length;i++) {
    if (edges[i].id.substr(0,4)=='edge') {
      edges[i].setAttribute('class','edge');
    }
  }
}
]]></script>
        <defs>
                <circle id="rim" cx="0" cy="0" r="7"/>
                <circle id="rim2" cx="0" cy="0" r="3.5"/>
                <g id="zoomPlus">
                        <use xlink:href="#rim" fill="#404040">
                                <set attributeName="fill" to="#808080" begin="zoomplus.mouseover" end="zoomplus.mouseout"/>
                        </use>
                        <path d="M-4,0h8M0,-4v8" fill="none" stroke="white" stroke-width="1.5" pointer-events="none"/>
                </g>
                <g id="zoomMin">
                        <use xlink:href="#rim" fill="#404040">
                                <set attributeName="fill" to="#808080" begin="zoomminus.mouseover" end="zoomminus.mouseout"/>
                        </use>
                        <path d="M-4,0h8" fill="none" stroke="white" stroke-width="1.5" pointer-events="none"/>
                </g>
                <g id="dirArrow">
                        <path fill="none" stroke="white" stroke-width="1.5" d="M0,-3.0v7 M-2.5,-0.5L0,-3.0L2.5,-0.5"/>
                </g>
               <g id="resetDef">
                       <use xlink:href="#rim2" fill="#404040">
                               <set attributeName="fill" to="#808080" begin="reset.mouseover" end="reset.mouseout"/>
                       </use>
               </g>
        </defs>

<script type="text/javascript">
var viewWidth = 1236;
var viewHeight = 476;
var sectionId = 'dynsection-0';
</script>
<script xlink:href="svgpan.js"/>
<svg id="graph" class="graph">
<g id="viewport">
<title>IControls.h</title>
<polygon fill="white" stroke="none" points="-4,4 -4,-472 1232,-472 1232,4 -4,4"/>
<!-- Node1 -->
<g id="node1" class="node"><title>Node1</title>
<polygon fill="#bfbfbf" stroke="black" points="663.5,-448.5 663.5,-467.5 728.5,-467.5 728.5,-448.5 663.5,-448.5"/>
<text text-anchor="middle" x="696" y="-455.5" font-family="Helvetica,sans-Serif" font-size="10.00">IControls.h</text>
</g>
<!-- Node2 -->
<g id="node2" class="node"><title>Node2</title>
<g id="a_node2"><a xlink:href="_i_control_8h.html" target="_top" xlink:title="The lowest level base class of an IGraphics control. ">
<polygon fill="white" stroke="black" points="666.5,-392.5 666.5,-411.5 725.5,-411.5 725.5,-392.5 666.5,-392.5"/>
<text text-anchor="middle" x="696" y="-399.5" font-family="Helvetica,sans-Serif" font-size="10.00">IControl.h</text>
</a>
</g>
</g>
<!-- Node1&#45;&gt;Node2 -->
<g id="edge1" class="edge"><title>Node1&#45;&gt;Node2</title>
<path fill="none" stroke="midnightblue" d="M696,-448.083C696,-441.006 696,-430.861 696,-421.986"/>
<polygon fill="midnightblue" stroke="midnightblue" points="699.5,-421.751 696,-411.751 692.5,-421.751 699.5,-421.751"/>
</g>
<!-- Node3 -->
<g id="node3" class="node"><title>Node3</title>
<polygon fill="white" stroke="#bfbfbf" points="514,-0.5 514,-19.5 560,-19.5 560,-0.5 514,-0.5"/>
<text text-anchor="middle" x="537" y="-7.5" font-family="Helvetica,sans-Serif" font-size="10.00">cstring</text>
</g>
<!-- Node2&#45;&gt;Node3 -->
<g id="edge2" class="edge"><title>Node2&#45;&gt;Node3</title>
<path fill="none" stroke="midnightblue" d="M666.375,-393.274C609.998,-376.782 488.496,-332.237 439,-244 405.381,-184.066 509.56,-242.407 549,-188 583.894,-139.864 559.343,-63.6851 545.154,-29.1215"/>
<polygon fill="midnightblue" stroke="midnightblue" points="548.319,-27.6195 541.161,-19.8081 541.885,-30.3781 548.319,-27.6195"/>
</g>
<!-- Node4 -->
<g id="node4" class="node"><title>Node4</title>
<polygon fill="white" stroke="#bfbfbf" points="15.5,-0.5 15.5,-19.5 60.5,-19.5 60.5,-0.5 15.5,-0.5"/>
<text text-anchor="middle" x="38" y="-7.5" font-family="Helvetica,sans-Serif" font-size="10.00">cstdlib</text>
</g>
<!-- Node2&#45;&gt;Node4 -->
<g id="edge3" class="edge"><title>Node2&#45;&gt;Node4</title>
<path fill="none" stroke="midnightblue" d="M666.094,-399.485C532.875,-392.345 0,-359.507 0,-291 0,-291 0,-291 0,-121 0,-86.8131 16.6005,-49.7639 27.8573,-28.5707"/>
<polygon fill="midnightblue" stroke="midnightblue" points="30.9473,-30.2151 32.7163,-19.769 24.8191,-26.832 30.9473,-30.2151"/>
</g>
<!-- Node5 -->
<g id="node5" class="node"><title>Node5</title>
<polygon fill="white" stroke="#bfbfbf" points="654,-56.5 654,-75.5 718,-75.5 718,-56.5 654,-56.5"/>
<text text-anchor="middle" x="686" y="-63.5" font-family="Helvetica,sans-Serif" font-size="10.00">wdlstring.h</text>
</g>
<!-- Node2&#45;&gt;Node5 -->
<g id="edge4" class="edge"><title>Node2&#45;&gt;Node5</title>
<path fill="none" stroke="midnightblue" d="M685.671,-392.496C666.2,-375.442 626,-334.914 626,-291 626,-291 626,-291 626,-177 626,-139.883 652.654,-103.378 670.431,-83.1581"/>
<polygon fill="midnightblue" stroke="midnightblue" points="673.237,-85.2762 677.403,-75.5349 668.072,-80.552 673.237,-85.2762"/>
</g>
<!-- Node6 -->
<g id="node6" class="node"><title>Node6</title>
<polygon fill="white" stroke="#bfbfbf" points="668,-336.5 668,-355.5 724,-355.5 724,-336.5 668,-336.5"/>
<text text-anchor="middle" x="696" y="-343.5" font-family="Helvetica,sans-Serif" font-size="10.00">dirscan.h</text>
</g>
<!-- Node2&#45;&gt;Node6 -->
<g id="edge5" class="edge"><title>Node2&#45;&gt;Node6</title>
<path fill="none" stroke="midnightblue" d="M696,-392.083C696,-385.006 696,-374.861 696,-365.986"/>
<polygon fill="midnightblue" stroke="midnightblue" points="699.5,-365.751 696,-355.751 692.5,-365.751 699.5,-365.751"/>
</g>
<!-- Node7 -->
<g id="node7" class="node"><title>Node7</title>
<polygon fill="white" stroke="#bfbfbf" points="1033.5,-56.5 1033.5,-75.5 1082.5,-75.5 1082.5,-56.5 1033.5,-56.5"/>
<text text-anchor="middle" x="1058" y="-63.5" font-family="Helvetica,sans-Serif" font-size="10.00">ptrlist.h</text>
</g>
<!-- Node2&#45;&gt;Node7 -->
<g id="edge6" class="edge"><title>Node2&#45;&gt;Node7</title>
<path fill="none" stroke="midnightblue" d="M725.726,-399.591C821.222,-394.267 1114,-371.387 1114,-291 1114,-291 1114,-291 1114,-177 1114,-140.436 1089.12,-103.747 1072.53,-83.3424"/>
<polygon fill="midnightblue" stroke="midnightblue" points="1075.15,-81.0212 1066.02,-75.6425 1069.8,-85.5395 1075.15,-81.0212"/>
</g>
<!-- Node8 -->
<g id="node8" class="node"><title>Node8</title>
<g id="a_node8"><a xlink:href="_i_graphics_8h.html" target="_top" xlink:title="The lowest level base class of an IGraphics context. ">
<polygon fill="white" stroke="black" points="756.5,-336.5 756.5,-355.5 823.5,-355.5 823.5,-336.5 756.5,-336.5"/>
<text text-anchor="middle" x="790" y="-343.5" font-family="Helvetica,sans-Serif" font-size="10.00">IGraphics.h</text>
</a>
</g>
</g>
<!-- Node2&#45;&gt;Node8 -->
<g id="edge7" class="edge"><title>Node2&#45;&gt;Node8</title>
<path fill="none" stroke="midnightblue" d="M711.103,-392.324C725.903,-383.822 748.694,-370.729 765.982,-360.797"/>
<polygon fill="midnightblue" stroke="midnightblue" points="768.007,-363.671 774.935,-355.655 764.52,-357.601 768.007,-363.671"/>
</g>
<!-- Node29 -->
<g id="node29" class="node"><title>Node29</title>
<g id="a_node29"><a xlink:href="_i_plug_delegate_8h_source.html" target="_top" xlink:title="IPlugDelegate.h">
<polygon fill="white" stroke="black" points="1142,-336.5 1142,-355.5 1228,-355.5 1228,-336.5 1142,-336.5"/>
<text text-anchor="middle" x="1185" y="-343.5" font-family="Helvetica,sans-Serif" font-size="10.00">IPlugDelegate.h</text>
</a>
</g>
</g>
<!-- Node2&#45;&gt;Node29 -->
<g id="edge50" class="edge"><title>Node2&#45;&gt;Node29</title>
<path fill="none" stroke="midnightblue" d="M725.656,-398.455C795.762,-392.32 977.156,-375.751 1128,-356 1129.26,-355.835 1130.53,-355.665 1131.81,-355.49"/>
<polygon fill="midnightblue" stroke="midnightblue" points="1132.37,-358.946 1141.77,-354.071 1131.38,-352.016 1132.37,-358.946"/>
</g>
<!-- Node9 -->
<g id="node9" class="node"><title>Node9</title>
<g id="a_node9"><a xlink:href="_i_graphics_constants_8h_source.html" target="_top" xlink:title="IGraphicsConstants.h">
<polygon fill="white" stroke="black" points="448,-224.5 448,-243.5 560,-243.5 560,-224.5 448,-224.5"/>
<text text-anchor="middle" x="504" y="-231.5" font-family="Helvetica,sans-Serif" font-size="10.00">IGraphicsConstants.h</text>
</a>
</g>
</g>
<!-- Node8&#45;&gt;Node9 -->
<g id="edge8" class="edge"><title>Node8&#45;&gt;Node9</title>
<path fill="none" stroke="midnightblue" d="M767.558,-336.368C717.018,-316.93 594.154,-269.674 535.792,-247.228"/>
<polygon fill="midnightblue" stroke="midnightblue" points="536.928,-243.915 526.338,-243.591 534.415,-250.448 536.928,-243.915"/>
</g>
<!-- Node22 -->
<g id="node22" class="node"><title>Node22</title>
<g id="a_node22"><a xlink:href="_i_graphics_structs_8h_source.html" target="_top" xlink:title="IGraphicsStructs.h">
<polygon fill="white" stroke="black" points="741,-280.5 741,-299.5 839,-299.5 839,-280.5 741,-280.5"/>
<text text-anchor="middle" x="790" y="-287.5" font-family="Helvetica,sans-Serif" font-size="10.00">IGraphicsStructs.h</text>
</a>
</g>
</g>
<!-- Node8&#45;&gt;Node22 -->
<g id="edge31" class="edge"><title>Node8&#45;&gt;Node22</title>
<path fill="none" stroke="midnightblue" d="M790,-336.083C790,-329.006 790,-318.861 790,-309.986"/>
<polygon fill="midnightblue" stroke="midnightblue" points="793.5,-309.751 790,-299.751 786.5,-309.751 793.5,-309.751"/>
</g>
<!-- Node27 -->
<g id="node27" class="node"><title>Node27</title>
<g id="a_node27"><a xlink:href="_i_graphics_utilites_8h_source.html" target="_top" xlink:title="IGraphicsUtilites.h">
<polygon fill="white" stroke="black" points="857,-280.5 857,-299.5 955,-299.5 955,-280.5 857,-280.5"/>
<text text-anchor="middle" x="906" y="-287.5" font-family="Helvetica,sans-Serif" font-size="10.00">IGraphicsUtilites.h</text>
</a>
</g>
</g>
<!-- Node8&#45;&gt;Node27 -->
<g id="edge42" class="edge"><title>Node8&#45;&gt;Node27</title>
<path fill="none" stroke="midnightblue" d="M808.381,-336.444C827.216,-327.675 856.731,-313.935 878.379,-303.858"/>
<polygon fill="midnightblue" stroke="midnightblue" points="880.117,-306.91 887.705,-299.516 877.162,-300.564 880.117,-306.91"/>
</g>
<!-- Node28 -->
<g id="node28" class="node"><title>Node28</title>
<g id="a_node28"><a xlink:href="_i_popup_menu_8h.html" target="_top" xlink:title="A class for setting the contents of a pop up menu. ">
<polygon fill="white" stroke="black" points="950,-112.5 950,-131.5 1030,-131.5 1030,-112.5 950,-112.5"/>
<text text-anchor="middle" x="990" y="-119.5" font-family="Helvetica,sans-Serif" font-size="10.00">IPopupMenu.h</text>
</a>
</g>
</g>
<!-- Node8&#45;&gt;Node28 -->
<g id="edge43" class="edge"><title>Node8&#45;&gt;Node28</title>
<path fill="none" stroke="midnightblue" d="M823.637,-343.314C879.248,-338.39 987.274,-319.135 1018,-244 1032.42,-208.743 1013.6,-164.525 1000.56,-140.503"/>
<polygon fill="midnightblue" stroke="midnightblue" points="1003.59,-138.754 995.594,-131.801 997.507,-142.221 1003.59,-138.754"/>
</g>
<!-- Node10 -->
<g id="node10" class="node"><title>Node10</title>
<g id="a_node10"><a xlink:href="_i_plug_platform_8h.html" target="_top" xlink:title="Include to get consistently named preprocessor macros for different platforms and logging functionali...">
<polygon fill="white" stroke="black" points="457,-168.5 457,-187.5 541,-187.5 541,-168.5 457,-168.5"/>
<text text-anchor="middle" x="499" y="-175.5" font-family="Helvetica,sans-Serif" font-size="10.00">IPlugPlatform.h</text>
</a>
</g>
</g>
<!-- Node9&#45;&gt;Node10 -->
<g id="edge9" class="edge"><title>Node9&#45;&gt;Node10</title>
<path fill="none" stroke="midnightblue" d="M503.174,-224.083C502.519,-217.006 501.58,-206.861 500.758,-197.986"/>
<polygon fill="midnightblue" stroke="midnightblue" points="504.217,-197.386 499.81,-187.751 497.247,-198.031 504.217,-197.386"/>
</g>
<!-- Node10&#45;&gt;Node3 -->
<g id="edge10" class="edge"><title>Node10&#45;&gt;Node3</title>
<path fill="none" stroke="midnightblue" d="M502.478,-168.252C509.199,-150.944 523.93,-110.977 531,-76 534.091,-60.7073 535.593,-43.0643 536.321,-30.0217"/>
<polygon fill="midnightblue" stroke="midnightblue" points="539.822,-30.0681 536.781,-19.9189 532.829,-29.749 539.822,-30.0681"/>
</g>
<!-- Node10&#45;&gt;Node4 -->
<g id="edge11" class="edge"><title>Node10&#45;&gt;Node4</title>
<path fill="none" stroke="midnightblue" d="M456.756,-171.855C383.99,-161.711 231.777,-134.806 117,-76 92.1928,-63.2899 68.1117,-41.7354 53.1894,-26.957"/>
<polygon fill="midnightblue" stroke="midnightblue" points="55.4033,-24.2168 45.895,-19.5431 50.4135,-29.1261 55.4033,-24.2168"/>
</g>
<!-- Node11 -->
<g id="node11" class="node"><title>Node11</title>
<g id="a_node11"><a xlink:href="_i_plug_logger_8h.html" target="_top" xlink:title="IPlug logging a.k.a tracing functionailty. ">
<polygon fill="white" stroke="black" points="348.5,-112.5 348.5,-131.5 425.5,-131.5 425.5,-112.5 348.5,-112.5"/>
<text text-anchor="middle" x="387" y="-119.5" font-family="Helvetica,sans-Serif" font-size="10.00">IPlugLogger.h</text>
</a>
</g>
</g>
<!-- Node10&#45;&gt;Node11 -->
<g id="edge12" class="edge"><title>Node10&#45;&gt;Node11</title>
<path fill="none" stroke="midnightblue" d="M481.005,-168.324C462.962,-159.625 434.953,-146.12 414.197,-136.113"/>
<polygon fill="midnightblue" stroke="midnightblue" points="415.478,-132.845 404.95,-131.655 412.438,-139.15 415.478,-132.845"/>
</g>
<!-- Node11&#45;&gt;Node3 -->
<g id="edge17" class="edge"><title>Node11&#45;&gt;Node3</title>
<path fill="none" stroke="midnightblue" d="M391.182,-112.271C398.125,-98.5946 413.247,-72.0275 433,-56 453.969,-38.9856 482.351,-27.2798 504.168,-20.0813"/>
<polygon fill="midnightblue" stroke="midnightblue" points="505.492,-23.3338 513.983,-16.9971 503.394,-16.6556 505.492,-23.3338"/>
</g>
<!-- Node11&#45;&gt;Node5 -->
<g id="edge20" class="edge"><title>Node11&#45;&gt;Node5</title>
<path fill="none" stroke="midnightblue" d="M425.782,-113.996C481.979,-103.847 585.66,-85.1217 643.743,-74.6318"/>
<polygon fill="midnightblue" stroke="midnightblue" points="644.473,-78.0566 653.692,-72.835 643.229,-71.168 644.473,-78.0566"/>
</g>
<!-- Node12 -->
<g id="node12" class="node"><title>Node12</title>
<polygon fill="white" stroke="#bfbfbf" points="578.5,-0.5 578.5,-19.5 621.5,-19.5 621.5,-0.5 578.5,-0.5"/>
<text text-anchor="middle" x="600" y="-7.5" font-family="Helvetica,sans-Serif" font-size="10.00">cstdio</text>
</g>
<!-- Node11&#45;&gt;Node12 -->
<g id="edge13" class="edge"><title>Node11&#45;&gt;Node12</title>
<path fill="none" stroke="midnightblue" d="M425.629,-113.908C455.796,-107.228 497.991,-95.3062 531,-76 552.851,-63.2202 573.353,-42.3326 586.239,-27.6935"/>
<polygon fill="midnightblue" stroke="midnightblue" points="589.06,-29.7798 592.899,-19.9047 583.74,-25.2306 589.06,-29.7798"/>
</g>
<!-- Node13 -->
<g id="node13" class="node"><title>Node13</title>
<polygon fill="white" stroke="#bfbfbf" points="388,-0.5 388,-19.5 434,-19.5 434,-0.5 388,-0.5"/>
<text text-anchor="middle" x="411" y="-7.5" font-family="Helvetica,sans-Serif" font-size="10.00">cctype</text>
</g>
<!-- Node11&#45;&gt;Node13 -->
<g id="edge14" class="edge"><title>Node11&#45;&gt;Node13</title>
<path fill="none" stroke="midnightblue" d="M348.481,-119.99C284.352,-117.406 160.046,-108.259 133,-76 127.289,-69.1884 127.239,-62.769 133,-56 148.712,-37.5406 306.918,-20.6755 377.413,-14.0127"/>
<polygon fill="midnightblue" stroke="midnightblue" points="377.913,-17.4813 387.545,-13.0684 377.263,-10.5115 377.913,-17.4813"/>
</g>
<!-- Node14 -->
<g id="node14" class="node"><title>Node14</title>
<polygon fill="white" stroke="#bfbfbf" points="142.5,-56.5 142.5,-75.5 191.5,-75.5 191.5,-56.5 142.5,-56.5"/>
<text text-anchor="middle" x="167" y="-63.5" font-family="Helvetica,sans-Serif" font-size="10.00">cstdarg</text>
</g>
<!-- Node11&#45;&gt;Node14 -->
<g id="edge15" class="edge"><title>Node11&#45;&gt;Node14</title>
<path fill="none" stroke="midnightblue" d="M350.59,-112.434C315.104,-104.032 259.369,-90.6934 201.861,-76.1782"/>
<polygon fill="midnightblue" stroke="midnightblue" points="202.42,-72.7092 191.866,-73.6479 200.702,-79.4951 202.42,-72.7092"/>
</g>
<!-- Node15 -->
<g id="node15" class="node"><title>Node15</title>
<polygon fill="white" stroke="#bfbfbf" points="210,-56.5 210,-75.5 256,-75.5 256,-56.5 210,-56.5"/>
<text text-anchor="middle" x="233" y="-63.5" font-family="Helvetica,sans-Serif" font-size="10.00">cstdint</text>
</g>
<!-- Node11&#45;&gt;Node15 -->
<g id="edge16" class="edge"><title>Node11&#45;&gt;Node15</title>
<path fill="none" stroke="midnightblue" d="M362.598,-112.444C336.5,-103.292 294.959,-88.726 265.966,-78.5594"/>
<polygon fill="midnightblue" stroke="midnightblue" points="266.874,-75.1691 256.28,-75.1629 264.558,-81.7748 266.874,-75.1691"/>
</g>
<!-- Node16 -->
<g id="node16" class="node"><title>Node16</title>
<polygon fill="white" stroke="#bfbfbf" points="274.5,-56.5 274.5,-75.5 315.5,-75.5 315.5,-56.5 274.5,-56.5"/>
<text text-anchor="middle" x="295" y="-63.5" font-family="Helvetica,sans-Serif" font-size="10.00">ctime</text>
</g>
<!-- Node11&#45;&gt;Node16 -->
<g id="edge18" class="edge"><title>Node11&#45;&gt;Node16</title>
<path fill="none" stroke="midnightblue" d="M372.219,-112.324C357.733,-103.822 335.427,-90.7288 318.507,-80.7975"/>
<polygon fill="midnightblue" stroke="midnightblue" points="320.141,-77.6981 309.745,-75.6545 316.597,-83.735 320.141,-77.6981"/>
</g>
<!-- Node17 -->
<g id="node17" class="node"><title>Node17</title>
<polygon fill="white" stroke="#bfbfbf" points="843.5,-56.5 843.5,-75.5 892.5,-75.5 892.5,-56.5 843.5,-56.5"/>
<text text-anchor="middle" x="868" y="-63.5" font-family="Helvetica,sans-Serif" font-size="10.00">cassert</text>
</g>
<!-- Node11&#45;&gt;Node17 -->
<g id="edge19" class="edge"><title>Node11&#45;&gt;Node17</title>
<path fill="none" stroke="midnightblue" d="M425.549,-116.672C516.928,-106.413 745.581,-80.7435 833.137,-70.9139"/>
<polygon fill="midnightblue" stroke="midnightblue" points="833.789,-74.3628 843.336,-69.7689 833.008,-67.4065 833.789,-74.3628"/>
</g>
<!-- Node18 -->
<g id="node18" class="node"><title>Node18</title>
<polygon fill="white" stroke="#bfbfbf" points="334,-56.5 334,-75.5 386,-75.5 386,-56.5 334,-56.5"/>
<text text-anchor="middle" x="360" y="-63.5" font-family="Helvetica,sans-Serif" font-size="10.00">mutex.h</text>
</g>
<!-- Node11&#45;&gt;Node18 -->
<g id="edge21" class="edge"><title>Node11&#45;&gt;Node18</title>
<path fill="none" stroke="midnightblue" d="M382.541,-112.083C378.846,-104.691 373.477,-93.9533 368.906,-84.8111"/>
<polygon fill="midnightblue" stroke="midnightblue" points="371.978,-83.1301 364.376,-75.7511 365.717,-86.2606 371.978,-83.1301"/>
</g>
<!-- Node19 -->
<g id="node19" class="node"><title>Node19</title>
<g id="a_node19"><a xlink:href="_i_plug_constants_8h.html" target="_top" xlink:title="Constant definitions, magic numbers. ">
<polygon fill="white" stroke="black" points="154,-0.5 154,-19.5 246,-19.5 246,-0.5 154,-0.5"/>
<text text-anchor="middle" x="200" y="-7.5" font-family="Helvetica,sans-Serif" font-size="10.00">IPlugConstants.h</text>
</a>
</g>
</g>
<!-- Node11&#45;&gt;Node19 -->
<g id="edge22" class="edge"><title>Node11&#45;&gt;Node19</title>
<path fill="none" stroke="midnightblue" d="M348.331,-120.219C282.519,-117.983 153.108,-109.348 125,-76 107.716,-55.4939 139.174,-35.895 166.493,-23.6805"/>
<polygon fill="midnightblue" stroke="midnightblue" points="168.066,-26.815 175.897,-19.6787 165.325,-20.3739 168.066,-26.815"/>
</g>
<!-- Node20 -->
<g id="node20" class="node"><title>Node20</title>
<g id="a_node20"><a xlink:href="_i_plug_utilities_8h.html" target="_top" xlink:title="Utility functions and macros. ">
<polygon fill="white" stroke="black" points="442,-56.5 442,-75.5 522,-75.5 522,-56.5 442,-56.5"/>
<text text-anchor="middle" x="482" y="-63.5" font-family="Helvetica,sans-Serif" font-size="10.00">IPlugUtilities.h</text>
</a>
</g>
</g>
<!-- Node11&#45;&gt;Node20 -->
<g id="edge23" class="edge"><title>Node11&#45;&gt;Node20</title>
<path fill="none" stroke="midnightblue" d="M402.263,-112.324C417.221,-103.822 440.255,-90.7288 457.727,-80.7975"/>
<polygon fill="midnightblue" stroke="midnightblue" points="459.81,-83.639 466.774,-75.6545 456.351,-77.5534 459.81,-83.639"/>
</g>
<!-- Node20&#45;&gt;Node3 -->
<g id="edge27" class="edge"><title>Node20&#45;&gt;Node3</title>
<path fill="none" stroke="midnightblue" d="M491.082,-56.083C499.171,-48.1409 511.195,-36.3354 520.91,-26.7973"/>
<polygon fill="midnightblue" stroke="midnightblue" points="523.403,-29.2545 528.087,-19.7511 518.499,-24.2595 523.403,-29.2545"/>
</g>
<!-- Node20&#45;&gt;Node4 -->
<g id="edge26" class="edge"><title>Node20&#45;&gt;Node4</title>
<path fill="none" stroke="midnightblue" d="M441.815,-60.1126C354.786,-49.528 150.312,-24.6596 70.6133,-14.9665"/>
<polygon fill="midnightblue" stroke="midnightblue" points="71.0043,-11.4883 60.6548,-13.7553 70.1591,-18.4371 71.0043,-11.4883"/>
</g>
<!-- Node20&#45;&gt;Node10 -->
<g id="edge30" class="edge"><title>Node20&#45;&gt;Node10</title>
<path fill="none" stroke="midnightblue" d="M483.328,-75.5914C486.066,-93.3079 492.394,-134.254 496.117,-158.348"/>
<polygon fill="midnightblue" stroke="midnightblue" points="492.68,-159.02 497.666,-168.368 499.598,-157.951 492.68,-159.02"/>
</g>
<!-- Node20&#45;&gt;Node12 -->
<g id="edge25" class="edge"><title>Node20&#45;&gt;Node12</title>
<path fill="none" stroke="midnightblue" d="M500.697,-56.4435C519.944,-47.6356 550.152,-33.8116 572.2,-23.722"/>
<polygon fill="midnightblue" stroke="midnightblue" points="573.753,-26.8603 581.39,-19.5164 570.84,-20.4951 573.753,-26.8603"/>
</g>
<!-- Node20&#45;&gt;Node13 -->
<g id="edge28" class="edge"><title>Node20&#45;&gt;Node13</title>
<path fill="none" stroke="midnightblue" d="M470.593,-56.324C459.891,-48.1849 443.659,-35.8395 430.837,-26.0874"/>
<polygon fill="midnightblue" stroke="midnightblue" points="432.693,-23.1018 422.615,-19.8339 428.456,-28.6734 432.693,-23.1018"/>
</g>
<!-- Node20&#45;&gt;Node19 -->
<g id="edge29" class="edge"><title>Node20&#45;&gt;Node19</title>
<path fill="none" stroke="midnightblue" d="M441.896,-57.3205C392.795,-47.9182 309.414,-31.9517 254.522,-21.4404"/>
<polygon fill="midnightblue" stroke="midnightblue" points="255.099,-17.9873 244.619,-19.544 253.782,-24.8623 255.099,-17.9873"/>
</g>
<!-- Node21 -->
<g id="node21" class="node"><title>Node21</title>
<polygon fill="white" stroke="#bfbfbf" points="975,-0.5 975,-19.5 1019,-19.5 1019,-0.5 975,-0.5"/>
<text text-anchor="middle" x="997" y="-7.5" font-family="Helvetica,sans-Serif" font-size="10.00">cmath</text>
</g>
<!-- Node20&#45;&gt;Node21 -->
<g id="edge24" class="edge"><title>Node20&#45;&gt;Node21</title>
<path fill="none" stroke="midnightblue" d="M522.411,-60.7627C621.416,-50.3816 874.555,-23.8389 964.601,-14.3972"/>
<polygon fill="midnightblue" stroke="midnightblue" points="965.172,-17.8566 974.752,-13.3328 964.442,-10.8948 965.172,-17.8566"/>
</g>
<!-- Node22&#45;&gt;Node5 -->
<g id="edge36" class="edge"><title>Node22&#45;&gt;Node5</title>
<path fill="none" stroke="midnightblue" d="M740.882,-280.897C719.317,-274.632 695.991,-263.556 683,-244 650.315,-194.797 668.4,-119.706 679.444,-85.3332"/>
<polygon fill="midnightblue" stroke="midnightblue" points="682.817,-86.2828 682.709,-75.6885 676.187,-84.0381 682.817,-86.2828"/>
</g>
<!-- Node22&#45;&gt;Node7 -->
<g id="edge37" class="edge"><title>Node22&#45;&gt;Node7</title>
<path fill="none" stroke="midnightblue" d="M839.083,-280.709C904.153,-269.516 1011.57,-250.252 1018,-244 1061.81,-201.378 1062.19,-121.705 1059.81,-85.615"/>
<polygon fill="midnightblue" stroke="midnightblue" points="1063.28,-85.2148 1058.99,-75.5312 1056.31,-85.7819 1063.28,-85.2148"/>
</g>
<!-- Node22&#45;&gt;Node9 -->
<g id="edge41" class="edge"><title>Node22&#45;&gt;Node9</title>
<path fill="none" stroke="midnightblue" d="M744.682,-280.444C694.372,-270.944 613.162,-255.611 559.187,-245.42"/>
<polygon fill="midnightblue" stroke="midnightblue" points="559.581,-241.933 549.106,-243.516 558.283,-248.811 559.581,-241.933"/>
</g>
<!-- Node22&#45;&gt;Node10 -->
<g id="edge40" class="edge"><title>Node22&#45;&gt;Node10</title>
<path fill="none" stroke="midnightblue" d="M760.764,-280.492C732.246,-271.985 687.77,-258.163 650,-244 606.302,-227.615 556.822,-205.642 526.774,-191.905"/>
<polygon fill="midnightblue" stroke="midnightblue" points="527.913,-188.577 517.365,-187.582 524.99,-194.938 527.913,-188.577"/>
</g>
<!-- Node22&#45;&gt;Node17 -->
<g id="edge33" class="edge"><title>Node22&#45;&gt;Node17</title>
<path fill="none" stroke="midnightblue" d="M839.032,-282.108C862.216,-276.117 887.86,-264.92 902,-244 935.97,-193.742 898.993,-118.098 879.041,-84.3385"/>
<polygon fill="midnightblue" stroke="midnightblue" points="881.918,-82.3348 873.715,-75.63 875.946,-85.9871 881.918,-82.3348"/>
</g>
<!-- Node22&#45;&gt;Node21 -->
<g id="edge32" class="edge"><title>Node22&#45;&gt;Node21</title>
<path fill="none" stroke="midnightblue" d="M839.018,-281.067C906.155,-270.06 1020.54,-250.748 1039,-244 1093.42,-224.112 1152,-236.938 1152,-179 1152,-179 1152,-179 1152,-121 1152,-61.1791 1074.27,-30.9197 1028.9,-18.353"/>
<polygon fill="midnightblue" stroke="midnightblue" points="1029.77,-14.963 1019.21,-15.8002 1027.99,-21.7321 1029.77,-14.963"/>
</g>
<!-- Node23 -->
<g id="node23" class="node"><title>Node23</title>
<polygon fill="white" stroke="#bfbfbf" points="950.5,-224.5 950.5,-243.5 1009.5,-243.5 1009.5,-224.5 950.5,-224.5"/>
<text text-anchor="middle" x="980" y="-231.5" font-family="Helvetica,sans-Serif" font-size="10.00">functional</text>
</g>
<!-- Node22&#45;&gt;Node23 -->
<g id="edge34" class="edge"><title>Node22&#45;&gt;Node23</title>
<path fill="none" stroke="midnightblue" d="M820.106,-280.444C852.721,-271.174 904.884,-256.349 940.707,-246.168"/>
<polygon fill="midnightblue" stroke="midnightblue" points="941.685,-249.528 950.348,-243.428 939.772,-242.795 941.685,-249.528"/>
</g>
<!-- Node24 -->
<g id="node24" class="node"><title>Node24</title>
<polygon fill="white" stroke="#bfbfbf" points="692,-224.5 692,-243.5 748,-243.5 748,-224.5 692,-224.5"/>
<text text-anchor="middle" x="720" y="-231.5" font-family="Helvetica,sans-Serif" font-size="10.00">algorithm</text>
</g>
<!-- Node22&#45;&gt;Node24 -->
<g id="edge35" class="edge"><title>Node22&#45;&gt;Node24</title>
<path fill="none" stroke="midnightblue" d="M778.753,-280.324C768.203,-272.185 752.199,-259.839 739.558,-250.087"/>
<polygon fill="midnightblue" stroke="midnightblue" points="741.507,-247.171 731.451,-243.834 737.231,-252.713 741.507,-247.171"/>
</g>
<!-- Node25 -->
<g id="node25" class="node"><title>Node25</title>
<polygon fill="white" stroke="#bfbfbf" points="766.5,-224.5 766.5,-243.5 813.5,-243.5 813.5,-224.5 766.5,-224.5"/>
<text text-anchor="middle" x="790" y="-231.5" font-family="Helvetica,sans-Serif" font-size="10.00">swell.h</text>
</g>
<!-- Node22&#45;&gt;Node25 -->
<g id="edge38" class="edge"><title>Node22&#45;&gt;Node25</title>
<path fill="none" stroke="midnightblue" d="M790,-280.083C790,-273.006 790,-262.861 790,-253.986"/>
<polygon fill="midnightblue" stroke="midnightblue" points="793.5,-253.751 790,-243.751 786.5,-253.751 793.5,-253.751"/>
</g>
<!-- Node26 -->
<g id="node26" class="node"><title>Node26</title>
<polygon fill="white" stroke="#bfbfbf" points="832,-224.5 832,-243.5 894,-243.5 894,-224.5 832,-224.5"/>
<text text-anchor="middle" x="863" y="-231.5" font-family="Helvetica,sans-Serif" font-size="10.00">nanosvg.h</text>
</g>
<!-- Node22&#45;&gt;Node26 -->
<g id="edge39" class="edge"><title>Node22&#45;&gt;Node26</title>
<path fill="none" stroke="midnightblue" d="M801.729,-280.324C812.837,-272.107 829.742,-259.602 842.983,-249.807"/>
<polygon fill="midnightblue" stroke="midnightblue" points="845.1,-252.595 851.058,-243.834 840.937,-246.967 845.1,-252.595"/>
</g>
<!-- Node28&#45;&gt;Node3 -->
<g id="edge45" class="edge"><title>Node28&#45;&gt;Node3</title>
<path fill="none" stroke="midnightblue" d="M979.611,-112.339C960.06,-96.2255 918.218,-62.6666 901,-56 765.7,-3.6149 716.915,-46.183 570.557,-19.9582"/>
<polygon fill="midnightblue" stroke="midnightblue" points="570.785,-16.4401 560.311,-18.0395 569.496,-23.3205 570.785,-16.4401"/>
</g>
<!-- Node28&#45;&gt;Node5 -->
<g id="edge48" class="edge"><title>Node28&#45;&gt;Node5</title>
<path fill="none" stroke="midnightblue" d="M949.945,-113.885C892.452,-103.672 787.013,-84.9431 728.301,-74.514"/>
<polygon fill="midnightblue" stroke="midnightblue" points="728.709,-71.0318 718.251,-72.7288 727.485,-77.9239 728.709,-71.0318"/>
</g>
<!-- Node28&#45;&gt;Node7 -->
<g id="edge49" class="edge"><title>Node28&#45;&gt;Node7</title>
<path fill="none" stroke="midnightblue" d="M1000.93,-112.324C1011.17,-104.185 1026.72,-91.8395 1039,-82.0874"/>
<polygon fill="midnightblue" stroke="midnightblue" points="1041.22,-84.7937 1046.88,-75.8339 1036.87,-79.3119 1041.22,-84.7937"/>
</g>
<!-- Node28&#45;&gt;Node12 -->
<g id="edge46" class="edge"><title>Node28&#45;&gt;Node12</title>
<path fill="none" stroke="midnightblue" d="M985.321,-112.04C977.222,-97.5356 959.116,-69.2069 935,-56 883.123,-27.5895 705.223,-16.0193 631.94,-12.3842"/>
<polygon fill="midnightblue" stroke="midnightblue" points="632.07,-8.88656 621.914,-11.9044 631.736,-15.8786 632.07,-8.88656"/>
</g>
<!-- Node28&#45;&gt;Node17 -->
<g id="edge47" class="edge"><title>Node28&#45;&gt;Node17</title>
<path fill="none" stroke="midnightblue" d="M970.669,-112.444C950.68,-103.596 919.257,-89.6875 896.436,-79.5865"/>
<polygon fill="midnightblue" stroke="midnightblue" points="897.802,-76.3635 887.241,-75.5164 894.968,-82.7645 897.802,-76.3635"/>
</g>
<!-- Node28&#45;&gt;Node21 -->
<g id="edge44" class="edge"><title>Node28&#45;&gt;Node21</title>
<path fill="none" stroke="midnightblue" d="M990.549,-112.368C991.679,-94.617 994.285,-53.6664 995.817,-29.5974"/>
<polygon fill="midnightblue" stroke="midnightblue" points="999.311,-29.7935 996.453,-19.5914 992.325,-29.3489 999.311,-29.7935"/>
</g>
</g>
</svg>
        <g id="navigator" transform="translate(0 0)" fill="#404254">
                <rect fill="#f2f5e9" fill-opacity="0.5" stroke="#606060" stroke-width=".5" x="0" y="0" width="60" height="60"/>
                <use id="zoomplus" xlink:href="#zoomPlus" x="17" y="9" onmousedown="handleZoom(evt,'in')"/>
                <use id="zoomminus" xlink:href="#zoomMin" x="42" y="9" onmousedown="handleZoom(evt,'out')"/>
                <use id="reset" xlink:href="#resetDef" x="30" y="36" onmousedown="handleReset()"/>
                <g id="arrowUp" xlink:href="#dirArrow" transform="translate(30 24)" onmousedown="handlePan(0,-1)">
                  <use xlink:href="#rim" fill="#404040">
                        <set attributeName="fill" to="#808080" begin="arrowUp.mouseover" end="arrowUp.mouseout"/>
                  </use>
                  <path fill="none" stroke="white" stroke-width="1.5" d="M0,-3.0v7 M-2.5,-0.5L0,-3.0L2.5,-0.5"/>
                </g>
                <g id="arrowRight" xlink:href="#dirArrow" transform="rotate(90) translate(36 -43)" onmousedown="handlePan(1,0)">
                  <use xlink:href="#rim" fill="#404040">
                        <set attributeName="fill" to="#808080" begin="arrowRight.mouseover" end="arrowRight.mouseout"/>
                  </use>
                  <path fill="none" stroke="white" stroke-width="1.5" d="M0,-3.0v7 M-2.5,-0.5L0,-3.0L2.5,-0.5"/>
                </g>
                <g id="arrowDown" xlink:href="#dirArrow" transform="rotate(180) translate(-30 -48)" onmousedown="handlePan(0,1)">
                  <use xlink:href="#rim" fill="#404040">
                        <set attributeName="fill" to="#808080" begin="arrowDown.mouseover" end="arrowDown.mouseout"/>
                  </use>
                  <path fill="none" stroke="white" stroke-width="1.5" d="M0,-3.0v7 M-2.5,-0.5L0,-3.0L2.5,-0.5"/>
                </g>
                <g id="arrowLeft" xlink:href="#dirArrow" transform="rotate(270) translate(-36 17)" onmousedown="handlePan(-1,0)">
                  <use xlink:href="#rim" fill="#404040">
                        <set attributeName="fill" to="#808080" begin="arrowLeft.mouseover" end="arrowLeft.mouseout"/>
                  </use>
                  <path fill="none" stroke="white" stroke-width="1.5" d="M0,-3.0v7 M-2.5,-0.5L0,-3.0L2.5,-0.5"/>
                </g>
        </g>
        <svg viewBox="0 0 15 15" width="100%" height="30px" preserveAspectRatio="xMaxYMin meet">
         <g id="arrow_out" transform="scale(0.3 0.3)">
          <a xlink:href="_i_controls_8h__incl_org.svg" target="_base">
           <rect id="button" ry="5" rx="5" y="6" x="6" height="38" width="38"
                fill="#f2f5e9" fill-opacity="0.5" stroke="#606060" stroke-width="1.0"/>
           <path id="arrow"
             d="M 11.500037,31.436501 C 11.940474,20.09759 22.043105,11.32322 32.158766,21.979434 L 37.068811,17.246167 C 37.068811,17.246167 37.088388,32 37.088388,32 L 22.160133,31.978069 C 22.160133,31.978069 26.997745,27.140456 26.997745,27.140456 C 18.528582,18.264221 13.291696,25.230495 11.500037,31.436501 z"
             style="fill:#404040;"/>
          </a>
         </g>
        </svg>
</svg>
