<?xml version="1.0" encoding="UTF-8" standalone="no"?>
<!DOCTYPE svg PUBLIC "-//W3C//DTD SVG 1.1//EN"
 "http://www.w3.org/Graphics/SVG/1.1/DTD/svg11.dtd">
<!-- Generated by graphviz version 2.36.0 (20140111.2315)
 -->
<!-- Title: IGraphics.h Pages: 1 -->
<svg width="938pt" height="364pt"
 viewBox="0.00 0.00 938.00 364.00" xmlns="http://www.w3.org/2000/svg" xmlns:xlink="http://www.w3.org/1999/xlink">
<g id="graph0" class="graph" transform="scale(1 1) rotate(0) translate(4 360)">
<title>IGraphics.h</title>
<polygon fill="white" stroke="none" points="-4,4 -4,-360 934,-360 934,4 -4,4"/>
<!-- Node1 -->
<g id="node1" class="node"><title>Node1</title>
<polygon fill="#bfbfbf" stroke="black" points="690.5,-336.5 690.5,-355.5 757.5,-355.5 757.5,-336.5 690.5,-336.5"/>
<text text-anchor="middle" x="724" y="-343.5" font-family="Helvetica,sans-Serif" font-size="10.00">IGraphics.h</text>
</g>
<!-- Node2 -->
<g id="node2" class="node"><title>Node2</title>
<g id="a_node2"><a xlink:href="_i_graphics_constants_8h_source.html" target="_top" xlink:title="IGraphicsConstants.h">
<polygon fill="white" stroke="black" points="326,-224.5 326,-243.5 438,-243.5 438,-224.5 326,-224.5"/>
<text text-anchor="middle" x="382" y="-231.5" font-family="Helvetica,sans-Serif" font-size="10.00">IGraphicsConstants.h</text>
</a>
</g>
</g>
<!-- Node1&#45;&gt;Node2 -->
<g id="edge1" class="edge"><title>Node1&#45;&gt;Node2</title>
<path fill="none" stroke="midnightblue" d="M697.448,-336.46C636.717,-316.926 487.593,-268.963 418.382,-246.702"/>
<polygon fill="midnightblue" stroke="midnightblue" points="419.362,-243.34 408.77,-243.61 417.218,-250.004 419.362,-243.34"/>
</g>
<!-- Node18 -->
<g id="node18" class="node"><title>Node18</title>
<g id="a_node18"><a xlink:href="_i_graphics_structs_8h_source.html" target="_top" xlink:title="IGraphicsStructs.h">
<polygon fill="white" stroke="black" points="617,-280.5 617,-299.5 715,-299.5 715,-280.5 617,-280.5"/>
<text text-anchor="middle" x="666" y="-287.5" font-family="Helvetica,sans-Serif" font-size="10.00">IGraphicsStructs.h</text>
</a>
</g>
</g>
<!-- Node1&#45;&gt;Node18 -->
<g id="edge24" class="edge"><title>Node1&#45;&gt;Node18</title>
<path fill="none" stroke="midnightblue" d="M714.681,-336.324C706.107,-328.341 693.188,-316.313 682.812,-306.653"/>
<polygon fill="midnightblue" stroke="midnightblue" points="685.192,-304.086 675.488,-299.834 680.422,-309.21 685.192,-304.086"/>
</g>
<!-- Node24 -->
<g id="node24" class="node"><title>Node24</title>
<g id="a_node24"><a xlink:href="_i_graphics_utilites_8h_source.html" target="_top" xlink:title="IGraphicsUtilites.h">
<polygon fill="white" stroke="black" points="733,-280.5 733,-299.5 831,-299.5 831,-280.5 733,-280.5"/>
<text text-anchor="middle" x="782" y="-287.5" font-family="Helvetica,sans-Serif" font-size="10.00">IGraphicsUtilites.h</text>
</a>
</g>
</g>
<!-- Node1&#45;&gt;Node24 -->
<g id="edge35" class="edge"><title>Node1&#45;&gt;Node24</title>
<path fill="none" stroke="midnightblue" d="M733.319,-336.324C741.893,-328.341 754.812,-316.313 765.188,-306.653"/>
<polygon fill="midnightblue" stroke="midnightblue" points="767.578,-309.21 772.512,-299.834 762.808,-304.086 767.578,-309.21"/>
</g>
<!-- Node25 -->
<g id="node25" class="node"><title>Node25</title>
<g id="a_node25"><a xlink:href="_i_popup_menu_8h.html" target="_top" xlink:title="A class for setting the contents of a pop up menu. ">
<polygon fill="white" stroke="black" points="834,-112.5 834,-131.5 914,-131.5 914,-112.5 834,-112.5"/>
<text text-anchor="middle" x="874" y="-119.5" font-family="Helvetica,sans-Serif" font-size="10.00">IPopupMenu.h</text>
</a>
</g>
</g>
<!-- Node1&#45;&gt;Node25 -->
<g id="edge36" class="edge"><title>Node1&#45;&gt;Node25</title>
<path fill="none" stroke="midnightblue" d="M757.647,-337.88C782.287,-331.324 815.406,-319.576 839,-300 861.588,-281.259 865.909,-272.213 874,-244 884.049,-208.961 880.475,-165.831 877.129,-141.676"/>
<polygon fill="midnightblue" stroke="midnightblue" points="880.581,-141.092 875.612,-131.735 873.661,-142.149 880.581,-141.092"/>
</g>
<!-- Node3 -->
<g id="node3" class="node"><title>Node3</title>
<g id="a_node3"><a xlink:href="_i_plug_platform_8h.html" target="_top" xlink:title="Include to get consistently named preprocessor macros for different platforms and logging functionali...">
<polygon fill="white" stroke="black" points="340,-168.5 340,-187.5 424,-187.5 424,-168.5 340,-168.5"/>
<text text-anchor="middle" x="382" y="-175.5" font-family="Helvetica,sans-Serif" font-size="10.00">IPlugPlatform.h</text>
</a>
</g>
</g>
<!-- Node2&#45;&gt;Node3 -->
<g id="edge2" class="edge"><title>Node2&#45;&gt;Node3</title>
<path fill="none" stroke="midnightblue" d="M382,-224.083C382,-217.006 382,-206.861 382,-197.986"/>
<polygon fill="midnightblue" stroke="midnightblue" points="385.5,-197.751 382,-187.751 378.5,-197.751 385.5,-197.751"/>
</g>
<!-- Node4 -->
<g id="node4" class="node"><title>Node4</title>
<polygon fill="white" stroke="#bfbfbf" points="589,-0.5 589,-19.5 635,-19.5 635,-0.5 589,-0.5"/>
<text text-anchor="middle" x="612" y="-7.5" font-family="Helvetica,sans-Serif" font-size="10.00">cstring</text>
</g>
<!-- Node3&#45;&gt;Node4 -->
<g id="edge3" class="edge"><title>Node3&#45;&gt;Node4</title>
<path fill="none" stroke="midnightblue" d="M424.06,-174.464C483.77,-168.338 591.263,-147.418 640,-76 650.439,-60.7033 638.881,-40.888 627.608,-27.1768"/>
<polygon fill="midnightblue" stroke="midnightblue" points="630.078,-24.6862 620.826,-19.5234 624.839,-29.3289 630.078,-24.6862"/>
</g>
<!-- Node5 -->
<g id="node5" class="node"><title>Node5</title>
<polygon fill="white" stroke="#bfbfbf" points="-0.5,-0.5 -0.5,-19.5 44.5,-19.5 44.5,-0.5 -0.5,-0.5"/>
<text text-anchor="middle" x="22" y="-7.5" font-family="Helvetica,sans-Serif" font-size="10.00">cstdlib</text>
</g>
<!-- Node3&#45;&gt;Node5 -->
<g id="edge4" class="edge"><title>Node3&#45;&gt;Node5</title>
<path fill="none" stroke="midnightblue" d="M343.262,-168.47C286.113,-154.789 177.115,-124.451 95,-76 72.5202,-62.736 50.7007,-41.946 36.8632,-27.462"/>
<polygon fill="midnightblue" stroke="midnightblue" points="39.0713,-24.6977 29.6936,-19.7673 33.9499,-29.4696 39.0713,-24.6977"/>
</g>
<!-- Node6 -->
<g id="node6" class="node"><title>Node6</title>
<g id="a_node6"><a xlink:href="_i_plug_logger_8h.html" target="_top" xlink:title="IPlug logging a.k.a tracing functionailty. ">
<polygon fill="white" stroke="black" points="343.5,-112.5 343.5,-131.5 420.5,-131.5 420.5,-112.5 343.5,-112.5"/>
<text text-anchor="middle" x="382" y="-119.5" font-family="Helvetica,sans-Serif" font-size="10.00">IPlugLogger.h</text>
</a>
</g>
</g>
<!-- Node3&#45;&gt;Node6 -->
<g id="edge5" class="edge"><title>Node3&#45;&gt;Node6</title>
<path fill="none" stroke="midnightblue" d="M382,-168.083C382,-161.006 382,-150.861 382,-141.986"/>
<polygon fill="midnightblue" stroke="midnightblue" points="385.5,-141.751 382,-131.751 378.5,-141.751 385.5,-141.751"/>
</g>
<!-- Node6&#45;&gt;Node4 -->
<g id="edge10" class="edge"><title>Node6&#45;&gt;Node4</title>
<path fill="none" stroke="midnightblue" d="M408.77,-112.464C433.461,-104.241 470.89,-90.884 502,-76 534.041,-60.6708 569.035,-39.0877 590.753,-25.0716"/>
<polygon fill="midnightblue" stroke="midnightblue" points="592.732,-27.9595 599.2,-19.5682 588.911,-22.0944 592.732,-27.9595"/>
</g>
<!-- Node7 -->
<g id="node7" class="node"><title>Node7</title>
<polygon fill="white" stroke="#bfbfbf" points="479.5,-0.5 479.5,-19.5 522.5,-19.5 522.5,-0.5 479.5,-0.5"/>
<text text-anchor="middle" x="501" y="-7.5" font-family="Helvetica,sans-Serif" font-size="10.00">cstdio</text>
</g>
<!-- Node6&#45;&gt;Node7 -->
<g id="edge6" class="edge"><title>Node6&#45;&gt;Node7</title>
<path fill="none" stroke="midnightblue" d="M419.51,-112.442C440.611,-105.807 465.877,-94.5255 482,-76 493.206,-63.1239 497.813,-43.9458 499.701,-29.7556"/>
<polygon fill="midnightblue" stroke="midnightblue" points="503.198,-29.958 500.707,-19.6603 496.233,-29.264 503.198,-29.958"/>
</g>
<!-- Node8 -->
<g id="node8" class="node"><title>Node8</title>
<polygon fill="white" stroke="#bfbfbf" points="63,-0.5 63,-19.5 109,-19.5 109,-0.5 63,-0.5"/>
<text text-anchor="middle" x="86" y="-7.5" font-family="Helvetica,sans-Serif" font-size="10.00">cctype</text>
</g>
<!-- Node6&#45;&gt;Node8 -->
<g id="edge7" class="edge"><title>Node6&#45;&gt;Node8</title>
<path fill="none" stroke="midnightblue" d="M343.486,-119.005C278.095,-114.902 149.032,-103.482 114,-76 99.671,-64.7592 92.5483,-44.7457 89.0907,-29.886"/>
<polygon fill="midnightblue" stroke="midnightblue" points="92.4633,-28.8964 87.1023,-19.758 85.5944,-30.2449 92.4633,-28.8964"/>
</g>
<!-- Node9 -->
<g id="node9" class="node"><title>Node9</title>
<polygon fill="white" stroke="#bfbfbf" points="229.5,-56.5 229.5,-75.5 278.5,-75.5 278.5,-56.5 229.5,-56.5"/>
<text text-anchor="middle" x="254" y="-63.5" font-family="Helvetica,sans-Serif" font-size="10.00">cstdarg</text>
</g>
<!-- Node6&#45;&gt;Node9 -->
<g id="edge8" class="edge"><title>Node6&#45;&gt;Node9</title>
<path fill="none" stroke="midnightblue" d="M361.718,-112.444C340.653,-103.557 307.483,-89.5632 283.514,-79.4514"/>
<polygon fill="midnightblue" stroke="midnightblue" points="284.761,-76.1787 274.187,-75.5164 282.04,-82.6283 284.761,-76.1787"/>
</g>
<!-- Node10 -->
<g id="node10" class="node"><title>Node10</title>
<polygon fill="white" stroke="#bfbfbf" points="297,-56.5 297,-75.5 343,-75.5 343,-56.5 297,-56.5"/>
<text text-anchor="middle" x="320" y="-63.5" font-family="Helvetica,sans-Serif" font-size="10.00">cstdint</text>
</g>
<!-- Node6&#45;&gt;Node10 -->
<g id="edge9" class="edge"><title>Node6&#45;&gt;Node10</title>
<path fill="none" stroke="midnightblue" d="M372.039,-112.324C362.873,-104.341 349.063,-92.3128 337.972,-82.6529"/>
<polygon fill="midnightblue" stroke="midnightblue" points="339.982,-79.7624 330.143,-75.8339 335.385,-85.041 339.982,-79.7624"/>
</g>
<!-- Node11 -->
<g id="node11" class="node"><title>Node11</title>
<polygon fill="white" stroke="#bfbfbf" points="361.5,-56.5 361.5,-75.5 402.5,-75.5 402.5,-56.5 361.5,-56.5"/>
<text text-anchor="middle" x="382" y="-63.5" font-family="Helvetica,sans-Serif" font-size="10.00">ctime</text>
</g>
<!-- Node6&#45;&gt;Node11 -->
<g id="edge11" class="edge"><title>Node6&#45;&gt;Node11</title>
<path fill="none" stroke="midnightblue" d="M382,-112.083C382,-105.006 382,-94.8611 382,-85.9865"/>
<polygon fill="midnightblue" stroke="midnightblue" points="385.5,-85.751 382,-75.7511 378.5,-85.7511 385.5,-85.751"/>
</g>
<!-- Node12 -->
<g id="node12" class="node"><title>Node12</title>
<polygon fill="white" stroke="#bfbfbf" points="687.5,-56.5 687.5,-75.5 736.5,-75.5 736.5,-56.5 687.5,-56.5"/>
<text text-anchor="middle" x="712" y="-63.5" font-family="Helvetica,sans-Serif" font-size="10.00">cassert</text>
</g>
<!-- Node6&#45;&gt;Node12 -->
<g id="edge12" class="edge"><title>Node6&#45;&gt;Node12</title>
<path fill="none" stroke="midnightblue" d="M420.501,-114.7C485.272,-104.101 615.039,-82.8664 677.22,-72.6913"/>
<polygon fill="midnightblue" stroke="midnightblue" points="678.004,-76.1097 687.307,-71.0407 676.873,-69.2016 678.004,-76.1097"/>
</g>
<!-- Node13 -->
<g id="node13" class="node"><title>Node13</title>
<polygon fill="white" stroke="#bfbfbf" points="567,-56.5 567,-75.5 631,-75.5 631,-56.5 567,-56.5"/>
<text text-anchor="middle" x="599" y="-63.5" font-family="Helvetica,sans-Serif" font-size="10.00">wdlstring.h</text>
</g>
<!-- Node6&#45;&gt;Node13 -->
<g id="edge13" class="edge"><title>Node6&#45;&gt;Node13</title>
<path fill="none" stroke="midnightblue" d="M416.384,-112.444C454.504,-102.958 516.003,-87.6537 556.956,-77.4625"/>
<polygon fill="midnightblue" stroke="midnightblue" points="558.04,-80.7996 566.899,-74.9883 556.35,-74.0068 558.04,-80.7996"/>
</g>
<!-- Node14 -->
<g id="node14" class="node"><title>Node14</title>
<polygon fill="white" stroke="#bfbfbf" points="421,-56.5 421,-75.5 473,-75.5 473,-56.5 421,-56.5"/>
<text text-anchor="middle" x="447" y="-63.5" font-family="Helvetica,sans-Serif" font-size="10.00">mutex.h</text>
</g>
<!-- Node6&#45;&gt;Node14 -->
<g id="edge14" class="edge"><title>Node6&#45;&gt;Node14</title>
<path fill="none" stroke="midnightblue" d="M392.443,-112.324C402.146,-104.263 416.815,-92.0765 428.5,-82.3695"/>
<polygon fill="midnightblue" stroke="midnightblue" points="430.911,-84.9163 436.367,-75.8339 426.438,-79.532 430.911,-84.9163"/>
</g>
<!-- Node15 -->
<g id="node15" class="node"><title>Node15</title>
<g id="a_node15"><a xlink:href="_i_plug_constants_8h.html" target="_top" xlink:title="Constant definitions, magic numbers. ">
<polygon fill="white" stroke="black" points="127,-0.5 127,-19.5 219,-19.5 219,-0.5 127,-0.5"/>
<text text-anchor="middle" x="173" y="-7.5" font-family="Helvetica,sans-Serif" font-size="10.00">IPlugConstants.h</text>
</a>
</g>
</g>
<!-- Node6&#45;&gt;Node15 -->
<g id="edge15" class="edge"><title>Node6&#45;&gt;Node15</title>
<path fill="none" stroke="midnightblue" d="M343.364,-120.163C277.969,-117.84 149.842,-109.075 122,-76 107.581,-58.8713 129.707,-38.4648 149.172,-25.1458"/>
<polygon fill="midnightblue" stroke="midnightblue" points="151.3,-27.938 157.788,-19.5623 147.493,-22.0637 151.3,-27.938"/>
</g>
<!-- Node16 -->
<g id="node16" class="node"><title>Node16</title>
<g id="a_node16"><a xlink:href="_i_plug_utilities_8h.html" target="_top" xlink:title="Utility functions and macros. ">
<polygon fill="white" stroke="black" points="131,-56.5 131,-75.5 211,-75.5 211,-56.5 131,-56.5"/>
<text text-anchor="middle" x="171" y="-63.5" font-family="Helvetica,sans-Serif" font-size="10.00">IPlugUtilities.h</text>
</a>
</g>
</g>
<!-- Node6&#45;&gt;Node16 -->
<g id="edge16" class="edge"><title>Node6&#45;&gt;Node16</title>
<path fill="none" stroke="midnightblue" d="M348.566,-112.444C312.144,-103.122 253.77,-88.1828 213.971,-77.9972"/>
<polygon fill="midnightblue" stroke="midnightblue" points="214.833,-74.6051 204.277,-75.5164 213.097,-81.3866 214.833,-74.6051"/>
</g>
<!-- Node16&#45;&gt;Node3 -->
<g id="edge23" class="edge"><title>Node16&#45;&gt;Node3</title>
<path fill="none" stroke="midnightblue" d="M187.48,-75.5914C224.154,-94.7108 312.723,-140.884 356.555,-163.735"/>
<polygon fill="midnightblue" stroke="midnightblue" points="354.958,-166.849 365.443,-168.368 358.194,-160.642 354.958,-166.849"/>
</g>
<!-- Node16&#45;&gt;Node4 -->
<g id="edge20" class="edge"><title>Node16&#45;&gt;Node4</title>
<path fill="none" stroke="midnightblue" d="M211.075,-57.4122C214.091,-56.9107 217.091,-56.4336 220,-56 255.158,-50.7593 490.998,-24.4346 578.986,-14.6605"/>
<polygon fill="midnightblue" stroke="midnightblue" points="579.407,-18.1354 588.96,-13.5531 578.634,-11.1781 579.407,-18.1354"/>
</g>
<!-- Node16&#45;&gt;Node5 -->
<g id="edge19" class="edge"><title>Node16&#45;&gt;Node5</title>
<path fill="none" stroke="midnightblue" d="M147.391,-56.4435C122.25,-47.3322 82.2985,-32.8531 54.2637,-22.6929"/>
<polygon fill="midnightblue" stroke="midnightblue" points="55.1179,-19.2797 44.5237,-19.1629 52.7327,-25.8609 55.1179,-19.2797"/>
</g>
<!-- Node16&#45;&gt;Node7 -->
<g id="edge18" class="edge"><title>Node16&#45;&gt;Node7</title>
<path fill="none" stroke="midnightblue" d="M211.098,-57.558C214.109,-57.0228 217.102,-56.4982 220,-56 310.424,-40.4574 417.528,-23.7843 469.528,-15.7998"/>
<polygon fill="midnightblue" stroke="midnightblue" points="470.114,-19.251 479.468,-14.2764 469.053,-12.3318 470.114,-19.251"/>
</g>
<!-- Node16&#45;&gt;Node8 -->
<g id="edge21" class="edge"><title>Node16&#45;&gt;Node8</title>
<path fill="none" stroke="midnightblue" d="M157.343,-56.324C144.084,-47.9002 123.732,-34.9709 108.154,-25.0741"/>
<polygon fill="midnightblue" stroke="midnightblue" points="109.94,-22.0626 99.6228,-19.6545 106.187,-27.9711 109.94,-22.0626"/>
</g>
<!-- Node16&#45;&gt;Node15 -->
<g id="edge22" class="edge"><title>Node16&#45;&gt;Node15</title>
<path fill="none" stroke="midnightblue" d="M171.33,-56.083C171.592,-49.0059 171.968,-38.8611 172.297,-29.9865"/>
<polygon fill="midnightblue" stroke="midnightblue" points="175.803,-29.8738 172.676,-19.7511 168.808,-29.6147 175.803,-29.8738"/>
</g>
<!-- Node17 -->
<g id="node17" class="node"><title>Node17</title>
<polygon fill="white" stroke="#bfbfbf" points="886,-0.5 886,-19.5 930,-19.5 930,-0.5 886,-0.5"/>
<text text-anchor="middle" x="908" y="-7.5" font-family="Helvetica,sans-Serif" font-size="10.00">cmath</text>
</g>
<!-- Node16&#45;&gt;Node17 -->
<g id="edge17" class="edge"><title>Node16&#45;&gt;Node17</title>
<path fill="none" stroke="midnightblue" d="M211.053,-57.2512C214.074,-56.787 217.082,-56.3622 220,-56 471.319,-24.8081 777.144,-14.4375 875.732,-11.7773"/>
<polygon fill="midnightblue" stroke="midnightblue" points="876.027,-15.2709 885.932,-11.5099 875.843,-8.27326 876.027,-15.2709"/>
</g>
<!-- Node18&#45;&gt;Node2 -->
<g id="edge34" class="edge"><title>Node18&#45;&gt;Node2</title>
<path fill="none" stroke="midnightblue" d="M620.999,-280.444C571.041,-270.944 490.399,-255.611 436.801,-245.42"/>
<polygon fill="midnightblue" stroke="midnightblue" points="437.268,-241.946 426.79,-243.516 435.96,-248.823 437.268,-241.946"/>
</g>
<!-- Node18&#45;&gt;Node3 -->
<g id="edge33" class="edge"><title>Node18&#45;&gt;Node3</title>
<path fill="none" stroke="midnightblue" d="M616.96,-280.455C580.95,-273.233 531.318,-261.277 490,-244 457.463,-230.395 423.093,-208.161 402.091,-193.553"/>
<polygon fill="midnightblue" stroke="midnightblue" points="403.882,-190.533 393.695,-187.622 399.843,-196.25 403.882,-190.533"/>
</g>
<!-- Node18&#45;&gt;Node12 -->
<g id="edge26" class="edge"><title>Node18&#45;&gt;Node12</title>
<path fill="none" stroke="midnightblue" d="M667.803,-280.297C674.572,-247.633 698.559,-131.866 708.072,-85.9573"/>
<polygon fill="midnightblue" stroke="midnightblue" points="711.557,-86.3859 710.159,-75.8837 704.703,-84.9656 711.557,-86.3859"/>
</g>
<!-- Node18&#45;&gt;Node13 -->
<g id="edge29" class="edge"><title>Node18&#45;&gt;Node13</title>
<path fill="none" stroke="midnightblue" d="M616.754,-287.631C584.43,-283.851 544.323,-273.064 523,-244 484.338,-191.303 549.002,-115.907 581.761,-83.1834"/>
<polygon fill="midnightblue" stroke="midnightblue" points="584.597,-85.3069 589.32,-75.8229 579.713,-80.2918 584.597,-85.3069"/>
</g>
<!-- Node18&#45;&gt;Node17 -->
<g id="edge25" class="edge"><title>Node18&#45;&gt;Node17</title>
<path fill="none" stroke="midnightblue" d="M715.018,-280.807C772.557,-270.818 861.74,-254.031 874,-244 922.433,-204.373 927.609,-174.408 923,-112 920.862,-83.0473 915.321,-49.8041 911.605,-29.6087"/>
<polygon fill="midnightblue" stroke="midnightblue" points="915.01,-28.7758 909.715,-19.5988 908.132,-30.0745 915.01,-28.7758"/>
</g>
<!-- Node19 -->
<g id="node19" class="node"><title>Node19</title>
<polygon fill="white" stroke="#bfbfbf" points="532.5,-224.5 532.5,-243.5 591.5,-243.5 591.5,-224.5 532.5,-224.5"/>
<text text-anchor="middle" x="562" y="-231.5" font-family="Helvetica,sans-Serif" font-size="10.00">functional</text>
</g>
<!-- Node18&#45;&gt;Node19 -->
<g id="edge27" class="edge"><title>Node18&#45;&gt;Node19</title>
<path fill="none" stroke="midnightblue" d="M649.291,-280.324C632.688,-271.703 606.998,-258.364 587.78,-248.386"/>
<polygon fill="midnightblue" stroke="midnightblue" points="589.156,-245.156 578.668,-243.655 585.93,-251.369 589.156,-245.156"/>
</g>
<!-- Node20 -->
<g id="node20" class="node"><title>Node20</title>
<polygon fill="white" stroke="#bfbfbf" points="610,-224.5 610,-243.5 666,-243.5 666,-224.5 610,-224.5"/>
<text text-anchor="middle" x="638" y="-231.5" font-family="Helvetica,sans-Serif" font-size="10.00">algorithm</text>
</g>
<!-- Node18&#45;&gt;Node20 -->
<g id="edge28" class="edge"><title>Node18&#45;&gt;Node20</title>
<path fill="none" stroke="midnightblue" d="M661.376,-280.083C657.544,-272.691 651.976,-261.953 647.235,-252.811"/>
<polygon fill="midnightblue" stroke="midnightblue" points="650.248,-251.018 642.538,-243.751 644.034,-254.24 650.248,-251.018"/>
</g>
<!-- Node21 -->
<g id="node21" class="node"><title>Node21</title>
<polygon fill="white" stroke="#bfbfbf" points="754.5,-56.5 754.5,-75.5 803.5,-75.5 803.5,-56.5 754.5,-56.5"/>
<text text-anchor="middle" x="779" y="-63.5" font-family="Helvetica,sans-Serif" font-size="10.00">ptrlist.h</text>
</g>
<!-- Node18&#45;&gt;Node21 -->
<g id="edge30" class="edge"><title>Node18&#45;&gt;Node21</title>
<path fill="none" stroke="midnightblue" d="M715.298,-280.698C769.171,-271.127 849.067,-255.268 858,-244 879.095,-217.39 817.829,-122.729 790.952,-83.8526"/>
<polygon fill="midnightblue" stroke="midnightblue" points="793.81,-81.8318 785.211,-75.6421 788.073,-85.8431 793.81,-81.8318"/>
</g>
<!-- Node22 -->
<g id="node22" class="node"><title>Node22</title>
<polygon fill="white" stroke="#bfbfbf" points="722.5,-224.5 722.5,-243.5 769.5,-243.5 769.5,-224.5 722.5,-224.5"/>
<text text-anchor="middle" x="746" y="-231.5" font-family="Helvetica,sans-Serif" font-size="10.00">swell.h</text>
</g>
<!-- Node18&#45;&gt;Node22 -->
<g id="edge31" class="edge"><title>Node18&#45;&gt;Node22</title>
<path fill="none" stroke="midnightblue" d="M678.853,-280.324C691.216,-271.979 710.13,-259.212 724.737,-249.352"/>
<polygon fill="midnightblue" stroke="midnightblue" points="726.848,-252.15 733.179,-243.655 722.932,-246.348 726.848,-252.15"/>
</g>
<!-- Node23 -->
<g id="node23" class="node"><title>Node23</title>
<polygon fill="white" stroke="#bfbfbf" points="788,-224.5 788,-243.5 850,-243.5 850,-224.5 788,-224.5"/>
<text text-anchor="middle" x="819" y="-231.5" font-family="Helvetica,sans-Serif" font-size="10.00">nanosvg.h</text>
</g>
<!-- Node18&#45;&gt;Node23 -->
<g id="edge32" class="edge"><title>Node18&#45;&gt;Node23</title>
<path fill="none" stroke="midnightblue" d="M690.243,-280.444C715.871,-271.399 756.485,-257.064 785.238,-246.916"/>
<polygon fill="midnightblue" stroke="midnightblue" points="786.605,-250.145 794.87,-243.516 784.275,-243.544 786.605,-250.145"/>
</g>
<!-- Node25&#45;&gt;Node4 -->
<g id="edge38" class="edge"><title>Node25&#45;&gt;Node4</title>
<path fill="none" stroke="midnightblue" d="M872.86,-112.289C870.523,-98.1429 863.814,-70.3175 846,-56 815.556,-31.5307 702.709,-18.6758 645.587,-13.6146"/>
<polygon fill="midnightblue" stroke="midnightblue" points="645.536,-10.0975 635.274,-12.7321 644.94,-17.072 645.536,-10.0975"/>
</g>
<!-- Node25&#45;&gt;Node7 -->
<g id="edge39" class="edge"><title>Node25&#45;&gt;Node7</title>
<path fill="none" stroke="midnightblue" d="M868.41,-112.061C858.826,-97.587 837.778,-69.3009 812,-56 799.643,-49.6237 609.659,-24.8551 532.855,-15.0393"/>
<polygon fill="midnightblue" stroke="midnightblue" points="533.161,-11.5501 522.799,-13.7569 532.276,-18.4939 533.161,-11.5501"/>
</g>
<!-- Node25&#45;&gt;Node12 -->
<g id="edge40" class="edge"><title>Node25&#45;&gt;Node12</title>
<path fill="none" stroke="midnightblue" d="M848.331,-112.444C820.837,-103.279 777.052,-88.6839 746.546,-78.5153"/>
<polygon fill="midnightblue" stroke="midnightblue" points="747.346,-75.0927 736.752,-75.2508 745.132,-81.7335 747.346,-75.0927"/>
</g>
<!-- Node25&#45;&gt;Node13 -->
<g id="edge41" class="edge"><title>Node25&#45;&gt;Node13</title>
<path fill="none" stroke="midnightblue" d="M833.718,-113.09C782.249,-102.983 693.57,-85.5701 641.197,-75.2859"/>
<polygon fill="midnightblue" stroke="midnightblue" points="641.715,-71.8209 631.228,-73.3284 640.366,-78.6897 641.715,-71.8209"/>
</g>
<!-- Node25&#45;&gt;Node17 -->
<g id="edge37" class="edge"><title>Node25&#45;&gt;Node17</title>
<path fill="none" stroke="midnightblue" d="M876.668,-112.368C882.18,-94.5366 894.927,-53.2953 902.352,-29.2717"/>
<polygon fill="midnightblue" stroke="midnightblue" points="905.735,-30.179 905.344,-19.5914 899.047,-28.1119 905.735,-30.179"/>
</g>
<!-- Node25&#45;&gt;Node21 -->
<g id="edge42" class="edge"><title>Node25&#45;&gt;Node21</title>
<path fill="none" stroke="midnightblue" d="M858.737,-112.324C843.779,-103.822 820.745,-90.7288 803.273,-80.7975"/>
<polygon fill="midnightblue" stroke="midnightblue" points="804.649,-77.5534 794.226,-75.6545 801.19,-83.639 804.649,-77.5534"/>
</g>
</g>
</svg>
