<?xml version="1.0" encoding="UTF-8" standalone="no"?>
<!DOCTYPE svg PUBLIC "-//W3C//DTD SVG 1.1//EN"
 "http://www.w3.org/Graphics/SVG/1.1/DTD/svg11.dtd">
<!-- Generated by graphviz version 2.36.0 (20140111.2315)
 -->
<!-- Title: IPlugAAX.h Pages: 1 -->
<!--zoomable 476 -->
<svg id="main" version="1.1" xmlns="http://www.w3.org/2000/svg" xmlns:xlink="http://www.w3.org/1999/xlink" xml:space="preserve" onload="init(evt)">
<style type="text/css"><![CDATA[
.edge:hover path { stroke: red; }
.edge:hover polygon { stroke: red; fill: red; }
]]></style>
<script type="text/javascript"><![CDATA[
var edges = document.getElementsByTagName('g');
if (edges && edges.length) {
  for (var i=0;i<edges.length;i++) {
    if (edges[i].id.substr(0,4)=='edge') {
      edges[i].setAttribute('class','edge');
    }
  }
}
]]></script>
        <defs>
                <circle id="rim" cx="0" cy="0" r="7"/>
                <circle id="rim2" cx="0" cy="0" r="3.5"/>
                <g id="zoomPlus">
                        <use xlink:href="#rim" fill="#404040">
                                <set attributeName="fill" to="#808080" begin="zoomplus.mouseover" end="zoomplus.mouseout"/>
                        </use>
                        <path d="M-4,0h8M0,-4v8" fill="none" stroke="white" stroke-width="1.5" pointer-events="none"/>
                </g>
                <g id="zoomMin">
                        <use xlink:href="#rim" fill="#404040">
                                <set attributeName="fill" to="#808080" begin="zoomminus.mouseover" end="zoomminus.mouseout"/>
                        </use>
                        <path d="M-4,0h8" fill="none" stroke="white" stroke-width="1.5" pointer-events="none"/>
                </g>
                <g id="dirArrow">
                        <path fill="none" stroke="white" stroke-width="1.5" d="M0,-3.0v7 M-2.5,-0.5L0,-3.0L2.5,-0.5"/>
                </g>
               <g id="resetDef">
                       <use xlink:href="#rim2" fill="#404040">
                               <set attributeName="fill" to="#808080" begin="reset.mouseover" end="reset.mouseout"/>
                       </use>
               </g>
        </defs>

<script type="text/javascript">
var viewWidth = 1296;
var viewHeight = 476;
var sectionId = 'dynsection-0';
</script>
<script xlink:href="svgpan.js"/>
<svg id="graph" class="graph">
<g id="viewport">
<title>IPlugAAX.h</title>
<polygon fill="white" stroke="none" points="-4,4 -4,-472 1291.76,-472 1291.76,4 -4,4"/>
<!-- Node1 -->
<g id="node1" class="node"><title>Node1</title>
<polygon fill="#bfbfbf" stroke="black" points="641,-448.5 641,-467.5 709,-467.5 709,-448.5 641,-448.5"/>
<text text-anchor="middle" x="675" y="-455.5" font-family="Helvetica,sans-Serif" font-size="10.00">IPlugAAX.h</text>
</g>
<!-- Node2 -->
<g id="node2" class="node"><title>Node2</title>
<g id="a_node2"><a xlink:href="_i_plug_platform_8h.html" target="_top" xlink:title="Include to get consistently named preprocessor macros for different platforms and logging functionali...">
<polygon fill="white" stroke="black" points="406,-168.5 406,-187.5 490,-187.5 490,-168.5 406,-168.5"/>
<text text-anchor="middle" x="448" y="-175.5" font-family="Helvetica,sans-Serif" font-size="10.00">IPlugPlatform.h</text>
</a>
</g>
</g>
<!-- Node1&#45;&gt;Node2 -->
<g id="edge1" class="edge"><title>Node1&#45;&gt;Node2</title>
<path fill="none" stroke="midnightblue" d="M640.897,-454.437C579.979,-449.304 455.508,-436.131 420,-412 391.945,-392.934 380,-380.921 380,-347 380,-347 380,-347 380,-289 380,-250.548 410.435,-214.313 430.582,-194.538"/>
<polygon fill="midnightblue" stroke="midnightblue" points="433.098,-196.976 437.966,-187.567 428.292,-191.886 433.098,-196.976"/>
</g>
<!-- Node17 -->
<g id="node17" class="node"><title>Node17</title>
<g id="a_node17"><a xlink:href="_i_plug_base__select_8h_source.html" target="_top" xlink:title="IPlugBase_select.h">
<polygon fill="white" stroke="black" points="429.5,-392.5 429.5,-411.5 530.5,-411.5 530.5,-392.5 429.5,-392.5"/>
<text text-anchor="middle" x="480" y="-399.5" font-family="Helvetica,sans-Serif" font-size="10.00">IPlugBase_select.h</text>
</a>
</g>
</g>
<!-- Node1&#45;&gt;Node17 -->
<g id="edge23" class="edge"><title>Node1&#45;&gt;Node17</title>
<path fill="none" stroke="midnightblue" d="M644.102,-448.444C610.726,-439.201 557.406,-424.436 520.651,-414.257"/>
<polygon fill="midnightblue" stroke="midnightblue" points="521.325,-410.812 510.754,-411.516 519.457,-417.558 521.325,-410.812"/>
</g>
<!-- Node32 -->
<g id="node32" class="node"><title>Node32</title>
<polygon fill="white" stroke="#bfbfbf" points="548.5,-392.5 548.5,-411.5 671.5,-411.5 671.5,-392.5 548.5,-392.5"/>
<text text-anchor="middle" x="610" y="-399.5" font-family="Helvetica,sans-Serif" font-size="10.00">IPlugAAX_Parameters.h</text>
</g>
<!-- Node1&#45;&gt;Node32 -->
<g id="edge75" class="edge"><title>Node1&#45;&gt;Node32</title>
<path fill="none" stroke="midnightblue" d="M664.557,-448.324C654.854,-440.263 640.185,-428.077 628.5,-418.369"/>
<polygon fill="midnightblue" stroke="midnightblue" points="630.562,-415.532 620.633,-411.834 626.089,-420.916 630.562,-415.532"/>
</g>
<!-- Node33 -->
<g id="node33" class="node"><title>Node33</title>
<polygon fill="white" stroke="#bfbfbf" points="690,-392.5 690,-411.5 792,-411.5 792,-392.5 690,-392.5"/>
<text text-anchor="middle" x="741" y="-399.5" font-family="Helvetica,sans-Serif" font-size="10.00">AAX_CEffectGUI.h</text>
</g>
<!-- Node1&#45;&gt;Node33 -->
<g id="edge76" class="edge"><title>Node1&#45;&gt;Node33</title>
<path fill="none" stroke="midnightblue" d="M685.604,-448.324C695.456,-440.263 710.351,-428.077 722.215,-418.369"/>
<polygon fill="midnightblue" stroke="midnightblue" points="724.68,-420.875 730.203,-411.834 720.247,-415.457 724.68,-420.875"/>
</g>
<!-- Node34 -->
<g id="node34" class="node"><title>Node34</title>
<polygon fill="white" stroke="#bfbfbf" points="810,-392.5 810,-411.5 978,-411.5 978,-392.5 810,-392.5"/>
<text text-anchor="middle" x="894" y="-399.5" font-family="Helvetica,sans-Serif" font-size="10.00">AAX_Push8ByteStructAlignment.h</text>
</g>
<!-- Node1&#45;&gt;Node34 -->
<g id="edge77" class="edge"><title>Node1&#45;&gt;Node34</title>
<path fill="none" stroke="midnightblue" d="M709.219,-448.562C747.005,-439.245 807.973,-424.212 849.458,-413.983"/>
<polygon fill="midnightblue" stroke="midnightblue" points="850.428,-417.349 859.299,-411.556 848.752,-410.552 850.428,-417.349"/>
</g>
<!-- Node35 -->
<g id="node35" class="node"><title>Node35</title>
<polygon fill="white" stroke="#bfbfbf" points="996.5,-392.5 996.5,-411.5 1133.5,-411.5 1133.5,-392.5 996.5,-392.5"/>
<text text-anchor="middle" x="1065" y="-399.5" font-family="Helvetica,sans-Serif" font-size="10.00">AAX_PopStructAlignment.h</text>
</g>
<!-- Node1&#45;&gt;Node35 -->
<g id="edge78" class="edge"><title>Node1&#45;&gt;Node35</title>
<path fill="none" stroke="midnightblue" d="M709.268,-452.255C772.586,-443.488 909.122,-424.583 993.417,-412.912"/>
<polygon fill="midnightblue" stroke="midnightblue" points="994.004,-416.364 1003.43,-411.525 993.043,-409.43 994.004,-416.364"/>
</g>
<!-- Node3 -->
<g id="node3" class="node"><title>Node3</title>
<polygon fill="white" stroke="#bfbfbf" points="199,-0.5 199,-19.5 245,-19.5 245,-0.5 199,-0.5"/>
<text text-anchor="middle" x="222" y="-7.5" font-family="Helvetica,sans-Serif" font-size="10.00">cstring</text>
</g>
<!-- Node2&#45;&gt;Node3 -->
<g id="edge2" class="edge"><title>Node2&#45;&gt;Node3</title>
<path fill="none" stroke="midnightblue" d="M405.827,-168.521C379.001,-161.711 344.46,-150.215 318,-132 277.849,-104.36 246.315,-54.965 231.405,-28.6458"/>
<polygon fill="midnightblue" stroke="midnightblue" points="234.412,-26.8514 226.521,-19.7821 228.281,-30.2296 234.412,-26.8514"/>
</g>
<!-- Node4 -->
<g id="node4" class="node"><title>Node4</title>
<polygon fill="white" stroke="#bfbfbf" points="392.5,-0.5 392.5,-19.5 437.5,-19.5 437.5,-0.5 392.5,-0.5"/>
<text text-anchor="middle" x="415" y="-7.5" font-family="Helvetica,sans-Serif" font-size="10.00">cstdlib</text>
</g>
<!-- Node2&#45;&gt;Node4 -->
<g id="edge3" class="edge"><title>Node2&#45;&gt;Node4</title>
<path fill="none" stroke="midnightblue" d="M428.414,-168.364C387.475,-149.86 295.284,-105.663 279,-76 255.995,-34.0922 335.079,-18.8955 382.264,-13.6284"/>
<polygon fill="midnightblue" stroke="midnightblue" points="382.772,-17.0948 392.365,-12.5965 382.061,-10.131 382.772,-17.0948"/>
</g>
<!-- Node5 -->
<g id="node5" class="node"><title>Node5</title>
<g id="a_node5"><a xlink:href="_i_plug_logger_8h.html" target="_top" xlink:title="IPlug logging a.k.a tracing functionailty. ">
<polygon fill="white" stroke="black" points="409.5,-112.5 409.5,-131.5 486.5,-131.5 486.5,-112.5 409.5,-112.5"/>
<text text-anchor="middle" x="448" y="-119.5" font-family="Helvetica,sans-Serif" font-size="10.00">IPlugLogger.h</text>
</a>
</g>
</g>
<!-- Node2&#45;&gt;Node5 -->
<g id="edge4" class="edge"><title>Node2&#45;&gt;Node5</title>
<path fill="none" stroke="midnightblue" d="M448,-168.083C448,-161.006 448,-150.861 448,-141.986"/>
<polygon fill="midnightblue" stroke="midnightblue" points="451.5,-141.751 448,-131.751 444.5,-141.751 451.5,-141.751"/>
</g>
<!-- Node5&#45;&gt;Node3 -->
<g id="edge9" class="edge"><title>Node5&#45;&gt;Node3</title>
<path fill="none" stroke="midnightblue" d="M438.538,-112.25C423.277,-98.5449 391.813,-71.9391 361,-56 326.689,-38.2514 284.007,-25.6941 255.058,-18.433"/>
<polygon fill="midnightblue" stroke="midnightblue" points="255.599,-14.9625 245.054,-15.9976 253.943,-21.7638 255.599,-14.9625"/>
</g>
<!-- Node6 -->
<g id="node6" class="node"><title>Node6</title>
<polygon fill="white" stroke="#bfbfbf" points="760.5,-0.5 760.5,-19.5 803.5,-19.5 803.5,-0.5 760.5,-0.5"/>
<text text-anchor="middle" x="782" y="-7.5" font-family="Helvetica,sans-Serif" font-size="10.00">cstdio</text>
</g>
<!-- Node5&#45;&gt;Node6 -->
<g id="edge5" class="edge"><title>Node5&#45;&gt;Node6</title>
<path fill="none" stroke="midnightblue" d="M442.553,-112.197C434.798,-98.4195 422.983,-71.7163 437,-56 481.878,-5.68295 666.498,-31.5498 750.471,-19.4805"/>
<polygon fill="midnightblue" stroke="midnightblue" points="751.174,-22.9109 760.435,-17.7641 749.986,-16.0125 751.174,-22.9109"/>
</g>
<!-- Node7 -->
<g id="node7" class="node"><title>Node7</title>
<polygon fill="white" stroke="#bfbfbf" points="543,-0.5 543,-19.5 589,-19.5 589,-0.5 543,-0.5"/>
<text text-anchor="middle" x="566" y="-7.5" font-family="Helvetica,sans-Serif" font-size="10.00">cctype</text>
</g>
<!-- Node5&#45;&gt;Node7 -->
<g id="edge6" class="edge"><title>Node5&#45;&gt;Node7</title>
<path fill="none" stroke="midnightblue" d="M459.519,-112.457C471.103,-103.703 489.303,-89.4994 504,-76 521.12,-60.2744 539.324,-40.8242 551.545,-27.3185"/>
<polygon fill="midnightblue" stroke="midnightblue" points="554.248,-29.5461 558.318,-19.7639 549.036,-24.8733 554.248,-29.5461"/>
</g>
<!-- Node8 -->
<g id="node8" class="node"><title>Node8</title>
<polygon fill="white" stroke="#bfbfbf" points="446.5,-56.5 446.5,-75.5 495.5,-75.5 495.5,-56.5 446.5,-56.5"/>
<text text-anchor="middle" x="471" y="-63.5" font-family="Helvetica,sans-Serif" font-size="10.00">cstdarg</text>
</g>
<!-- Node5&#45;&gt;Node8 -->
<g id="edge7" class="edge"><title>Node5&#45;&gt;Node8</title>
<path fill="none" stroke="midnightblue" d="M451.798,-112.083C454.913,-104.77 459.423,-94.1814 463.289,-85.1034"/>
<polygon fill="midnightblue" stroke="midnightblue" points="466.574,-86.3229 467.273,-75.7511 460.134,-83.5798 466.574,-86.3229"/>
</g>
<!-- Node9 -->
<g id="node9" class="node"><title>Node9</title>
<polygon fill="white" stroke="#bfbfbf" points="688,-56.5 688,-75.5 734,-75.5 734,-56.5 688,-56.5"/>
<text text-anchor="middle" x="711" y="-63.5" font-family="Helvetica,sans-Serif" font-size="10.00">cstdint</text>
</g>
<!-- Node5&#45;&gt;Node9 -->
<g id="edge8" class="edge"><title>Node5&#45;&gt;Node9</title>
<path fill="none" stroke="midnightblue" d="M486.627,-114.472C530.689,-106.805 605.079,-93.1964 678.155,-76.0464"/>
<polygon fill="midnightblue" stroke="midnightblue" points="679.064,-79.428 687.987,-73.7152 677.449,-72.6168 679.064,-79.428"/>
</g>
<!-- Node10 -->
<g id="node10" class="node"><title>Node10</title>
<polygon fill="white" stroke="#bfbfbf" points="896.5,-56.5 896.5,-75.5 937.5,-75.5 937.5,-56.5 896.5,-56.5"/>
<text text-anchor="middle" x="917" y="-63.5" font-family="Helvetica,sans-Serif" font-size="10.00">ctime</text>
</g>
<!-- Node5&#45;&gt;Node10 -->
<g id="edge10" class="edge"><title>Node5&#45;&gt;Node10</title>
<path fill="none" stroke="midnightblue" d="M486.64,-116.883C558.052,-109.222 715.498,-92.0934 848,-76 860.615,-74.4679 874.512,-72.6753 886.508,-71.0951"/>
<polygon fill="midnightblue" stroke="midnightblue" points="887.028,-74.5569 896.481,-69.7729 886.108,-67.6176 887.028,-74.5569"/>
</g>
<!-- Node11 -->
<g id="node11" class="node"><title>Node11</title>
<polygon fill="white" stroke="#bfbfbf" points="790.5,-56.5 790.5,-75.5 839.5,-75.5 839.5,-56.5 790.5,-56.5"/>
<text text-anchor="middle" x="815" y="-63.5" font-family="Helvetica,sans-Serif" font-size="10.00">cassert</text>
</g>
<!-- Node5&#45;&gt;Node11 -->
<g id="edge11" class="edge"><title>Node5&#45;&gt;Node11</title>
<path fill="none" stroke="midnightblue" d="M486.582,-115.323C558.352,-104.763 711.324,-82.2547 780.161,-72.1262"/>
<polygon fill="midnightblue" stroke="midnightblue" points="780.69,-75.586 790.074,-70.6675 779.671,-68.6606 780.69,-75.586"/>
</g>
<!-- Node12 -->
<g id="node12" class="node"><title>Node12</title>
<polygon fill="white" stroke="#bfbfbf" points="288,-56.5 288,-75.5 352,-75.5 352,-56.5 288,-56.5"/>
<text text-anchor="middle" x="320" y="-63.5" font-family="Helvetica,sans-Serif" font-size="10.00">wdlstring.h</text>
</g>
<!-- Node5&#45;&gt;Node12 -->
<g id="edge12" class="edge"><title>Node5&#45;&gt;Node12</title>
<path fill="none" stroke="midnightblue" d="M427.718,-112.444C406.653,-103.557 373.483,-89.5632 349.514,-79.4514"/>
<polygon fill="midnightblue" stroke="midnightblue" points="350.761,-76.1787 340.187,-75.5164 348.04,-82.6283 350.761,-76.1787"/>
</g>
<!-- Node13 -->
<g id="node13" class="node"><title>Node13</title>
<polygon fill="white" stroke="#bfbfbf" points="104,-56.5 104,-75.5 156,-75.5 156,-56.5 104,-56.5"/>
<text text-anchor="middle" x="130" y="-63.5" font-family="Helvetica,sans-Serif" font-size="10.00">mutex.h</text>
</g>
<!-- Node5&#45;&gt;Node13 -->
<g id="edge13" class="edge"><title>Node5&#45;&gt;Node13</title>
<path fill="none" stroke="midnightblue" d="M409.325,-114.433C347.491,-103.932 227.187,-83.5035 166.655,-73.2244"/>
<polygon fill="midnightblue" stroke="midnightblue" points="166.868,-69.7106 156.423,-71.487 165.696,-76.6118 166.868,-69.7106"/>
</g>
<!-- Node14 -->
<g id="node14" class="node"><title>Node14</title>
<g id="a_node14"><a xlink:href="_i_plug_constants_8h.html" target="_top" xlink:title="Constant definitions, magic numbers. ">
<polygon fill="white" stroke="black" points="650,-0.5 650,-19.5 742,-19.5 742,-0.5 650,-0.5"/>
<text text-anchor="middle" x="696" y="-7.5" font-family="Helvetica,sans-Serif" font-size="10.00">IPlugConstants.h</text>
</a>
</g>
</g>
<!-- Node5&#45;&gt;Node14 -->
<g id="edge14" class="edge"><title>Node5&#45;&gt;Node14</title>
<path fill="none" stroke="midnightblue" d="M464.591,-112.348C489.558,-99.4523 538.408,-74.7037 581,-56 608.188,-44.0605 639.619,-31.8681 662.744,-23.1914"/>
<polygon fill="midnightblue" stroke="midnightblue" points="664.276,-26.3555 672.423,-19.5825 661.831,-19.7965 664.276,-26.3555"/>
</g>
<!-- Node15 -->
<g id="node15" class="node"><title>Node15</title>
<g id="a_node15"><a xlink:href="_i_plug_utilities_8h.html" target="_top" xlink:title="Utility functions and macros. ">
<polygon fill="white" stroke="black" points="590,-56.5 590,-75.5 670,-75.5 670,-56.5 590,-56.5"/>
<text text-anchor="middle" x="630" y="-63.5" font-family="Helvetica,sans-Serif" font-size="10.00">IPlugUtilities.h</text>
</a>
</g>
</g>
<!-- Node5&#45;&gt;Node15 -->
<g id="edge15" class="edge"><title>Node5&#45;&gt;Node15</title>
<path fill="none" stroke="midnightblue" d="M476.838,-112.444C507.856,-103.241 557.329,-88.5617 591.618,-78.3879"/>
<polygon fill="midnightblue" stroke="midnightblue" points="592.705,-81.7164 601.296,-75.5164 590.714,-75.0055 592.705,-81.7164"/>
</g>
<!-- Node15&#45;&gt;Node2 -->
<g id="edge22" class="edge"><title>Node15&#45;&gt;Node2</title>
<path fill="none" stroke="midnightblue" d="M617.095,-75.687C598.054,-88.4173 561.203,-112.72 529,-132 510.539,-143.052 489.259,-154.839 473.143,-163.576"/>
<polygon fill="midnightblue" stroke="midnightblue" points="471.452,-160.512 464.312,-168.34 474.775,-166.673 471.452,-160.512"/>
</g>
<!-- Node15&#45;&gt;Node3 -->
<g id="edge19" class="edge"><title>Node15&#45;&gt;Node3</title>
<path fill="none" stroke="midnightblue" d="M589.763,-59.6745C509.284,-49.0229 329.836,-25.2724 255.376,-15.4175"/>
<polygon fill="midnightblue" stroke="midnightblue" points="255.549,-11.9099 245.176,-14.0675 254.631,-18.8494 255.549,-11.9099"/>
</g>
<!-- Node15&#45;&gt;Node4 -->
<g id="edge18" class="edge"><title>Node15&#45;&gt;Node4</title>
<path fill="none" stroke="midnightblue" d="M595.933,-56.4435C555.195,-46.2117 487.506,-29.2109 447.483,-19.1585"/>
<polygon fill="midnightblue" stroke="midnightblue" points="448.247,-15.7418 437.696,-16.7003 446.542,-22.531 448.247,-15.7418"/>
</g>
<!-- Node15&#45;&gt;Node6 -->
<g id="edge17" class="edge"><title>Node15&#45;&gt;Node6</title>
<path fill="none" stroke="midnightblue" d="M654.085,-56.4435C680.293,-47.1326 722.28,-32.2163 750.948,-22.0315"/>
<polygon fill="midnightblue" stroke="midnightblue" points="752.234,-25.2891 760.485,-18.6433 749.891,-18.693 752.234,-25.2891"/>
</g>
<!-- Node15&#45;&gt;Node7 -->
<g id="edge20" class="edge"><title>Node15&#45;&gt;Node7</title>
<path fill="none" stroke="midnightblue" d="M619.717,-56.324C610.164,-48.2631 595.72,-36.0765 584.216,-26.3695"/>
<polygon fill="midnightblue" stroke="midnightblue" points="586.37,-23.6076 576.47,-19.8339 581.856,-28.9577 586.37,-23.6076"/>
</g>
<!-- Node15&#45;&gt;Node14 -->
<g id="edge21" class="edge"><title>Node15&#45;&gt;Node14</title>
<path fill="none" stroke="midnightblue" d="M640.604,-56.324C650.456,-48.2631 665.351,-36.0765 677.215,-26.3695"/>
<polygon fill="midnightblue" stroke="midnightblue" points="679.68,-28.8752 685.203,-19.8339 675.247,-23.4575 679.68,-28.8752"/>
</g>
<!-- Node16 -->
<g id="node16" class="node"><title>Node16</title>
<polygon fill="white" stroke="#bfbfbf" points="1083,-0.5 1083,-19.5 1127,-19.5 1127,-0.5 1083,-0.5"/>
<text text-anchor="middle" x="1105" y="-7.5" font-family="Helvetica,sans-Serif" font-size="10.00">cmath</text>
</g>
<!-- Node15&#45;&gt;Node16 -->
<g id="edge16" class="edge"><title>Node15&#45;&gt;Node16</title>
<path fill="none" stroke="midnightblue" d="M670.07,-57.3825C673.088,-56.8879 676.089,-56.4204 679,-56 825.325,-34.8651 1001.28,-19.4187 1072.61,-13.5708"/>
<polygon fill="midnightblue" stroke="midnightblue" points="1073.07,-17.0453 1082.75,-12.7466 1072.5,-10.0683 1073.07,-17.0453"/>
</g>
<!-- Node18 -->
<g id="node18" class="node"><title>Node18</title>
<g id="a_node18"><a xlink:href="_i_plug_base_graphics_8h.html" target="_top" xlink:title="An IPlugBase class for an IPlug plug&#45;in that uses IGraphics for it&#39;s UI. ">
<polygon fill="white" stroke="black" points="446.5,-336.5 446.5,-355.5 555.5,-355.5 555.5,-336.5 446.5,-336.5"/>
<text text-anchor="middle" x="501" y="-343.5" font-family="Helvetica,sans-Serif" font-size="10.00">IPlugBaseGraphics.h</text>
</a>
</g>
</g>
<!-- Node17&#45;&gt;Node18 -->
<g id="edge24" class="edge"><title>Node17&#45;&gt;Node18</title>
<path fill="none" stroke="midnightblue" d="M483.468,-392.083C486.312,-384.77 490.429,-374.181 493.96,-365.103"/>
<polygon fill="midnightblue" stroke="midnightblue" points="497.234,-366.34 497.597,-355.751 490.71,-363.803 497.234,-366.34"/>
</g>
<!-- Node26 -->
<g id="node26" class="node"><title>Node26</title>
<g id="a_node26"><a xlink:href="_i_plug_processor_8h.html" target="_top" xlink:title="The base class for IPlug Audio Processing. ">
<polygon fill="white" stroke="black" points="828,-280.5 828,-299.5 920,-299.5 920,-280.5 828,-280.5"/>
<text text-anchor="middle" x="874" y="-287.5" font-family="Helvetica,sans-Serif" font-size="10.00">IPlugProcessor.h</text>
</a>
</g>
</g>
<!-- Node17&#45;&gt;Node26 -->
<g id="edge48" class="edge"><title>Node17&#45;&gt;Node26</title>
<path fill="none" stroke="midnightblue" d="M510.589,-392.46C580.928,-372.822 754.188,-324.45 833.354,-302.348"/>
<polygon fill="midnightblue" stroke="midnightblue" points="834.74,-305.595 843.431,-299.535 832.858,-298.853 834.74,-305.595"/>
</g>
<!-- Node31 -->
<g id="node31" class="node"><title>Node31</title>
<g id="a_node31"><a xlink:href="_i_plug_presets_8h.html" target="_top" xlink:title="IPlugPresets.h">
<polygon fill="white" stroke="black" points="225.5,-280.5 225.5,-299.5 306.5,-299.5 306.5,-280.5 225.5,-280.5"/>
<text text-anchor="middle" x="266" y="-287.5" font-family="Helvetica,sans-Serif" font-size="10.00">IPlugPresets.h</text>
</a>
</g>
</g>
<!-- Node17&#45;&gt;Node31 -->
<g id="edge65" class="edge"><title>Node17&#45;&gt;Node31</title>
<path fill="none" stroke="midnightblue" d="M463.208,-392.368C425.938,-373.211 336.105,-327.036 291.713,-304.217"/>
<polygon fill="midnightblue" stroke="midnightblue" points="293.208,-301.05 282.714,-299.591 290.008,-307.276 293.208,-301.05"/>
</g>
<!-- Node19 -->
<g id="node19" class="node"><title>Node19</title>
<g id="a_node19"><a xlink:href="_i_plug_base_8h.html" target="_top" xlink:title="The lowest level base class of an IPlug plug&#45;in. ">
<polygon fill="white" stroke="black" points="512,-280.5 512,-299.5 582,-299.5 582,-280.5 512,-280.5"/>
<text text-anchor="middle" x="547" y="-287.5" font-family="Helvetica,sans-Serif" font-size="10.00">IPlugBase.h</text>
</a>
</g>
</g>
<!-- Node18&#45;&gt;Node19 -->
<g id="edge25" class="edge"><title>Node18&#45;&gt;Node19</title>
<path fill="none" stroke="midnightblue" d="M508.596,-336.083C515.227,-328.298 525.021,-316.801 533.058,-307.367"/>
<polygon fill="midnightblue" stroke="midnightblue" points="535.725,-309.633 539.545,-299.751 530.396,-305.094 535.725,-309.633"/>
</g>
<!-- Node25 -->
<g id="node25" class="node"><title>Node25</title>
<g id="a_node25"><a xlink:href="_i_plug_delegate_8h_source.html" target="_top" xlink:title="IPlugDelegate.h">
<polygon fill="white" stroke="black" points="408,-280.5 408,-299.5 494,-299.5 494,-280.5 408,-280.5"/>
<text text-anchor="middle" x="451" y="-287.5" font-family="Helvetica,sans-Serif" font-size="10.00">IPlugDelegate.h</text>
</a>
</g>
</g>
<!-- Node18&#45;&gt;Node25 -->
<g id="edge47" class="edge"><title>Node18&#45;&gt;Node25</title>
<path fill="none" stroke="midnightblue" d="M492.744,-336.083C485.535,-328.298 474.89,-316.801 466.154,-307.367"/>
<polygon fill="midnightblue" stroke="midnightblue" points="468.465,-304.711 459.103,-299.751 463.329,-309.467 468.465,-304.711"/>
</g>
<!-- Node19&#45;&gt;Node2 -->
<g id="edge30" class="edge"><title>Node19&#45;&gt;Node2</title>
<path fill="none" stroke="midnightblue" d="M526.575,-280.464C510.669,-272.916 489.008,-260.532 475,-244 463.655,-230.612 456.542,-211.789 452.483,-197.843"/>
<polygon fill="midnightblue" stroke="midnightblue" points="455.795,-196.677 449.86,-187.9 449.027,-198.462 455.795,-196.677"/>
</g>
<!-- Node19&#45;&gt;Node3 -->
<g id="edge26" class="edge"><title>Node19&#45;&gt;Node3</title>
<path fill="none" stroke="midnightblue" d="M511.814,-281.387C465.388,-271.21 386.253,-253.37 358,-244 226.35,-200.337 148.079,-204.144 95,-76 78.1874,-35.4108 145.642,-19.8632 188.662,-14.1417"/>
<polygon fill="midnightblue" stroke="midnightblue" points="189.238,-17.5975 198.744,-12.9183 188.395,-10.6484 189.238,-17.5975"/>
</g>
<!-- Node19&#45;&gt;Node9 -->
<g id="edge27" class="edge"><title>Node19&#45;&gt;Node9</title>
<path fill="none" stroke="midnightblue" d="M582.259,-287.554C619.139,-284.367 676.985,-274.45 716,-244 767.096,-204.121 808.486,-169.199 778,-112 770.45,-97.8339 756.239,-87.3348 742.842,-80.0576"/>
<polygon fill="midnightblue" stroke="midnightblue" points="744.298,-76.8724 733.788,-75.5289 741.166,-83.1329 744.298,-76.8724"/>
</g>
<!-- Node19&#45;&gt;Node13 -->
<g id="edge29" class="edge"><title>Node19&#45;&gt;Node13</title>
<path fill="none" stroke="midnightblue" d="M520.641,-280.427C444.668,-255.348 227.098,-180.818 171,-132 156.098,-119.032 144.719,-99.3211 137.772,-85.0054"/>
<polygon fill="midnightblue" stroke="midnightblue" points="140.859,-83.3403 133.511,-75.7083 134.496,-86.2572 140.859,-83.3403"/>
</g>
<!-- Node19&#45;&gt;Node14 -->
<g id="edge31" class="edge"><title>Node19&#45;&gt;Node14</title>
<path fill="none" stroke="midnightblue" d="M582.049,-284.593C668.243,-271.565 888.831,-224.347 962,-76 965.932,-68.028 967.737,-62.7894 962,-56 961.15,-54.9943 830.103,-33.1742 752.288,-20.2941"/>
<polygon fill="midnightblue" stroke="midnightblue" points="752.583,-16.7953 742.146,-18.616 751.44,-23.7014 752.583,-16.7953"/>
</g>
<!-- Node19&#45;&gt;Node15 -->
<g id="edge42" class="edge"><title>Node19&#45;&gt;Node15</title>
<path fill="none" stroke="midnightblue" d="M550.254,-280.297C562.518,-247.494 606.116,-130.884 623.129,-85.3774"/>
<polygon fill="midnightblue" stroke="midnightblue" points="626.455,-86.4762 626.679,-75.8837 619.898,-84.0248 626.455,-86.4762"/>
</g>
<!-- Node20 -->
<g id="node20" class="node"><title>Node20</title>
<polygon fill="white" stroke="#bfbfbf" points="484.5,-224.5 484.5,-243.5 533.5,-243.5 533.5,-224.5 484.5,-224.5"/>
<text text-anchor="middle" x="509" y="-231.5" font-family="Helvetica,sans-Serif" font-size="10.00">ptrlist.h</text>
</g>
<!-- Node19&#45;&gt;Node20 -->
<g id="edge28" class="edge"><title>Node19&#45;&gt;Node20</title>
<path fill="none" stroke="midnightblue" d="M540.725,-280.083C535.358,-272.455 527.482,-261.264 520.921,-251.941"/>
<polygon fill="midnightblue" stroke="midnightblue" points="523.775,-249.915 515.158,-243.751 518.051,-253.943 523.775,-249.915"/>
</g>
<!-- Node21 -->
<g id="node21" class="node"><title>Node21</title>
<g id="a_node21"><a xlink:href="_i_plug_structs_8h_source.html" target="_top" xlink:title="IPlugStructs.h">
<polygon fill="white" stroke="black" points="628.5,-224.5 628.5,-243.5 707.5,-243.5 707.5,-224.5 628.5,-224.5"/>
<text text-anchor="middle" x="668" y="-231.5" font-family="Helvetica,sans-Serif" font-size="10.00">IPlugStructs.h</text>
</a>
</g>
</g>
<!-- Node19&#45;&gt;Node21 -->
<g id="edge32" class="edge"><title>Node19&#45;&gt;Node21</title>
<path fill="none" stroke="midnightblue" d="M566.173,-280.444C585.909,-271.636 616.885,-257.812 639.493,-247.722"/>
<polygon fill="midnightblue" stroke="midnightblue" points="641.211,-250.788 648.917,-243.516 638.359,-244.396 641.211,-250.788"/>
</g>
<!-- Node24 -->
<g id="node24" class="node"><title>Node24</title>
<g id="a_node24"><a xlink:href="_i_plug_parameter_8h_source.html" target="_top" xlink:title="IPlugParameter.h">
<polygon fill="white" stroke="black" points="180,-112.5 180,-131.5 272,-131.5 272,-112.5 180,-112.5"/>
<text text-anchor="middle" x="226" y="-119.5" font-family="Helvetica,sans-Serif" font-size="10.00">IPlugParameter.h</text>
</a>
</g>
</g>
<!-- Node19&#45;&gt;Node24 -->
<g id="edge43" class="edge"><title>Node19&#45;&gt;Node24</title>
<path fill="none" stroke="midnightblue" d="M530.114,-280.405C512.386,-271.372 483.71,-256.734 459,-244 383.287,-204.983 293.959,-158.455 251.234,-136.17"/>
<polygon fill="midnightblue" stroke="midnightblue" points="252.851,-133.066 242.366,-131.544 249.613,-139.272 252.851,-133.066"/>
</g>
<!-- Node21&#45;&gt;Node2 -->
<g id="edge36" class="edge"><title>Node21&#45;&gt;Node2</title>
<path fill="none" stroke="midnightblue" d="M633.14,-224.444C595.084,-215.102 534.042,-200.119 492.54,-189.933"/>
<polygon fill="midnightblue" stroke="midnightblue" points="493.243,-186.501 482.697,-187.516 491.574,-193.299 493.243,-186.501"/>
</g>
<!-- Node21&#45;&gt;Node12 -->
<g id="edge34" class="edge"><title>Node21&#45;&gt;Node12</title>
<path fill="none" stroke="midnightblue" d="M646.029,-224.493C613.667,-211.988 551.257,-187.963 498,-168 454.551,-151.714 440.333,-154.942 400,-132 375.851,-118.263 351.57,-97.2824 336.198,-82.8956"/>
<polygon fill="midnightblue" stroke="midnightblue" points="338.282,-80.0453 328.633,-75.6692 333.447,-85.1073 338.282,-80.0453"/>
</g>
<!-- Node21&#45;&gt;Node14 -->
<g id="edge35" class="edge"><title>Node21&#45;&gt;Node14</title>
<path fill="none" stroke="midnightblue" d="M706.313,-224.441C769.496,-208.028 893.748,-165.518 946,-76 950.481,-68.3232 951.702,-62.8194 946,-56 942.876,-52.2638 824.973,-32.2485 752.218,-20.2053"/>
<polygon fill="midnightblue" stroke="midnightblue" points="752.705,-16.7384 742.268,-18.5614 751.564,-23.6448 752.705,-16.7384"/>
</g>
<!-- Node22 -->
<g id="node22" class="node"><title>Node22</title>
<polygon fill="white" stroke="#bfbfbf" points="638,-168.5 638,-187.5 694,-187.5 694,-168.5 638,-168.5"/>
<text text-anchor="middle" x="666" y="-175.5" font-family="Helvetica,sans-Serif" font-size="10.00">algorithm</text>
</g>
<!-- Node21&#45;&gt;Node22 -->
<g id="edge33" class="edge"><title>Node21&#45;&gt;Node22</title>
<path fill="none" stroke="midnightblue" d="M667.67,-224.083C667.408,-217.006 667.032,-206.861 666.703,-197.986"/>
<polygon fill="midnightblue" stroke="midnightblue" points="670.192,-197.615 666.324,-187.751 663.197,-197.874 670.192,-197.615"/>
</g>
<!-- Node23 -->
<g id="node23" class="node"><title>Node23</title>
<g id="a_node23"><a xlink:href="_i_plug_midi_8h_source.html" target="_top" xlink:title="IPlugMidi.h">
<polygon fill="white" stroke="black" points="704.5,-112.5 704.5,-131.5 769.5,-131.5 769.5,-112.5 704.5,-112.5"/>
<text text-anchor="middle" x="737" y="-119.5" font-family="Helvetica,sans-Serif" font-size="10.00">IPlugMidi.h</text>
</a>
</g>
</g>
<!-- Node21&#45;&gt;Node23 -->
<g id="edge37" class="edge"><title>Node21&#45;&gt;Node23</title>
<path fill="none" stroke="midnightblue" d="M675.188,-224.324C682.373,-215.467 693.539,-201.186 702,-188 711.928,-172.527 721.719,-153.987 728.409,-140.675"/>
<polygon fill="midnightblue" stroke="midnightblue" points="731.576,-142.166 732.872,-131.651 725.301,-139.063 731.576,-142.166"/>
</g>
<!-- Node23&#45;&gt;Node9 -->
<g id="edge39" class="edge"><title>Node23&#45;&gt;Node9</title>
<path fill="none" stroke="midnightblue" d="M732.707,-112.083C729.148,-104.691 723.978,-93.9533 719.576,-84.8111"/>
<polygon fill="midnightblue" stroke="midnightblue" points="722.705,-83.2427 715.213,-75.7511 716.398,-86.2795 722.705,-83.2427"/>
</g>
<!-- Node23&#45;&gt;Node11 -->
<g id="edge38" class="edge"><title>Node23&#45;&gt;Node11</title>
<path fill="none" stroke="midnightblue" d="M749.532,-112.324C761.586,-103.979 780.027,-91.2122 794.269,-81.3524"/>
<polygon fill="midnightblue" stroke="midnightblue" points="796.269,-84.2243 802.499,-75.6545 792.285,-78.469 796.269,-84.2243"/>
</g>
<!-- Node23&#45;&gt;Node14 -->
<g id="edge40" class="edge"><title>Node23&#45;&gt;Node14</title>
<path fill="none" stroke="midnightblue" d="M740.39,-112.175C744.79,-99.2738 751.011,-74.7601 743,-56 737.853,-43.9469 727.719,-33.5764 718.174,-25.8389"/>
<polygon fill="midnightblue" stroke="midnightblue" points="720.172,-22.9619 710.078,-19.7409 715.96,-28.5532 720.172,-22.9619"/>
</g>
<!-- Node23&#45;&gt;Node15 -->
<g id="edge41" class="edge"><title>Node23&#45;&gt;Node15</title>
<path fill="none" stroke="midnightblue" d="M719.809,-112.324C702.649,-103.664 676.054,-90.2424 656.253,-80.249"/>
<polygon fill="midnightblue" stroke="midnightblue" points="657.653,-77.0354 647.149,-75.6545 654.499,-83.2847 657.653,-77.0354"/>
</g>
<!-- Node24&#45;&gt;Node3 -->
<g id="edge44" class="edge"><title>Node24&#45;&gt;Node3</title>
<path fill="none" stroke="midnightblue" d="M221.379,-112.339C216.941,-103.493 210.546,-89.22 208,-76 204.964,-60.237 209.358,-42.4191 214.005,-29.4301"/>
<polygon fill="midnightblue" stroke="midnightblue" points="217.388,-30.3927 217.811,-19.8063 210.879,-27.8185 217.388,-30.3927"/>
</g>
<!-- Node24&#45;&gt;Node12 -->
<g id="edge45" class="edge"><title>Node24&#45;&gt;Node12</title>
<path fill="none" stroke="midnightblue" d="M241.103,-112.324C255.903,-103.822 278.694,-90.7288 295.982,-80.7975"/>
<polygon fill="midnightblue" stroke="midnightblue" points="298.007,-83.6707 304.935,-75.6545 294.52,-77.6009 298.007,-83.6707"/>
</g>
<!-- Node24&#45;&gt;Node15 -->
<g id="edge46" class="edge"><title>Node24&#45;&gt;Node15</title>
<path fill="none" stroke="midnightblue" d="M272.344,-114.806C348.81,-104.585 500.783,-84.2716 579.742,-73.7176"/>
<polygon fill="midnightblue" stroke="midnightblue" points="580.474,-77.151 589.922,-72.3569 579.547,-70.2127 580.474,-77.151"/>
</g>
<!-- Node26&#45;&gt;Node2 -->
<g id="edge52" class="edge"><title>Node26&#45;&gt;Node2</title>
<path fill="none" stroke="midnightblue" d="M827.819,-283.517C776.287,-276.786 690.725,-263.77 619,-244 567.528,-229.812 509.918,-206.228 476.427,-191.707"/>
<polygon fill="midnightblue" stroke="midnightblue" points="477.405,-188.315 466.841,-187.512 474.598,-194.728 477.405,-188.315"/>
</g>
<!-- Node26&#45;&gt;Node3 -->
<g id="edge49" class="edge"><title>Node26&#45;&gt;Node3</title>
<path fill="none" stroke="midnightblue" d="M879.384,-280.443C884.556,-271.678 892.012,-257.467 895,-244 896.925,-235.322 895.238,-232.886 895,-224 892.925,-146.494 910.812,-101.454 848,-56 835.872,-47.2239 383.01,-20.34 255.249,-12.9165"/>
<polygon fill="midnightblue" stroke="midnightblue" points="255.448,-9.42221 245.262,-12.3374 255.042,-16.4105 255.448,-9.42221"/>
</g>
<!-- Node26&#45;&gt;Node9 -->
<g id="edge50" class="edge"><title>Node26&#45;&gt;Node9</title>
<path fill="none" stroke="midnightblue" d="M875.711,-280.382C880.736,-252.393 892.56,-162.917 850,-112 836.379,-95.7039 781.094,-81.4713 744.486,-73.5762"/>
<polygon fill="midnightblue" stroke="midnightblue" points="744.755,-70.0564 734.249,-71.4276 743.317,-76.9072 744.755,-70.0564"/>
</g>
<!-- Node26&#45;&gt;Node14 -->
<g id="edge53" class="edge"><title>Node26&#45;&gt;Node14</title>
<path fill="none" stroke="midnightblue" d="M909.598,-280.387C928.964,-273.766 951.464,-262.516 964,-244 1010.97,-174.619 1032.41,-119.718 978,-56 946.582,-19.2073 816.243,-27.1061 752.253,-19.928"/>
<polygon fill="midnightblue" stroke="midnightblue" points="752.588,-16.4417 742.211,-18.5787 751.656,-23.3793 752.588,-16.4417"/>
</g>
<!-- Node26&#45;&gt;Node15 -->
<g id="edge55" class="edge"><title>Node26&#45;&gt;Node15</title>
<path fill="none" stroke="midnightblue" d="M863.701,-280.375C835.941,-257.043 757.45,-190.494 695,-132 677.638,-115.738 658.457,-96.3756 645.462,-83.0374"/>
<polygon fill="midnightblue" stroke="midnightblue" points="647.716,-80.3343 638.241,-75.5925 642.691,-85.2078 647.716,-80.3343"/>
</g>
<!-- Node26&#45;&gt;Node20 -->
<g id="edge51" class="edge"><title>Node26&#45;&gt;Node20</title>
<path fill="none" stroke="midnightblue" d="M827.772,-282.161C753.663,-271.197 609.899,-249.927 543.791,-240.147"/>
<polygon fill="midnightblue" stroke="midnightblue" points="544.275,-236.681 533.87,-238.679 543.25,-243.605 544.275,-236.681"/>
</g>
<!-- Node26&#45;&gt;Node21 -->
<g id="edge54" class="edge"><title>Node26&#45;&gt;Node21</title>
<path fill="none" stroke="midnightblue" d="M841.359,-280.444C805.95,-271.162 749.291,-256.309 710.447,-246.127"/>
<polygon fill="midnightblue" stroke="midnightblue" points="711.049,-242.667 700.489,-243.516 709.274,-249.438 711.049,-242.667"/>
</g>
<!-- Node27 -->
<g id="node27" class="node"><title>Node27</title>
<g id="a_node27"><a xlink:href="_n_chan_delay_8h_source.html" target="_top" xlink:title="NChanDelay.h">
<polygon fill="white" stroke="black" points="1105.5,-224.5 1105.5,-243.5 1186.5,-243.5 1186.5,-224.5 1105.5,-224.5"/>
<text text-anchor="middle" x="1146" y="-231.5" font-family="Helvetica,sans-Serif" font-size="10.00">NChanDelay.h</text>
</a>
</g>
</g>
<!-- Node26&#45;&gt;Node27 -->
<g id="edge56" class="edge"><title>Node26&#45;&gt;Node27</title>
<path fill="none" stroke="midnightblue" d="M917.099,-280.444C965.55,-270.825 1044.13,-255.224 1095.44,-245.037"/>
<polygon fill="midnightblue" stroke="midnightblue" points="1096.2,-248.456 1105.32,-243.075 1094.83,-241.59 1096.2,-248.456"/>
</g>
<!-- Node28 -->
<g id="node28" class="node"><title>Node28</title>
<g id="a_node28"><a xlink:href="_i_plug_processor_8cpp_source.html" target="_top" xlink:title="IPlugProcessor.cpp">
<polygon fill="white" stroke="black" points="1049,-112.5 1049,-131.5 1151,-131.5 1151,-112.5 1049,-112.5"/>
<text text-anchor="middle" x="1100" y="-119.5" font-family="Helvetica,sans-Serif" font-size="10.00">IPlugProcessor.cpp</text>
</a>
</g>
</g>
<!-- Node26&#45;&gt;Node28 -->
<g id="edge57" class="edge"><title>Node26&#45;&gt;Node28</title>
<path fill="none" stroke="midnightblue" d="M920.088,-284.7C952.635,-279.582 995.529,-268.399 1026,-244 1059.85,-216.894 1078.41,-167.237 1089.55,-140.748"/>
<polygon fill="midnightblue" stroke="midnightblue" points="1092.78,-142.093 1093.61,-131.53 1086.37,-139.27 1092.78,-142.093"/>
</g>
<!-- Node28&#45;&gt;Node6 -->
<g id="edge59" class="edge"><title>Node28&#45;&gt;Node6</title>
<path fill="none" stroke="midnightblue" d="M1096.72,-112.142C1090.9,-97.7843 1077.35,-69.6618 1056,-56 1016.27,-30.5777 877.189,-17.7277 813.851,-13.0835"/>
<polygon fill="midnightblue" stroke="midnightblue" points="813.876,-9.57651 803.653,-12.359 813.38,-16.5589 813.876,-9.57651"/>
</g>
<!-- Node28&#45;&gt;Node10 -->
<g id="edge60" class="edge"><title>Node28&#45;&gt;Node10</title>
<path fill="none" stroke="midnightblue" d="M1071,-112.444C1037.3,-102.499 981.927,-86.1587 947.568,-76.02"/>
<polygon fill="midnightblue" stroke="midnightblue" points="948.208,-72.5598 937.626,-73.0865 946.227,-79.2736 948.208,-72.5598"/>
</g>
<!-- Node28&#45;&gt;Node11 -->
<g id="edge61" class="edge"><title>Node28&#45;&gt;Node11</title>
<path fill="none" stroke="midnightblue" d="M1054.84,-112.444C997.867,-101.648 901.125,-83.3185 849.642,-73.5637"/>
<polygon fill="midnightblue" stroke="midnightblue" points="850.15,-70.0978 839.673,-71.6749 848.847,-76.9754 850.15,-70.0978"/>
</g>
<!-- Node28&#45;&gt;Node16 -->
<g id="edge58" class="edge"><title>Node28&#45;&gt;Node16</title>
<path fill="none" stroke="midnightblue" d="M1151.16,-115.208C1198.62,-108.655 1264.24,-96.1846 1280,-76 1318.76,-26.3565 1197.83,-14.6266 1137.32,-11.8561"/>
<polygon fill="midnightblue" stroke="midnightblue" points="1137.25,-8.35076 1127.12,-11.4477 1136.97,-15.3452 1137.25,-8.35076"/>
</g>
<!-- Node28&#45;&gt;Node26 -->
<g id="edge64" class="edge"><title>Node28&#45;&gt;Node26</title>
<path fill="none" stroke="midnightblue" d="M1102.23,-131.53C1101.07,-153.656 1082.34,-213.296 1044,-244 1012.04,-269.592 966.412,-280.643 930.38,-285.408"/>
<polygon fill="midnightblue" stroke="midnightblue" points="929.528,-281.985 920.012,-286.644 930.356,-288.936 929.528,-281.985"/>
</g>
<!-- Node29 -->
<g id="node29" class="node"><title>Node29</title>
<polygon fill="white" stroke="#bfbfbf" points="1108,-56.5 1108,-75.5 1176,-75.5 1176,-56.5 1108,-56.5"/>
<text text-anchor="middle" x="1142" y="-63.5" font-family="Helvetica,sans-Serif" font-size="10.00">wdlendian.h</text>
</g>
<!-- Node28&#45;&gt;Node29 -->
<g id="edge62" class="edge"><title>Node28&#45;&gt;Node29</title>
<path fill="none" stroke="midnightblue" d="M1106.94,-112.083C1112.93,-104.377 1121.75,-93.0333 1129.05,-83.6531"/>
<polygon fill="midnightblue" stroke="midnightblue" points="1131.82,-85.7934 1135.19,-75.7511 1126.29,-81.4958 1131.82,-85.7934"/>
</g>
<!-- Node30 -->
<g id="node30" class="node"><title>Node30</title>
<polygon fill="white" stroke="#bfbfbf" points="1194.5,-56.5 1194.5,-75.5 1271.5,-75.5 1271.5,-56.5 1194.5,-56.5"/>
<text text-anchor="middle" x="1233" y="-63.5" font-family="Helvetica,sans-Serif" font-size="10.00">wdl_base64.h</text>
</g>
<!-- Node28&#45;&gt;Node30 -->
<g id="edge63" class="edge"><title>Node28&#45;&gt;Node30</title>
<path fill="none" stroke="midnightblue" d="M1121.07,-112.444C1143.06,-103.517 1177.73,-89.4387 1202.66,-79.3168"/>
<polygon fill="midnightblue" stroke="midnightblue" points="1204.08,-82.5213 1212.02,-75.5164 1201.44,-76.0355 1204.08,-82.5213"/>
</g>
<!-- Node31&#45;&gt;Node2 -->
<g id="edge70" class="edge"><title>Node31&#45;&gt;Node2</title>
<path fill="none" stroke="midnightblue" d="M278.439,-280.486C297.166,-267.767 333.838,-243.241 366,-224 384.639,-212.849 406.185,-201.067 422.512,-192.356"/>
<polygon fill="midnightblue" stroke="midnightblue" points="424.266,-195.388 431.461,-187.611 420.987,-189.204 424.266,-195.388"/>
</g>
<!-- Node31&#45;&gt;Node3 -->
<g id="edge66" class="edge"><title>Node31&#45;&gt;Node3</title>
<path fill="none" stroke="midnightblue" d="M225.481,-286.258C164.712,-281.369 53.8947,-269.204 24,-244 0.455879,-224.15 0,-209.795 0,-179 0,-179 0,-179 0,-121 0,-90.2048 0.853762,-76.3125 24,-56 48.2415,-34.7263 138.989,-20.8736 188.783,-14.7021"/>
<polygon fill="midnightblue" stroke="midnightblue" points="189.238,-18.1727 198.748,-13.5019 188.401,-11.2229 189.238,-18.1727"/>
</g>
<!-- Node31&#45;&gt;Node9 -->
<g id="edge67" class="edge"><title>Node31&#45;&gt;Node9</title>
<path fill="none" stroke="midnightblue" d="M287.78,-280.42C329.296,-263.869 422.363,-225.815 498,-188 568.838,-152.585 649.324,-104.667 687.939,-81.1759"/>
<polygon fill="midnightblue" stroke="midnightblue" points="690.112,-83.9503 696.823,-75.7522 686.464,-77.9757 690.112,-83.9503"/>
</g>
<!-- Node31&#45;&gt;Node13 -->
<g id="edge69" class="edge"><title>Node31&#45;&gt;Node13</title>
<path fill="none" stroke="midnightblue" d="M250.877,-280.48C237.415,-272.363 217.777,-259.157 204,-244 165.138,-201.245 156.585,-186.707 138,-132 132.908,-117.012 130.989,-99.1025 130.297,-85.8814"/>
<polygon fill="midnightblue" stroke="midnightblue" points="133.787,-85.5389 129.956,-75.6612 126.791,-85.7723 133.787,-85.5389"/>
</g>
<!-- Node31&#45;&gt;Node14 -->
<g id="edge71" class="edge"><title>Node31&#45;&gt;Node14</title>
<path fill="none" stroke="midnightblue" d="M225.238,-287.246C159.657,-281.997 38,-261.185 38,-179 38,-179 38,-179 38,-121 38,-1.93576 299.85,-44.3574 598,-20 611.434,-18.9025 625.895,-17.6267 639.474,-16.3868"/>
<polygon fill="midnightblue" stroke="midnightblue" points="640.018,-19.8516 649.655,-15.4491 639.376,-12.8811 640.018,-19.8516"/>
</g>
<!-- Node31&#45;&gt;Node15 -->
<g id="edge73" class="edge"><title>Node31&#45;&gt;Node15</title>
<path fill="none" stroke="midnightblue" d="M274.368,-280.401C286.73,-267.781 310.71,-243.614 332,-224 360.044,-198.163 364.131,-187.329 397,-168 436.998,-144.479 453.056,-151.843 495,-132 510.848,-124.503 513.413,-120.025 529,-112 552.174,-100.069 579.179,-88.1353 599.431,-79.5577"/>
<polygon fill="midnightblue" stroke="midnightblue" points="600.919,-82.7292 608.784,-75.6313 598.209,-76.2749 600.919,-82.7292"/>
</g>
<!-- Node31&#45;&gt;Node20 -->
<g id="edge68" class="edge"><title>Node31&#45;&gt;Node20</title>
<path fill="none" stroke="midnightblue" d="M304.504,-280.444C351.311,-270.042 429.596,-252.645 474.511,-242.664"/>
<polygon fill="midnightblue" stroke="midnightblue" points="475.366,-246.06 484.369,-240.474 473.848,-239.226 475.366,-246.06"/>
</g>
<!-- Node31&#45;&gt;Node21 -->
<g id="edge72" class="edge"><title>Node31&#45;&gt;Node21</title>
<path fill="none" stroke="midnightblue" d="M306.758,-283.525C380.879,-273.569 537.496,-252.53 617.962,-241.721"/>
<polygon fill="midnightblue" stroke="midnightblue" points="618.881,-245.13 628.326,-240.329 617.949,-238.192 618.881,-245.13"/>
</g>
<!-- Node31&#45;&gt;Node24 -->
<g id="edge74" class="edge"><title>Node31&#45;&gt;Node24</title>
<path fill="none" stroke="midnightblue" d="M250.217,-280.467C237.797,-272.769 221.395,-260.179 214,-244 198.558,-210.216 210.014,-165.709 218.686,-141.181"/>
<polygon fill="midnightblue" stroke="midnightblue" points="222.006,-142.295 222.257,-131.703 215.456,-139.827 222.006,-142.295"/>
</g>
</g>
</svg>
        <g id="navigator" transform="translate(0 0)" fill="#404254">
                <rect fill="#f2f5e9" fill-opacity="0.5" stroke="#606060" stroke-width=".5" x="0" y="0" width="60" height="60"/>
                <use id="zoomplus" xlink:href="#zoomPlus" x="17" y="9" onmousedown="handleZoom(evt,'in')"/>
                <use id="zoomminus" xlink:href="#zoomMin" x="42" y="9" onmousedown="handleZoom(evt,'out')"/>
                <use id="reset" xlink:href="#resetDef" x="30" y="36" onmousedown="handleReset()"/>
                <g id="arrowUp" xlink:href="#dirArrow" transform="translate(30 24)" onmousedown="handlePan(0,-1)">
                  <use xlink:href="#rim" fill="#404040">
                        <set attributeName="fill" to="#808080" begin="arrowUp.mouseover" end="arrowUp.mouseout"/>
                  </use>
                  <path fill="none" stroke="white" stroke-width="1.5" d="M0,-3.0v7 M-2.5,-0.5L0,-3.0L2.5,-0.5"/>
                </g>
                <g id="arrowRight" xlink:href="#dirArrow" transform="rotate(90) translate(36 -43)" onmousedown="handlePan(1,0)">
                  <use xlink:href="#rim" fill="#404040">
                        <set attributeName="fill" to="#808080" begin="arrowRight.mouseover" end="arrowRight.mouseout"/>
                  </use>
                  <path fill="none" stroke="white" stroke-width="1.5" d="M0,-3.0v7 M-2.5,-0.5L0,-3.0L2.5,-0.5"/>
                </g>
                <g id="arrowDown" xlink:href="#dirArrow" transform="rotate(180) translate(-30 -48)" onmousedown="handlePan(0,1)">
                  <use xlink:href="#rim" fill="#404040">
                        <set attributeName="fill" to="#808080" begin="arrowDown.mouseover" end="arrowDown.mouseout"/>
                  </use>
                  <path fill="none" stroke="white" stroke-width="1.5" d="M0,-3.0v7 M-2.5,-0.5L0,-3.0L2.5,-0.5"/>
                </g>
                <g id="arrowLeft" xlink:href="#dirArrow" transform="rotate(270) translate(-36 17)" onmousedown="handlePan(-1,0)">
                  <use xlink:href="#rim" fill="#404040">
                        <set attributeName="fill" to="#808080" begin="arrowLeft.mouseover" end="arrowLeft.mouseout"/>
                  </use>
                  <path fill="none" stroke="white" stroke-width="1.5" d="M0,-3.0v7 M-2.5,-0.5L0,-3.0L2.5,-0.5"/>
                </g>
        </g>
        <svg viewBox="0 0 15 15" width="100%" height="30px" preserveAspectRatio="xMaxYMin meet">
         <g id="arrow_out" transform="scale(0.3 0.3)">
          <a xlink:href="_i_plug_a_a_x_8h__incl_org.svg" target="_base">
           <rect id="button" ry="5" rx="5" y="6" x="6" height="38" width="38"
                fill="#f2f5e9" fill-opacity="0.5" stroke="#606060" stroke-width="1.0"/>
           <path id="arrow"
             d="M 11.500037,31.436501 C 11.940474,20.09759 22.043105,11.32322 32.158766,21.979434 L 37.068811,17.246167 C 37.068811,17.246167 37.088388,32 37.088388,32 L 22.160133,31.978069 C 22.160133,31.978069 26.997745,27.140456 26.997745,27.140456 C 18.528582,18.264221 13.291696,25.230495 11.500037,31.436501 z"
             style="fill:#404040;"/>
          </a>
         </g>
        </svg>
</svg>
