<?xml version="1.0" encoding="UTF-8" standalone="no"?>
<!DOCTYPE svg PUBLIC "-//W3C//DTD SVG 1.1//EN"
 "http://www.w3.org/Graphics/SVG/1.1/DTD/svg11.dtd">
<!-- Generated by graphviz version 2.36.0 (20140111.2315)
 -->
<!-- Title: IPlugPlatform.h Pages: 1 -->
<!--zoomable 196 -->
<svg id="main" version="1.1" xmlns="http://www.w3.org/2000/svg" xmlns:xlink="http://www.w3.org/1999/xlink" xml:space="preserve" onload="init(evt)">
<style type="text/css"><![CDATA[
.edge:hover path { stroke: red; }
.edge:hover polygon { stroke: red; fill: red; }
]]></style>
<script type="text/javascript"><![CDATA[
var edges = document.getElementsByTagName('g');
if (edges && edges.length) {
  for (var i=0;i<edges.length;i++) {
    if (edges[i].id.substr(0,4)=='edge') {
      edges[i].setAttribute('class','edge');
    }
  }
}
]]></script>
        <defs>
                <circle id="rim" cx="0" cy="0" r="7"/>
                <circle id="rim2" cx="0" cy="0" r="3.5"/>
                <g id="zoomPlus">
                        <use xlink:href="#rim" fill="#404040">
                                <set attributeName="fill" to="#808080" begin="zoomplus.mouseover" end="zoomplus.mouseout"/>
                        </use>
                        <path d="M-4,0h8M0,-4v8" fill="none" stroke="white" stroke-width="1.5" pointer-events="none"/>
                </g>
                <g id="zoomMin">
                        <use xlink:href="#rim" fill="#404040">
                                <set attributeName="fill" to="#808080" begin="zoomminus.mouseover" end="zoomminus.mouseout"/>
                        </use>
                        <path d="M-4,0h8" fill="none" stroke="white" stroke-width="1.5" pointer-events="none"/>
                </g>
                <g id="dirArrow">
                        <path fill="none" stroke="white" stroke-width="1.5" d="M0,-3.0v7 M-2.5,-0.5L0,-3.0L2.5,-0.5"/>
                </g>
               <g id="resetDef">
                       <use xlink:href="#rim2" fill="#404040">
                               <set attributeName="fill" to="#808080" begin="reset.mouseover" end="reset.mouseout"/>
                       </use>
               </g>
        </defs>

<script type="text/javascript">
var viewWidth = 715;
var viewHeight = 196;
var sectionId = 'dynsection-0';
</script>
<script xlink:href="svgpan.js"/>
<svg id="graph" class="graph">
<g id="viewport">
<title>IPlugPlatform.h</title>
<polygon fill="white" stroke="none" points="-4,4 -4,-192 711,-192 711,4 -4,4"/>
<!-- Node1 -->
<g id="node1" class="node"><title>Node1</title>
<polygon fill="#bfbfbf" stroke="black" points="393,-168.5 393,-187.5 477,-187.5 477,-168.5 393,-168.5"/>
<text text-anchor="middle" x="435" y="-175.5" font-family="Helvetica,sans-Serif" font-size="10.00">IPlugPlatform.h</text>
</g>
<!-- Node2 -->
<g id="node2" class="node"><title>Node2</title>
<polygon fill="white" stroke="#bfbfbf" points="0,-0.5 0,-19.5 46,-19.5 46,-0.5 0,-0.5"/>
<text text-anchor="middle" x="23" y="-7.5" font-family="Helvetica,sans-Serif" font-size="10.00">cstring</text>
</g>
<!-- Node1&#45;&gt;Node2 -->
<g id="edge1" class="edge"><title>Node1&#45;&gt;Node2</title>
<path fill="none" stroke="midnightblue" d="M392.935,-172.884C298.178,-162.675 72.642,-132.812 26,-76 15.5927,-63.3234 16.0252,-44.1186 18.3497,-29.8677"/>
<polygon fill="midnightblue" stroke="midnightblue" points="21.8504,-30.2219 20.4485,-19.7203 14.9955,-28.8041 21.8504,-30.2219"/>
</g>
<!-- Node3 -->
<g id="node3" class="node"><title>Node3</title>
<polygon fill="white" stroke="#bfbfbf" points="661.5,-0.5 661.5,-19.5 706.5,-19.5 706.5,-0.5 661.5,-0.5"/>
<text text-anchor="middle" x="684" y="-7.5" font-family="Helvetica,sans-Serif" font-size="10.00">cstdlib</text>
</g>
<!-- Node1&#45;&gt;Node3 -->
<g id="edge2" class="edge"><title>Node1&#45;&gt;Node3</title>
<path fill="none" stroke="midnightblue" d="M465.675,-168.441C509.686,-154.899 591.341,-124.93 645,-76 659.398,-62.8709 670.187,-43.1855 676.726,-28.9196"/>
<polygon fill="midnightblue" stroke="midnightblue" points="679.973,-30.2289 680.726,-19.6608 673.547,-27.4523 679.973,-30.2289"/>
</g>
<!-- Node4 -->
<g id="node4" class="node"><title>Node4</title>
<g id="a_node4"><a xlink:href="_i_plug_logger_8h.html" target="_top" xlink:title="IPlug logging a.k.a tracing functionailty. ">
<polygon fill="white" stroke="black" points="318.5,-112.5 318.5,-131.5 395.5,-131.5 395.5,-112.5 318.5,-112.5"/>
<text text-anchor="middle" x="357" y="-119.5" font-family="Helvetica,sans-Serif" font-size="10.00">IPlugLogger.h</text>
</a>
</g>
</g>
<!-- Node1&#45;&gt;Node4 -->
<g id="edge3" class="edge"><title>Node1&#45;&gt;Node4</title>
<path fill="none" stroke="midnightblue" d="M422.468,-168.324C410.414,-159.979 391.973,-147.212 377.731,-137.352"/>
<polygon fill="midnightblue" stroke="midnightblue" points="379.715,-134.469 369.501,-131.655 375.731,-140.224 379.715,-134.469"/>
</g>
<!-- Node4&#45;&gt;Node2 -->
<g id="edge8" class="edge"><title>Node4&#45;&gt;Node2</title>
<path fill="none" stroke="midnightblue" d="M318.225,-120.549C243.337,-118.883 82.5961,-111.188 42,-76 28.8321,-64.5863 24.543,-44.6001 23.2654,-29.794"/>
<polygon fill="midnightblue" stroke="midnightblue" points="26.7568,-29.5288 22.7784,-19.7093 19.765,-29.8665 26.7568,-29.5288"/>
</g>
<!-- Node5 -->
<g id="node5" class="node"><title>Node5</title>
<polygon fill="white" stroke="#bfbfbf" points="417.5,-0.5 417.5,-19.5 460.5,-19.5 460.5,-0.5 417.5,-0.5"/>
<text text-anchor="middle" x="439" y="-7.5" font-family="Helvetica,sans-Serif" font-size="10.00">cstdio</text>
</g>
<!-- Node4&#45;&gt;Node5 -->
<g id="edge4" class="edge"><title>Node4&#45;&gt;Node5</title>
<path fill="none" stroke="midnightblue" d="M362.607,-112.428C370.912,-99.8405 387.111,-75.7146 402,-56 409.238,-46.4156 417.723,-36.0402 424.74,-27.67"/>
<polygon fill="midnightblue" stroke="midnightblue" points="427.62,-29.685 431.407,-19.7903 422.276,-25.1633 427.62,-29.685"/>
</g>
<!-- Node6 -->
<g id="node6" class="node"><title>Node6</title>
<polygon fill="white" stroke="#bfbfbf" points="597,-0.5 597,-19.5 643,-19.5 643,-0.5 597,-0.5"/>
<text text-anchor="middle" x="620" y="-7.5" font-family="Helvetica,sans-Serif" font-size="10.00">cctype</text>
</g>
<!-- Node4&#45;&gt;Node6 -->
<g id="edge5" class="edge"><title>Node4&#45;&gt;Node6</title>
<path fill="none" stroke="midnightblue" d="M395.5,-120.445C462.872,-118.571 597.781,-110.492 627,-76 637.862,-63.1774 633.818,-43.444 628.477,-29.0831"/>
<polygon fill="midnightblue" stroke="midnightblue" points="631.656,-27.6128 624.553,-19.7512 625.203,-30.3261 631.656,-27.6128"/>
</g>
<!-- Node7 -->
<g id="node7" class="node"><title>Node7</title>
<polygon fill="white" stroke="#bfbfbf" points="241.5,-56.5 241.5,-75.5 290.5,-75.5 290.5,-56.5 241.5,-56.5"/>
<text text-anchor="middle" x="266" y="-63.5" font-family="Helvetica,sans-Serif" font-size="10.00">cstdarg</text>
</g>
<!-- Node4&#45;&gt;Node7 -->
<g id="edge6" class="edge"><title>Node4&#45;&gt;Node7</title>
<path fill="none" stroke="midnightblue" d="M342.379,-112.324C328.051,-103.822 305.987,-90.7288 289.251,-80.7975"/>
<polygon fill="midnightblue" stroke="midnightblue" points="290.97,-77.7478 280.584,-75.6545 287.398,-83.7677 290.97,-77.7478"/>
</g>
<!-- Node8 -->
<g id="node8" class="node"><title>Node8</title>
<polygon fill="white" stroke="#bfbfbf" points="309,-56.5 309,-75.5 355,-75.5 355,-56.5 309,-56.5"/>
<text text-anchor="middle" x="332" y="-63.5" font-family="Helvetica,sans-Serif" font-size="10.00">cstdint</text>
</g>
<!-- Node4&#45;&gt;Node8 -->
<g id="edge7" class="edge"><title>Node4&#45;&gt;Node8</title>
<path fill="none" stroke="midnightblue" d="M352.872,-112.083C349.486,-104.77 344.584,-94.1814 340.381,-85.1034"/>
<polygon fill="midnightblue" stroke="midnightblue" points="343.429,-83.3553 336.051,-75.7511 337.077,-86.2962 343.429,-83.3553"/>
</g>
<!-- Node9 -->
<g id="node9" class="node"><title>Node9</title>
<polygon fill="white" stroke="#bfbfbf" points="411.5,-56.5 411.5,-75.5 452.5,-75.5 452.5,-56.5 411.5,-56.5"/>
<text text-anchor="middle" x="432" y="-63.5" font-family="Helvetica,sans-Serif" font-size="10.00">ctime</text>
</g>
<!-- Node4&#45;&gt;Node9 -->
<g id="edge9" class="edge"><title>Node4&#45;&gt;Node9</title>
<path fill="none" stroke="midnightblue" d="M369.05,-112.324C380.463,-104.107 397.831,-91.6017 411.435,-81.8069"/>
<polygon fill="midnightblue" stroke="midnightblue" points="413.66,-84.5174 419.731,-75.8339 409.57,-78.8366 413.66,-84.5174"/>
</g>
<!-- Node10 -->
<g id="node10" class="node"><title>Node10</title>
<polygon fill="white" stroke="#bfbfbf" points="470.5,-56.5 470.5,-75.5 519.5,-75.5 519.5,-56.5 470.5,-56.5"/>
<text text-anchor="middle" x="495" y="-63.5" font-family="Helvetica,sans-Serif" font-size="10.00">cassert</text>
</g>
<!-- Node4&#45;&gt;Node10 -->
<g id="edge10" class="edge"><title>Node4&#45;&gt;Node10</title>
<path fill="none" stroke="midnightblue" d="M378.867,-112.444C401.779,-103.478 437.975,-89.314 463.866,-79.1827"/>
<polygon fill="midnightblue" stroke="midnightblue" points="465.199,-82.4198 473.236,-75.5164 462.648,-75.9011 465.199,-82.4198"/>
</g>
<!-- Node11 -->
<g id="node11" class="node"><title>Node11</title>
<polygon fill="white" stroke="#bfbfbf" points="51,-56.5 51,-75.5 115,-75.5 115,-56.5 51,-56.5"/>
<text text-anchor="middle" x="83" y="-63.5" font-family="Helvetica,sans-Serif" font-size="10.00">wdlstring.h</text>
</g>
<!-- Node4&#45;&gt;Node11 -->
<g id="edge11" class="edge"><title>Node4&#45;&gt;Node11</title>
<path fill="none" stroke="midnightblue" d="M318.187,-113.815C273.88,-105.544 198.978,-91.3531 125.148,-76.1983"/>
<polygon fill="midnightblue" stroke="midnightblue" points="125.713,-72.7414 115.213,-74.1517 124.301,-79.5974 125.713,-72.7414"/>
</g>
<!-- Node12 -->
<g id="node12" class="node"><title>Node12</title>
<polygon fill="white" stroke="#bfbfbf" points="133,-56.5 133,-75.5 185,-75.5 185,-56.5 133,-56.5"/>
<text text-anchor="middle" x="159" y="-63.5" font-family="Helvetica,sans-Serif" font-size="10.00">mutex.h</text>
</g>
<!-- Node4&#45;&gt;Node12 -->
<g id="edge12" class="edge"><title>Node4&#45;&gt;Node12</title>
<path fill="none" stroke="midnightblue" d="M325.626,-112.444C290.143,-102.766 232.457,-87.0336 195.123,-76.8518"/>
<polygon fill="midnightblue" stroke="midnightblue" points="195.737,-73.3914 185.168,-74.1368 193.895,-80.1447 195.737,-73.3914"/>
</g>
<!-- Node13 -->
<g id="node13" class="node"><title>Node13</title>
<g id="a_node13"><a xlink:href="_i_plug_constants_8h.html" target="_top" xlink:title="Constant definitions, magic numbers. ">
<polygon fill="white" stroke="black" points="237,-0.5 237,-19.5 329,-19.5 329,-0.5 237,-0.5"/>
<text text-anchor="middle" x="283" y="-7.5" font-family="Helvetica,sans-Serif" font-size="10.00">IPlugConstants.h</text>
</a>
</g>
</g>
<!-- Node4&#45;&gt;Node13 -->
<g id="edge13" class="edge"><title>Node4&#45;&gt;Node13</title>
<path fill="none" stroke="midnightblue" d="M318.322,-118.475C289.297,-114.313 251.363,-103.551 232,-76 219.326,-57.9672 240.243,-38.1633 258.991,-25.2117"/>
<polygon fill="midnightblue" stroke="midnightblue" points="261.124,-27.999 267.593,-19.608 257.303,-22.1337 261.124,-27.999"/>
</g>
<!-- Node14 -->
<g id="node14" class="node"><title>Node14</title>
<g id="a_node14"><a xlink:href="_i_plug_utilities_8h.html" target="_top" xlink:title="Utility functions and macros. ">
<polygon fill="white" stroke="black" points="538,-56.5 538,-75.5 618,-75.5 618,-56.5 538,-56.5"/>
<text text-anchor="middle" x="578" y="-63.5" font-family="Helvetica,sans-Serif" font-size="10.00">IPlugUtilities.h</text>
</a>
</g>
</g>
<!-- Node4&#45;&gt;Node14 -->
<g id="edge14" class="edge"><title>Node4&#45;&gt;Node14</title>
<path fill="none" stroke="midnightblue" d="M392.018,-112.444C430.248,-103.102 491.567,-88.1194 533.257,-77.9326"/>
<polygon fill="midnightblue" stroke="midnightblue" points="534.262,-81.2901 543.146,-75.5164 532.601,-74.4901 534.262,-81.2901"/>
</g>
<!-- Node14&#45;&gt;Node1 -->
<g id="edge21" class="edge"><title>Node14&#45;&gt;Node1</title>
<path fill="none" stroke="midnightblue" d="M566.831,-75.5914C542.549,-94.2699 484.701,-138.769 454.347,-162.118"/>
<polygon fill="midnightblue" stroke="midnightblue" points="452.013,-159.497 446.221,-168.368 456.281,-165.046 452.013,-159.497"/>
</g>
<!-- Node14&#45;&gt;Node2 -->
<g id="edge18" class="edge"><title>Node14&#45;&gt;Node2</title>
<path fill="none" stroke="midnightblue" d="M537.933,-57.4632C534.578,-56.9311 531.234,-56.4343 528,-56 351.002,-32.2324 137.359,-17.8729 56.3326,-12.9379"/>
<polygon fill="midnightblue" stroke="midnightblue" points="56.4284,-9.43739 46.2362,-12.3301 56.0078,-16.4247 56.4284,-9.43739"/>
</g>
<!-- Node14&#45;&gt;Node3 -->
<g id="edge17" class="edge"><title>Node14&#45;&gt;Node3</title>
<path fill="none" stroke="midnightblue" d="M595.031,-56.324C612.03,-47.6641 638.376,-34.2424 657.993,-24.249"/>
<polygon fill="midnightblue" stroke="midnightblue" points="659.69,-27.3125 667.012,-19.6545 656.512,-21.0752 659.69,-27.3125"/>
</g>
<!-- Node14&#45;&gt;Node5 -->
<g id="edge16" class="edge"><title>Node14&#45;&gt;Node5</title>
<path fill="none" stroke="midnightblue" d="M555.975,-56.4435C532.896,-47.4776 496.438,-33.314 470.359,-23.1827"/>
<polygon fill="midnightblue" stroke="midnightblue" points="471.511,-19.8753 460.922,-19.5164 468.976,-26.4002 471.511,-19.8753"/>
</g>
<!-- Node14&#45;&gt;Node6 -->
<g id="edge19" class="edge"><title>Node14&#45;&gt;Node6</title>
<path fill="none" stroke="midnightblue" d="M584.935,-56.083C590.929,-48.3768 599.752,-37.0333 607.048,-27.6531"/>
<polygon fill="midnightblue" stroke="midnightblue" points="609.817,-29.7934 613.194,-19.7511 604.291,-25.4958 609.817,-29.7934"/>
</g>
<!-- Node14&#45;&gt;Node13 -->
<g id="edge20" class="edge"><title>Node14&#45;&gt;Node13</title>
<path fill="none" stroke="midnightblue" d="M537.908,-57.6611C486.636,-48.2758 397.548,-31.9681 339.437,-21.3309"/>
<polygon fill="midnightblue" stroke="midnightblue" points="339.787,-17.8368 329.32,-19.4789 338.526,-24.7224 339.787,-17.8368"/>
</g>
<!-- Node15 -->
<g id="node15" class="node"><title>Node15</title>
<polygon fill="white" stroke="#bfbfbf" points="535,-0.5 535,-19.5 579,-19.5 579,-0.5 535,-0.5"/>
<text text-anchor="middle" x="557" y="-7.5" font-family="Helvetica,sans-Serif" font-size="10.00">cmath</text>
</g>
<!-- Node14&#45;&gt;Node15 -->
<g id="edge15" class="edge"><title>Node14&#45;&gt;Node15</title>
<path fill="none" stroke="midnightblue" d="M574.532,-56.083C571.688,-48.77 567.571,-38.1814 564.04,-29.1034"/>
<polygon fill="midnightblue" stroke="midnightblue" points="567.29,-27.8025 560.403,-19.7511 560.766,-30.3397 567.29,-27.8025"/>
</g>
</g>
</svg>
        <g id="navigator" transform="translate(0 0)" fill="#404254">
                <rect fill="#f2f5e9" fill-opacity="0.5" stroke="#606060" stroke-width=".5" x="0" y="0" width="60" height="60"/>
                <use id="zoomplus" xlink:href="#zoomPlus" x="17" y="9" onmousedown="handleZoom(evt,'in')"/>
                <use id="zoomminus" xlink:href="#zoomMin" x="42" y="9" onmousedown="handleZoom(evt,'out')"/>
                <use id="reset" xlink:href="#resetDef" x="30" y="36" onmousedown="handleReset()"/>
                <g id="arrowUp" xlink:href="#dirArrow" transform="translate(30 24)" onmousedown="handlePan(0,-1)">
                  <use xlink:href="#rim" fill="#404040">
                        <set attributeName="fill" to="#808080" begin="arrowUp.mouseover" end="arrowUp.mouseout"/>
                  </use>
                  <path fill="none" stroke="white" stroke-width="1.5" d="M0,-3.0v7 M-2.5,-0.5L0,-3.0L2.5,-0.5"/>
                </g>
                <g id="arrowRight" xlink:href="#dirArrow" transform="rotate(90) translate(36 -43)" onmousedown="handlePan(1,0)">
                  <use xlink:href="#rim" fill="#404040">
                        <set attributeName="fill" to="#808080" begin="arrowRight.mouseover" end="arrowRight.mouseout"/>
                  </use>
                  <path fill="none" stroke="white" stroke-width="1.5" d="M0,-3.0v7 M-2.5,-0.5L0,-3.0L2.5,-0.5"/>
                </g>
                <g id="arrowDown" xlink:href="#dirArrow" transform="rotate(180) translate(-30 -48)" onmousedown="handlePan(0,1)">
                  <use xlink:href="#rim" fill="#404040">
                        <set attributeName="fill" to="#808080" begin="arrowDown.mouseover" end="arrowDown.mouseout"/>
                  </use>
                  <path fill="none" stroke="white" stroke-width="1.5" d="M0,-3.0v7 M-2.5,-0.5L0,-3.0L2.5,-0.5"/>
                </g>
                <g id="arrowLeft" xlink:href="#dirArrow" transform="rotate(270) translate(-36 17)" onmousedown="handlePan(-1,0)">
                  <use xlink:href="#rim" fill="#404040">
                        <set attributeName="fill" to="#808080" begin="arrowLeft.mouseover" end="arrowLeft.mouseout"/>
                  </use>
                  <path fill="none" stroke="white" stroke-width="1.5" d="M0,-3.0v7 M-2.5,-0.5L0,-3.0L2.5,-0.5"/>
                </g>
        </g>
        <svg viewBox="0 0 15 15" width="100%" height="30px" preserveAspectRatio="xMaxYMin meet">
         <g id="arrow_out" transform="scale(0.3 0.3)">
          <a xlink:href="_i_plug_platform_8h__incl_org.svg" target="_base">
           <rect id="button" ry="5" rx="5" y="6" x="6" height="38" width="38"
                fill="#f2f5e9" fill-opacity="0.5" stroke="#606060" stroke-width="1.0"/>
           <path id="arrow"
             d="M 11.500037,31.436501 C 11.940474,20.09759 22.043105,11.32322 32.158766,21.979434 L 37.068811,17.246167 C 37.068811,17.246167 37.088388,32 37.088388,32 L 22.160133,31.978069 C 22.160133,31.978069 26.997745,27.140456 26.997745,27.140456 C 18.528582,18.264221 13.291696,25.230495 11.500037,31.436501 z"
             style="fill:#404040;"/>
          </a>
         </g>
        </svg>
</svg>
