<?xml version="1.0" encoding="UTF-8" standalone="no"?>
<!DOCTYPE svg PUBLIC "-//W3C//DTD SVG 1.1//EN"
 "http://www.w3.org/Graphics/SVG/1.1/DTD/svg11.dtd">
<!-- Generated by graphviz version 2.36.0 (20140111.2315)
 -->
<!-- Title: IPlugLogger.h Pages: 1 -->
<svg width="716pt" height="196pt"
 viewBox="0.00 0.00 715.97 196.00" xmlns="http://www.w3.org/2000/svg" xmlns:xlink="http://www.w3.org/1999/xlink">
<g id="graph0" class="graph" transform="scale(1 1) rotate(0) translate(4 192)">
<title>IPlugLogger.h</title>
<polygon fill="white" stroke="none" points="-4,4 -4,-192 711.973,-192 711.973,4 -4,4"/>
<!-- Node1 -->
<g id="node1" class="node"><title>Node1</title>
<polygon fill="#bfbfbf" stroke="black" points="274.473,-168.5 274.473,-187.5 351.473,-187.5 351.473,-168.5 274.473,-168.5"/>
<text text-anchor="middle" x="312.973" y="-175.5" font-family="Helvetica,sans-Serif" font-size="10.00">IPlugLogger.h</text>
</g>
<!-- Node2 -->
<g id="node2" class="node"><title>Node2</title>
<polygon fill="white" stroke="#bfbfbf" points="13.4726,-56.5 13.4726,-75.5 56.4726,-75.5 56.4726,-56.5 13.4726,-56.5"/>
<text text-anchor="middle" x="34.9726" y="-63.5" font-family="Helvetica,sans-Serif" font-size="10.00">cstdio</text>
</g>
<!-- Node1&#45;&gt;Node2 -->
<g id="edge1" class="edge"><title>Node1&#45;&gt;Node2</title>
<path fill="none" stroke="midnightblue" d="M274.107,-173.843C232.221,-169.206 164.505,-158.071 111.973,-132 87.3796,-119.795 64.0017,-98.1262 49.5915,-83.1839"/>
<polygon fill="midnightblue" stroke="midnightblue" points="51.9493,-80.5813 42.5577,-75.6774 46.8414,-85.3676 51.9493,-80.5813"/>
</g>
<!-- Node3 -->
<g id="node3" class="node"><title>Node3</title>
<polygon fill="white" stroke="#bfbfbf" points="74.9726,-56.5 74.9726,-75.5 120.973,-75.5 120.973,-56.5 74.9726,-56.5"/>
<text text-anchor="middle" x="97.9726" y="-63.5" font-family="Helvetica,sans-Serif" font-size="10.00">cctype</text>
</g>
<!-- Node1&#45;&gt;Node3 -->
<g id="edge2" class="edge"><title>Node1&#45;&gt;Node3</title>
<path fill="none" stroke="midnightblue" d="M274.363,-176.368C234.738,-173.829 173.21,-164.421 131.973,-132 116.988,-120.219 107.903,-99.9953 102.941,-85.2279"/>
<polygon fill="midnightblue" stroke="midnightblue" points="106.284,-84.1912 100.032,-75.6381 99.586,-86.2236 106.284,-84.1912"/>
</g>
<!-- Node4 -->
<g id="node4" class="node"><title>Node4</title>
<polygon fill="white" stroke="#bfbfbf" points="315.473,-112.5 315.473,-131.5 364.473,-131.5 364.473,-112.5 315.473,-112.5"/>
<text text-anchor="middle" x="339.973" y="-119.5" font-family="Helvetica,sans-Serif" font-size="10.00">cstdarg</text>
</g>
<!-- Node1&#45;&gt;Node4 -->
<g id="edge3" class="edge"><title>Node1&#45;&gt;Node4</title>
<path fill="none" stroke="midnightblue" d="M317.431,-168.083C321.127,-160.691 326.496,-149.953 331.067,-140.811"/>
<polygon fill="midnightblue" stroke="midnightblue" points="334.255,-142.261 335.597,-131.751 327.994,-139.13 334.255,-142.261"/>
</g>
<!-- Node5 -->
<g id="node5" class="node"><title>Node5</title>
<polygon fill="white" stroke="#bfbfbf" points="382.973,-112.5 382.973,-131.5 428.973,-131.5 428.973,-112.5 382.973,-112.5"/>
<text text-anchor="middle" x="405.973" y="-119.5" font-family="Helvetica,sans-Serif" font-size="10.00">cstdint</text>
</g>
<!-- Node1&#45;&gt;Node5 -->
<g id="edge4" class="edge"><title>Node1&#45;&gt;Node5</title>
<path fill="none" stroke="midnightblue" d="M327.915,-168.324C342.558,-159.822 365.106,-146.729 382.21,-136.797"/>
<polygon fill="midnightblue" stroke="midnightblue" points="384.177,-139.703 391.068,-131.655 380.662,-133.649 384.177,-139.703"/>
</g>
<!-- Node6 -->
<g id="node6" class="node"><title>Node6</title>
<polygon fill="white" stroke="#bfbfbf" points="125.973,-0.5 125.973,-19.5 171.973,-19.5 171.973,-0.5 125.973,-0.5"/>
<text text-anchor="middle" x="148.973" y="-7.5" font-family="Helvetica,sans-Serif" font-size="10.00">cstring</text>
</g>
<!-- Node1&#45;&gt;Node6 -->
<g id="edge5" class="edge"><title>Node1&#45;&gt;Node6</title>
<path fill="none" stroke="midnightblue" d="M274.34,-174.991C226.411,-171.309 143.065,-160.952 77.9726,-132 40.2873,-115.238 22.3383,-112.93 3.9726,-76 -18.6302,-30.5498 66.1648,-16.8552 115.651,-12.7471"/>
<polygon fill="midnightblue" stroke="midnightblue" points="116.202,-16.216 125.917,-11.9889 115.686,-9.23504 116.202,-16.216"/>
</g>
<!-- Node7 -->
<g id="node7" class="node"><title>Node7</title>
<polygon fill="white" stroke="#bfbfbf" points="447.473,-112.5 447.473,-131.5 488.473,-131.5 488.473,-112.5 447.473,-112.5"/>
<text text-anchor="middle" x="467.973" y="-119.5" font-family="Helvetica,sans-Serif" font-size="10.00">ctime</text>
</g>
<!-- Node1&#45;&gt;Node7 -->
<g id="edge6" class="edge"><title>Node1&#45;&gt;Node7</title>
<path fill="none" stroke="midnightblue" d="M337.533,-168.444C364.564,-159.026 408.055,-143.875 437.305,-133.684"/>
<polygon fill="midnightblue" stroke="midnightblue" points="438.715,-136.899 447.007,-130.304 436.412,-130.289 438.715,-136.899"/>
</g>
<!-- Node8 -->
<g id="node8" class="node"><title>Node8</title>
<polygon fill="white" stroke="#bfbfbf" points="506.473,-112.5 506.473,-131.5 555.473,-131.5 555.473,-112.5 506.473,-112.5"/>
<text text-anchor="middle" x="530.973" y="-119.5" font-family="Helvetica,sans-Serif" font-size="10.00">cassert</text>
</g>
<!-- Node1&#45;&gt;Node8 -->
<g id="edge7" class="edge"><title>Node1&#45;&gt;Node8</title>
<path fill="none" stroke="midnightblue" d="M348.64,-168.488C383.716,-160.071 439.036,-146.672 496.173,-132.168"/>
<polygon fill="midnightblue" stroke="midnightblue" points="497.276,-135.499 506.104,-129.641 495.55,-128.715 497.276,-135.499"/>
</g>
<!-- Node9 -->
<g id="node9" class="node"><title>Node9</title>
<polygon fill="white" stroke="#bfbfbf" points="573.973,-112.5 573.973,-131.5 637.973,-131.5 637.973,-112.5 573.973,-112.5"/>
<text text-anchor="middle" x="605.973" y="-119.5" font-family="Helvetica,sans-Serif" font-size="10.00">wdlstring.h</text>
</g>
<!-- Node1&#45;&gt;Node9 -->
<g id="edge8" class="edge"><title>Node1&#45;&gt;Node9</title>
<path fill="none" stroke="midnightblue" d="M351.748,-170.465C401.126,-162.048 489.041,-146.741 563.973,-132 564.073,-131.98 564.174,-131.96 564.275,-131.94"/>
<polygon fill="midnightblue" stroke="midnightblue" points="564.787,-135.408 573.892,-129.991 563.396,-128.548 564.787,-135.408"/>
</g>
<!-- Node10 -->
<g id="node10" class="node"><title>Node10</title>
<polygon fill="white" stroke="#bfbfbf" points="655.973,-112.5 655.973,-131.5 707.973,-131.5 707.973,-112.5 655.973,-112.5"/>
<text text-anchor="middle" x="681.973" y="-119.5" font-family="Helvetica,sans-Serif" font-size="10.00">mutex.h</text>
</g>
<!-- Node1&#45;&gt;Node10 -->
<g id="edge9" class="edge"><title>Node1&#45;&gt;Node10</title>
<path fill="none" stroke="midnightblue" d="M351.533,-173.296C412.133,-167.152 533.497,-153.541 645.556,-132.081"/>
<polygon fill="midnightblue" stroke="midnightblue" points="646.525,-135.458 655.675,-130.116 645.191,-128.586 646.525,-135.458"/>
</g>
<!-- Node11 -->
<g id="node11" class="node"><title>Node11</title>
<g id="a_node11"><a xlink:href="_i_plug_constants_8h.html" target="_top" xlink:title="Constant definitions, magic numbers. ">
<polygon fill="white" stroke="black" points="378.973,-56.5 378.973,-75.5 470.973,-75.5 470.973,-56.5 378.973,-56.5"/>
<text text-anchor="middle" x="424.973" y="-63.5" font-family="Helvetica,sans-Serif" font-size="10.00">IPlugConstants.h</text>
</a>
</g>
</g>
<!-- Node1&#45;&gt;Node11 -->
<g id="edge10" class="edge"><title>Node1&#45;&gt;Node11</title>
<path fill="none" stroke="midnightblue" d="M308.825,-168.104C303.241,-154.673 295.272,-128.985 306.973,-112 315.773,-99.2253 350.897,-86.8241 380.556,-78.2866"/>
<polygon fill="midnightblue" stroke="midnightblue" points="381.671,-81.609 390.358,-75.5444 379.785,-74.8678 381.671,-81.609"/>
</g>
<!-- Node12 -->
<g id="node12" class="node"><title>Node12</title>
<g id="a_node12"><a xlink:href="_i_plug_utilities_8h.html" target="_top" xlink:title="Utility functions and macros. ">
<polygon fill="white" stroke="black" points="140.973,-112.5 140.973,-131.5 220.973,-131.5 220.973,-112.5 140.973,-112.5"/>
<text text-anchor="middle" x="180.973" y="-119.5" font-family="Helvetica,sans-Serif" font-size="10.00">IPlugUtilities.h</text>
</a>
</g>
</g>
<!-- Node1&#45;&gt;Node12 -->
<g id="edge11" class="edge"><title>Node1&#45;&gt;Node12</title>
<path fill="none" stroke="midnightblue" d="M292.057,-168.444C270.237,-159.517 235.823,-145.439 211.08,-135.317"/>
<polygon fill="midnightblue" stroke="midnightblue" points="212.371,-132.063 201.791,-131.516 209.721,-138.542 212.371,-132.063"/>
</g>
<!-- Node12&#45;&gt;Node2 -->
<g id="edge13" class="edge"><title>Node12&#45;&gt;Node2</title>
<path fill="none" stroke="midnightblue" d="M157.838,-112.444C133.061,-103.279 93.6013,-88.6846 66.1087,-78.5161"/>
<polygon fill="midnightblue" stroke="midnightblue" points="67.1638,-75.1747 56.5706,-74.9883 64.7355,-81.74 67.1638,-75.1747"/>
</g>
<!-- Node12&#45;&gt;Node3 -->
<g id="edge16" class="edge"><title>Node12&#45;&gt;Node3</title>
<path fill="none" stroke="midnightblue" d="M167.637,-112.324C154.811,-103.979 135.188,-91.2122 120.033,-81.3524"/>
<polygon fill="midnightblue" stroke="midnightblue" points="121.566,-78.1742 111.275,-75.6545 117.748,-84.0417 121.566,-78.1742"/>
</g>
<!-- Node12&#45;&gt;Node6 -->
<g id="edge15" class="edge"><title>Node12&#45;&gt;Node6</title>
<path fill="none" stroke="midnightblue" d="M178.462,-112.368C173.274,-94.5366 161.277,-53.2953 154.288,-29.2717"/>
<polygon fill="midnightblue" stroke="midnightblue" points="157.626,-28.2157 151.472,-19.5914 150.905,-30.1711 157.626,-28.2157"/>
</g>
<!-- Node12&#45;&gt;Node11 -->
<g id="edge17" class="edge"><title>Node12&#45;&gt;Node11</title>
<path fill="none" stroke="midnightblue" d="M219.635,-112.444C262.111,-103.043 330.404,-87.9291 376.447,-77.7393"/>
<polygon fill="midnightblue" stroke="midnightblue" points="377.484,-81.0946 386.491,-75.5164 375.971,-74.26 377.484,-81.0946"/>
</g>
<!-- Node13 -->
<g id="node13" class="node"><title>Node13</title>
<polygon fill="white" stroke="#bfbfbf" points="214.973,-56.5 214.973,-75.5 258.973,-75.5 258.973,-56.5 214.973,-56.5"/>
<text text-anchor="middle" x="236.973" y="-63.5" font-family="Helvetica,sans-Serif" font-size="10.00">cmath</text>
</g>
<!-- Node12&#45;&gt;Node13 -->
<g id="edge12" class="edge"><title>Node12&#45;&gt;Node13</title>
<path fill="none" stroke="midnightblue" d="M189.97,-112.324C198.167,-104.42 210.478,-92.5482 220.445,-82.9377"/>
<polygon fill="midnightblue" stroke="midnightblue" points="223.043,-85.2947 227.812,-75.8339 218.184,-80.2558 223.043,-85.2947"/>
</g>
<!-- Node14 -->
<g id="node14" class="node"><title>Node14</title>
<polygon fill="white" stroke="#bfbfbf" points="243.473,-0.5 243.473,-19.5 288.473,-19.5 288.473,-0.5 243.473,-0.5"/>
<text text-anchor="middle" x="265.973" y="-7.5" font-family="Helvetica,sans-Serif" font-size="10.00">cstdlib</text>
</g>
<!-- Node12&#45;&gt;Node14 -->
<g id="edge14" class="edge"><title>Node12&#45;&gt;Node14</title>
<path fill="none" stroke="midnightblue" d="M182.706,-112.247C185.666,-99.0018 192.704,-73.5545 205.973,-56 215.42,-43.501 229.242,-32.81 241.239,-24.9888"/>
<polygon fill="midnightblue" stroke="midnightblue" points="243.3,-27.829 249.955,-19.5848 239.611,-21.8798 243.3,-27.829"/>
</g>
<!-- Node15 -->
<g id="node15" class="node"><title>Node15</title>
<g id="a_node15"><a xlink:href="_i_plug_platform_8h.html" target="_top" xlink:title="Include to get consistently named preprocessor macros for different platforms and logging functionali...">
<polygon fill="white" stroke="black" points="276.973,-56.5 276.973,-75.5 360.973,-75.5 360.973,-56.5 276.973,-56.5"/>
<text text-anchor="middle" x="318.973" y="-63.5" font-family="Helvetica,sans-Serif" font-size="10.00">IPlugPlatform.h</text>
</a>
</g>
</g>
<!-- Node12&#45;&gt;Node15 -->
<g id="edge18" class="edge"><title>Node12&#45;&gt;Node15</title>
<path fill="none" stroke="midnightblue" d="M202.839,-112.444C225.752,-103.478 261.948,-89.314 287.839,-79.1827"/>
<polygon fill="midnightblue" stroke="midnightblue" points="289.171,-82.4198 297.208,-75.5164 286.621,-75.9011 289.171,-82.4198"/>
</g>
<!-- Node15&#45;&gt;Node1 -->
<g id="edge21" class="edge"><title>Node15&#45;&gt;Node1</title>
<path fill="none" stroke="midnightblue" d="M305.186,-75.8113C294.147,-83.7585 279.471,-96.5531 272.973,-112 265.414,-129.969 279.754,-148.753 293.32,-161.48"/>
<polygon fill="midnightblue" stroke="midnightblue" points="291.21,-164.284 301.046,-168.222 295.812,-159.01 291.21,-164.284"/>
</g>
<!-- Node15&#45;&gt;Node6 -->
<g id="edge19" class="edge"><title>Node15&#45;&gt;Node6</title>
<path fill="none" stroke="midnightblue" d="M292.036,-56.4435C262.214,-46.9707 214.127,-31.6961 182.043,-21.5048"/>
<polygon fill="midnightblue" stroke="midnightblue" points="182.823,-18.0801 172.232,-18.3884 180.704,-24.7516 182.823,-18.0801"/>
</g>
<!-- Node15&#45;&gt;Node14 -->
<g id="edge20" class="edge"><title>Node15&#45;&gt;Node14</title>
<path fill="none" stroke="midnightblue" d="M310.221,-56.083C302.503,-48.2195 291.068,-36.5688 281.756,-27.0813"/>
<polygon fill="midnightblue" stroke="midnightblue" points="284.064,-24.4363 274.562,-19.7511 279.068,-29.3396 284.064,-24.4363"/>
</g>
</g>
</svg>
