<?xml version="1.0" encoding="UTF-8" standalone="no"?>
<!DOCTYPE svg PUBLIC "-//W3C//DTD SVG 1.1//EN"
 "http://www.w3.org/Graphics/SVG/1.1/DTD/svg11.dtd">
<!-- Generated by graphviz version 2.36.0 (20140111.2315)
 -->
<!-- Title: IPlugProcessor.h Pages: 1 -->
<svg width="1141pt" height="308pt"
 viewBox="0.00 0.00 1141.28 308.00" xmlns="http://www.w3.org/2000/svg" xmlns:xlink="http://www.w3.org/1999/xlink">
<g id="graph0" class="graph" transform="scale(1 1) rotate(0) translate(4 304)">
<title>IPlugProcessor.h</title>
<polygon fill="white" stroke="none" points="-4,4 -4,-304 1137.28,-304 1137.28,4 -4,4"/>
<!-- Node1 -->
<g id="node1" class="node"><title>Node1</title>
<polygon fill="#bfbfbf" stroke="black" points="620,-280.5 620,-299.5 712,-299.5 712,-280.5 620,-280.5"/>
<text text-anchor="middle" x="666" y="-287.5" font-family="Helvetica,sans-Serif" font-size="10.00">IPlugProcessor.h</text>
</g>
<!-- Node2 -->
<g id="node2" class="node"><title>Node2</title>
<polygon fill="white" stroke="#bfbfbf" points="74,-0.5 74,-19.5 120,-19.5 120,-0.5 74,-0.5"/>
<text text-anchor="middle" x="97" y="-7.5" font-family="Helvetica,sans-Serif" font-size="10.00">cstring</text>
</g>
<!-- Node1&#45;&gt;Node2 -->
<g id="edge1" class="edge"><title>Node1&#45;&gt;Node2</title>
<path fill="none" stroke="midnightblue" d="M619.96,-286.27C469.209,-276.723 0,-241.954 0,-179 0,-179 0,-179 0,-121 0,-77.3471 43.5054,-42.8276 72.2443,-24.7868"/>
<polygon fill="midnightblue" stroke="midnightblue" points="74.2262,-27.6789 80.9824,-19.5177 70.6115,-21.6844 74.2262,-27.6789"/>
</g>
<!-- Node3 -->
<g id="node3" class="node"><title>Node3</title>
<polygon fill="white" stroke="#bfbfbf" points="612,-56.5 612,-75.5 658,-75.5 658,-56.5 612,-56.5"/>
<text text-anchor="middle" x="635" y="-63.5" font-family="Helvetica,sans-Serif" font-size="10.00">cstdint</text>
</g>
<!-- Node1&#45;&gt;Node3 -->
<g id="edge2" class="edge"><title>Node1&#45;&gt;Node3</title>
<path fill="none" stroke="midnightblue" d="M663.042,-280.485C660.045,-271.518 655.505,-256.934 653,-244 641.964,-187.014 637.431,-118.313 635.8,-85.8044"/>
<polygon fill="midnightblue" stroke="midnightblue" points="639.285,-85.3803 635.324,-75.5535 632.292,-85.7051 639.285,-85.3803"/>
</g>
<!-- Node4 -->
<g id="node4" class="node"><title>Node4</title>
<polygon fill="white" stroke="#bfbfbf" points="514.5,-224.5 514.5,-243.5 563.5,-243.5 563.5,-224.5 514.5,-224.5"/>
<text text-anchor="middle" x="539" y="-231.5" font-family="Helvetica,sans-Serif" font-size="10.00">ptrlist.h</text>
</g>
<!-- Node1&#45;&gt;Node4 -->
<g id="edge3" class="edge"><title>Node1&#45;&gt;Node4</title>
<path fill="none" stroke="midnightblue" d="M645.876,-280.444C624.976,-271.557 592.065,-257.563 568.284,-247.451"/>
<polygon fill="midnightblue" stroke="midnightblue" points="569.602,-244.208 559.029,-243.516 566.862,-250.65 569.602,-244.208"/>
</g>
<!-- Node5 -->
<g id="node5" class="node"><title>Node5</title>
<g id="a_node5"><a xlink:href="_i_plug_platform_8h.html" target="_top" xlink:title="Include to get consistently named preprocessor macros for different platforms and logging functionali...">
<polygon fill="white" stroke="black" points="317,-168.5 317,-187.5 401,-187.5 401,-168.5 317,-168.5"/>
<text text-anchor="middle" x="359" y="-175.5" font-family="Helvetica,sans-Serif" font-size="10.00">IPlugPlatform.h</text>
</a>
</g>
</g>
<!-- Node1&#45;&gt;Node5 -->
<g id="edge4" class="edge"><title>Node1&#45;&gt;Node5</title>
<path fill="none" stroke="midnightblue" d="M656.362,-280.352C640.159,-266.295 605.896,-238.595 572,-224 519.827,-201.535 455.5,-189.937 411.272,-184.19"/>
<polygon fill="midnightblue" stroke="midnightblue" points="411.674,-180.713 401.318,-182.951 410.809,-187.66 411.674,-180.713"/>
</g>
<!-- Node15 -->
<g id="node15" class="node"><title>Node15</title>
<g id="a_node15"><a xlink:href="_i_plug_constants_8h.html" target="_top" xlink:title="Constant definitions, magic numbers. ">
<polygon fill="white" stroke="black" points="640,-0.5 640,-19.5 732,-19.5 732,-0.5 640,-0.5"/>
<text text-anchor="middle" x="686" y="-7.5" font-family="Helvetica,sans-Serif" font-size="10.00">IPlugConstants.h</text>
</a>
</g>
</g>
<!-- Node1&#45;&gt;Node15 -->
<g id="edge26" class="edge"><title>Node1&#45;&gt;Node15</title>
<path fill="none" stroke="midnightblue" d="M712.128,-283.77C767.144,-274.787 856.827,-250.83 898,-188 925.171,-146.537 946.187,-140.192 849,-56 819.541,-30.4796 776.796,-19.3264 742.471,-14.5024"/>
<polygon fill="midnightblue" stroke="midnightblue" points="742.471,-10.9749 732.112,-13.1996 741.597,-17.9202 742.471,-10.9749"/>
</g>
<!-- Node16 -->
<g id="node16" class="node"><title>Node16</title>
<g id="a_node16"><a xlink:href="_i_plug_utilities_8h.html" target="_top" xlink:title="Utility functions and macros. ">
<polygon fill="white" stroke="black" points="180,-56.5 180,-75.5 260,-75.5 260,-56.5 180,-56.5"/>
<text text-anchor="middle" x="220" y="-63.5" font-family="Helvetica,sans-Serif" font-size="10.00">IPlugUtilities.h</text>
</a>
</g>
</g>
<!-- Node1&#45;&gt;Node16 -->
<g id="edge37" class="edge"><title>Node1&#45;&gt;Node16</title>
<path fill="none" stroke="midnightblue" d="M619.799,-285.638C547.361,-278.377 405.298,-255.928 308,-188 269.267,-160.959 241.156,-111.274 228.122,-84.764"/>
<polygon fill="midnightblue" stroke="midnightblue" points="231.191,-83.0692 223.739,-75.5389 224.869,-86.0733 231.191,-83.0692"/>
</g>
<!-- Node18 -->
<g id="node18" class="node"><title>Node18</title>
<g id="a_node18"><a xlink:href="_i_plug_structs_8h_source.html" target="_top" xlink:title="IPlugStructs.h">
<polygon fill="white" stroke="black" points="662.5,-224.5 662.5,-243.5 741.5,-243.5 741.5,-224.5 662.5,-224.5"/>
<text text-anchor="middle" x="702" y="-231.5" font-family="Helvetica,sans-Serif" font-size="10.00">IPlugStructs.h</text>
</a>
</g>
</g>
<!-- Node1&#45;&gt;Node18 -->
<g id="edge27" class="edge"><title>Node1&#45;&gt;Node18</title>
<path fill="none" stroke="midnightblue" d="M671.945,-280.083C676.977,-272.534 684.337,-261.495 690.513,-252.23"/>
<polygon fill="midnightblue" stroke="midnightblue" points="693.531,-254.013 696.166,-243.751 687.707,-250.13 693.531,-254.013"/>
</g>
<!-- Node21 -->
<g id="node21" class="node"><title>Node21</title>
<g id="a_node21"><a xlink:href="_n_chan_delay_8h_source.html" target="_top" xlink:title="NChanDelay.h">
<polygon fill="white" stroke="black" points="878.5,-224.5 878.5,-243.5 959.5,-243.5 959.5,-224.5 878.5,-224.5"/>
<text text-anchor="middle" x="919" y="-231.5" font-family="Helvetica,sans-Serif" font-size="10.00">NChanDelay.h</text>
</a>
</g>
</g>
<!-- Node1&#45;&gt;Node21 -->
<g id="edge38" class="edge"><title>Node1&#45;&gt;Node21</title>
<path fill="none" stroke="midnightblue" d="M706.089,-280.444C750.316,-271.004 821.539,-255.802 869.285,-245.611"/>
<polygon fill="midnightblue" stroke="midnightblue" points="870.05,-249.027 879.099,-243.516 868.589,-242.181 870.05,-249.027"/>
</g>
<!-- Node22 -->
<g id="node22" class="node"><title>Node22</title>
<g id="a_node22"><a xlink:href="_i_plug_processor_8cpp_source.html" target="_top" xlink:title="IPlugProcessor.cpp">
<polygon fill="white" stroke="black" points="946,-112.5 946,-131.5 1048,-131.5 1048,-112.5 946,-112.5"/>
<text text-anchor="middle" x="997" y="-119.5" font-family="Helvetica,sans-Serif" font-size="10.00">IPlugProcessor.cpp</text>
</a>
</g>
</g>
<!-- Node1&#45;&gt;Node22 -->
<g id="edge39" class="edge"><title>Node1&#45;&gt;Node22</title>
<path fill="none" stroke="midnightblue" d="M712.131,-288.073C785.42,-285.609 923.385,-276.633 959,-244 987.708,-217.695 990.366,-168.446 992.568,-141.604"/>
<polygon fill="midnightblue" stroke="midnightblue" points="996.055,-141.9 993.558,-131.604 989.089,-141.21 996.055,-141.9"/>
</g>
<!-- Node5&#45;&gt;Node2 -->
<g id="edge5" class="edge"><title>Node5&#45;&gt;Node2</title>
<path fill="none" stroke="midnightblue" d="M316.767,-172.079C282.769,-166.554 234.902,-155.128 199,-132 156.809,-104.821 122.896,-54.8239 106.929,-28.4089"/>
<polygon fill="midnightblue" stroke="midnightblue" points="109.796,-26.3801 101.708,-19.5366 103.763,-29.9302 109.796,-26.3801"/>
</g>
<!-- Node6 -->
<g id="node6" class="node"><title>Node6</title>
<polygon fill="white" stroke="#bfbfbf" points="159.5,-0.5 159.5,-19.5 204.5,-19.5 204.5,-0.5 159.5,-0.5"/>
<text text-anchor="middle" x="182" y="-7.5" font-family="Helvetica,sans-Serif" font-size="10.00">cstdlib</text>
</g>
<!-- Node5&#45;&gt;Node6 -->
<g id="edge6" class="edge"><title>Node5&#45;&gt;Node6</title>
<path fill="none" stroke="midnightblue" d="M319.306,-168.475C274.258,-156.44 202.905,-129.662 171,-76 162.517,-61.7322 167.176,-42.7686 172.809,-29.0091"/>
<polygon fill="midnightblue" stroke="midnightblue" points="176.108,-30.2133 177.106,-19.6655 169.748,-27.2891 176.108,-30.2133"/>
</g>
<!-- Node7 -->
<g id="node7" class="node"><title>Node7</title>
<g id="a_node7"><a xlink:href="_i_plug_logger_8h.html" target="_top" xlink:title="IPlug logging a.k.a tracing functionailty. ">
<polygon fill="white" stroke="black" points="398.5,-112.5 398.5,-131.5 475.5,-131.5 475.5,-112.5 398.5,-112.5"/>
<text text-anchor="middle" x="437" y="-119.5" font-family="Helvetica,sans-Serif" font-size="10.00">IPlugLogger.h</text>
</a>
</g>
</g>
<!-- Node5&#45;&gt;Node7 -->
<g id="edge7" class="edge"><title>Node5&#45;&gt;Node7</title>
<path fill="none" stroke="midnightblue" d="M371.532,-168.324C383.586,-159.979 402.027,-147.212 416.269,-137.352"/>
<polygon fill="midnightblue" stroke="midnightblue" points="418.269,-140.224 424.499,-131.655 414.285,-134.469 418.269,-140.224"/>
</g>
<!-- Node7&#45;&gt;Node2 -->
<g id="edge12" class="edge"><title>Node7&#45;&gt;Node2</title>
<path fill="none" stroke="midnightblue" d="M398.48,-120.978C344.917,-119.542 246.069,-111.723 171,-76 146.768,-64.4686 124.436,-42.6476 110.781,-27.4865"/>
<polygon fill="midnightblue" stroke="midnightblue" points="113.34,-25.0953 104.131,-19.8565 108.063,-29.6947 113.34,-25.0953"/>
</g>
<!-- Node7&#45;&gt;Node3 -->
<g id="edge11" class="edge"><title>Node7&#45;&gt;Node3</title>
<path fill="none" stroke="midnightblue" d="M468.848,-112.462C500.324,-104.003 550.105,-90.5683 602.187,-76.2065"/>
<polygon fill="midnightblue" stroke="midnightblue" points="603.227,-79.5504 611.935,-73.515 601.364,-72.8028 603.227,-79.5504"/>
</g>
<!-- Node8 -->
<g id="node8" class="node"><title>Node8</title>
<polygon fill="white" stroke="#bfbfbf" points="442.5,-0.5 442.5,-19.5 485.5,-19.5 485.5,-0.5 442.5,-0.5"/>
<text text-anchor="middle" x="464" y="-7.5" font-family="Helvetica,sans-Serif" font-size="10.00">cstdio</text>
</g>
<!-- Node7&#45;&gt;Node8 -->
<g id="edge8" class="edge"><title>Node7&#45;&gt;Node8</title>
<path fill="none" stroke="midnightblue" d="M439.119,-112.368C443.476,-94.617 453.527,-53.6664 459.435,-29.5974"/>
<polygon fill="midnightblue" stroke="midnightblue" points="462.906,-30.1375 461.891,-19.5914 456.108,-28.4688 462.906,-30.1375"/>
</g>
<!-- Node9 -->
<g id="node9" class="node"><title>Node9</title>
<polygon fill="white" stroke="#bfbfbf" points="231,-0.5 231,-19.5 277,-19.5 277,-0.5 231,-0.5"/>
<text text-anchor="middle" x="254" y="-7.5" font-family="Helvetica,sans-Serif" font-size="10.00">cctype</text>
</g>
<!-- Node7&#45;&gt;Node9 -->
<g id="edge9" class="edge"><title>Node7&#45;&gt;Node9</title>
<path fill="none" stroke="midnightblue" d="M398.287,-113.524C370.976,-106.9 334.504,-95.2231 307,-76 288.986,-63.41 273.79,-43.0703 264.351,-28.496"/>
<polygon fill="midnightblue" stroke="midnightblue" points="267.256,-26.5399 259.008,-19.8905 261.309,-30.2324 267.256,-26.5399"/>
</g>
<!-- Node10 -->
<g id="node10" class="node"><title>Node10</title>
<polygon fill="white" stroke="#bfbfbf" points="316.5,-56.5 316.5,-75.5 365.5,-75.5 365.5,-56.5 316.5,-56.5"/>
<text text-anchor="middle" x="341" y="-63.5" font-family="Helvetica,sans-Serif" font-size="10.00">cstdarg</text>
</g>
<!-- Node7&#45;&gt;Node10 -->
<g id="edge10" class="edge"><title>Node7&#45;&gt;Node10</title>
<path fill="none" stroke="midnightblue" d="M421.576,-112.324C406.46,-103.822 383.185,-90.7288 365.529,-80.7975"/>
<polygon fill="midnightblue" stroke="midnightblue" points="366.817,-77.5066 356.386,-75.6545 363.386,-83.6077 366.817,-77.5066"/>
</g>
<!-- Node11 -->
<g id="node11" class="node"><title>Node11</title>
<polygon fill="white" stroke="#bfbfbf" points="714.5,-56.5 714.5,-75.5 755.5,-75.5 755.5,-56.5 714.5,-56.5"/>
<text text-anchor="middle" x="735" y="-63.5" font-family="Helvetica,sans-Serif" font-size="10.00">ctime</text>
</g>
<!-- Node7&#45;&gt;Node11 -->
<g id="edge13" class="edge"><title>Node7&#45;&gt;Node11</title>
<path fill="none" stroke="midnightblue" d="M475.653,-113.996C535.595,-103.134 649.744,-82.4491 704.377,-72.5492"/>
<polygon fill="midnightblue" stroke="midnightblue" points="705.26,-75.9462 714.476,-70.7191 704.012,-69.0583 705.26,-75.9462"/>
</g>
<!-- Node12 -->
<g id="node12" class="node"><title>Node12</title>
<polygon fill="white" stroke="#bfbfbf" points="773.5,-56.5 773.5,-75.5 822.5,-75.5 822.5,-56.5 773.5,-56.5"/>
<text text-anchor="middle" x="798" y="-63.5" font-family="Helvetica,sans-Serif" font-size="10.00">cassert</text>
</g>
<!-- Node7&#45;&gt;Node12 -->
<g id="edge14" class="edge"><title>Node7&#45;&gt;Node12</title>
<path fill="none" stroke="midnightblue" d="M475.515,-117.24C535.117,-111.086 653.418,-97.5414 763.277,-75.9188"/>
<polygon fill="midnightblue" stroke="midnightblue" points="764.078,-79.3281 773.199,-73.9389 762.708,-72.4635 764.078,-79.3281"/>
</g>
<!-- Node13 -->
<g id="node13" class="node"><title>Node13</title>
<polygon fill="white" stroke="#bfbfbf" points="530,-56.5 530,-75.5 594,-75.5 594,-56.5 530,-56.5"/>
<text text-anchor="middle" x="562" y="-63.5" font-family="Helvetica,sans-Serif" font-size="10.00">wdlstring.h</text>
</g>
<!-- Node7&#45;&gt;Node13 -->
<g id="edge15" class="edge"><title>Node7&#45;&gt;Node13</title>
<path fill="none" stroke="midnightblue" d="M456.807,-112.444C477.287,-103.596 509.483,-89.6875 532.865,-79.5865"/>
<polygon fill="midnightblue" stroke="midnightblue" points="534.494,-82.6953 542.286,-75.5164 531.718,-76.2692 534.494,-82.6953"/>
</g>
<!-- Node14 -->
<g id="node14" class="node"><title>Node14</title>
<polygon fill="white" stroke="#bfbfbf" points="384,-56.5 384,-75.5 436,-75.5 436,-56.5 384,-56.5"/>
<text text-anchor="middle" x="410" y="-63.5" font-family="Helvetica,sans-Serif" font-size="10.00">mutex.h</text>
</g>
<!-- Node7&#45;&gt;Node14 -->
<g id="edge16" class="edge"><title>Node7&#45;&gt;Node14</title>
<path fill="none" stroke="midnightblue" d="M432.541,-112.083C428.846,-104.691 423.477,-93.9533 418.906,-84.8111"/>
<polygon fill="midnightblue" stroke="midnightblue" points="421.978,-83.1301 414.376,-75.7511 415.717,-86.2606 421.978,-83.1301"/>
</g>
<!-- Node7&#45;&gt;Node15 -->
<g id="edge17" class="edge"><title>Node7&#45;&gt;Node15</title>
<path fill="none" stroke="midnightblue" d="M445.99,-112.059C460.525,-98.093 490.634,-71.1358 521,-56 555.318,-38.8943 597,-27.5953 629.884,-20.5976"/>
<polygon fill="midnightblue" stroke="midnightblue" points="630.698,-24.0035 639.789,-18.5623 629.289,-17.1468 630.698,-24.0035"/>
</g>
<!-- Node7&#45;&gt;Node16 -->
<g id="edge18" class="edge"><title>Node7&#45;&gt;Node16</title>
<path fill="none" stroke="midnightblue" d="M402.616,-112.444C365.078,-103.102 304.869,-88.1194 263.933,-77.9326"/>
<polygon fill="midnightblue" stroke="midnightblue" points="264.773,-74.5349 254.223,-75.5164 263.082,-81.3278 264.773,-74.5349"/>
</g>
<!-- Node16&#45;&gt;Node2 -->
<g id="edge22" class="edge"><title>Node16&#45;&gt;Node2</title>
<path fill="none" stroke="midnightblue" d="M200.51,-56.4435C180.358,-47.5961 148.677,-33.6875 125.669,-23.5865"/>
<polygon fill="midnightblue" stroke="midnightblue" points="126.962,-20.3316 116.399,-19.5164 124.148,-26.7411 126.962,-20.3316"/>
</g>
<!-- Node16&#45;&gt;Node5 -->
<g id="edge25" class="edge"><title>Node16&#45;&gt;Node5</title>
<path fill="none" stroke="midnightblue" d="M230.856,-75.5914C254.459,-94.2699 310.69,-138.769 340.194,-162.118"/>
<polygon fill="midnightblue" stroke="midnightblue" points="338.079,-164.907 348.093,-168.368 342.423,-159.418 338.079,-164.907"/>
</g>
<!-- Node16&#45;&gt;Node6 -->
<g id="edge21" class="edge"><title>Node16&#45;&gt;Node6</title>
<path fill="none" stroke="midnightblue" d="M213.725,-56.083C208.358,-48.4554 200.482,-37.2645 193.921,-27.9408"/>
<polygon fill="midnightblue" stroke="midnightblue" points="196.775,-25.9149 188.158,-19.7511 191.051,-29.9434 196.775,-25.9149"/>
</g>
<!-- Node16&#45;&gt;Node8 -->
<g id="edge20" class="edge"><title>Node16&#45;&gt;Node8</title>
<path fill="none" stroke="midnightblue" d="M258.663,-56.4435C306.683,-45.8161 387.699,-27.8863 432.259,-18.0246"/>
<polygon fill="midnightblue" stroke="midnightblue" points="433.23,-21.3945 442.238,-15.8162 431.718,-14.5598 433.23,-21.3945"/>
</g>
<!-- Node16&#45;&gt;Node9 -->
<g id="edge23" class="edge"><title>Node16&#45;&gt;Node9</title>
<path fill="none" stroke="midnightblue" d="M225.614,-56.083C230.367,-48.5341 237.318,-37.4948 243.152,-28.2298"/>
<polygon fill="midnightblue" stroke="midnightblue" points="246.124,-30.0783 248.49,-19.7511 240.2,-26.3486 246.124,-30.0783"/>
</g>
<!-- Node16&#45;&gt;Node15 -->
<g id="edge24" class="edge"><title>Node16&#45;&gt;Node15</title>
<path fill="none" stroke="midnightblue" d="M260.134,-60.3493C343.208,-50.7227 534.199,-28.5907 629.611,-17.5344"/>
<polygon fill="midnightblue" stroke="midnightblue" points="630.119,-20.999 639.65,-16.3711 629.313,-14.0455 630.119,-20.999"/>
</g>
<!-- Node17 -->
<g id="node17" class="node"><title>Node17</title>
<polygon fill="white" stroke="#bfbfbf" points="937,-0.5 937,-19.5 981,-19.5 981,-0.5 937,-0.5"/>
<text text-anchor="middle" x="959" y="-7.5" font-family="Helvetica,sans-Serif" font-size="10.00">cmath</text>
</g>
<!-- Node16&#45;&gt;Node17 -->
<g id="edge19" class="edge"><title>Node16&#45;&gt;Node17</title>
<path fill="none" stroke="midnightblue" d="M260.255,-60.546C274.955,-58.996 291.72,-57.3173 307,-56 544.564,-35.5201 831.464,-18.3396 926.611,-12.8425"/>
<polygon fill="midnightblue" stroke="midnightblue" points="926.961,-16.3282 936.743,-12.2595 926.559,-9.3398 926.961,-16.3282"/>
</g>
<!-- Node18&#45;&gt;Node5 -->
<g id="edge31" class="edge"><title>Node18&#45;&gt;Node5</title>
<path fill="none" stroke="midnightblue" d="M662.318,-226.753C600.341,-216.995 480.527,-198.133 411.483,-187.263"/>
<polygon fill="midnightblue" stroke="midnightblue" points="411.689,-183.752 401.266,-185.654 410.6,-190.667 411.689,-183.752"/>
</g>
<!-- Node18&#45;&gt;Node13 -->
<g id="edge29" class="edge"><title>Node18&#45;&gt;Node13</title>
<path fill="none" stroke="midnightblue" d="M694.473,-224.075C671.959,-197.38 604.898,-117.865 575.765,-83.3218"/>
<polygon fill="midnightblue" stroke="midnightblue" points="578.349,-80.956 569.226,-75.5681 572.998,-85.4689 578.349,-80.956"/>
</g>
<!-- Node18&#45;&gt;Node15 -->
<g id="edge30" class="edge"><title>Node18&#45;&gt;Node15</title>
<path fill="none" stroke="midnightblue" d="M717.276,-224.321C760.656,-198.58 878.475,-120.442 831,-56 810.686,-28.4259 773.638,-17.2501 742.076,-12.9299"/>
<polygon fill="midnightblue" stroke="midnightblue" points="742.389,-9.44272 732.05,-11.756 741.575,-16.3952 742.389,-9.44272"/>
</g>
<!-- Node19 -->
<g id="node19" class="node"><title>Node19</title>
<polygon fill="white" stroke="#bfbfbf" points="834,-168.5 834,-187.5 890,-187.5 890,-168.5 834,-168.5"/>
<text text-anchor="middle" x="862" y="-175.5" font-family="Helvetica,sans-Serif" font-size="10.00">algorithm</text>
</g>
<!-- Node18&#45;&gt;Node19 -->
<g id="edge28" class="edge"><title>Node18&#45;&gt;Node19</title>
<path fill="none" stroke="midnightblue" d="M727.352,-224.444C754.269,-215.359 796.996,-200.939 827.087,-190.783"/>
<polygon fill="midnightblue" stroke="midnightblue" points="828.41,-194.031 836.766,-187.516 826.172,-187.398 828.41,-194.031"/>
</g>
<!-- Node20 -->
<g id="node20" class="node"><title>Node20</title>
<g id="a_node20"><a xlink:href="_i_plug_midi_8h_source.html" target="_top" xlink:title="IPlugMidi.h">
<polygon fill="white" stroke="black" points="658.5,-112.5 658.5,-131.5 723.5,-131.5 723.5,-112.5 658.5,-112.5"/>
<text text-anchor="middle" x="691" y="-119.5" font-family="Helvetica,sans-Serif" font-size="10.00">IPlugMidi.h</text>
</a>
</g>
</g>
<!-- Node18&#45;&gt;Node20 -->
<g id="edge32" class="edge"><title>Node18&#45;&gt;Node20</title>
<path fill="none" stroke="midnightblue" d="M701.137,-224.368C699.362,-206.617 695.267,-165.666 692.86,-141.597"/>
<polygon fill="midnightblue" stroke="midnightblue" points="696.337,-141.193 691.859,-131.591 689.372,-141.89 696.337,-141.193"/>
</g>
<!-- Node20&#45;&gt;Node3 -->
<g id="edge34" class="edge"><title>Node20&#45;&gt;Node3</title>
<path fill="none" stroke="midnightblue" d="M682.003,-112.324C673.806,-104.42 661.494,-92.5482 651.528,-82.9377"/>
<polygon fill="midnightblue" stroke="midnightblue" points="653.789,-80.2558 644.161,-75.8339 648.93,-85.2947 653.789,-80.2558"/>
</g>
<!-- Node20&#45;&gt;Node12 -->
<g id="edge33" class="edge"><title>Node20&#45;&gt;Node12</title>
<path fill="none" stroke="midnightblue" d="M708.191,-112.324C725.351,-103.664 751.946,-90.2424 771.747,-80.249"/>
<polygon fill="midnightblue" stroke="midnightblue" points="773.501,-83.2847 780.851,-75.6545 770.347,-77.0354 773.501,-83.2847"/>
</g>
<!-- Node20&#45;&gt;Node15 -->
<g id="edge35" class="edge"><title>Node20&#45;&gt;Node15</title>
<path fill="none" stroke="midnightblue" d="M690.608,-112.368C689.801,-94.617 687.939,-53.6664 686.845,-29.5974"/>
<polygon fill="midnightblue" stroke="midnightblue" points="690.341,-29.4221 686.391,-19.5914 683.348,-29.7401 690.341,-29.4221"/>
</g>
<!-- Node20&#45;&gt;Node16 -->
<g id="edge36" class="edge"><title>Node20&#45;&gt;Node16</title>
<path fill="none" stroke="midnightblue" d="M658.254,-117.246C577.238,-107.957 366.988,-83.8521 270.161,-72.7509"/>
<polygon fill="midnightblue" stroke="midnightblue" points="270.374,-69.2525 260.04,-71.5906 269.576,-76.2069 270.374,-69.2525"/>
</g>
<!-- Node22&#45;&gt;Node1 -->
<g id="edge46" class="edge"><title>Node22&#45;&gt;Node1</title>
<path fill="none" stroke="midnightblue" d="M1002.18,-131.604C1008.59,-153.907 1009.81,-213.937 977,-244 941.232,-276.773 802.233,-285.686 722.612,-288.104"/>
<polygon fill="midnightblue" stroke="midnightblue" points="722.16,-284.615 712.261,-288.392 722.355,-291.613 722.16,-284.615"/>
</g>
<!-- Node22&#45;&gt;Node8 -->
<g id="edge41" class="edge"><title>Node22&#45;&gt;Node8</title>
<path fill="none" stroke="midnightblue" d="M979.552,-112.471C949.823,-98.3295 887.111,-70.1849 831,-56 709.808,-25.3628 560.633,-15.2973 496.174,-12.2342"/>
<polygon fill="midnightblue" stroke="midnightblue" points="496.007,-8.72324 485.859,-11.7703 495.692,-15.7162 496.007,-8.72324"/>
</g>
<!-- Node22&#45;&gt;Node11 -->
<g id="edge42" class="edge"><title>Node22&#45;&gt;Node11</title>
<path fill="none" stroke="midnightblue" d="M945.738,-112.771C900.513,-105.136 832.666,-92.7698 765.429,-76.1555"/>
<polygon fill="midnightblue" stroke="midnightblue" points="766.067,-72.7072 755.516,-73.6735 764.366,-79.4976 766.067,-72.7072"/>
</g>
<!-- Node22&#45;&gt;Node12 -->
<g id="edge43" class="edge"><title>Node22&#45;&gt;Node12</title>
<path fill="none" stroke="midnightblue" d="M965.468,-112.444C929.304,-102.63 870.195,-86.5905 832.737,-76.4261"/>
<polygon fill="midnightblue" stroke="midnightblue" points="833.351,-72.9662 822.783,-73.7251 831.517,-79.7218 833.351,-72.9662"/>
</g>
<!-- Node22&#45;&gt;Node17 -->
<g id="edge40" class="edge"><title>Node22&#45;&gt;Node17</title>
<path fill="none" stroke="midnightblue" d="M1048.07,-114.026C1094.3,-105.521 1151.66,-88.1294 1127,-56 1110.58,-34.5996 1035.24,-21.151 991.227,-14.9791"/>
<polygon fill="midnightblue" stroke="midnightblue" points="991.672,-11.5074 981.293,-13.6347 990.733,-18.4442 991.672,-11.5074"/>
</g>
<!-- Node23 -->
<g id="node23" class="node"><title>Node23</title>
<polygon fill="white" stroke="#bfbfbf" points="955,-56.5 955,-75.5 1023,-75.5 1023,-56.5 955,-56.5"/>
<text text-anchor="middle" x="989" y="-63.5" font-family="Helvetica,sans-Serif" font-size="10.00">wdlendian.h</text>
</g>
<!-- Node22&#45;&gt;Node23 -->
<g id="edge44" class="edge"><title>Node22&#45;&gt;Node23</title>
<path fill="none" stroke="midnightblue" d="M995.679,-112.083C994.619,-104.927 993.094,-94.6353 991.769,-85.6911"/>
<polygon fill="midnightblue" stroke="midnightblue" points="995.224,-85.1302 990.296,-75.7511 988.3,-86.1561 995.224,-85.1302"/>
</g>
<!-- Node24 -->
<g id="node24" class="node"><title>Node24</title>
<polygon fill="white" stroke="#bfbfbf" points="1041.5,-56.5 1041.5,-75.5 1118.5,-75.5 1118.5,-56.5 1041.5,-56.5"/>
<text text-anchor="middle" x="1080" y="-63.5" font-family="Helvetica,sans-Serif" font-size="10.00">wdl_base64.h</text>
</g>
<!-- Node22&#45;&gt;Node24 -->
<g id="edge45" class="edge"><title>Node22&#45;&gt;Node24</title>
<path fill="none" stroke="midnightblue" d="M1010.34,-112.324C1023.16,-103.979 1042.78,-91.2122 1057.94,-81.3524"/>
<polygon fill="midnightblue" stroke="midnightblue" points="1060.22,-84.0417 1066.7,-75.6545 1056.41,-78.1742 1060.22,-84.0417"/>
</g>
</g>
</svg>
