<?xml version="1.0" encoding="UTF-8" standalone="no"?>
<!DOCTYPE svg PUBLIC "-//W3C//DTD SVG 1.1//EN"
 "http://www.w3.org/Graphics/SVG/1.1/DTD/svg11.dtd">
<!-- Generated by graphviz version 2.36.0 (20140111.2315)
 -->
<!-- Title: IPlug_include_in_plug_hdr.h Pages: 1 -->
<!--zoomable 264 -->
<svg id="main" version="1.1" xmlns="http://www.w3.org/2000/svg" xmlns:xlink="http://www.w3.org/1999/xlink" xml:space="preserve" onload="init(evt)">
<style type="text/css"><![CDATA[
.edge:hover path { stroke: red; }
.edge:hover polygon { stroke: red; fill: red; }
]]></style>
<script type="text/javascript"><![CDATA[
var edges = document.getElementsByTagName('g');
if (edges && edges.length) {
  for (var i=0;i<edges.length;i++) {
    if (edges[i].id.substr(0,4)=='edge') {
      edges[i].setAttribute('class','edge');
    }
  }
}
]]></script>
        <defs>
                <circle id="rim" cx="0" cy="0" r="7"/>
                <circle id="rim2" cx="0" cy="0" r="3.5"/>
                <g id="zoomPlus">
                        <use xlink:href="#rim" fill="#404040">
                                <set attributeName="fill" to="#808080" begin="zoomplus.mouseover" end="zoomplus.mouseout"/>
                        </use>
                        <path d="M-4,0h8M0,-4v8" fill="none" stroke="white" stroke-width="1.5" pointer-events="none"/>
                </g>
                <g id="zoomMin">
                        <use xlink:href="#rim" fill="#404040">
                                <set attributeName="fill" to="#808080" begin="zoomminus.mouseover" end="zoomminus.mouseout"/>
                        </use>
                        <path d="M-4,0h8" fill="none" stroke="white" stroke-width="1.5" pointer-events="none"/>
                </g>
                <g id="dirArrow">
                        <path fill="none" stroke="white" stroke-width="1.5" d="M0,-3.0v7 M-2.5,-0.5L0,-3.0L2.5,-0.5"/>
                </g>
               <g id="resetDef">
                       <use xlink:href="#rim2" fill="#404040">
                               <set attributeName="fill" to="#808080" begin="reset.mouseover" end="reset.mouseout"/>
                       </use>
               </g>
        </defs>

<script type="text/javascript">
var viewWidth = 745;
var viewHeight = 264;
var sectionId = 'dynsection-0';
</script>
<script xlink:href="svgpan.js"/>
<svg id="graph" class="graph">
<g id="viewport">
<title>IPlug_include_in_plug_hdr.h</title>
<polygon fill="white" stroke="none" points="-4,4 -4,-260 741,-260 741,4 -4,4"/>
<!-- Node1 -->
<g id="node1" class="node"><title>Node1</title>
<polygon fill="#bfbfbf" stroke="black" points="520.5,-225 520.5,-255 631.5,-255 631.5,-225 520.5,-225"/>
<text text-anchor="start" x="528.5" y="-243" font-family="Helvetica,sans-Serif" font-size="10.00">IPlug_include_in_plug</text>
<text text-anchor="middle" x="576" y="-232" font-family="Helvetica,sans-Serif" font-size="10.00">_hdr.h</text>
</g>
<!-- Node2 -->
<g id="node2" class="node"><title>Node2</title>
<polygon fill="white" stroke="#bfbfbf" points="-0.5,-0.5 -0.5,-19.5 42.5,-19.5 42.5,-0.5 -0.5,-0.5"/>
<text text-anchor="middle" x="21" y="-7.5" font-family="Helvetica,sans-Serif" font-size="10.00">cstdio</text>
</g>
<!-- Node1&#45;&gt;Node2 -->
<g id="edge1" class="edge"><title>Node1&#45;&gt;Node2</title>
<path fill="none" stroke="midnightblue" d="M520.044,-230.755C392.433,-210.719 86.1131,-155.228 24,-76 13.8807,-63.0924 14.2746,-43.9185 16.5116,-29.7378"/>
<polygon fill="midnightblue" stroke="midnightblue" points="19.9998,-30.1439 18.5351,-19.6508 13.1365,-28.767 19.9998,-30.1439"/>
</g>
<!-- Node3 -->
<g id="node3" class="node"><title>Node3</title>
<g id="a_node3"><a xlink:href="_i_plug_platform_8h.html" target="_top" xlink:title="Include to get consistently named preprocessor macros for different platforms and logging functionali...">
<polygon fill="white" stroke="black" points="534,-168.5 534,-187.5 618,-187.5 618,-168.5 534,-168.5"/>
<text text-anchor="middle" x="576" y="-175.5" font-family="Helvetica,sans-Serif" font-size="10.00">IPlugPlatform.h</text>
</a>
</g>
</g>
<!-- Node1&#45;&gt;Node3 -->
<g id="edge2" class="edge"><title>Node1&#45;&gt;Node3</title>
<path fill="none" stroke="midnightblue" d="M576,-224.781C576,-216.781 576,-206.689 576,-198.017"/>
<polygon fill="midnightblue" stroke="midnightblue" points="579.5,-197.73 576,-187.731 572.5,-197.731 579.5,-197.73"/>
</g>
<!-- Node17 -->
<g id="node17" class="node"><title>Node17</title>
<polygon fill="white" stroke="#bfbfbf" points="635.5,-168.5 635.5,-187.5 686.5,-187.5 686.5,-168.5 635.5,-168.5"/>
<text text-anchor="middle" x="661" y="-175.5" font-family="Helvetica,sans-Serif" font-size="10.00">config.h</text>
</g>
<!-- Node1&#45;&gt;Node17 -->
<g id="edge24" class="edge"><title>Node1&#45;&gt;Node17</title>
<path fill="none" stroke="midnightblue" d="M596.144,-224.781C609.595,-215.286 627.222,-202.843 640.704,-193.327"/>
<polygon fill="midnightblue" stroke="midnightblue" points="642.728,-196.182 648.879,-187.556 638.691,-190.463 642.728,-196.182"/>
</g>
<!-- Node4 -->
<g id="node4" class="node"><title>Node4</title>
<polygon fill="white" stroke="#bfbfbf" points="621,-0.5 621,-19.5 667,-19.5 667,-0.5 621,-0.5"/>
<text text-anchor="middle" x="644" y="-7.5" font-family="Helvetica,sans-Serif" font-size="10.00">cstring</text>
</g>
<!-- Node3&#45;&gt;Node4 -->
<g id="edge3" class="edge"><title>Node3&#45;&gt;Node4</title>
<path fill="none" stroke="midnightblue" d="M584.895,-168.295C600.859,-151.972 633.84,-114.892 646,-76 650.69,-60.9983 649.688,-43.0898 647.797,-29.8727"/>
<polygon fill="midnightblue" stroke="midnightblue" points="651.183,-28.9124 646.028,-19.6564 644.286,-30.107 651.183,-28.9124"/>
</g>
<!-- Node5 -->
<g id="node5" class="node"><title>Node5</title>
<polygon fill="white" stroke="#bfbfbf" points="691.5,-0.5 691.5,-19.5 736.5,-19.5 736.5,-0.5 691.5,-0.5"/>
<text text-anchor="middle" x="714" y="-7.5" font-family="Helvetica,sans-Serif" font-size="10.00">cstdlib</text>
</g>
<!-- Node3&#45;&gt;Node5 -->
<g id="edge4" class="edge"><title>Node3&#45;&gt;Node5</title>
<path fill="none" stroke="midnightblue" d="M590.493,-168.477C603.655,-160.263 623.081,-146.912 637,-132 667.314,-99.5237 692.775,-53.5421 705.423,-28.655"/>
<polygon fill="midnightblue" stroke="midnightblue" points="708.577,-30.172 709.9,-19.6601 702.311,-27.0526 708.577,-30.172"/>
</g>
<!-- Node6 -->
<g id="node6" class="node"><title>Node6</title>
<g id="a_node6"><a xlink:href="_i_plug_logger_8h.html" target="_top" xlink:title="IPlug logging a.k.a tracing functionailty. ">
<polygon fill="white" stroke="black" points="318.5,-112.5 318.5,-131.5 395.5,-131.5 395.5,-112.5 318.5,-112.5"/>
<text text-anchor="middle" x="357" y="-119.5" font-family="Helvetica,sans-Serif" font-size="10.00">IPlugLogger.h</text>
</a>
</g>
</g>
<!-- Node3&#45;&gt;Node6 -->
<g id="edge5" class="edge"><title>Node3&#45;&gt;Node6</title>
<path fill="none" stroke="midnightblue" d="M541.299,-168.444C503.415,-159.102 442.651,-144.119 401.338,-133.933"/>
<polygon fill="midnightblue" stroke="midnightblue" points="402.086,-130.512 391.539,-131.516 400.41,-137.309 402.086,-130.512"/>
</g>
<!-- Node6&#45;&gt;Node2 -->
<g id="edge6" class="edge"><title>Node6&#45;&gt;Node2</title>
<path fill="none" stroke="midnightblue" d="M318.271,-120.59C243.036,-118.999 80.9168,-111.434 40,-76 26.827,-64.5922 22.5387,-44.605 21.2628,-29.7971"/>
<polygon fill="midnightblue" stroke="midnightblue" points="24.7541,-29.5309 20.777,-19.7109 17.7622,-29.8678 24.7541,-29.5309"/>
</g>
<!-- Node6&#45;&gt;Node4 -->
<g id="edge10" class="edge"><title>Node6&#45;&gt;Node4</title>
<path fill="none" stroke="midnightblue" d="M395.613,-119.451C461.478,-116.027 591.67,-105.612 625,-76 638.027,-64.4261 642.339,-44.4652 643.66,-29.7089"/>
<polygon fill="midnightblue" stroke="midnightblue" points="647.158,-29.8325 644.182,-19.6642 640.167,-29.469 647.158,-29.8325"/>
</g>
<!-- Node7 -->
<g id="node7" class="node"><title>Node7</title>
<polygon fill="white" stroke="#bfbfbf" points="446,-0.5 446,-19.5 492,-19.5 492,-0.5 446,-0.5"/>
<text text-anchor="middle" x="469" y="-7.5" font-family="Helvetica,sans-Serif" font-size="10.00">cctype</text>
</g>
<!-- Node6&#45;&gt;Node7 -->
<g id="edge7" class="edge"><title>Node6&#45;&gt;Node7</title>
<path fill="none" stroke="midnightblue" d="M360.51,-112.1C366.153,-98.6624 378.324,-72.9675 395,-56 407.882,-42.8925 425.332,-32.0433 440.051,-24.2839"/>
<polygon fill="midnightblue" stroke="midnightblue" points="441.904,-27.2692 449.254,-19.6383 438.75,-21.0202 441.904,-27.2692"/>
</g>
<!-- Node8 -->
<g id="node8" class="node"><title>Node8</title>
<polygon fill="white" stroke="#bfbfbf" points="404.5,-56.5 404.5,-75.5 453.5,-75.5 453.5,-56.5 404.5,-56.5"/>
<text text-anchor="middle" x="429" y="-63.5" font-family="Helvetica,sans-Serif" font-size="10.00">cstdarg</text>
</g>
<!-- Node6&#45;&gt;Node8 -->
<g id="edge8" class="edge"><title>Node6&#45;&gt;Node8</title>
<path fill="none" stroke="midnightblue" d="M368.568,-112.324C379.42,-104.185 395.881,-91.8395 408.883,-82.0874"/>
<polygon fill="midnightblue" stroke="midnightblue" points="411.321,-84.6339 417.221,-75.8339 407.121,-79.0339 411.321,-84.6339"/>
</g>
<!-- Node9 -->
<g id="node9" class="node"><title>Node9</title>
<polygon fill="white" stroke="#bfbfbf" points="472,-56.5 472,-75.5 518,-75.5 518,-56.5 472,-56.5"/>
<text text-anchor="middle" x="495" y="-63.5" font-family="Helvetica,sans-Serif" font-size="10.00">cstdint</text>
</g>
<!-- Node6&#45;&gt;Node9 -->
<g id="edge9" class="edge"><title>Node6&#45;&gt;Node9</title>
<path fill="none" stroke="midnightblue" d="M378.867,-112.444C401.779,-103.478 437.975,-89.314 463.866,-79.1827"/>
<polygon fill="midnightblue" stroke="midnightblue" points="465.199,-82.4198 473.236,-75.5164 462.648,-75.9011 465.199,-82.4198"/>
</g>
<!-- Node10 -->
<g id="node10" class="node"><title>Node10</title>
<polygon fill="white" stroke="#bfbfbf" points="49.5,-56.5 49.5,-75.5 90.5,-75.5 90.5,-56.5 49.5,-56.5"/>
<text text-anchor="middle" x="70" y="-63.5" font-family="Helvetica,sans-Serif" font-size="10.00">ctime</text>
</g>
<!-- Node6&#45;&gt;Node10 -->
<g id="edge11" class="edge"><title>Node6&#45;&gt;Node10</title>
<path fill="none" stroke="midnightblue" d="M318.217,-115.819C269.391,-108.951 182.821,-95.625 100.287,-76.072"/>
<polygon fill="midnightblue" stroke="midnightblue" points="101.046,-72.6549 90.5045,-73.7202 99.4093,-79.4609 101.046,-72.6549"/>
</g>
<!-- Node11 -->
<g id="node11" class="node"><title>Node11</title>
<polygon fill="white" stroke="#bfbfbf" points="108.5,-56.5 108.5,-75.5 157.5,-75.5 157.5,-56.5 108.5,-56.5"/>
<text text-anchor="middle" x="133" y="-63.5" font-family="Helvetica,sans-Serif" font-size="10.00">cassert</text>
</g>
<!-- Node6&#45;&gt;Node11 -->
<g id="edge12" class="edge"><title>Node6&#45;&gt;Node11</title>
<path fill="none" stroke="midnightblue" d="M319.795,-112.492C283.462,-104.116 226.36,-90.774 167.675,-76.1206"/>
<polygon fill="midnightblue" stroke="midnightblue" points="168.414,-72.6975 157.863,-73.6618 166.712,-79.4876 168.414,-72.6975"/>
</g>
<!-- Node12 -->
<g id="node12" class="node"><title>Node12</title>
<polygon fill="white" stroke="#bfbfbf" points="176,-56.5 176,-75.5 240,-75.5 240,-56.5 176,-56.5"/>
<text text-anchor="middle" x="208" y="-63.5" font-family="Helvetica,sans-Serif" font-size="10.00">wdlstring.h</text>
</g>
<!-- Node6&#45;&gt;Node12 -->
<g id="edge13" class="edge"><title>Node6&#45;&gt;Node12</title>
<path fill="none" stroke="midnightblue" d="M333.391,-112.444C308.542,-103.438 269.226,-89.1891 241.246,-79.049"/>
<polygon fill="midnightblue" stroke="midnightblue" points="242.093,-75.6332 231.499,-75.5164 239.708,-82.2144 242.093,-75.6332"/>
</g>
<!-- Node13 -->
<g id="node13" class="node"><title>Node13</title>
<polygon fill="white" stroke="#bfbfbf" points="258,-56.5 258,-75.5 310,-75.5 310,-56.5 258,-56.5"/>
<text text-anchor="middle" x="284" y="-63.5" font-family="Helvetica,sans-Serif" font-size="10.00">mutex.h</text>
</g>
<!-- Node6&#45;&gt;Node13 -->
<g id="edge14" class="edge"><title>Node6&#45;&gt;Node13</title>
<path fill="none" stroke="midnightblue" d="M345.271,-112.324C334.163,-104.107 317.258,-91.6017 304.017,-81.8069"/>
<polygon fill="midnightblue" stroke="midnightblue" points="306.063,-78.9671 295.942,-75.8339 301.9,-84.5948 306.063,-78.9671"/>
</g>
<!-- Node14 -->
<g id="node14" class="node"><title>Node14</title>
<g id="a_node14"><a xlink:href="_i_plug_constants_8h.html" target="_top" xlink:title="Constant definitions, magic numbers. ">
<polygon fill="white" stroke="black" points="314,-0.5 314,-19.5 406,-19.5 406,-0.5 314,-0.5"/>
<text text-anchor="middle" x="360" y="-7.5" font-family="Helvetica,sans-Serif" font-size="10.00">IPlugConstants.h</text>
</a>
</g>
</g>
<!-- Node6&#45;&gt;Node14 -->
<g id="edge15" class="edge"><title>Node6&#45;&gt;Node14</title>
<path fill="none" stroke="midnightblue" d="M357.235,-112.368C357.72,-94.617 358.836,-53.6664 359.493,-29.5974"/>
<polygon fill="midnightblue" stroke="midnightblue" points="362.992,-29.6832 359.766,-19.5914 355.994,-29.4922 362.992,-29.6832"/>
</g>
<!-- Node15 -->
<g id="node15" class="node"><title>Node15</title>
<g id="a_node15"><a xlink:href="_i_plug_utilities_8h.html" target="_top" xlink:title="Utility functions and macros. ">
<polygon fill="white" stroke="black" points="536,-56.5 536,-75.5 616,-75.5 616,-56.5 536,-56.5"/>
<text text-anchor="middle" x="576" y="-63.5" font-family="Helvetica,sans-Serif" font-size="10.00">IPlugUtilities.h</text>
</a>
</g>
</g>
<!-- Node6&#45;&gt;Node15 -->
<g id="edge16" class="edge"><title>Node6&#45;&gt;Node15</title>
<path fill="none" stroke="midnightblue" d="M391.701,-112.444C429.585,-103.102 490.349,-88.1194 531.662,-77.9326"/>
<polygon fill="midnightblue" stroke="midnightblue" points="532.59,-81.3088 541.461,-75.5164 530.914,-74.5123 532.59,-81.3088"/>
</g>
<!-- Node15&#45;&gt;Node2 -->
<g id="edge18" class="edge"><title>Node15&#45;&gt;Node2</title>
<path fill="none" stroke="midnightblue" d="M535.937,-57.3282C532.918,-56.8461 529.914,-56.3963 527,-56 348.805,-31.7648 133.453,-17.5873 53.1913,-12.821"/>
<polygon fill="midnightblue" stroke="midnightblue" points="52.9683,-9.30201 42.7806,-12.2109 52.5587,-16.29 52.9683,-9.30201"/>
</g>
<!-- Node15&#45;&gt;Node3 -->
<g id="edge23" class="edge"><title>Node15&#45;&gt;Node3</title>
<path fill="none" stroke="midnightblue" d="M576,-75.5914C576,-93.3079 576,-134.254 576,-158.348"/>
<polygon fill="midnightblue" stroke="midnightblue" points="572.5,-158.368 576,-168.368 579.5,-158.369 572.5,-158.368"/>
</g>
<!-- Node15&#45;&gt;Node4 -->
<g id="edge20" class="edge"><title>Node15&#45;&gt;Node4</title>
<path fill="none" stroke="midnightblue" d="M586.925,-56.324C597.175,-48.1849 612.721,-35.8395 625.001,-26.0874"/>
<polygon fill="midnightblue" stroke="midnightblue" points="627.221,-28.7937 632.876,-19.8339 622.868,-23.3119 627.221,-28.7937"/>
</g>
<!-- Node15&#45;&gt;Node5 -->
<g id="edge19" class="edge"><title>Node15&#45;&gt;Node5</title>
<path fill="none" stroke="midnightblue" d="M597.867,-56.4435C620.779,-47.4776 656.975,-33.314 682.866,-23.1827"/>
<polygon fill="midnightblue" stroke="midnightblue" points="684.199,-26.4198 692.236,-19.5164 681.648,-19.9011 684.199,-26.4198"/>
</g>
<!-- Node15&#45;&gt;Node7 -->
<g id="edge21" class="edge"><title>Node15&#45;&gt;Node7</title>
<path fill="none" stroke="midnightblue" d="M558.809,-56.324C541.649,-47.6641 515.054,-34.2424 495.253,-24.249"/>
<polygon fill="midnightblue" stroke="midnightblue" points="496.653,-21.0354 486.149,-19.6545 493.499,-27.2847 496.653,-21.0354"/>
</g>
<!-- Node15&#45;&gt;Node14 -->
<g id="edge22" class="edge"><title>Node15&#45;&gt;Node14</title>
<path fill="none" stroke="midnightblue" d="M541.774,-56.4435C504.488,-47.1221 444.731,-32.1828 403.989,-21.9972"/>
<polygon fill="midnightblue" stroke="midnightblue" points="404.616,-18.5464 394.066,-19.5164 402.918,-25.3374 404.616,-18.5464"/>
</g>
<!-- Node16 -->
<g id="node16" class="node"><title>Node16</title>
<polygon fill="white" stroke="#bfbfbf" points="554,-0.5 554,-19.5 598,-19.5 598,-0.5 554,-0.5"/>
<text text-anchor="middle" x="576" y="-7.5" font-family="Helvetica,sans-Serif" font-size="10.00">cmath</text>
</g>
<!-- Node15&#45;&gt;Node16 -->
<g id="edge17" class="edge"><title>Node15&#45;&gt;Node16</title>
<path fill="none" stroke="midnightblue" d="M576,-56.083C576,-49.0059 576,-38.8611 576,-29.9865"/>
<polygon fill="midnightblue" stroke="midnightblue" points="579.5,-29.751 576,-19.7511 572.5,-29.7511 579.5,-29.751"/>
</g>
</g>
</svg>
        <g id="navigator" transform="translate(0 0)" fill="#404254">
                <rect fill="#f2f5e9" fill-opacity="0.5" stroke="#606060" stroke-width=".5" x="0" y="0" width="60" height="60"/>
                <use id="zoomplus" xlink:href="#zoomPlus" x="17" y="9" onmousedown="handleZoom(evt,'in')"/>
                <use id="zoomminus" xlink:href="#zoomMin" x="42" y="9" onmousedown="handleZoom(evt,'out')"/>
                <use id="reset" xlink:href="#resetDef" x="30" y="36" onmousedown="handleReset()"/>
                <g id="arrowUp" xlink:href="#dirArrow" transform="translate(30 24)" onmousedown="handlePan(0,-1)">
                  <use xlink:href="#rim" fill="#404040">
                        <set attributeName="fill" to="#808080" begin="arrowUp.mouseover" end="arrowUp.mouseout"/>
                  </use>
                  <path fill="none" stroke="white" stroke-width="1.5" d="M0,-3.0v7 M-2.5,-0.5L0,-3.0L2.5,-0.5"/>
                </g>
                <g id="arrowRight" xlink:href="#dirArrow" transform="rotate(90) translate(36 -43)" onmousedown="handlePan(1,0)">
                  <use xlink:href="#rim" fill="#404040">
                        <set attributeName="fill" to="#808080" begin="arrowRight.mouseover" end="arrowRight.mouseout"/>
                  </use>
                  <path fill="none" stroke="white" stroke-width="1.5" d="M0,-3.0v7 M-2.5,-0.5L0,-3.0L2.5,-0.5"/>
                </g>
                <g id="arrowDown" xlink:href="#dirArrow" transform="rotate(180) translate(-30 -48)" onmousedown="handlePan(0,1)">
                  <use xlink:href="#rim" fill="#404040">
                        <set attributeName="fill" to="#808080" begin="arrowDown.mouseover" end="arrowDown.mouseout"/>
                  </use>
                  <path fill="none" stroke="white" stroke-width="1.5" d="M0,-3.0v7 M-2.5,-0.5L0,-3.0L2.5,-0.5"/>
                </g>
                <g id="arrowLeft" xlink:href="#dirArrow" transform="rotate(270) translate(-36 17)" onmousedown="handlePan(-1,0)">
                  <use xlink:href="#rim" fill="#404040">
                        <set attributeName="fill" to="#808080" begin="arrowLeft.mouseover" end="arrowLeft.mouseout"/>
                  </use>
                  <path fill="none" stroke="white" stroke-width="1.5" d="M0,-3.0v7 M-2.5,-0.5L0,-3.0L2.5,-0.5"/>
                </g>
        </g>
        <svg viewBox="0 0 15 15" width="100%" height="30px" preserveAspectRatio="xMaxYMin meet">
         <g id="arrow_out" transform="scale(0.3 0.3)">
          <a xlink:href="_i_plug__include__in__plug__hdr_8h__incl_org.svg" target="_base">
           <rect id="button" ry="5" rx="5" y="6" x="6" height="38" width="38"
                fill="#f2f5e9" fill-opacity="0.5" stroke="#606060" stroke-width="1.0"/>
           <path id="arrow"
             d="M 11.500037,31.436501 C 11.940474,20.09759 22.043105,11.32322 32.158766,21.979434 L 37.068811,17.246167 C 37.068811,17.246167 37.088388,32 37.088388,32 L 22.160133,31.978069 C 22.160133,31.978069 26.997745,27.140456 26.997745,27.140456 C 18.528582,18.264221 13.291696,25.230495 11.500037,31.436501 z"
             style="fill:#404040;"/>
          </a>
         </g>
        </svg>
</svg>
