<?xml version="1.0" encoding="UTF-8" standalone="no"?>
<!DOCTYPE svg PUBLIC "-//W3C//DTD SVG 1.1//EN"
 "http://www.w3.org/Graphics/SVG/1.1/DTD/svg11.dtd">
<!-- Generated by graphviz version 2.36.0 (20140111.2315)
 -->
<!-- Title: IPlugBaseGraphics.h Pages: 1 -->
<!--zoomable 364 -->
<svg id="main" version="1.1" xmlns="http://www.w3.org/2000/svg" xmlns:xlink="http://www.w3.org/1999/xlink" xml:space="preserve" onload="init(evt)">
<style type="text/css"><![CDATA[
.edge:hover path { stroke: red; }
.edge:hover polygon { stroke: red; fill: red; }
]]></style>
<script type="text/javascript"><![CDATA[
var edges = document.getElementsByTagName('g');
if (edges && edges.length) {
  for (var i=0;i<edges.length;i++) {
    if (edges[i].id.substr(0,4)=='edge') {
      edges[i].setAttribute('class','edge');
    }
  }
}
]]></script>
        <defs>
                <circle id="rim" cx="0" cy="0" r="7"/>
                <circle id="rim2" cx="0" cy="0" r="3.5"/>
                <g id="zoomPlus">
                        <use xlink:href="#rim" fill="#404040">
                                <set attributeName="fill" to="#808080" begin="zoomplus.mouseover" end="zoomplus.mouseout"/>
                        </use>
                        <path d="M-4,0h8M0,-4v8" fill="none" stroke="white" stroke-width="1.5" pointer-events="none"/>
                </g>
                <g id="zoomMin">
                        <use xlink:href="#rim" fill="#404040">
                                <set attributeName="fill" to="#808080" begin="zoomminus.mouseover" end="zoomminus.mouseout"/>
                        </use>
                        <path d="M-4,0h8" fill="none" stroke="white" stroke-width="1.5" pointer-events="none"/>
                </g>
                <g id="dirArrow">
                        <path fill="none" stroke="white" stroke-width="1.5" d="M0,-3.0v7 M-2.5,-0.5L0,-3.0L2.5,-0.5"/>
                </g>
               <g id="resetDef">
                       <use xlink:href="#rim2" fill="#404040">
                               <set attributeName="fill" to="#808080" begin="reset.mouseover" end="reset.mouseout"/>
                       </use>
               </g>
        </defs>

<script type="text/javascript">
var viewWidth = 975;
var viewHeight = 364;
var sectionId = 'dynsection-0';
</script>
<script xlink:href="svgpan.js"/>
<svg id="graph" class="graph">
<g id="viewport">
<title>IPlugBaseGraphics.h</title>
<polygon fill="white" stroke="none" points="-4,4 -4,-360 971,-360 971,4 -4,4"/>
<!-- Node1 -->
<g id="node1" class="node"><title>Node1</title>
<polygon fill="#bfbfbf" stroke="black" points="561.5,-336.5 561.5,-355.5 670.5,-355.5 670.5,-336.5 561.5,-336.5"/>
<text text-anchor="middle" x="616" y="-343.5" font-family="Helvetica,sans-Serif" font-size="10.00">IPlugBaseGraphics.h</text>
</g>
<!-- Node2 -->
<g id="node2" class="node"><title>Node2</title>
<g id="a_node2"><a xlink:href="_i_plug_base_8h.html" target="_top" xlink:title="The lowest level base class of an IPlug plug&#45;in. ">
<polygon fill="white" stroke="black" points="533,-280.5 533,-299.5 603,-299.5 603,-280.5 533,-280.5"/>
<text text-anchor="middle" x="568" y="-287.5" font-family="Helvetica,sans-Serif" font-size="10.00">IPlugBase.h</text>
</a>
</g>
</g>
<!-- Node1&#45;&gt;Node2 -->
<g id="edge1" class="edge"><title>Node1&#45;&gt;Node2</title>
<path fill="none" stroke="midnightblue" d="M608.074,-336.083C601.154,-328.298 590.935,-316.801 582.548,-307.367"/>
<polygon fill="midnightblue" stroke="midnightblue" points="585.038,-304.9 575.779,-299.751 579.806,-309.55 585.038,-304.9"/>
</g>
<!-- Node23 -->
<g id="node23" class="node"><title>Node23</title>
<g id="a_node23"><a xlink:href="_i_plug_delegate_8h_source.html" target="_top" xlink:title="IPlugDelegate.h">
<polygon fill="white" stroke="black" points="621,-280.5 621,-299.5 707,-299.5 707,-280.5 621,-280.5"/>
<text text-anchor="middle" x="664" y="-287.5" font-family="Helvetica,sans-Serif" font-size="10.00">IPlugDelegate.h</text>
</a>
</g>
</g>
<!-- Node1&#45;&gt;Node23 -->
<g id="edge44" class="edge"><title>Node1&#45;&gt;Node23</title>
<path fill="none" stroke="midnightblue" d="M623.926,-336.083C630.846,-328.298 641.065,-316.801 649.452,-307.367"/>
<polygon fill="midnightblue" stroke="midnightblue" points="652.194,-309.55 656.221,-299.751 646.962,-304.9 652.194,-309.55"/>
</g>
<!-- Node3 -->
<g id="node3" class="node"><title>Node3</title>
<polygon fill="white" stroke="#bfbfbf" points="53,-0.5 53,-19.5 99,-19.5 99,-0.5 53,-0.5"/>
<text text-anchor="middle" x="76" y="-7.5" font-family="Helvetica,sans-Serif" font-size="10.00">cstring</text>
</g>
<!-- Node2&#45;&gt;Node3 -->
<g id="edge2" class="edge"><title>Node2&#45;&gt;Node3</title>
<path fill="none" stroke="midnightblue" d="M532.898,-289.702C409.061,-291.25 0,-288.107 0,-179 0,-179 0,-179 0,-121 0,-81.2757 33.9641,-45.5045 56.4821,-26.1536"/>
<polygon fill="midnightblue" stroke="midnightblue" points="58.9755,-28.6337 64.4572,-19.5672 54.518,-23.2364 58.9755,-28.6337"/>
</g>
<!-- Node4 -->
<g id="node4" class="node"><title>Node4</title>
<polygon fill="white" stroke="#bfbfbf" points="669,-56.5 669,-75.5 715,-75.5 715,-56.5 669,-56.5"/>
<text text-anchor="middle" x="692" y="-63.5" font-family="Helvetica,sans-Serif" font-size="10.00">cstdint</text>
</g>
<!-- Node2&#45;&gt;Node4 -->
<g id="edge3" class="edge"><title>Node2&#45;&gt;Node4</title>
<path fill="none" stroke="midnightblue" d="M579.184,-280.365C598.96,-264.433 639.902,-228.336 660,-188 676.899,-154.085 685.623,-110.229 689.469,-85.7128"/>
<polygon fill="midnightblue" stroke="midnightblue" points="692.959,-86.0373 690.942,-75.6362 686.032,-85.0247 692.959,-86.0373"/>
</g>
<!-- Node5 -->
<g id="node5" class="node"><title>Node5</title>
<polygon fill="white" stroke="#bfbfbf" points="917.5,-224.5 917.5,-243.5 966.5,-243.5 966.5,-224.5 917.5,-224.5"/>
<text text-anchor="middle" x="942" y="-231.5" font-family="Helvetica,sans-Serif" font-size="10.00">ptrlist.h</text>
</g>
<!-- Node2&#45;&gt;Node5 -->
<g id="edge4" class="edge"><title>Node2&#45;&gt;Node5</title>
<path fill="none" stroke="midnightblue" d="M603.019,-281.578C606.051,-281.014 609.076,-280.479 612,-280 740.604,-258.926 774.67,-266.682 903,-244 904.454,-243.743 905.935,-243.467 907.43,-243.176"/>
<polygon fill="midnightblue" stroke="midnightblue" points="908.253,-246.58 917.322,-241.102 906.816,-239.729 908.253,-246.58"/>
</g>
<!-- Node6 -->
<g id="node6" class="node"><title>Node6</title>
<polygon fill="white" stroke="#bfbfbf" points="733,-56.5 733,-75.5 785,-75.5 785,-56.5 733,-56.5"/>
<text text-anchor="middle" x="759" y="-63.5" font-family="Helvetica,sans-Serif" font-size="10.00">mutex.h</text>
</g>
<!-- Node2&#45;&gt;Node6 -->
<g id="edge5" class="edge"><title>Node2&#45;&gt;Node6</title>
<path fill="none" stroke="midnightblue" d="M587.48,-280.361C603.651,-272.52 626.577,-259.783 643,-244 694.134,-194.857 734.108,-119.19 750.679,-84.9388"/>
<polygon fill="midnightblue" stroke="midnightblue" points="753.931,-86.2489 755.057,-75.714 747.607,-83.2477 753.931,-86.2489"/>
</g>
<!-- Node7 -->
<g id="node7" class="node"><title>Node7</title>
<g id="a_node7"><a xlink:href="_i_plug_platform_8h.html" target="_top" xlink:title="Include to get consistently named preprocessor macros for different platforms and logging functionali...">
<polygon fill="white" stroke="black" points="428,-168.5 428,-187.5 512,-187.5 512,-168.5 428,-168.5"/>
<text text-anchor="middle" x="470" y="-175.5" font-family="Helvetica,sans-Serif" font-size="10.00">IPlugPlatform.h</text>
</a>
</g>
</g>
<!-- Node2&#45;&gt;Node7 -->
<g id="edge6" class="edge"><title>Node2&#45;&gt;Node7</title>
<path fill="none" stroke="midnightblue" d="M557.347,-280.207C547.055,-271.488 531.264,-257.514 519,-244 505.111,-228.695 491.099,-209.663 481.637,-196.157"/>
<polygon fill="midnightblue" stroke="midnightblue" points="484.433,-194.046 475.872,-187.804 478.672,-198.022 484.433,-194.046"/>
</g>
<!-- Node16 -->
<g id="node16" class="node"><title>Node16</title>
<g id="a_node16"><a xlink:href="_i_plug_constants_8h.html" target="_top" xlink:title="Constant definitions, magic numbers. ">
<polygon fill="white" stroke="black" points="767,-0.5 767,-19.5 859,-19.5 859,-0.5 767,-0.5"/>
<text text-anchor="middle" x="813" y="-7.5" font-family="Helvetica,sans-Serif" font-size="10.00">IPlugConstants.h</text>
</a>
</g>
</g>
<!-- Node2&#45;&gt;Node16 -->
<g id="edge28" class="edge"><title>Node2&#45;&gt;Node16</title>
<path fill="none" stroke="midnightblue" d="M603.271,-280.726C686.658,-260.674 889,-208.934 889,-179 889,-179 889,-179 889,-121 889,-81.2757 855.036,-45.5045 832.518,-26.1536"/>
<polygon fill="midnightblue" stroke="midnightblue" points="834.482,-23.2364 824.543,-19.5672 830.024,-28.6337 834.482,-23.2364"/>
</g>
<!-- Node17 -->
<g id="node17" class="node"><title>Node17</title>
<g id="a_node17"><a xlink:href="_i_plug_utilities_8h.html" target="_top" xlink:title="Utility functions and macros. ">
<polygon fill="white" stroke="black" points="224,-56.5 224,-75.5 304,-75.5 304,-56.5 224,-56.5"/>
<text text-anchor="middle" x="264" y="-63.5" font-family="Helvetica,sans-Serif" font-size="10.00">IPlugUtilities.h</text>
</a>
</g>
</g>
<!-- Node2&#45;&gt;Node17 -->
<g id="edge39" class="edge"><title>Node2&#45;&gt;Node17</title>
<path fill="none" stroke="midnightblue" d="M554.912,-280.451C541.181,-271.457 518.996,-256.85 500,-244 429.603,-196.379 412.037,-184.246 345,-132 323.401,-115.167 298.921,-95.4291 282.58,-82.1579"/>
<polygon fill="midnightblue" stroke="midnightblue" points="284.375,-79.1062 274.41,-75.5098 279.957,-84.536 284.375,-79.1062"/>
</g>
<!-- Node19 -->
<g id="node19" class="node"><title>Node19</title>
<g id="a_node19"><a xlink:href="_i_plug_structs_8h_source.html" target="_top" xlink:title="IPlugStructs.h">
<polygon fill="white" stroke="black" points="528.5,-224.5 528.5,-243.5 607.5,-243.5 607.5,-224.5 528.5,-224.5"/>
<text text-anchor="middle" x="568" y="-231.5" font-family="Helvetica,sans-Serif" font-size="10.00">IPlugStructs.h</text>
</a>
</g>
</g>
<!-- Node2&#45;&gt;Node19 -->
<g id="edge29" class="edge"><title>Node2&#45;&gt;Node19</title>
<path fill="none" stroke="midnightblue" d="M568,-280.083C568,-273.006 568,-262.861 568,-253.986"/>
<polygon fill="midnightblue" stroke="midnightblue" points="571.5,-253.751 568,-243.751 564.5,-253.751 571.5,-253.751"/>
</g>
<!-- Node22 -->
<g id="node22" class="node"><title>Node22</title>
<g id="a_node22"><a xlink:href="_i_plug_parameter_8h_source.html" target="_top" xlink:title="IPlugParameter.h">
<polygon fill="white" stroke="black" points="106,-112.5 106,-131.5 198,-131.5 198,-112.5 106,-112.5"/>
<text text-anchor="middle" x="152" y="-119.5" font-family="Helvetica,sans-Serif" font-size="10.00">IPlugParameter.h</text>
</a>
</g>
</g>
<!-- Node2&#45;&gt;Node22 -->
<g id="edge40" class="edge"><title>Node2&#45;&gt;Node22</title>
<path fill="none" stroke="midnightblue" d="M532.753,-286.346C464.882,-280.793 318.791,-266.56 274,-244 224.666,-219.152 182.872,-166.945 163.521,-139.957"/>
<polygon fill="midnightblue" stroke="midnightblue" points="166.238,-137.735 157.636,-131.549 160.503,-141.749 166.238,-137.735"/>
</g>
<!-- Node7&#45;&gt;Node3 -->
<g id="edge7" class="edge"><title>Node7&#45;&gt;Node3</title>
<path fill="none" stroke="midnightblue" d="M427.76,-177.638C340.747,-178.064 145.593,-174.155 97,-132 67.9702,-106.816 69.4093,-57.1095 72.8027,-29.8982"/>
<polygon fill="midnightblue" stroke="midnightblue" points="76.3028,-30.1531 74.2935,-19.7505 69.3771,-29.1356 76.3028,-30.1531"/>
</g>
<!-- Node8 -->
<g id="node8" class="node"><title>Node8</title>
<polygon fill="white" stroke="#bfbfbf" points="492.5,-0.5 492.5,-19.5 537.5,-19.5 537.5,-0.5 492.5,-0.5"/>
<text text-anchor="middle" x="515" y="-7.5" font-family="Helvetica,sans-Serif" font-size="10.00">cstdlib</text>
</g>
<!-- Node7&#45;&gt;Node8 -->
<g id="edge8" class="edge"><title>Node7&#45;&gt;Node8</title>
<path fill="none" stroke="midnightblue" d="M478.698,-168.226C486.522,-159.736 497.594,-146.113 503,-132 516.168,-97.6234 516.964,-53.9351 516.134,-29.5721"/>
<polygon fill="midnightblue" stroke="midnightblue" points="519.629,-29.3878 515.659,-19.5648 512.637,-29.7193 519.629,-29.3878"/>
</g>
<!-- Node9 -->
<g id="node9" class="node"><title>Node9</title>
<g id="a_node9"><a xlink:href="_i_plug_logger_8h.html" target="_top" xlink:title="IPlug logging a.k.a tracing functionailty. ">
<polygon fill="white" stroke="black" points="417.5,-112.5 417.5,-131.5 494.5,-131.5 494.5,-112.5 417.5,-112.5"/>
<text text-anchor="middle" x="456" y="-119.5" font-family="Helvetica,sans-Serif" font-size="10.00">IPlugLogger.h</text>
</a>
</g>
</g>
<!-- Node7&#45;&gt;Node9 -->
<g id="edge9" class="edge"><title>Node7&#45;&gt;Node9</title>
<path fill="none" stroke="midnightblue" d="M467.688,-168.083C465.833,-160.927 463.165,-150.635 460.846,-141.691"/>
<polygon fill="midnightblue" stroke="midnightblue" points="464.166,-140.553 458.269,-131.751 457.391,-142.309 464.166,-140.553"/>
</g>
<!-- Node9&#45;&gt;Node3 -->
<g id="edge14" class="edge"><title>Node9&#45;&gt;Node3</title>
<path fill="none" stroke="midnightblue" d="M417.098,-117.362C368.677,-112.018 283.95,-99.967 215,-76 196.973,-69.7337 194.17,-64.3325 177,-56 153.253,-44.4761 125.879,-32.3495 105.624,-23.5921"/>
<polygon fill="midnightblue" stroke="midnightblue" points="106.869,-20.3176 96.2996,-19.5811 104.103,-26.7479 106.869,-20.3176"/>
</g>
<!-- Node9&#45;&gt;Node4 -->
<g id="edge13" class="edge"><title>Node9&#45;&gt;Node4</title>
<path fill="none" stroke="midnightblue" d="M494.668,-113.007C535.607,-104.409 602.052,-90.069 659,-76 659.101,-75.9751 659.202,-75.9501 659.303,-75.925"/>
<polygon fill="midnightblue" stroke="midnightblue" points="660.148,-79.3216 668.958,-73.436 658.401,-72.5433 660.148,-79.3216"/>
</g>
<!-- Node9&#45;&gt;Node6 -->
<g id="edge18" class="edge"><title>Node9&#45;&gt;Node6</title>
<path fill="none" stroke="midnightblue" d="M494.807,-115.546C545.166,-108.236 635.946,-94.2679 722.676,-76.1382"/>
<polygon fill="midnightblue" stroke="midnightblue" points="723.623,-79.5155 732.683,-74.0237 722.176,-72.6668 723.623,-79.5155"/>
</g>
<!-- Node10 -->
<g id="node10" class="node"><title>Node10</title>
<polygon fill="white" stroke="#bfbfbf" points="307.5,-0.5 307.5,-19.5 350.5,-19.5 350.5,-0.5 307.5,-0.5"/>
<text text-anchor="middle" x="329" y="-7.5" font-family="Helvetica,sans-Serif" font-size="10.00">cstdio</text>
</g>
<!-- Node9&#45;&gt;Node10 -->
<g id="edge10" class="edge"><title>Node9&#45;&gt;Node10</title>
<path fill="none" stroke="midnightblue" d="M417.449,-112.787C395.305,-106.241 368.501,-94.9327 351,-76 339.259,-63.2985 333.759,-44.097 331.198,-29.8537"/>
<polygon fill="midnightblue" stroke="midnightblue" points="334.625,-29.0991 329.711,-19.7128 327.699,-30.1148 334.625,-29.0991"/>
</g>
<!-- Node11 -->
<g id="node11" class="node"><title>Node11</title>
<polygon fill="white" stroke="#bfbfbf" points="389,-0.5 389,-19.5 435,-19.5 435,-0.5 389,-0.5"/>
<text text-anchor="middle" x="412" y="-7.5" font-family="Helvetica,sans-Serif" font-size="10.00">cctype</text>
</g>
<!-- Node9&#45;&gt;Node11 -->
<g id="edge11" class="edge"><title>Node9&#45;&gt;Node11</title>
<path fill="none" stroke="midnightblue" d="M463.073,-112.215C472.5,-99.3617 486.907,-74.9081 477,-56 469.721,-42.1082 455.991,-31.6523 443.017,-24.3328"/>
<polygon fill="midnightblue" stroke="midnightblue" points="444.296,-21.0532 433.808,-19.553 441.072,-27.2662 444.296,-21.0532"/>
</g>
<!-- Node12 -->
<g id="node12" class="node"><title>Node12</title>
<polygon fill="white" stroke="#bfbfbf" points="360.5,-56.5 360.5,-75.5 409.5,-75.5 409.5,-56.5 360.5,-56.5"/>
<text text-anchor="middle" x="385" y="-63.5" font-family="Helvetica,sans-Serif" font-size="10.00">cstdarg</text>
</g>
<!-- Node9&#45;&gt;Node12 -->
<g id="edge12" class="edge"><title>Node9&#45;&gt;Node12</title>
<path fill="none" stroke="midnightblue" d="M444.593,-112.324C433.891,-104.185 417.659,-91.8395 404.837,-82.0874"/>
<polygon fill="midnightblue" stroke="midnightblue" points="406.693,-79.1018 396.615,-75.8339 402.456,-84.6734 406.693,-79.1018"/>
</g>
<!-- Node13 -->
<g id="node13" class="node"><title>Node13</title>
<polygon fill="white" stroke="#bfbfbf" points="427.5,-56.5 427.5,-75.5 468.5,-75.5 468.5,-56.5 427.5,-56.5"/>
<text text-anchor="middle" x="448" y="-63.5" font-family="Helvetica,sans-Serif" font-size="10.00">ctime</text>
</g>
<!-- Node9&#45;&gt;Node13 -->
<g id="edge15" class="edge"><title>Node9&#45;&gt;Node13</title>
<path fill="none" stroke="midnightblue" d="M454.679,-112.083C453.619,-104.927 452.094,-94.6353 450.769,-85.6911"/>
<polygon fill="midnightblue" stroke="midnightblue" points="454.224,-85.1302 449.296,-75.7511 447.3,-86.1561 454.224,-85.1302"/>
</g>
<!-- Node14 -->
<g id="node14" class="node"><title>Node14</title>
<polygon fill="white" stroke="#bfbfbf" points="601.5,-56.5 601.5,-75.5 650.5,-75.5 650.5,-56.5 601.5,-56.5"/>
<text text-anchor="middle" x="626" y="-63.5" font-family="Helvetica,sans-Serif" font-size="10.00">cassert</text>
</g>
<!-- Node9&#45;&gt;Node14 -->
<g id="edge16" class="edge"><title>Node9&#45;&gt;Node14</title>
<path fill="none" stroke="midnightblue" d="M482.937,-112.444C512.336,-103.105 559.487,-88.1276 591.556,-77.9409"/>
<polygon fill="midnightblue" stroke="midnightblue" points="592.926,-81.1783 601.397,-74.8151 590.807,-74.5068 592.926,-81.1783"/>
</g>
<!-- Node15 -->
<g id="node15" class="node"><title>Node15</title>
<polygon fill="white" stroke="#bfbfbf" points="104,-56.5 104,-75.5 168,-75.5 168,-56.5 104,-56.5"/>
<text text-anchor="middle" x="136" y="-63.5" font-family="Helvetica,sans-Serif" font-size="10.00">wdlstring.h</text>
</g>
<!-- Node9&#45;&gt;Node15 -->
<g id="edge17" class="edge"><title>Node9&#45;&gt;Node15</title>
<path fill="none" stroke="midnightblue" d="M417.367,-115.035C364.255,-106.747 265.741,-91.0649 182,-76 180.739,-75.7731 179.458,-75.54 178.166,-75.3024"/>
<polygon fill="midnightblue" stroke="midnightblue" points="178.622,-71.8268 168.147,-73.419 177.328,-78.7063 178.622,-71.8268"/>
</g>
<!-- Node9&#45;&gt;Node16 -->
<g id="edge19" class="edge"><title>Node9&#45;&gt;Node16</title>
<path fill="none" stroke="midnightblue" d="M470.988,-112.324C495.514,-98.4781 546.096,-71.3834 592,-56 646.707,-37.6664 711.657,-25.5291 756.933,-18.5292"/>
<polygon fill="midnightblue" stroke="midnightblue" points="757.49,-21.9848 766.855,-17.0287 756.444,-15.0635 757.49,-21.9848"/>
</g>
<!-- Node9&#45;&gt;Node17 -->
<g id="edge20" class="edge"><title>Node9&#45;&gt;Node17</title>
<path fill="none" stroke="midnightblue" d="M425.577,-112.444C392.715,-103.201 340.215,-88.4356 304.026,-78.2572"/>
<polygon fill="midnightblue" stroke="midnightblue" points="304.855,-74.8547 294.281,-75.5164 302.96,-81.5932 304.855,-74.8547"/>
</g>
<!-- Node17&#45;&gt;Node3 -->
<g id="edge24" class="edge"><title>Node17&#45;&gt;Node3</title>
<path fill="none" stroke="midnightblue" d="M234.211,-56.4435C200.098,-46.6451 144.373,-30.6391 108.978,-20.4723"/>
<polygon fill="midnightblue" stroke="midnightblue" points="109.708,-17.0407 99.1305,-17.6439 107.776,-23.7686 109.708,-17.0407"/>
</g>
<!-- Node17&#45;&gt;Node7 -->
<g id="edge27" class="edge"><title>Node17&#45;&gt;Node7</title>
<path fill="none" stroke="midnightblue" d="M280.089,-75.5914C315.82,-94.6708 402.002,-140.691 444.889,-163.591"/>
<polygon fill="midnightblue" stroke="midnightblue" points="443.366,-166.746 453.836,-168.368 446.663,-160.571 443.366,-166.746"/>
</g>
<!-- Node17&#45;&gt;Node8 -->
<g id="edge23" class="edge"><title>Node17&#45;&gt;Node8</title>
<path fill="none" stroke="midnightblue" d="M303.772,-56.4435C353.145,-45.8213 436.429,-27.9038 482.282,-18.039"/>
<polygon fill="midnightblue" stroke="midnightblue" points="483.242,-21.4126 492.282,-15.8876 481.769,-14.5692 483.242,-21.4126"/>
</g>
<!-- Node17&#45;&gt;Node10 -->
<g id="edge22" class="edge"><title>Node17&#45;&gt;Node10</title>
<path fill="none" stroke="midnightblue" d="M274.443,-56.324C284.146,-48.2631 298.815,-36.0765 310.5,-26.3695"/>
<polygon fill="midnightblue" stroke="midnightblue" points="312.911,-28.9163 318.367,-19.8339 308.438,-23.532 312.911,-28.9163"/>
</g>
<!-- Node17&#45;&gt;Node11 -->
<g id="edge25" class="edge"><title>Node17&#45;&gt;Node11</title>
<path fill="none" stroke="midnightblue" d="M287.451,-56.4435C312.133,-47.4381 351.185,-33.1891 378.977,-23.049"/>
<polygon fill="midnightblue" stroke="midnightblue" points="380.464,-26.2321 388.659,-19.5164 378.065,-19.6561 380.464,-26.2321"/>
</g>
<!-- Node17&#45;&gt;Node16 -->
<g id="edge26" class="edge"><title>Node17&#45;&gt;Node16</title>
<path fill="none" stroke="midnightblue" d="M304.277,-60.7827C318.979,-59.2566 335.74,-57.5325 351,-56 497.207,-41.3172 669.517,-24.7213 756.574,-16.3863"/>
<polygon fill="midnightblue" stroke="midnightblue" points="757.14,-19.8482 766.761,-15.4114 756.473,-12.8801 757.14,-19.8482"/>
</g>
<!-- Node18 -->
<g id="node18" class="node"><title>Node18</title>
<polygon fill="white" stroke="#bfbfbf" points="242,-0.5 242,-19.5 286,-19.5 286,-0.5 242,-0.5"/>
<text text-anchor="middle" x="264" y="-7.5" font-family="Helvetica,sans-Serif" font-size="10.00">cmath</text>
</g>
<!-- Node17&#45;&gt;Node18 -->
<g id="edge21" class="edge"><title>Node17&#45;&gt;Node18</title>
<path fill="none" stroke="midnightblue" d="M264,-56.083C264,-49.0059 264,-38.8611 264,-29.9865"/>
<polygon fill="midnightblue" stroke="midnightblue" points="267.5,-29.751 264,-19.7511 260.5,-29.7511 267.5,-29.751"/>
</g>
<!-- Node19&#45;&gt;Node7 -->
<g id="edge33" class="edge"><title>Node19&#45;&gt;Node7</title>
<path fill="none" stroke="midnightblue" d="M552.255,-224.324C536.681,-215.743 512.623,-202.486 494.541,-192.522"/>
<polygon fill="midnightblue" stroke="midnightblue" points="496.154,-189.415 485.706,-187.655 492.776,-195.546 496.154,-189.415"/>
</g>
<!-- Node19&#45;&gt;Node15 -->
<g id="edge31" class="edge"><title>Node19&#45;&gt;Node15</title>
<path fill="none" stroke="midnightblue" d="M535.983,-224.438C505.58,-216.049 458.745,-202.448 419,-188 323.427,-153.257 213.552,-103.299 163.458,-79.949"/>
<polygon fill="midnightblue" stroke="midnightblue" points="164.8,-76.7125 154.259,-75.6461 161.834,-83.0532 164.8,-76.7125"/>
</g>
<!-- Node19&#45;&gt;Node16 -->
<g id="edge32" class="edge"><title>Node19&#45;&gt;Node16</title>
<path fill="none" stroke="midnightblue" d="M599.142,-224.488C655.075,-207.277 770.828,-162.415 815,-76 822.307,-61.7061 820.88,-43.2385 818.167,-29.6431"/>
<polygon fill="midnightblue" stroke="midnightblue" points="821.486,-28.4747 815.749,-19.5674 814.679,-30.1081 821.486,-28.4747"/>
</g>
<!-- Node20 -->
<g id="node20" class="node"><title>Node20</title>
<polygon fill="white" stroke="#bfbfbf" points="596,-168.5 596,-187.5 652,-187.5 652,-168.5 596,-168.5"/>
<text text-anchor="middle" x="624" y="-175.5" font-family="Helvetica,sans-Serif" font-size="10.00">algorithm</text>
</g>
<!-- Node19&#45;&gt;Node20 -->
<g id="edge30" class="edge"><title>Node19&#45;&gt;Node20</title>
<path fill="none" stroke="midnightblue" d="M576.997,-224.324C585.194,-216.42 597.506,-204.548 607.472,-194.938"/>
<polygon fill="midnightblue" stroke="midnightblue" points="610.07,-197.295 614.839,-187.834 605.211,-192.256 610.07,-197.295"/>
</g>
<!-- Node21 -->
<g id="node21" class="node"><title>Node21</title>
<g id="a_node21"><a xlink:href="_i_plug_midi_8h_source.html" target="_top" xlink:title="IPlugMidi.h">
<polygon fill="white" stroke="black" points="593.5,-112.5 593.5,-131.5 658.5,-131.5 658.5,-112.5 593.5,-112.5"/>
<text text-anchor="middle" x="626" y="-119.5" font-family="Helvetica,sans-Serif" font-size="10.00">IPlugMidi.h</text>
</a>
</g>
</g>
<!-- Node19&#45;&gt;Node21 -->
<g id="edge34" class="edge"><title>Node19&#45;&gt;Node21</title>
<path fill="none" stroke="midnightblue" d="M569.351,-224.128C571.591,-211.167 576.868,-186.58 587,-168 592.791,-157.381 601.435,-147.068 609.114,-139.001"/>
<polygon fill="midnightblue" stroke="midnightblue" points="611.755,-141.309 616.331,-131.753 606.795,-136.37 611.755,-141.309"/>
</g>
<!-- Node21&#45;&gt;Node4 -->
<g id="edge36" class="edge"><title>Node21&#45;&gt;Node4</title>
<path fill="none" stroke="midnightblue" d="M636.604,-112.324C646.456,-104.263 661.351,-92.0765 673.215,-82.3695"/>
<polygon fill="midnightblue" stroke="midnightblue" points="675.68,-84.8752 681.203,-75.8339 671.247,-79.4575 675.68,-84.8752"/>
</g>
<!-- Node21&#45;&gt;Node14 -->
<g id="edge35" class="edge"><title>Node21&#45;&gt;Node14</title>
<path fill="none" stroke="midnightblue" d="M626,-112.083C626,-105.006 626,-94.8611 626,-85.9865"/>
<polygon fill="midnightblue" stroke="midnightblue" points="629.5,-85.751 626,-75.7511 622.5,-85.7511 629.5,-85.751"/>
</g>
<!-- Node21&#45;&gt;Node16 -->
<g id="edge37" class="edge"><title>Node21&#45;&gt;Node16</title>
<path fill="none" stroke="midnightblue" d="M658.712,-121.287C696.347,-119.808 757.618,-111.566 794,-76 806.206,-64.0676 810.678,-44.7628 812.263,-30.286"/>
<polygon fill="midnightblue" stroke="midnightblue" points="815.78,-30.1696 813.007,-19.9441 808.798,-29.6669 815.78,-30.1696"/>
</g>
<!-- Node21&#45;&gt;Node17 -->
<g id="edge38" class="edge"><title>Node21&#45;&gt;Node17</title>
<path fill="none" stroke="midnightblue" d="M593.236,-116.113C529.739,-106.641 389.56,-85.7299 314.224,-74.492"/>
<polygon fill="midnightblue" stroke="midnightblue" points="314.446,-70.9865 304.039,-72.9727 313.413,-77.9099 314.446,-70.9865"/>
</g>
<!-- Node22&#45;&gt;Node3 -->
<g id="edge41" class="edge"><title>Node22&#45;&gt;Node3</title>
<path fill="none" stroke="midnightblue" d="M136.472,-112.465C123.565,-104.603 105.647,-91.783 95,-76 85.6516,-62.1414 80.8264,-43.6255 78.3838,-29.9012"/>
<polygon fill="midnightblue" stroke="midnightblue" points="81.7985,-29.0728 76.8454,-19.707 74.8769,-30.1174 81.7985,-29.0728"/>
</g>
<!-- Node22&#45;&gt;Node15 -->
<g id="edge42" class="edge"><title>Node22&#45;&gt;Node15</title>
<path fill="none" stroke="midnightblue" d="M149.358,-112.083C147.214,-104.849 144.121,-94.4087 141.451,-85.3968"/>
<polygon fill="midnightblue" stroke="midnightblue" points="144.79,-84.3447 138.593,-75.7511 138.078,-86.3334 144.79,-84.3447"/>
</g>
<!-- Node22&#45;&gt;Node17 -->
<g id="edge43" class="edge"><title>Node22&#45;&gt;Node17</title>
<path fill="none" stroke="midnightblue" d="M169.995,-112.324C188.038,-103.625 216.047,-90.1202 236.803,-80.113"/>
<polygon fill="midnightblue" stroke="midnightblue" points="238.562,-83.1502 246.05,-75.6545 235.522,-76.8449 238.562,-83.1502"/>
</g>
</g>
</svg>
        <g id="navigator" transform="translate(0 0)" fill="#404254">
                <rect fill="#f2f5e9" fill-opacity="0.5" stroke="#606060" stroke-width=".5" x="0" y="0" width="60" height="60"/>
                <use id="zoomplus" xlink:href="#zoomPlus" x="17" y="9" onmousedown="handleZoom(evt,'in')"/>
                <use id="zoomminus" xlink:href="#zoomMin" x="42" y="9" onmousedown="handleZoom(evt,'out')"/>
                <use id="reset" xlink:href="#resetDef" x="30" y="36" onmousedown="handleReset()"/>
                <g id="arrowUp" xlink:href="#dirArrow" transform="translate(30 24)" onmousedown="handlePan(0,-1)">
                  <use xlink:href="#rim" fill="#404040">
                        <set attributeName="fill" to="#808080" begin="arrowUp.mouseover" end="arrowUp.mouseout"/>
                  </use>
                  <path fill="none" stroke="white" stroke-width="1.5" d="M0,-3.0v7 M-2.5,-0.5L0,-3.0L2.5,-0.5"/>
                </g>
                <g id="arrowRight" xlink:href="#dirArrow" transform="rotate(90) translate(36 -43)" onmousedown="handlePan(1,0)">
                  <use xlink:href="#rim" fill="#404040">
                        <set attributeName="fill" to="#808080" begin="arrowRight.mouseover" end="arrowRight.mouseout"/>
                  </use>
                  <path fill="none" stroke="white" stroke-width="1.5" d="M0,-3.0v7 M-2.5,-0.5L0,-3.0L2.5,-0.5"/>
                </g>
                <g id="arrowDown" xlink:href="#dirArrow" transform="rotate(180) translate(-30 -48)" onmousedown="handlePan(0,1)">
                  <use xlink:href="#rim" fill="#404040">
                        <set attributeName="fill" to="#808080" begin="arrowDown.mouseover" end="arrowDown.mouseout"/>
                  </use>
                  <path fill="none" stroke="white" stroke-width="1.5" d="M0,-3.0v7 M-2.5,-0.5L0,-3.0L2.5,-0.5"/>
                </g>
                <g id="arrowLeft" xlink:href="#dirArrow" transform="rotate(270) translate(-36 17)" onmousedown="handlePan(-1,0)">
                  <use xlink:href="#rim" fill="#404040">
                        <set attributeName="fill" to="#808080" begin="arrowLeft.mouseover" end="arrowLeft.mouseout"/>
                  </use>
                  <path fill="none" stroke="white" stroke-width="1.5" d="M0,-3.0v7 M-2.5,-0.5L0,-3.0L2.5,-0.5"/>
                </g>
        </g>
        <svg viewBox="0 0 15 15" width="100%" height="30px" preserveAspectRatio="xMaxYMin meet">
         <g id="arrow_out" transform="scale(0.3 0.3)">
          <a xlink:href="_i_plug_base_graphics_8h__incl_org.svg" target="_base">
           <rect id="button" ry="5" rx="5" y="6" x="6" height="38" width="38"
                fill="#f2f5e9" fill-opacity="0.5" stroke="#606060" stroke-width="1.0"/>
           <path id="arrow"
             d="M 11.500037,31.436501 C 11.940474,20.09759 22.043105,11.32322 32.158766,21.979434 L 37.068811,17.246167 C 37.068811,17.246167 37.088388,32 37.088388,32 L 22.160133,31.978069 C 22.160133,31.978069 26.997745,27.140456 26.997745,27.140456 C 18.528582,18.264221 13.291696,25.230495 11.500037,31.436501 z"
             style="fill:#404040;"/>
          </a>
         </g>
        </svg>
</svg>
