<?xml version="1.0" encoding="UTF-8" standalone="no"?>
<!DOCTYPE svg PUBLIC "-//W3C//DTD SVG 1.1//EN"
 "http://www.w3.org/Graphics/SVG/1.1/DTD/svg11.dtd">
<!-- Generated by graphviz version 2.36.0 (20140111.2315)
 -->
<!-- Title: IPlugVST.h Pages: 1 -->
<svg width="1292pt" height="476pt"
 viewBox="0.00 0.00 1292.19 476.00" xmlns="http://www.w3.org/2000/svg" xmlns:xlink="http://www.w3.org/1999/xlink">
<g id="graph0" class="graph" transform="scale(1 1) rotate(0) translate(4 472)">
<title>IPlugVST.h</title>
<polygon fill="white" stroke="none" points="-4,4 -4,-472 1288.19,-472 1288.19,4 -4,4"/>
<!-- Node1 -->
<g id="node1" class="node"><title>Node1</title>
<polygon fill="#bfbfbf" stroke="black" points="656.692,-448.5 656.692,-467.5 723.692,-467.5 723.692,-448.5 656.692,-448.5"/>
<text text-anchor="middle" x="690.192" y="-455.5" font-family="Helvetica,sans-Serif" font-size="10.00">IPlugVST.h</text>
</g>
<!-- Node2 -->
<g id="node2" class="node"><title>Node2</title>
<polygon fill="white" stroke="#bfbfbf" points="611.192,-392.5 611.192,-411.5 671.192,-411.5 671.192,-392.5 611.192,-392.5"/>
<text text-anchor="middle" x="641.192" y="-399.5" font-family="Helvetica,sans-Serif" font-size="10.00">aeffectx.h</text>
</g>
<!-- Node1&#45;&gt;Node2 -->
<g id="edge1" class="edge"><title>Node1&#45;&gt;Node2</title>
<path fill="none" stroke="midnightblue" d="M682.1,-448.083C675.036,-440.298 664.604,-428.801 656.043,-419.367"/>
<polygon fill="midnightblue" stroke="midnightblue" points="658.444,-416.805 649.132,-411.751 653.26,-421.509 658.444,-416.805"/>
</g>
<!-- Node3 -->
<g id="node3" class="node"><title>Node3</title>
<g id="a_node3"><a xlink:href="_i_plug_base__select_8h_source.html" target="_top" xlink:title="IPlugBase_select.h">
<polygon fill="white" stroke="black" points="689.692,-392.5 689.692,-411.5 790.692,-411.5 790.692,-392.5 689.692,-392.5"/>
<text text-anchor="middle" x="740.192" y="-399.5" font-family="Helvetica,sans-Serif" font-size="10.00">IPlugBase_select.h</text>
</a>
</g>
</g>
<!-- Node1&#45;&gt;Node3 -->
<g id="edge2" class="edge"><title>Node1&#45;&gt;Node3</title>
<path fill="none" stroke="midnightblue" d="M698.448,-448.083C705.656,-440.298 716.301,-428.801 725.037,-419.367"/>
<polygon fill="midnightblue" stroke="midnightblue" points="727.863,-421.467 732.089,-411.751 722.726,-416.711 727.863,-421.467"/>
</g>
<!-- Node4 -->
<g id="node4" class="node"><title>Node4</title>
<g id="a_node4"><a xlink:href="_i_plug_base_graphics_8h.html" target="_top" xlink:title="An IPlugBase class for an IPlug plug&#45;in that uses IGraphics for it&#39;s UI. ">
<polygon fill="white" stroke="black" points="685.692,-336.5 685.692,-355.5 794.692,-355.5 794.692,-336.5 685.692,-336.5"/>
<text text-anchor="middle" x="740.192" y="-343.5" font-family="Helvetica,sans-Serif" font-size="10.00">IPlugBaseGraphics.h</text>
</a>
</g>
</g>
<!-- Node3&#45;&gt;Node4 -->
<g id="edge3" class="edge"><title>Node3&#45;&gt;Node4</title>
<path fill="none" stroke="midnightblue" d="M740.192,-392.083C740.192,-385.006 740.192,-374.861 740.192,-365.986"/>
<polygon fill="midnightblue" stroke="midnightblue" points="743.692,-365.751 740.192,-355.751 736.692,-365.751 743.692,-365.751"/>
</g>
<!-- Node27 -->
<g id="node27" class="node"><title>Node27</title>
<g id="a_node27"><a xlink:href="_i_plug_processor_8h.html" target="_top" xlink:title="The base class for IPlug Audio Processing. ">
<polygon fill="white" stroke="black" points="395.192,-280.5 395.192,-299.5 487.192,-299.5 487.192,-280.5 395.192,-280.5"/>
<text text-anchor="middle" x="441.192" y="-287.5" font-family="Helvetica,sans-Serif" font-size="10.00">IPlugProcessor.h</text>
</a>
</g>
</g>
<!-- Node3&#45;&gt;Node27 -->
<g id="edge48" class="edge"><title>Node3&#45;&gt;Node27</title>
<path fill="none" stroke="midnightblue" d="M716.73,-392.368C663.783,-372.89 534.912,-325.479 474.052,-303.089"/>
<polygon fill="midnightblue" stroke="midnightblue" points="475.138,-299.759 464.545,-299.591 472.721,-306.329 475.138,-299.759"/>
</g>
<!-- Node32 -->
<g id="node32" class="node"><title>Node32</title>
<g id="a_node32"><a xlink:href="_i_plug_presets_8h.html" target="_top" xlink:title="IPlugPresets.h">
<polygon fill="white" stroke="black" points="956.692,-280.5 956.692,-299.5 1037.69,-299.5 1037.69,-280.5 956.692,-280.5"/>
<text text-anchor="middle" x="997.192" y="-287.5" font-family="Helvetica,sans-Serif" font-size="10.00">IPlugPresets.h</text>
</a>
</g>
</g>
<!-- Node3&#45;&gt;Node32 -->
<g id="edge65" class="edge"><title>Node3&#45;&gt;Node32</title>
<path fill="none" stroke="midnightblue" d="M760.358,-392.368C805.491,-373.051 914.813,-326.259 967.641,-303.648"/>
<polygon fill="midnightblue" stroke="midnightblue" points="969.303,-306.744 977.119,-299.591 966.548,-300.309 969.303,-306.744"/>
</g>
<!-- Node5 -->
<g id="node5" class="node"><title>Node5</title>
<g id="a_node5"><a xlink:href="_i_plug_base_8h.html" target="_top" xlink:title="The lowest level base class of an IPlug plug&#45;in. ">
<polygon fill="white" stroke="black" points="753.192,-280.5 753.192,-299.5 823.192,-299.5 823.192,-280.5 753.192,-280.5"/>
<text text-anchor="middle" x="788.192" y="-287.5" font-family="Helvetica,sans-Serif" font-size="10.00">IPlugBase.h</text>
</a>
</g>
</g>
<!-- Node4&#45;&gt;Node5 -->
<g id="edge4" class="edge"><title>Node4&#45;&gt;Node5</title>
<path fill="none" stroke="midnightblue" d="M748.118,-336.083C755.038,-328.298 765.257,-316.801 773.644,-307.367"/>
<polygon fill="midnightblue" stroke="midnightblue" points="776.385,-309.55 780.413,-299.751 771.153,-304.9 776.385,-309.55"/>
</g>
<!-- Node26 -->
<g id="node26" class="node"><title>Node26</title>
<g id="a_node26"><a xlink:href="_i_plug_delegate_8h_source.html" target="_top" xlink:title="IPlugDelegate.h">
<polygon fill="white" stroke="black" points="649.192,-280.5 649.192,-299.5 735.192,-299.5 735.192,-280.5 649.192,-280.5"/>
<text text-anchor="middle" x="692.192" y="-287.5" font-family="Helvetica,sans-Serif" font-size="10.00">IPlugDelegate.h</text>
</a>
</g>
</g>
<!-- Node4&#45;&gt;Node26 -->
<g id="edge47" class="edge"><title>Node4&#45;&gt;Node26</title>
<path fill="none" stroke="midnightblue" d="M732.265,-336.083C725.345,-328.298 715.126,-316.801 706.74,-307.367"/>
<polygon fill="midnightblue" stroke="midnightblue" points="709.23,-304.9 699.97,-299.751 703.998,-309.55 709.23,-304.9"/>
</g>
<!-- Node6 -->
<g id="node6" class="node"><title>Node6</title>
<polygon fill="white" stroke="#bfbfbf" points="1077.19,-0.5 1077.19,-19.5 1123.19,-19.5 1123.19,-0.5 1077.19,-0.5"/>
<text text-anchor="middle" x="1100.19" y="-7.5" font-family="Helvetica,sans-Serif" font-size="10.00">cstring</text>
</g>
<!-- Node5&#45;&gt;Node6 -->
<g id="edge5" class="edge"><title>Node5&#45;&gt;Node6</title>
<path fill="none" stroke="midnightblue" d="M823.405,-286.417C915.634,-277.42 1161.64,-238.414 1227.19,-76 1243.63,-35.2597 1176.32,-19.7704 1133.43,-14.0989"/>
<polygon fill="midnightblue" stroke="midnightblue" points="1133.72,-10.6091 1123.37,-12.8876 1132.88,-17.5589 1133.72,-10.6091"/>
</g>
<!-- Node7 -->
<g id="node7" class="node"><title>Node7</title>
<polygon fill="white" stroke="#bfbfbf" points="368.192,-56.5 368.192,-75.5 414.192,-75.5 414.192,-56.5 368.192,-56.5"/>
<text text-anchor="middle" x="391.192" y="-63.5" font-family="Helvetica,sans-Serif" font-size="10.00">cstdint</text>
</g>
<!-- Node5&#45;&gt;Node7 -->
<g id="edge6" class="edge"><title>Node5&#45;&gt;Node7</title>
<path fill="none" stroke="midnightblue" d="M752.787,-281.723C691.834,-269.184 573.343,-244.769 571.192,-244 558.556,-239.483 473.963,-197.196 464.192,-188 432.158,-157.853 409.187,-110.581 398.297,-84.9593"/>
<polygon fill="midnightblue" stroke="midnightblue" points="401.532,-83.6216 394.492,-75.7035 395.058,-86.2832 401.532,-83.6216"/>
</g>
<!-- Node8 -->
<g id="node8" class="node"><title>Node8</title>
<polygon fill="white" stroke="#bfbfbf" points="469.692,-224.5 469.692,-243.5 518.692,-243.5 518.692,-224.5 469.692,-224.5"/>
<text text-anchor="middle" x="494.192" y="-231.5" font-family="Helvetica,sans-Serif" font-size="10.00">ptrlist.h</text>
</g>
<!-- Node5&#45;&gt;Node8 -->
<g id="edge7" class="edge"><title>Node5&#45;&gt;Node8</title>
<path fill="none" stroke="midnightblue" d="M753.147,-281.724C750.121,-281.128 747.104,-280.546 744.192,-280 650.689,-262.466 626.468,-262.704 533.192,-244 531.744,-243.71 530.268,-243.406 528.778,-243.092"/>
<polygon fill="midnightblue" stroke="midnightblue" points="529.42,-239.65 518.903,-240.929 527.922,-246.488 529.42,-239.65"/>
</g>
<!-- Node9 -->
<g id="node9" class="node"><title>Node9</title>
<polygon fill="white" stroke="#bfbfbf" points="1166.19,-56.5 1166.19,-75.5 1218.19,-75.5 1218.19,-56.5 1166.19,-56.5"/>
<text text-anchor="middle" x="1192.19" y="-63.5" font-family="Helvetica,sans-Serif" font-size="10.00">mutex.h</text>
</g>
<!-- Node5&#45;&gt;Node9 -->
<g id="edge8" class="edge"><title>Node5&#45;&gt;Node9</title>
<path fill="none" stroke="midnightblue" d="M823.198,-282.062C893.349,-266.561 1052.83,-223.093 1151.19,-132 1165.69,-118.577 1177.13,-98.9379 1184.2,-84.763"/>
<polygon fill="midnightblue" stroke="midnightblue" points="1187.44,-86.1093 1188.56,-75.5742 1181.11,-83.1091 1187.44,-86.1093"/>
</g>
<!-- Node10 -->
<g id="node10" class="node"><title>Node10</title>
<g id="a_node10"><a xlink:href="_i_plug_platform_8h.html" target="_top" xlink:title="Include to get consistently named preprocessor macros for different platforms and logging functionali...">
<polygon fill="white" stroke="black" points="892.192,-168.5 892.192,-187.5 976.192,-187.5 976.192,-168.5 892.192,-168.5"/>
<text text-anchor="middle" x="934.192" y="-175.5" font-family="Helvetica,sans-Serif" font-size="10.00">IPlugPlatform.h</text>
</a>
</g>
</g>
<!-- Node5&#45;&gt;Node10 -->
<g id="edge9" class="edge"><title>Node5&#45;&gt;Node10</title>
<path fill="none" stroke="midnightblue" d="M799.648,-280.368C824.488,-261.653 883.555,-217.151 914.505,-193.832"/>
<polygon fill="midnightblue" stroke="midnightblue" points="916.908,-196.404 922.788,-187.591 912.695,-190.814 916.908,-196.404"/>
</g>
<!-- Node19 -->
<g id="node19" class="node"><title>Node19</title>
<g id="a_node19"><a xlink:href="_i_plug_constants_8h.html" target="_top" xlink:title="Constant definitions, magic numbers. ">
<polygon fill="white" stroke="black" points="502.192,-0.5 502.192,-19.5 594.192,-19.5 594.192,-0.5 502.192,-0.5"/>
<text text-anchor="middle" x="548.192" y="-7.5" font-family="Helvetica,sans-Serif" font-size="10.00">IPlugConstants.h</text>
</a>
</g>
</g>
<!-- Node5&#45;&gt;Node19 -->
<g id="edge31" class="edge"><title>Node5&#45;&gt;Node19</title>
<path fill="none" stroke="midnightblue" d="M753.171,-281.589C750.139,-281.023 747.115,-280.484 744.192,-280 681.648,-269.641 514.364,-278.521 461.192,-244 387.927,-196.434 382.729,-160.12 359.192,-76 356.796,-67.4399 353.682,-62.9754 359.192,-56 375.523,-35.323 442.316,-23.1234 491.895,-16.7551"/>
<polygon fill="midnightblue" stroke="midnightblue" points="492.38,-20.2219 501.874,-15.5211 491.52,-13.2748 492.38,-20.2219"/>
</g>
<!-- Node20 -->
<g id="node20" class="node"><title>Node20</title>
<g id="a_node20"><a xlink:href="_i_plug_utilities_8h.html" target="_top" xlink:title="Utility functions and macros. ">
<polygon fill="white" stroke="black" points="796.192,-56.5 796.192,-75.5 876.192,-75.5 876.192,-56.5 796.192,-56.5"/>
<text text-anchor="middle" x="836.192" y="-63.5" font-family="Helvetica,sans-Serif" font-size="10.00">IPlugUtilities.h</text>
</a>
</g>
</g>
<!-- Node5&#45;&gt;Node20 -->
<g id="edge42" class="edge"><title>Node5&#45;&gt;Node20</title>
<path fill="none" stroke="midnightblue" d="M790.073,-280.297C797.151,-247.563 822.273,-131.375 832.156,-85.6664"/>
<polygon fill="midnightblue" stroke="midnightblue" points="835.578,-86.3976 834.271,-75.8837 828.736,-84.9182 835.578,-86.3976"/>
</g>
<!-- Node22 -->
<g id="node22" class="node"><title>Node22</title>
<g id="a_node22"><a xlink:href="_i_plug_structs_8h_source.html" target="_top" xlink:title="IPlugStructs.h">
<polygon fill="white" stroke="black" points="642.692,-224.5 642.692,-243.5 721.692,-243.5 721.692,-224.5 642.692,-224.5"/>
<text text-anchor="middle" x="682.192" y="-231.5" font-family="Helvetica,sans-Serif" font-size="10.00">IPlugStructs.h</text>
</a>
</g>
</g>
<!-- Node5&#45;&gt;Node22 -->
<g id="edge32" class="edge"><title>Node5&#45;&gt;Node22</title>
<path fill="none" stroke="midnightblue" d="M771.161,-280.324C754.162,-271.664 727.815,-258.242 708.199,-248.249"/>
<polygon fill="midnightblue" stroke="midnightblue" points="709.679,-245.075 699.18,-243.655 706.502,-251.312 709.679,-245.075"/>
</g>
<!-- Node25 -->
<g id="node25" class="node"><title>Node25</title>
<g id="a_node25"><a xlink:href="_i_plug_parameter_8h_source.html" target="_top" xlink:title="IPlugParameter.h">
<polygon fill="white" stroke="black" points="1050.19,-112.5 1050.19,-131.5 1142.19,-131.5 1142.19,-112.5 1050.19,-112.5"/>
<text text-anchor="middle" x="1096.19" y="-119.5" font-family="Helvetica,sans-Serif" font-size="10.00">IPlugParameter.h</text>
</a>
</g>
</g>
<!-- Node5&#45;&gt;Node25 -->
<g id="edge43" class="edge"><title>Node5&#45;&gt;Node25</title>
<path fill="none" stroke="midnightblue" d="M805.449,-280.413C831.41,-267.601 882.165,-242.957 926.192,-224 966.52,-206.635 980.394,-210.343 1018.19,-188 1041.75,-174.074 1065.42,-153.133 1080.4,-138.808"/>
<polygon fill="midnightblue" stroke="midnightblue" points="1083.06,-141.104 1087.78,-131.616 1078.18,-136.092 1083.06,-141.104"/>
</g>
<!-- Node10&#45;&gt;Node6 -->
<g id="edge10" class="edge"><title>Node10&#45;&gt;Node6</title>
<path fill="none" stroke="midnightblue" d="M943.116,-168.075C969.925,-141.267 1050,-61.1902 1084.31,-26.8851"/>
<polygon fill="midnightblue" stroke="midnightblue" points="1087.03,-29.1141 1091.62,-19.5681 1082.08,-24.1643 1087.03,-29.1141"/>
</g>
<!-- Node11 -->
<g id="node11" class="node"><title>Node11</title>
<polygon fill="white" stroke="#bfbfbf" points="907.692,-0.5 907.692,-19.5 952.692,-19.5 952.692,-0.5 907.692,-0.5"/>
<text text-anchor="middle" x="930.192" y="-7.5" font-family="Helvetica,sans-Serif" font-size="10.00">cstdlib</text>
</g>
<!-- Node10&#45;&gt;Node11 -->
<g id="edge11" class="edge"><title>Node10&#45;&gt;Node11</title>
<path fill="none" stroke="midnightblue" d="M938.167,-168.145C944.176,-155.205 956.352,-130.645 970.192,-112 983.492,-94.0817 996.797,-96.6763 1005.19,-76 1008.54,-67.764 1009.57,-63.7351 1005.19,-56 995.96,-39.6954 978.204,-28.6539 962.285,-21.5898"/>
<polygon fill="midnightblue" stroke="midnightblue" points="963.285,-18.2184 952.704,-17.6939 960.649,-24.7028 963.285,-18.2184"/>
</g>
<!-- Node12 -->
<g id="node12" class="node"><title>Node12</title>
<g id="a_node12"><a xlink:href="_i_plug_logger_8h.html" target="_top" xlink:title="IPlug logging a.k.a tracing functionailty. ">
<polygon fill="white" stroke="black" points="648.692,-112.5 648.692,-131.5 725.692,-131.5 725.692,-112.5 648.692,-112.5"/>
<text text-anchor="middle" x="687.192" y="-119.5" font-family="Helvetica,sans-Serif" font-size="10.00">IPlugLogger.h</text>
</a>
</g>
</g>
<!-- Node10&#45;&gt;Node12 -->
<g id="edge12" class="edge"><title>Node10&#45;&gt;Node12</title>
<path fill="none" stroke="midnightblue" d="M895.054,-168.444C851.838,-158.996 782.224,-143.776 735.61,-133.585"/>
<polygon fill="midnightblue" stroke="midnightblue" points="736.257,-130.144 725.74,-131.428 734.761,-136.983 736.257,-130.144"/>
</g>
<!-- Node12&#45;&gt;Node6 -->
<g id="edge17" class="edge"><title>Node12&#45;&gt;Node6</title>
<path fill="none" stroke="midnightblue" d="M726.007,-115.261C766.564,-108.557 831.625,-95.7953 885.192,-76 903.094,-69.3845 905.375,-62.8431 923.192,-56 971.817,-37.3232 1030.93,-24.0856 1067.04,-16.9975"/>
<polygon fill="midnightblue" stroke="midnightblue" points="1067.87,-20.4023 1077.03,-15.079 1066.55,-13.5279 1067.87,-20.4023"/>
</g>
<!-- Node12&#45;&gt;Node7 -->
<g id="edge16" class="edge"><title>Node12&#45;&gt;Node7</title>
<path fill="none" stroke="midnightblue" d="M648.636,-115.598C597.178,-108.116 503.341,-93.5214 424.192,-76 424.09,-75.9775 423.988,-75.955 423.887,-75.9323"/>
<polygon fill="midnightblue" stroke="midnightblue" points="424.743,-72.5387 414.2,-73.5803 423.092,-79.341 424.743,-72.5387"/>
</g>
<!-- Node12&#45;&gt;Node9 -->
<g id="edge21" class="edge"><title>Node12&#45;&gt;Node9</title>
<path fill="none" stroke="midnightblue" d="M725.98,-116.852C820.94,-106.698 1064.03,-80.7042 1156.11,-70.8584"/>
<polygon fill="midnightblue" stroke="midnightblue" points="1156.49,-74.3373 1166.06,-69.7938 1155.75,-67.377 1156.49,-74.3373"/>
</g>
<!-- Node13 -->
<g id="node13" class="node"><title>Node13</title>
<polygon fill="white" stroke="#bfbfbf" points="640.692,-0.5 640.692,-19.5 683.692,-19.5 683.692,-0.5 640.692,-0.5"/>
<text text-anchor="middle" x="662.192" y="-7.5" font-family="Helvetica,sans-Serif" font-size="10.00">cstdio</text>
</g>
<!-- Node12&#45;&gt;Node13 -->
<g id="edge13" class="edge"><title>Node12&#45;&gt;Node13</title>
<path fill="none" stroke="midnightblue" d="M685.23,-112.368C681.195,-94.617 671.888,-53.6664 666.418,-29.5974"/>
<polygon fill="midnightblue" stroke="midnightblue" points="669.773,-28.567 664.144,-19.5914 662.947,-30.1185 669.773,-28.567"/>
</g>
<!-- Node14 -->
<g id="node14" class="node"><title>Node14</title>
<polygon fill="white" stroke="#bfbfbf" points="779.192,-0.5 779.192,-19.5 825.192,-19.5 825.192,-0.5 779.192,-0.5"/>
<text text-anchor="middle" x="802.192" y="-7.5" font-family="Helvetica,sans-Serif" font-size="10.00">cctype</text>
</g>
<!-- Node12&#45;&gt;Node14 -->
<g id="edge14" class="edge"><title>Node12&#45;&gt;Node14</title>
<path fill="none" stroke="midnightblue" d="M701.009,-112.216C713.877,-103.72 733.263,-90.0924 748.192,-76 764.119,-60.9648 779.835,-41.3591 790.169,-27.6275"/>
<polygon fill="midnightblue" stroke="midnightblue" points="793.003,-29.6818 796.131,-19.5593 787.373,-25.5218 793.003,-29.6818"/>
</g>
<!-- Node15 -->
<g id="node15" class="node"><title>Node15</title>
<polygon fill="white" stroke="#bfbfbf" points="690.692,-56.5 690.692,-75.5 739.692,-75.5 739.692,-56.5 690.692,-56.5"/>
<text text-anchor="middle" x="715.192" y="-63.5" font-family="Helvetica,sans-Serif" font-size="10.00">cstdarg</text>
</g>
<!-- Node12&#45;&gt;Node15 -->
<g id="edge15" class="edge"><title>Node12&#45;&gt;Node15</title>
<path fill="none" stroke="midnightblue" d="M691.815,-112.083C695.648,-104.691 701.216,-93.9533 705.956,-84.8111"/>
<polygon fill="midnightblue" stroke="midnightblue" points="709.158,-86.2398 710.654,-75.7511 702.944,-83.0175 709.158,-86.2398"/>
</g>
<!-- Node16 -->
<g id="node16" class="node"><title>Node16</title>
<polygon fill="white" stroke="#bfbfbf" points="232.692,-56.5 232.692,-75.5 273.692,-75.5 273.692,-56.5 232.692,-56.5"/>
<text text-anchor="middle" x="253.192" y="-63.5" font-family="Helvetica,sans-Serif" font-size="10.00">ctime</text>
</g>
<!-- Node12&#45;&gt;Node16 -->
<g id="edge18" class="edge"><title>Node12&#45;&gt;Node16</title>
<path fill="none" stroke="midnightblue" d="M648.677,-116.208C563.677,-105.632 361.45,-80.47 284.052,-70.8398"/>
<polygon fill="midnightblue" stroke="midnightblue" points="284.341,-67.3488 273.985,-69.5872 283.476,-74.2952 284.341,-67.3488"/>
</g>
<!-- Node17 -->
<g id="node17" class="node"><title>Node17</title>
<polygon fill="white" stroke="#bfbfbf" points="432.692,-56.5 432.692,-75.5 481.692,-75.5 481.692,-56.5 432.692,-56.5"/>
<text text-anchor="middle" x="457.192" y="-63.5" font-family="Helvetica,sans-Serif" font-size="10.00">cassert</text>
</g>
<!-- Node12&#45;&gt;Node17 -->
<g id="edge19" class="edge"><title>Node12&#45;&gt;Node17</title>
<path fill="none" stroke="midnightblue" d="M650.747,-112.444C607.099,-102.196 534.53,-85.1578 491.74,-75.1115"/>
<polygon fill="midnightblue" stroke="midnightblue" points="492.332,-71.6551 481.796,-72.7767 490.731,-78.4698 492.332,-71.6551"/>
</g>
<!-- Node18 -->
<g id="node18" class="node"><title>Node18</title>
<polygon fill="white" stroke="#bfbfbf" points="932.192,-56.5 932.192,-75.5 996.192,-75.5 996.192,-56.5 932.192,-56.5"/>
<text text-anchor="middle" x="964.192" y="-63.5" font-family="Helvetica,sans-Serif" font-size="10.00">wdlstring.h</text>
</g>
<!-- Node12&#45;&gt;Node18 -->
<g id="edge20" class="edge"><title>Node12&#45;&gt;Node18</title>
<path fill="none" stroke="midnightblue" d="M726.022,-113.446C771.925,-104.513 850.621,-89.1916 918.192,-76 919.449,-75.7544 920.727,-75.505 922.016,-75.2531"/>
<polygon fill="midnightblue" stroke="midnightblue" points="922.879,-78.6508 932.022,-73.2976 921.536,-71.7808 922.879,-78.6508"/>
</g>
<!-- Node12&#45;&gt;Node19 -->
<g id="edge22" class="edge"><title>Node12&#45;&gt;Node19</title>
<path fill="none" stroke="midnightblue" d="M676.284,-112.368C652.635,-93.6531 596.4,-49.1509 566.934,-25.8324"/>
<polygon fill="midnightblue" stroke="midnightblue" points="569.062,-23.0525 559.048,-19.5914 564.718,-28.5416 569.062,-23.0525"/>
</g>
<!-- Node12&#45;&gt;Node20 -->
<g id="edge23" class="edge"><title>Node12&#45;&gt;Node20</title>
<path fill="none" stroke="midnightblue" d="M710.801,-112.444C735.649,-103.438 774.966,-89.1891 802.945,-79.049"/>
<polygon fill="midnightblue" stroke="midnightblue" points="804.483,-82.2144 812.693,-75.5164 802.098,-75.6332 804.483,-82.2144"/>
</g>
<!-- Node20&#45;&gt;Node6 -->
<g id="edge27" class="edge"><title>Node20&#45;&gt;Node6</title>
<path fill="none" stroke="midnightblue" d="M876.287,-56.7986C928.428,-46.1334 1018.55,-27.6994 1067.03,-17.7823"/>
<polygon fill="midnightblue" stroke="midnightblue" points="1067.91,-21.1764 1077,-15.7433 1066.5,-14.3184 1067.91,-21.1764"/>
</g>
<!-- Node20&#45;&gt;Node10 -->
<g id="edge30" class="edge"><title>Node20&#45;&gt;Node10</title>
<path fill="none" stroke="midnightblue" d="M843.846,-75.5914C860.201,-93.9493 898.777,-137.249 919.845,-160.897"/>
<polygon fill="midnightblue" stroke="midnightblue" points="917.236,-163.23 926.502,-168.368 922.463,-158.574 917.236,-163.23"/>
</g>
<!-- Node20&#45;&gt;Node11 -->
<g id="edge26" class="edge"><title>Node20&#45;&gt;Node11</title>
<path fill="none" stroke="midnightblue" d="M851.294,-56.324C866.095,-47.8215 888.886,-34.7288 906.174,-24.7975"/>
<polygon fill="midnightblue" stroke="midnightblue" points="908.199,-27.6707 915.126,-19.6545 904.712,-21.6009 908.199,-27.6707"/>
</g>
<!-- Node20&#45;&gt;Node13 -->
<g id="edge25" class="edge"><title>Node20&#45;&gt;Node13</title>
<path fill="none" stroke="midnightblue" d="M808.621,-56.4435C777.406,-46.7561 726.638,-31.0008 693.833,-20.8199"/>
<polygon fill="midnightblue" stroke="midnightblue" points="694.449,-17.3464 683.861,-17.7251 692.374,-24.0319 694.449,-17.3464"/>
</g>
<!-- Node20&#45;&gt;Node14 -->
<g id="edge28" class="edge"><title>Node20&#45;&gt;Node14</title>
<path fill="none" stroke="midnightblue" d="M830.577,-56.083C825.824,-48.5341 818.873,-37.4948 813.04,-28.2298"/>
<polygon fill="midnightblue" stroke="midnightblue" points="815.991,-26.3486 807.701,-19.7511 810.068,-30.0783 815.991,-26.3486"/>
</g>
<!-- Node20&#45;&gt;Node19 -->
<g id="edge29" class="edge"><title>Node20&#45;&gt;Node19</title>
<path fill="none" stroke="midnightblue" d="M796.146,-57.4915C746.093,-48.1066 660.16,-31.9941 603.76,-21.4191"/>
<polygon fill="midnightblue" stroke="midnightblue" points="604.061,-17.9147 593.588,-19.5118 602.771,-24.7948 604.061,-17.9147"/>
</g>
<!-- Node21 -->
<g id="node21" class="node"><title>Node21</title>
<polygon fill="white" stroke="#bfbfbf" points="201.192,-0.5 201.192,-19.5 245.192,-19.5 245.192,-0.5 201.192,-0.5"/>
<text text-anchor="middle" x="223.192" y="-7.5" font-family="Helvetica,sans-Serif" font-size="10.00">cmath</text>
</g>
<!-- Node20&#45;&gt;Node21 -->
<g id="edge24" class="edge"><title>Node20&#45;&gt;Node21</title>
<path fill="none" stroke="midnightblue" d="M795.901,-60.7391C780.926,-59.1923 763.787,-57.4658 748.192,-56 561.658,-38.4683 337.57,-20.1866 255.402,-13.5758"/>
<polygon fill="midnightblue" stroke="midnightblue" points="255.458,-10.069 245.21,-12.757 254.897,-17.0466 255.458,-10.069"/>
</g>
<!-- Node22&#45;&gt;Node10 -->
<g id="edge36" class="edge"><title>Node22&#45;&gt;Node10</title>
<path fill="none" stroke="midnightblue" d="M721.844,-224.503C765.841,-215.075 836.902,-199.848 884.559,-189.636"/>
<polygon fill="midnightblue" stroke="midnightblue" points="885.31,-193.054 894.355,-187.536 883.843,-186.209 885.31,-193.054"/>
</g>
<!-- Node22&#45;&gt;Node18 -->
<g id="edge34" class="edge"><title>Node22&#45;&gt;Node18</title>
<path fill="none" stroke="midnightblue" d="M696.956,-224.309C743.022,-197.192 884.382,-113.98 940.69,-80.8345"/>
<polygon fill="midnightblue" stroke="midnightblue" points="942.731,-83.6943 949.573,-75.6051 939.18,-77.6618 942.731,-83.6943"/>
</g>
<!-- Node22&#45;&gt;Node19 -->
<g id="edge35" class="edge"><title>Node22&#45;&gt;Node19</title>
<path fill="none" stroke="midnightblue" d="M674.653,-224.438C655.06,-201.78 601.993,-137.744 572.192,-76 564.838,-60.7654 558.322,-42.6544 553.941,-29.4241"/>
<polygon fill="midnightblue" stroke="midnightblue" points="557.185,-28.078 550.793,-19.6289 550.521,-30.2202 557.185,-28.078"/>
</g>
<!-- Node23 -->
<g id="node23" class="node"><title>Node23</title>
<polygon fill="white" stroke="#bfbfbf" points="654.192,-168.5 654.192,-187.5 710.192,-187.5 710.192,-168.5 654.192,-168.5"/>
<text text-anchor="middle" x="682.192" y="-175.5" font-family="Helvetica,sans-Serif" font-size="10.00">algorithm</text>
</g>
<!-- Node22&#45;&gt;Node23 -->
<g id="edge33" class="edge"><title>Node22&#45;&gt;Node23</title>
<path fill="none" stroke="midnightblue" d="M682.192,-224.083C682.192,-217.006 682.192,-206.861 682.192,-197.986"/>
<polygon fill="midnightblue" stroke="midnightblue" points="685.692,-197.751 682.192,-187.751 678.692,-197.751 685.692,-197.751"/>
</g>
<!-- Node24 -->
<g id="node24" class="node"><title>Node24</title>
<g id="a_node24"><a xlink:href="_i_plug_midi_8h_source.html" target="_top" xlink:title="IPlugMidi.h">
<polygon fill="white" stroke="black" points="488.692,-112.5 488.692,-131.5 553.692,-131.5 553.692,-112.5 488.692,-112.5"/>
<text text-anchor="middle" x="521.192" y="-119.5" font-family="Helvetica,sans-Serif" font-size="10.00">IPlugMidi.h</text>
</a>
</g>
</g>
<!-- Node22&#45;&gt;Node24 -->
<g id="edge37" class="edge"><title>Node22&#45;&gt;Node24</title>
<path fill="none" stroke="midnightblue" d="M646.117,-224.46C622.244,-217.511 591.214,-205.881 568.192,-188 551.749,-175.23 538.482,-155.207 530.289,-140.758"/>
<polygon fill="midnightblue" stroke="midnightblue" points="533.284,-138.937 525.451,-131.803 527.125,-142.265 533.284,-138.937"/>
</g>
<!-- Node24&#45;&gt;Node7 -->
<g id="edge39" class="edge"><title>Node24&#45;&gt;Node7</title>
<path fill="none" stroke="midnightblue" d="M500.593,-112.444C479.198,-103.557 445.51,-89.5632 421.167,-79.4514"/>
<polygon fill="midnightblue" stroke="midnightblue" points="422.272,-76.1203 411.694,-75.5164 419.586,-82.5848 422.272,-76.1203"/>
</g>
<!-- Node24&#45;&gt;Node17 -->
<g id="edge38" class="edge"><title>Node24&#45;&gt;Node17</title>
<path fill="none" stroke="midnightblue" d="M510.909,-112.324C501.355,-104.263 486.912,-92.0765 475.407,-82.3695"/>
<polygon fill="midnightblue" stroke="midnightblue" points="477.561,-79.6076 467.661,-75.8339 473.047,-84.9577 477.561,-79.6076"/>
</g>
<!-- Node24&#45;&gt;Node19 -->
<g id="edge40" class="edge"><title>Node24&#45;&gt;Node19</title>
<path fill="none" stroke="midnightblue" d="M522.668,-112.103C524.824,-99.5211 529.133,-75.8503 534.192,-56 536.467,-47.0693 539.451,-37.2856 542.079,-29.1285"/>
<polygon fill="midnightblue" stroke="midnightblue" points="545.429,-30.1439 545.239,-19.5508 538.782,-27.9505 545.429,-30.1439"/>
</g>
<!-- Node24&#45;&gt;Node20 -->
<g id="edge41" class="edge"><title>Node24&#45;&gt;Node20</title>
<path fill="none" stroke="midnightblue" d="M553.716,-115.424C608.774,-105.986 720.699,-86.7987 785.919,-75.6182"/>
<polygon fill="midnightblue" stroke="midnightblue" points="786.704,-79.0347 795.969,-73.8953 785.521,-72.1353 786.704,-79.0347"/>
</g>
<!-- Node25&#45;&gt;Node6 -->
<g id="edge44" class="edge"><title>Node25&#45;&gt;Node6</title>
<path fill="none" stroke="midnightblue" d="M1100.81,-112.339C1105.25,-103.493 1111.65,-89.22 1114.19,-76 1117.23,-60.237 1112.83,-42.4191 1108.19,-29.4301"/>
<polygon fill="midnightblue" stroke="midnightblue" points="1111.31,-27.8185 1104.38,-19.8063 1104.8,-30.3927 1111.31,-27.8185"/>
</g>
<!-- Node25&#45;&gt;Node18 -->
<g id="edge45" class="edge"><title>Node25&#45;&gt;Node18</title>
<path fill="none" stroke="midnightblue" d="M1075.28,-112.444C1053.46,-103.517 1019.04,-89.4387 994.299,-79.3168"/>
<polygon fill="midnightblue" stroke="midnightblue" points="995.59,-76.0634 985.009,-75.5164 992.94,-82.5422 995.59,-76.0634"/>
</g>
<!-- Node25&#45;&gt;Node20 -->
<g id="edge46" class="edge"><title>Node25&#45;&gt;Node20</title>
<path fill="none" stroke="midnightblue" d="M1054.99,-112.444C1009.27,-102.948 935.487,-87.623 886.419,-77.4318"/>
<polygon fill="midnightblue" stroke="midnightblue" points="886.845,-73.9457 876.342,-75.339 885.422,-80.7995 886.845,-73.9457"/>
</g>
<!-- Node27&#45;&gt;Node6 -->
<g id="edge49" class="edge"><title>Node27&#45;&gt;Node6</title>
<path fill="none" stroke="midnightblue" d="M487.299,-284.8C552.505,-278.418 675.2,-264.78 778.192,-244 801.443,-239.309 964.887,-201.782 984.192,-188 999.449,-177.107 1064.11,-71.0748 1089.7,-28.5309"/>
<polygon fill="midnightblue" stroke="midnightblue" points="1092.79,-30.1953 1094.93,-19.8197 1086.78,-26.5936 1092.79,-30.1953"/>
</g>
<!-- Node27&#45;&gt;Node7 -->
<g id="edge50" class="edge"><title>Node27&#45;&gt;Node7</title>
<path fill="none" stroke="midnightblue" d="M438.247,-280.447C435.217,-271.449 430.485,-256.839 427.192,-244 412.547,-186.919 400.004,-118.263 394.368,-85.7843"/>
<polygon fill="midnightblue" stroke="midnightblue" points="397.752,-84.8088 392.613,-75.5436 390.853,-85.9912 397.752,-84.8088"/>
</g>
<!-- Node27&#45;&gt;Node8 -->
<g id="edge51" class="edge"><title>Node27&#45;&gt;Node8</title>
<path fill="none" stroke="midnightblue" d="M449.943,-280.083C457.661,-272.22 469.096,-260.569 478.408,-251.081"/>
<polygon fill="midnightblue" stroke="midnightblue" points="481.096,-253.34 485.603,-243.751 476.1,-248.436 481.096,-253.34"/>
</g>
<!-- Node27&#45;&gt;Node10 -->
<g id="edge52" class="edge"><title>Node27&#45;&gt;Node10</title>
<path fill="none" stroke="midnightblue" d="M487.412,-284.029C544.828,-277.345 645.553,-263.948 730.192,-244 791.895,-229.457 861.924,-205.443 901.801,-191.031"/>
<polygon fill="midnightblue" stroke="midnightblue" points="903.066,-194.295 911.266,-187.586 900.672,-187.718 903.066,-194.295"/>
</g>
<!-- Node27&#45;&gt;Node19 -->
<g id="edge53" class="edge"><title>Node27&#45;&gt;Node19</title>
<path fill="none" stroke="midnightblue" d="M394.809,-284.851C343.129,-279.155 264.415,-266.907 246.192,-244 240.658,-237.044 244.233,-232.67 246.192,-224 264.417,-143.333 261.021,-106.913 326.192,-56 351.479,-36.2445 434.749,-23.3889 491.795,-16.6647"/>
<polygon fill="midnightblue" stroke="midnightblue" points="492.233,-20.1374 501.769,-15.5196 491.435,-13.1831 492.233,-20.1374"/>
</g>
<!-- Node27&#45;&gt;Node20 -->
<g id="edge55" class="edge"><title>Node27&#45;&gt;Node20</title>
<path fill="none" stroke="midnightblue" d="M441.451,-280.161C442.334,-266.334 446.035,-239.564 461.192,-224 550.518,-132.27 618.69,-187.254 734.192,-132 764.417,-117.541 796.59,-95.8543 816.54,-81.5671"/>
<polygon fill="midnightblue" stroke="midnightblue" points="818.758,-84.2821 824.796,-75.5759 814.647,-78.6168 818.758,-84.2821"/>
</g>
<!-- Node27&#45;&gt;Node22 -->
<g id="edge54" class="edge"><title>Node27&#45;&gt;Node22</title>
<path fill="none" stroke="midnightblue" d="M479.379,-280.444C521.332,-271.043 588.786,-255.929 634.262,-245.739"/>
<polygon fill="midnightblue" stroke="midnightblue" points="635.19,-249.118 644.183,-243.516 633.66,-242.288 635.19,-249.118"/>
</g>
<!-- Node28 -->
<g id="node28" class="node"><title>Node28</title>
<g id="a_node28"><a xlink:href="_n_chan_delay_8h_source.html" target="_top" xlink:title="NChanDelay.h">
<polygon fill="white" stroke="black" points="255.692,-224.5 255.692,-243.5 336.692,-243.5 336.692,-224.5 255.692,-224.5"/>
<text text-anchor="middle" x="296.192" y="-231.5" font-family="Helvetica,sans-Serif" font-size="10.00">NChanDelay.h</text>
</a>
</g>
</g>
<!-- Node27&#45;&gt;Node28 -->
<g id="edge56" class="edge"><title>Node27&#45;&gt;Node28</title>
<path fill="none" stroke="midnightblue" d="M418.216,-280.444C394.035,-271.438 355.774,-257.189 328.545,-247.049"/>
<polygon fill="midnightblue" stroke="midnightblue" points="329.652,-243.727 319.06,-243.516 327.209,-250.286 329.652,-243.727"/>
</g>
<!-- Node29 -->
<g id="node29" class="node"><title>Node29</title>
<g id="a_node29"><a xlink:href="_i_plug_processor_8cpp_source.html" target="_top" xlink:title="IPlugProcessor.cpp">
<polygon fill="white" stroke="black" points="129.192,-112.5 129.192,-131.5 231.192,-131.5 231.192,-112.5 129.192,-112.5"/>
<text text-anchor="middle" x="180.192" y="-119.5" font-family="Helvetica,sans-Serif" font-size="10.00">IPlugProcessor.cpp</text>
</a>
</g>
</g>
<!-- Node27&#45;&gt;Node29 -->
<g id="edge57" class="edge"><title>Node27&#45;&gt;Node29</title>
<path fill="none" stroke="midnightblue" d="M395.012,-286.083C333.826,-281.074 230.916,-268.881 204.192,-244 175.466,-217.256 170.832,-168.186 173.746,-141.488"/>
<polygon fill="midnightblue" stroke="midnightblue" points="177.211,-141.987 175.409,-131.546 170.307,-140.832 177.211,-141.987"/>
</g>
<!-- Node29&#45;&gt;Node13 -->
<g id="edge59" class="edge"><title>Node29&#45;&gt;Node13</title>
<path fill="none" stroke="midnightblue" d="M129.051,-114.43C77.9593,-105.902 11.0286,-88.1569 41.1916,-56 83.9994,-10.3623 540.981,-26.7243 603.192,-20 612.151,-19.0316 621.832,-17.6825 630.71,-16.3231"/>
<polygon fill="midnightblue" stroke="midnightblue" points="631.344,-19.7664 640.673,-14.7447 630.249,-12.8527 631.344,-19.7664"/>
</g>
<!-- Node29&#45;&gt;Node16 -->
<g id="edge60" class="edge"><title>Node29&#45;&gt;Node16</title>
<path fill="none" stroke="midnightblue" d="M191.92,-112.324C203.029,-104.107 219.934,-91.6017 233.175,-81.8069"/>
<polygon fill="midnightblue" stroke="midnightblue" points="235.291,-84.5948 241.249,-75.8339 231.128,-78.9671 235.291,-84.5948"/>
</g>
<!-- Node29&#45;&gt;Node17 -->
<g id="edge61" class="edge"><title>Node29&#45;&gt;Node17</title>
<path fill="none" stroke="midnightblue" d="M231.62,-112.639C278.747,-104.715 350.65,-91.9714 422.262,-76.0691"/>
<polygon fill="midnightblue" stroke="midnightblue" points="423.371,-79.4076 432.362,-73.8044 421.839,-72.5772 423.371,-79.4076"/>
</g>
<!-- Node29&#45;&gt;Node21 -->
<g id="edge58" class="edge"><title>Node29&#45;&gt;Node21</title>
<path fill="none" stroke="midnightblue" d="M129.119,-118.639C66.5439,-113.854 -27.0827,-99.4216 8.19155,-56 30.8468,-28.112 136.641,-16.8979 190.905,-12.9212"/>
<polygon fill="midnightblue" stroke="midnightblue" points="191.296,-16.4026 201.03,-12.2196 190.812,-9.41933 191.296,-16.4026"/>
</g>
<!-- Node29&#45;&gt;Node27 -->
<g id="edge64" class="edge"><title>Node29&#45;&gt;Node27</title>
<path fill="none" stroke="midnightblue" d="M184.03,-131.546C188,-153.71 189.363,-213.435 222.192,-244 245.682,-265.871 328.036,-277.938 384.856,-283.939"/>
<polygon fill="midnightblue" stroke="midnightblue" points="384.844,-287.456 395.148,-284.99 385.555,-280.492 384.844,-287.456"/>
</g>
<!-- Node30 -->
<g id="node30" class="node"><title>Node30</title>
<polygon fill="white" stroke="#bfbfbf" points="146.192,-56.5 146.192,-75.5 214.192,-75.5 214.192,-56.5 146.192,-56.5"/>
<text text-anchor="middle" x="180.192" y="-63.5" font-family="Helvetica,sans-Serif" font-size="10.00">wdlendian.h</text>
</g>
<!-- Node29&#45;&gt;Node30 -->
<g id="edge62" class="edge"><title>Node29&#45;&gt;Node30</title>
<path fill="none" stroke="midnightblue" d="M180.192,-112.083C180.192,-105.006 180.192,-94.8611 180.192,-85.9865"/>
<polygon fill="midnightblue" stroke="midnightblue" points="183.692,-85.751 180.192,-75.7511 176.692,-85.7511 183.692,-85.751"/>
</g>
<!-- Node31 -->
<g id="node31" class="node"><title>Node31</title>
<polygon fill="white" stroke="#bfbfbf" points="50.6916,-56.5 50.6916,-75.5 127.692,-75.5 127.692,-56.5 50.6916,-56.5"/>
<text text-anchor="middle" x="89.1916" y="-63.5" font-family="Helvetica,sans-Serif" font-size="10.00">wdl_base64.h</text>
</g>
<!-- Node29&#45;&gt;Node31 -->
<g id="edge63" class="edge"><title>Node29&#45;&gt;Node31</title>
<path fill="none" stroke="midnightblue" d="M165.571,-112.324C151.243,-103.822 129.179,-90.7288 112.443,-80.7975"/>
<polygon fill="midnightblue" stroke="midnightblue" points="114.162,-77.7478 103.776,-75.6545 110.59,-83.7677 114.162,-77.7478"/>
</g>
<!-- Node32&#45;&gt;Node6 -->
<g id="edge66" class="edge"><title>Node32&#45;&gt;Node6</title>
<path fill="none" stroke="midnightblue" d="M1037.7,-282.213C1116.81,-267.805 1284.19,-231.16 1284.19,-179 1284.19,-179 1284.19,-179 1284.19,-121 1284.19,-90.2048 1282.82,-76.8926 1260.19,-56 1225.42,-23.8883 1169.52,-14.4525 1133.84,-11.8172"/>
<polygon fill="midnightblue" stroke="midnightblue" points="1133.65,-8.30002 1123.46,-11.2002 1133.24,-15.2877 1133.65,-8.30002"/>
</g>
<!-- Node32&#45;&gt;Node7 -->
<g id="edge67" class="edge"><title>Node32&#45;&gt;Node7</title>
<path fill="none" stroke="midnightblue" d="M956.691,-286.21C874.917,-280.214 692.885,-264.926 634.192,-244 535.469,-208.802 442.104,-119.913 406.438,-83.2234"/>
<polygon fill="midnightblue" stroke="midnightblue" points="408.806,-80.6358 399.358,-75.8405 403.753,-85.4808 408.806,-80.6358"/>
</g>
<!-- Node32&#45;&gt;Node8 -->
<g id="edge68" class="edge"><title>Node32&#45;&gt;Node8</title>
<path fill="none" stroke="midnightblue" d="M956.647,-284.869C880.895,-277.116 712.736,-259.748 571.192,-244 557.365,-242.462 542.15,-240.698 528.922,-239.142"/>
<polygon fill="midnightblue" stroke="midnightblue" points="529.146,-235.645 518.805,-237.947 528.325,-242.596 529.146,-235.645"/>
</g>
<!-- Node32&#45;&gt;Node9 -->
<g id="edge69" class="edge"><title>Node32&#45;&gt;Node9</title>
<path fill="none" stroke="midnightblue" d="M1035.58,-280.438C1080.05,-268.263 1151.39,-241.25 1184.19,-188 1203.63,-156.445 1200.12,-111.071 1196.03,-85.8045"/>
<polygon fill="midnightblue" stroke="midnightblue" points="1199.43,-84.9409 1194.19,-75.7325 1192.54,-86.1986 1199.43,-84.9409"/>
</g>
<!-- Node32&#45;&gt;Node10 -->
<g id="edge70" class="edge"><title>Node32&#45;&gt;Node10</title>
<path fill="none" stroke="midnightblue" d="M998.627,-280.393C1000.36,-267.339 1001.96,-242.138 992.192,-224 985.115,-210.855 972.37,-200.317 960.627,-192.754"/>
<polygon fill="midnightblue" stroke="midnightblue" points="962.329,-189.693 951.952,-187.555 958.731,-195.698 962.329,-189.693"/>
</g>
<!-- Node32&#45;&gt;Node19 -->
<g id="edge71" class="edge"><title>Node32&#45;&gt;Node19</title>
<path fill="none" stroke="midnightblue" d="M977.431,-280.469C903.558,-248.555 647.47,-137.737 640.192,-132 602.684,-102.436 572.229,-54.2002 557.6,-28.4677"/>
<polygon fill="midnightblue" stroke="midnightblue" points="560.542,-26.5547 552.632,-19.506 554.42,-29.949 560.542,-26.5547"/>
</g>
<!-- Node32&#45;&gt;Node20 -->
<g id="edge73" class="edge"><title>Node32&#45;&gt;Node20</title>
<path fill="none" stroke="midnightblue" d="M1000.28,-280.173C1003.24,-271.198 1007.51,-256.827 1009.19,-244 1013.81,-208.743 1006.99,-195.29 984.192,-168 950.431,-127.584 896.601,-96.454 864.008,-80.0023"/>
<polygon fill="midnightblue" stroke="midnightblue" points="865.533,-76.852 855.017,-75.5647 862.435,-83.1291 865.533,-76.852"/>
</g>
<!-- Node32&#45;&gt;Node22 -->
<g id="edge72" class="edge"><title>Node32&#45;&gt;Node22</title>
<path fill="none" stroke="midnightblue" d="M956.656,-282.051C899.204,-272.202 794.183,-254.199 732.04,-243.545"/>
<polygon fill="midnightblue" stroke="midnightblue" points="732.523,-240.077 722.075,-241.837 731.34,-246.977 732.523,-240.077"/>
</g>
<!-- Node32&#45;&gt;Node25 -->
<g id="edge74" class="edge"><title>Node32&#45;&gt;Node25</title>
<path fill="none" stroke="midnightblue" d="M1016.83,-280.398C1032.44,-272.738 1053.95,-260.234 1068.19,-244 1086.29,-223.375 1087.86,-214.701 1094.19,-188 1097.82,-172.706 1098.09,-154.823 1097.59,-141.69"/>
<polygon fill="midnightblue" stroke="midnightblue" points="1101.07,-141.34 1097.01,-131.556 1094.08,-141.74 1101.07,-141.34"/>
</g>
</g>
</svg>
