<?xml version="1.0" encoding="UTF-8" standalone="no"?>
<!DOCTYPE svg PUBLIC "-//W3C//DTD SVG 1.1//EN"
 "http://www.w3.org/Graphics/SVG/1.1/DTD/svg11.dtd">
<!-- Generated by graphviz version 2.36.0 (20140111.2315)
 -->
<!-- Title: IPopupMenu.h Pages: 1 -->
<svg width="1382pt" height="308pt"
 viewBox="0.00 0.00 1381.79 308.00" xmlns="http://www.w3.org/2000/svg" xmlns:xlink="http://www.w3.org/1999/xlink">
<g id="graph0" class="graph" transform="scale(1 1) rotate(0) translate(4 304)">
<title>IPopupMenu.h</title>
<polygon fill="white" stroke="none" points="-4,4 -4,-304 1377.79,-304 1377.79,4 -4,4"/>
<!-- Node1 -->
<g id="node1" class="node"><title>Node1</title>
<polygon fill="#bfbfbf" stroke="black" points="604.786,-280.5 604.786,-299.5 684.786,-299.5 684.786,-280.5 604.786,-280.5"/>
<text text-anchor="middle" x="644.786" y="-287.5" font-family="Helvetica,sans-Serif" font-size="10.00">IPopupMenu.h</text>
</g>
<!-- Node2 -->
<g id="node2" class="node"><title>Node2</title>
<g id="a_node2"><a xlink:href="_i_graphics_8h.html" target="_top" xlink:title="The lowest level base class of an IGraphics context. ">
<polygon fill="white" stroke="black" points="611.286,-224.5 611.286,-243.5 678.286,-243.5 678.286,-224.5 611.286,-224.5"/>
<text text-anchor="middle" x="644.786" y="-231.5" font-family="Helvetica,sans-Serif" font-size="10.00">IGraphics.h</text>
</a>
</g>
</g>
<!-- Node1&#45;&gt;Node2 -->
<g id="edge1" class="edge"><title>Node1&#45;&gt;Node2</title>
<path fill="none" stroke="midnightblue" d="M644.786,-269.805C644.786,-260.91 644.786,-250.78 644.786,-243.751"/>
<polygon fill="midnightblue" stroke="midnightblue" points="641.286,-270.083 644.786,-280.083 648.286,-270.083 641.286,-270.083"/>
</g>
<!-- Node3 -->
<g id="node3" class="node"><title>Node3</title>
<g id="a_node3"><a xlink:href="_i_control_8h.html" target="_top" xlink:title="The lowest level base class of an IGraphics control. ">
<polygon fill="white" stroke="black" points="299.286,-168.5 299.286,-187.5 358.286,-187.5 358.286,-168.5 299.286,-168.5"/>
<text text-anchor="middle" x="328.786" y="-175.5" font-family="Helvetica,sans-Serif" font-size="10.00">IControl.h</text>
</a>
</g>
</g>
<!-- Node2&#45;&gt;Node3 -->
<g id="edge2" class="edge"><title>Node2&#45;&gt;Node3</title>
<path fill="none" stroke="midnightblue" d="M601.311,-225.571C536.154,-214.436 414.843,-193.706 358.707,-184.113"/>
<polygon fill="midnightblue" stroke="midnightblue" points="600.821,-229.038 611.268,-227.272 602,-222.138 600.821,-229.038"/>
</g>
<!-- Node8 -->
<g id="node8" class="node"><title>Node8</title>
<g id="a_node8"><a xlink:href="_i_graphics_8cpp_source.html" target="_top" xlink:title="IGraphics.cpp">
<polygon fill="white" stroke="black" points="26.2863,-56.5 26.2863,-75.5 103.286,-75.5 103.286,-56.5 26.2863,-56.5"/>
<text text-anchor="middle" x="64.7863" y="-63.5" font-family="Helvetica,sans-Serif" font-size="10.00">IGraphics.cpp</text>
</a>
</g>
</g>
<!-- Node2&#45;&gt;Node8 -->
<g id="edge13" class="edge"><title>Node2&#45;&gt;Node8</title>
<path fill="none" stroke="midnightblue" d="M600.842,-233.234C468.869,-232.898 80.4518,-223.98 4.78628,-132 -12.5803,-110.889 23.2111,-87.7106 46.6337,-75.5461"/>
<polygon fill="midnightblue" stroke="midnightblue" points="600.984,-236.734 610.988,-233.244 600.991,-229.734 600.984,-236.734"/>
</g>
<!-- Node12 -->
<g id="node12" class="node"><title>Node12</title>
<g id="a_node12"><a xlink:href="_i_plug_base_graphics_8cpp_source.html" target="_top" xlink:title="IPlugBaseGraphics.cpp">
<polygon fill="white" stroke="black" points="458.286,-112.5 458.286,-131.5 577.286,-131.5 577.286,-112.5 458.286,-112.5"/>
<text text-anchor="middle" x="517.786" y="-119.5" font-family="Helvetica,sans-Serif" font-size="10.00">IPlugBaseGraphics.cpp</text>
</a>
</g>
</g>
<!-- Node2&#45;&gt;Node12 -->
<g id="edge32" class="edge"><title>Node2&#45;&gt;Node12</title>
<path fill="none" stroke="midnightblue" d="M626.62,-218.111C616.085,-209.415 602.605,-198.181 590.786,-188 567.644,-168.064 540.956,-144.028 527.149,-131.514"/>
<polygon fill="midnightblue" stroke="midnightblue" points="624.404,-220.821 634.349,-224.473 628.852,-215.416 624.404,-220.821"/>
</g>
<!-- Node13 -->
<g id="node13" class="node"><title>Node13</title>
<g id="a_node13"><a xlink:href="_i_graphics_a_g_g_8h_source.html" target="_top" xlink:title="IGraphicsAGG.h">
<polygon fill="white" stroke="black" points="600.286,-168.5 600.286,-187.5 689.286,-187.5 689.286,-168.5 600.286,-168.5"/>
<text text-anchor="middle" x="644.786" y="-175.5" font-family="Helvetica,sans-Serif" font-size="10.00">IGraphicsAGG.h</text>
</a>
</g>
</g>
<!-- Node2&#45;&gt;Node13 -->
<g id="edge14" class="edge"><title>Node2&#45;&gt;Node13</title>
<path fill="none" stroke="midnightblue" d="M644.786,-213.805C644.786,-204.91 644.786,-194.78 644.786,-187.751"/>
<polygon fill="midnightblue" stroke="midnightblue" points="641.286,-214.083 644.786,-224.083 648.286,-214.083 641.286,-214.083"/>
</g>
<!-- Node15 -->
<g id="node15" class="node"><title>Node15</title>
<g id="a_node15"><a xlink:href="_i_graphics_cairo_8h_source.html" target="_top" xlink:title="IGraphicsCairo.h">
<polygon fill="white" stroke="black" points="712.786,-168.5 712.786,-187.5 802.786,-187.5 802.786,-168.5 712.786,-168.5"/>
<text text-anchor="middle" x="757.786" y="-175.5" font-family="Helvetica,sans-Serif" font-size="10.00">IGraphicsCairo.h</text>
</a>
</g>
</g>
<!-- Node2&#45;&gt;Node15 -->
<g id="edge16" class="edge"><title>Node2&#45;&gt;Node15</title>
<path fill="none" stroke="midnightblue" d="M671.789,-220.096C692.901,-210.007 721.648,-196.27 739.965,-187.516"/>
<polygon fill="midnightblue" stroke="midnightblue" points="670.205,-216.974 662.691,-224.444 673.223,-223.29 670.205,-216.974"/>
</g>
<!-- Node17 -->
<g id="node17" class="node"><title>Node17</title>
<g id="a_node17"><a xlink:href="_i_graphics_lice_8h_source.html" target="_top" xlink:title="IGraphicsLice.h">
<polygon fill="white" stroke="black" points="935.286,-168.5 935.286,-187.5 1020.29,-187.5 1020.29,-168.5 935.286,-168.5"/>
<text text-anchor="middle" x="977.786" y="-175.5" font-family="Helvetica,sans-Serif" font-size="10.00">IGraphicsLice.h</text>
</a>
</g>
</g>
<!-- Node2&#45;&gt;Node17 -->
<g id="edge18" class="edge"><title>Node2&#45;&gt;Node17</title>
<path fill="none" stroke="midnightblue" d="M688.745,-225.872C752.943,-215.461 871.592,-196.221 935.076,-185.926"/>
<polygon fill="midnightblue" stroke="midnightblue" points="687.859,-222.469 678.549,-227.525 688.98,-229.379 687.859,-222.469"/>
</g>
<!-- Node23 -->
<g id="node23" class="node"><title>Node23</title>
<g id="a_node23"><a xlink:href="_i_graphics_nano_v_g_8h_source.html" target="_top" xlink:title="IGraphicsNanoVG.h">
<polygon fill="white" stroke="black" points="1151.79,-168.5 1151.79,-187.5 1255.79,-187.5 1255.79,-168.5 1151.79,-168.5"/>
<text text-anchor="middle" x="1203.79" y="-175.5" font-family="Helvetica,sans-Serif" font-size="10.00">IGraphicsNanoVG.h</text>
</a>
</g>
</g>
<!-- Node2&#45;&gt;Node23 -->
<g id="edge30" class="edge"><title>Node2&#45;&gt;Node23</title>
<path fill="none" stroke="midnightblue" d="M688.73,-228.755C790.556,-218.919 1042.28,-194.601 1151.66,-184.036"/>
<polygon fill="midnightblue" stroke="midnightblue" points="688.112,-225.298 678.495,-229.744 688.786,-232.266 688.112,-225.298"/>
</g>
<!-- Node4 -->
<g id="node4" class="node"><title>Node4</title>
<g id="a_node4"><a xlink:href="_i_control_8cpp_source.html" target="_top" xlink:title="IControl.cpp">
<polygon fill="white" stroke="black" points="293.786,-112.5 293.786,-131.5 363.786,-131.5 363.786,-112.5 293.786,-112.5"/>
<text text-anchor="middle" x="328.786" y="-119.5" font-family="Helvetica,sans-Serif" font-size="10.00">IControl.cpp</text>
</a>
</g>
</g>
<!-- Node3&#45;&gt;Node4 -->
<g id="edge3" class="edge"><title>Node3&#45;&gt;Node4</title>
<path fill="none" stroke="midnightblue" d="M328.786,-157.805C328.786,-148.91 328.786,-138.78 328.786,-131.751"/>
<polygon fill="midnightblue" stroke="midnightblue" points="325.286,-158.083 328.786,-168.083 332.286,-158.083 325.286,-158.083"/>
</g>
<!-- Node5 -->
<g id="node5" class="node"><title>Node5</title>
<g id="a_node5"><a xlink:href="_i_controls_8h.html" target="_top" xlink:title="A collection of IControls for common UI widgets, such as knobs, sliders, switches. ">
<polygon fill="white" stroke="black" points="210.286,-112.5 210.286,-131.5 275.286,-131.5 275.286,-112.5 210.286,-112.5"/>
<text text-anchor="middle" x="242.786" y="-119.5" font-family="Helvetica,sans-Serif" font-size="10.00">IControls.h</text>
</a>
</g>
</g>
<!-- Node3&#45;&gt;Node5 -->
<g id="edge4" class="edge"><title>Node3&#45;&gt;Node5</title>
<path fill="none" stroke="midnightblue" d="M306.332,-162.901C290.562,-152.999 269.973,-140.071 256.569,-131.655"/>
<polygon fill="midnightblue" stroke="midnightblue" points="304.639,-165.97 314.969,-168.324 308.361,-160.042 304.639,-165.97"/>
</g>
<!-- Node7 -->
<g id="node7" class="node"><title>Node7</title>
<g id="a_node7"><a xlink:href="_i_graphics_live_edit_8h_source.html" target="_top" xlink:title="IGraphicsLiveEdit.h">
<polygon fill="white" stroke="black" points="13.7863,-112.5 13.7863,-131.5 115.786,-131.5 115.786,-112.5 13.7863,-112.5"/>
<text text-anchor="middle" x="64.7863" y="-119.5" font-family="Helvetica,sans-Serif" font-size="10.00">IGraphicsLiveEdit.h</text>
</a>
</g>
</g>
<!-- Node3&#45;&gt;Node7 -->
<g id="edge6" class="edge"><title>Node3&#45;&gt;Node7</title>
<path fill="none" stroke="midnightblue" d="M289.346,-168.933C240.276,-158.896 156.853,-141.832 106.673,-131.568"/>
<polygon fill="midnightblue" stroke="midnightblue" points="288.772,-172.388 299.271,-170.963 290.175,-165.53 288.772,-172.388"/>
</g>
<!-- Node3&#45;&gt;Node8 -->
<g id="edge8" class="edge"><title>Node3&#45;&gt;Node8</title>
<path fill="none" stroke="midnightblue" d="M289.291,-169.326C256.002,-162.073 207.572,-149.66 167.786,-132 132.032,-116.13 94.164,-89.2518 75.9092,-75.5638"/>
<polygon fill="midnightblue" stroke="midnightblue" points="288.601,-172.757 299.11,-171.411 290.055,-165.91 288.601,-172.757"/>
</g>
<!-- Node9 -->
<g id="node9" class="node"><title>Node9</title>
<g id="a_node9"><a xlink:href="_i_graphics_mac_8mm_source.html" target="_top" xlink:title="IGraphicsMac.mm">
<polygon fill="white" stroke="black" points="784.286,-0.5 784.286,-19.5 881.286,-19.5 881.286,-0.5 784.286,-0.5"/>
<text text-anchor="middle" x="832.786" y="-7.5" font-family="Helvetica,sans-Serif" font-size="10.00">IGraphicsMac.mm</text>
</a>
</g>
</g>
<!-- Node3&#45;&gt;Node9 -->
<g id="edge9" class="edge"><title>Node3&#45;&gt;Node9</title>
<path fill="none" stroke="midnightblue" d="M343.438,-160.882C357.872,-145.988 381.267,-124.353 405.786,-112 533.006,-47.9077 702.206,-23.5582 784.174,-15.0884"/>
<polygon fill="midnightblue" stroke="midnightblue" points="340.701,-158.683 336.391,-168.362 345.796,-163.484 340.701,-158.683"/>
</g>
<!-- Node10 -->
<g id="node10" class="node"><title>Node10</title>
<g id="a_node10"><a xlink:href="_i_graphics_mac__view_8mm_source.html" target="_top" xlink:title="IGraphicsMac_view.mm">
<polygon fill="white" stroke="black" points="403.786,-0.5 403.786,-19.5 525.786,-19.5 525.786,-0.5 403.786,-0.5"/>
<text text-anchor="middle" x="464.786" y="-7.5" font-family="Helvetica,sans-Serif" font-size="10.00">IGraphicsMac_view.mm</text>
</a>
</g>
</g>
<!-- Node3&#45;&gt;Node10 -->
<g id="edge10" class="edge"><title>Node3&#45;&gt;Node10</title>
<path fill="none" stroke="midnightblue" d="M289.092,-174.743C259.402,-170.725 220.641,-160.026 200.786,-132 181.26,-104.438 179.001,-81.8133 200.786,-56 226.238,-25.8427 334.013,-15.8934 403.745,-12.6125"/>
<polygon fill="midnightblue" stroke="midnightblue" points="288.835,-178.236 299.17,-175.903 289.636,-171.282 288.835,-178.236"/>
</g>
<!-- Node11 -->
<g id="node11" class="node"><title>Node11</title>
<g id="a_node11"><a xlink:href="_i_graphics_win_8cpp_source.html" target="_top" xlink:title="IGraphicsWin.cpp">
<polygon fill="white" stroke="black" points="930.286,-56.5 930.286,-75.5 1025.29,-75.5 1025.29,-56.5 930.286,-56.5"/>
<text text-anchor="middle" x="977.786" y="-63.5" font-family="Helvetica,sans-Serif" font-size="10.00">IGraphicsWin.cpp</text>
</a>
</g>
</g>
<!-- Node3&#45;&gt;Node11 -->
<g id="edge11" class="edge"><title>Node3&#45;&gt;Node11</title>
<path fill="none" stroke="midnightblue" d="M351.68,-163.129C380.613,-145.861 429.02,-117.912 448.786,-112 471.663,-105.157 804.208,-79.9007 930.031,-70.5296"/>
<polygon fill="midnightblue" stroke="midnightblue" points="349.806,-160.172 343.032,-168.318 353.407,-166.174 349.806,-160.172"/>
</g>
<!-- Node3&#45;&gt;Node12 -->
<g id="edge12" class="edge"><title>Node3&#45;&gt;Node12</title>
<path fill="none" stroke="midnightblue" d="M368.366,-165.692C403.984,-155.515 455.544,-140.783 487.839,-131.556"/>
<polygon fill="midnightblue" stroke="midnightblue" points="366.971,-162.45 358.318,-168.562 368.894,-169.181 366.971,-162.45"/>
</g>
<!-- Node6 -->
<g id="node6" class="node"><title>Node6</title>
<g id="a_node6"><a xlink:href="_i_controls_8cpp_source.html" target="_top" xlink:title="IControls.cpp">
<polygon fill="white" stroke="black" points="210.286,-56.5 210.286,-75.5 285.286,-75.5 285.286,-56.5 210.286,-56.5"/>
<text text-anchor="middle" x="247.786" y="-63.5" font-family="Helvetica,sans-Serif" font-size="10.00">IControls.cpp</text>
</a>
</g>
</g>
<!-- Node5&#45;&gt;Node6 -->
<g id="edge5" class="edge"><title>Node5&#45;&gt;Node6</title>
<path fill="none" stroke="midnightblue" d="M244.536,-102.101C245.366,-93.1357 246.318,-82.8579 246.976,-75.7511"/>
<polygon fill="midnightblue" stroke="midnightblue" points="241.049,-101.803 243.612,-112.083 248.019,-102.448 241.049,-101.803"/>
</g>
<!-- Node7&#45;&gt;Node8 -->
<g id="edge7" class="edge"><title>Node7&#45;&gt;Node8</title>
<path fill="none" stroke="midnightblue" d="M64.7863,-101.805C64.7863,-92.9102 64.7863,-82.7798 64.7863,-75.7511"/>
<polygon fill="midnightblue" stroke="midnightblue" points="61.2864,-102.083 64.7863,-112.083 68.2864,-102.083 61.2864,-102.083"/>
</g>
<!-- Node14 -->
<g id="node14" class="node"><title>Node14</title>
<g id="a_node14"><a xlink:href="_i_graphics_a_g_g_8cpp_source.html" target="_top" xlink:title="IGraphicsAGG.cpp">
<polygon fill="white" stroke="black" points="595.286,-112.5 595.286,-131.5 694.286,-131.5 694.286,-112.5 595.286,-112.5"/>
<text text-anchor="middle" x="644.786" y="-119.5" font-family="Helvetica,sans-Serif" font-size="10.00">IGraphicsAGG.cpp</text>
</a>
</g>
</g>
<!-- Node13&#45;&gt;Node14 -->
<g id="edge15" class="edge"><title>Node13&#45;&gt;Node14</title>
<path fill="none" stroke="midnightblue" d="M644.786,-157.805C644.786,-148.91 644.786,-138.78 644.786,-131.751"/>
<polygon fill="midnightblue" stroke="midnightblue" points="641.286,-158.083 644.786,-168.083 648.286,-158.083 641.286,-158.083"/>
</g>
<!-- Node16 -->
<g id="node16" class="node"><title>Node16</title>
<g id="a_node16"><a xlink:href="_i_graphics_cairo_8cpp_source.html" target="_top" xlink:title="IGraphicsCairo.cpp">
<polygon fill="white" stroke="black" points="712.286,-112.5 712.286,-131.5 813.286,-131.5 813.286,-112.5 712.286,-112.5"/>
<text text-anchor="middle" x="762.786" y="-119.5" font-family="Helvetica,sans-Serif" font-size="10.00">IGraphicsCairo.cpp</text>
</a>
</g>
</g>
<!-- Node15&#45;&gt;Node16 -->
<g id="edge17" class="edge"><title>Node15&#45;&gt;Node16</title>
<path fill="none" stroke="midnightblue" d="M759.536,-158.101C760.366,-149.136 761.318,-138.858 761.976,-131.751"/>
<polygon fill="midnightblue" stroke="midnightblue" points="756.049,-157.803 758.612,-168.083 763.019,-158.448 756.049,-157.803"/>
</g>
<!-- Node18 -->
<g id="node18" class="node"><title>Node18</title>
<g id="a_node18"><a xlink:href="_i_graphics_lice_8cpp_source.html" target="_top" xlink:title="IGraphicsLice.cpp">
<polygon fill="white" stroke="black" points="1146.29,-112.5 1146.29,-131.5 1241.29,-131.5 1241.29,-112.5 1146.29,-112.5"/>
<text text-anchor="middle" x="1193.79" y="-119.5" font-family="Helvetica,sans-Serif" font-size="10.00">IGraphicsLice.cpp</text>
</a>
</g>
</g>
<!-- Node17&#45;&gt;Node18 -->
<g id="edge19" class="edge"><title>Node17&#45;&gt;Node18</title>
<path fill="none" stroke="midnightblue" d="M1021.95,-165.959C1062.75,-155.76 1122.5,-140.822 1159.72,-131.516"/>
<polygon fill="midnightblue" stroke="midnightblue" points="1020.86,-162.623 1012.01,-168.444 1022.56,-169.414 1020.86,-162.623"/>
</g>
<!-- Node19 -->
<g id="node19" class="node"><title>Node19</title>
<g id="a_node19"><a xlink:href="_i_graphics_linux_8h_source.html" target="_top" xlink:title="IGraphicsLinux.h">
<polygon fill="white" stroke="black" points="1037.79,-112.5 1037.79,-131.5 1127.79,-131.5 1127.79,-112.5 1037.79,-112.5"/>
<text text-anchor="middle" x="1082.79" y="-119.5" font-family="Helvetica,sans-Serif" font-size="10.00">IGraphicsLinux.h</text>
</a>
</g>
</g>
<!-- Node17&#45;&gt;Node19 -->
<g id="edge22" class="edge"><title>Node17&#45;&gt;Node19</title>
<path fill="none" stroke="midnightblue" d="M1003.6,-163.726C1023.04,-153.727 1049.13,-140.307 1065.96,-131.655"/>
<polygon fill="midnightblue" stroke="midnightblue" points="1001.95,-160.638 994.656,-168.324 1005.15,-166.863 1001.95,-160.638"/>
</g>
<!-- Node20 -->
<g id="node20" class="node"><title>Node20</title>
<g id="a_node20"><a xlink:href="_i_graphics_mac_8h_source.html" target="_top" xlink:title="IGraphicsMac.h">
<polygon fill="white" stroke="black" points="831.786,-112.5 831.786,-131.5 917.786,-131.5 917.786,-112.5 831.786,-112.5"/>
<text text-anchor="middle" x="874.786" y="-119.5" font-family="Helvetica,sans-Serif" font-size="10.00">IGraphicsMac.h</text>
</a>
</g>
</g>
<!-- Node17&#45;&gt;Node20 -->
<g id="edge23" class="edge"><title>Node17&#45;&gt;Node20</title>
<path fill="none" stroke="midnightblue" d="M952.207,-163.59C933.163,-153.605 907.722,-140.267 891.294,-131.655"/>
<polygon fill="midnightblue" stroke="midnightblue" points="950.756,-166.78 961.238,-168.324 954.006,-160.581 950.756,-166.78"/>
</g>
<!-- Node22 -->
<g id="node22" class="node"><title>Node22</title>
<g id="a_node22"><a xlink:href="_i_graphics_win_8h_source.html" target="_top" xlink:title="IGraphicsWin.h">
<polygon fill="white" stroke="black" points="935.786,-112.5 935.786,-131.5 1019.79,-131.5 1019.79,-112.5 935.786,-112.5"/>
<text text-anchor="middle" x="977.786" y="-119.5" font-family="Helvetica,sans-Serif" font-size="10.00">IGraphicsWin.h</text>
</a>
</g>
</g>
<!-- Node17&#45;&gt;Node22 -->
<g id="edge28" class="edge"><title>Node17&#45;&gt;Node22</title>
<path fill="none" stroke="midnightblue" d="M977.786,-157.805C977.786,-148.91 977.786,-138.78 977.786,-131.751"/>
<polygon fill="midnightblue" stroke="midnightblue" points="974.286,-158.083 977.786,-168.083 981.286,-158.083 974.286,-158.083"/>
</g>
<!-- Node18&#45;&gt;Node9 -->
<g id="edge20" class="edge"><title>Node18&#45;&gt;Node9</title>
<path fill="none" stroke="midnightblue" d="M1166,-108.063C1134.48,-93.7835 1081.3,-70.8568 1033.79,-56 982.591,-39.9914 922.383,-27.2934 881.299,-19.5224"/>
<polygon fill="midnightblue" stroke="midnightblue" points="1164.88,-111.402 1175.43,-112.374 1167.79,-105.035 1164.88,-111.402"/>
</g>
<!-- Node18&#45;&gt;Node11 -->
<g id="edge21" class="edge"><title>Node18&#45;&gt;Node11</title>
<path fill="none" stroke="midnightblue" d="M1149.62,-109.959C1108.83,-99.7598 1049.07,-84.8217 1011.85,-75.5164"/>
<polygon fill="midnightblue" stroke="midnightblue" points="1149.01,-113.414 1159.56,-112.444 1150.71,-106.623 1149.01,-113.414"/>
</g>
<!-- Node20&#45;&gt;Node9 -->
<g id="edge24" class="edge"><title>Node20&#45;&gt;Node9</title>
<path fill="none" stroke="midnightblue" d="M869.982,-102.701C866.325,-89.5305 860.892,-71.4397 854.786,-56 849.669,-43.0613 842.355,-28.7178 837.588,-19.7797"/>
<polygon fill="midnightblue" stroke="midnightblue" points="866.626,-103.699 872.611,-112.441 873.384,-101.874 866.626,-103.699"/>
</g>
<!-- Node21 -->
<g id="node21" class="node"><title>Node21</title>
<g id="a_node21"><a xlink:href="_i_graphics_mac__view_8h_source.html" target="_top" xlink:title="IGraphicsMac_view.h">
<polygon fill="white" stroke="black" points="735.286,-56.5 735.286,-75.5 846.286,-75.5 846.286,-56.5 735.286,-56.5"/>
<text text-anchor="middle" x="790.786" y="-63.5" font-family="Helvetica,sans-Serif" font-size="10.00">IGraphicsMac_view.h</text>
</a>
</g>
</g>
<!-- Node20&#45;&gt;Node21 -->
<g id="edge25" class="edge"><title>Node20&#45;&gt;Node21</title>
<path fill="none" stroke="midnightblue" d="M852.854,-106.901C837.451,-96.9986 817.34,-84.0705 804.249,-75.6545"/>
<polygon fill="midnightblue" stroke="midnightblue" points="850.986,-109.86 861.29,-112.324 854.771,-103.972 850.986,-109.86"/>
</g>
<!-- Node21&#45;&gt;Node9 -->
<g id="edge26" class="edge"><title>Node21&#45;&gt;Node9</title>
<path fill="none" stroke="midnightblue" d="M803.897,-48.144C811.214,-38.7357 820.027,-27.4046 825.98,-19.7511"/>
<polygon fill="midnightblue" stroke="midnightblue" points="801.098,-46.0406 797.722,-56.083 806.624,-50.3383 801.098,-46.0406"/>
</g>
<!-- Node21&#45;&gt;Node10 -->
<g id="edge27" class="edge"><title>Node21&#45;&gt;Node10</title>
<path fill="none" stroke="midnightblue" d="M729.152,-54.7907C667.552,-44.587 573.924,-29.078 516.2,-19.5164"/>
<polygon fill="midnightblue" stroke="midnightblue" points="728.693,-58.2622 739.131,-56.4435 729.837,-51.3563 728.693,-58.2622"/>
</g>
<!-- Node22&#45;&gt;Node11 -->
<g id="edge29" class="edge"><title>Node22&#45;&gt;Node11</title>
<path fill="none" stroke="midnightblue" d="M977.786,-101.805C977.786,-92.9102 977.786,-82.7798 977.786,-75.7511"/>
<polygon fill="midnightblue" stroke="midnightblue" points="974.286,-102.083 977.786,-112.083 981.286,-102.083 974.286,-102.083"/>
</g>
<!-- Node24 -->
<g id="node24" class="node"><title>Node24</title>
<g id="a_node24"><a xlink:href="_i_graphics_nano_v_g_8cpp_source.html" target="_top" xlink:title="IGraphicsNanoVG.cpp">
<polygon fill="white" stroke="black" points="1259.29,-112.5 1259.29,-131.5 1374.29,-131.5 1374.29,-112.5 1259.29,-112.5"/>
<text text-anchor="middle" x="1316.79" y="-119.5" font-family="Helvetica,sans-Serif" font-size="10.00">IGraphicsNanoVG.cpp</text>
</a>
</g>
</g>
<!-- Node23&#45;&gt;Node24 -->
<g id="edge31" class="edge"><title>Node23&#45;&gt;Node24</title>
<path fill="none" stroke="midnightblue" d="M1230.79,-164.096C1251.9,-154.007 1280.65,-140.27 1298.96,-131.516"/>
<polygon fill="midnightblue" stroke="midnightblue" points="1229.21,-160.974 1221.69,-168.444 1232.22,-167.29 1229.21,-160.974"/>
</g>
</g>
</svg>
