<?xml version="1.0" encoding="UTF-8" standalone="no"?>
<!DOCTYPE svg PUBLIC "-//W3C//DTD SVG 1.1//EN"
 "http://www.w3.org/Graphics/SVG/1.1/DTD/svg11.dtd">
<!-- Generated by graphviz version 2.36.0 (20140111.2315)
 -->
<!-- Title: IPlugVST3.h Pages: 1 -->
<!--zoomable 488 -->
<svg id="main" version="1.1" xmlns="http://www.w3.org/2000/svg" xmlns:xlink="http://www.w3.org/1999/xlink" xml:space="preserve" onload="init(evt)">
<style type="text/css"><![CDATA[
.edge:hover path { stroke: red; }
.edge:hover polygon { stroke: red; fill: red; }
]]></style>
<script type="text/javascript"><![CDATA[
var edges = document.getElementsByTagName('g');
if (edges && edges.length) {
  for (var i=0;i<edges.length;i++) {
    if (edges[i].id.substr(0,4)=='edge') {
      edges[i].setAttribute('class','edge');
    }
  }
}
]]></script>
        <defs>
                <circle id="rim" cx="0" cy="0" r="7"/>
                <circle id="rim2" cx="0" cy="0" r="3.5"/>
                <g id="zoomPlus">
                        <use xlink:href="#rim" fill="#404040">
                                <set attributeName="fill" to="#808080" begin="zoomplus.mouseover" end="zoomplus.mouseout"/>
                        </use>
                        <path d="M-4,0h8M0,-4v8" fill="none" stroke="white" stroke-width="1.5" pointer-events="none"/>
                </g>
                <g id="zoomMin">
                        <use xlink:href="#rim" fill="#404040">
                                <set attributeName="fill" to="#808080" begin="zoomminus.mouseover" end="zoomminus.mouseout"/>
                        </use>
                        <path d="M-4,0h8" fill="none" stroke="white" stroke-width="1.5" pointer-events="none"/>
                </g>
                <g id="dirArrow">
                        <path fill="none" stroke="white" stroke-width="1.5" d="M0,-3.0v7 M-2.5,-0.5L0,-3.0L2.5,-0.5"/>
                </g>
               <g id="resetDef">
                       <use xlink:href="#rim2" fill="#404040">
                               <set attributeName="fill" to="#808080" begin="reset.mouseover" end="reset.mouseout"/>
                       </use>
               </g>
        </defs>

<script type="text/javascript">
var viewWidth = 1292;
var viewHeight = 488;
var sectionId = 'dynsection-0';
</script>
<script xlink:href="svgpan.js"/>
<svg id="graph" class="graph">
<g id="viewport">
<title>IPlugVST3.h</title>
<polygon fill="white" stroke="none" points="-4,4 -4,-484 1288.19,-484 1288.19,4 -4,4"/>
<!-- Node1 -->
<g id="node1" class="node"><title>Node1</title>
<polygon fill="#bfbfbf" stroke="black" points="410.192,-460.5 410.192,-479.5 482.192,-479.5 482.192,-460.5 410.192,-460.5"/>
<text text-anchor="middle" x="446.192" y="-467.5" font-family="Helvetica,sans-Serif" font-size="10.00">IPlugVST3.h</text>
</g>
<!-- Node2 -->
<g id="node2" class="node"><title>Node2</title>
<polygon fill="white" stroke="#bfbfbf" points="111.192,-398.5 111.192,-417.5 155.192,-417.5 155.192,-398.5 111.192,-398.5"/>
<text text-anchor="middle" x="133.192" y="-405.5" font-family="Helvetica,sans-Serif" font-size="10.00">vector</text>
</g>
<!-- Node1&#45;&gt;Node2 -->
<g id="edge1" class="edge"><title>Node1&#45;&gt;Node2</title>
<path fill="none" stroke="midnightblue" d="M409.805,-466.603C355.323,-462.257 249.8,-450.9 164.192,-424 162.06,-423.33 159.89,-422.536 157.738,-421.669"/>
<polygon fill="midnightblue" stroke="midnightblue" points="159.152,-418.467 148.597,-417.551 156.277,-424.849 159.152,-418.467"/>
</g>
<!-- Node3 -->
<g id="node3" class="node"><title>Node3</title>
<polygon fill="white" stroke="#bfbfbf" points="173.192,-393 173.192,-423 313.192,-423 313.192,-393 173.192,-393"/>
<text text-anchor="start" x="181.192" y="-411" font-family="Helvetica,sans-Serif" font-size="10.00">public.sdk/source/vst</text>
<text text-anchor="middle" x="243.192" y="-400" font-family="Helvetica,sans-Serif" font-size="10.00">/vstsinglecomponenteffect.h</text>
</g>
<!-- Node1&#45;&gt;Node3 -->
<g id="edge2" class="edge"><title>Node1&#45;&gt;Node3</title>
<path fill="none" stroke="midnightblue" d="M417.107,-460.403C386.814,-451.45 338.567,-437.19 300.566,-425.958"/>
<polygon fill="midnightblue" stroke="midnightblue" points="301.226,-422.503 290.644,-423.025 299.242,-429.216 301.226,-422.503"/>
</g>
<!-- Node4 -->
<g id="node4" class="node"><title>Node4</title>
<polygon fill="white" stroke="#bfbfbf" points="331.192,-393 331.192,-423 441.192,-423 441.192,-393 331.192,-393"/>
<text text-anchor="start" x="339.192" y="-411" font-family="Helvetica,sans-Serif" font-size="10.00">pluginterfaces/vst</text>
<text text-anchor="middle" x="386.192" y="-400" font-family="Helvetica,sans-Serif" font-size="10.00">/ivstprocesscontext.h</text>
</g>
<!-- Node1&#45;&gt;Node4 -->
<g id="edge3" class="edge"><title>Node1&#45;&gt;Node4</title>
<path fill="none" stroke="midnightblue" d="M437.595,-460.403C429.773,-452.581 417.899,-440.708 407.534,-430.342"/>
<polygon fill="midnightblue" stroke="midnightblue" points="409.878,-427.737 400.332,-423.141 404.929,-432.687 409.878,-427.737"/>
</g>
<!-- Node5 -->
<g id="node5" class="node"><title>Node5</title>
<polygon fill="white" stroke="#bfbfbf" points="459.192,-393 459.192,-423 553.192,-423 553.192,-393 459.192,-393"/>
<text text-anchor="start" x="467.192" y="-411" font-family="Helvetica,sans-Serif" font-size="10.00">pluginterfaces/vst</text>
<text text-anchor="middle" x="506.192" y="-400" font-family="Helvetica,sans-Serif" font-size="10.00">/vsttypes.h</text>
</g>
<!-- Node1&#45;&gt;Node5 -->
<g id="edge4" class="edge"><title>Node1&#45;&gt;Node5</title>
<path fill="none" stroke="midnightblue" d="M454.788,-460.403C462.61,-452.581 474.484,-440.708 484.849,-430.342"/>
<polygon fill="midnightblue" stroke="midnightblue" points="487.455,-432.687 492.051,-423.141 482.505,-427.737 487.455,-432.687"/>
</g>
<!-- Node6 -->
<g id="node6" class="node"><title>Node6</title>
<polygon fill="white" stroke="#bfbfbf" points="571.192,-393 571.192,-423 671.192,-423 671.192,-393 571.192,-393"/>
<text text-anchor="start" x="579.192" y="-411" font-family="Helvetica,sans-Serif" font-size="10.00">pluginterfaces/vst</text>
<text text-anchor="middle" x="621.192" y="-400" font-family="Helvetica,sans-Serif" font-size="10.00">/ivstcontextmenu.h</text>
</g>
<!-- Node1&#45;&gt;Node6 -->
<g id="edge5" class="edge"><title>Node1&#45;&gt;Node6</title>
<path fill="none" stroke="midnightblue" d="M471.265,-460.403C497.045,-451.564 537.912,-437.553 570.472,-426.39"/>
<polygon fill="midnightblue" stroke="midnightblue" points="571.96,-429.579 580.284,-423.025 569.69,-422.958 571.96,-429.579"/>
</g>
<!-- Node7 -->
<g id="node7" class="node"><title>Node7</title>
<g id="a_node7"><a xlink:href="_i_plug_base__select_8h_source.html" target="_top" xlink:title="IPlugBase_select.h">
<polygon fill="white" stroke="black" points="689.692,-398.5 689.692,-417.5 790.692,-417.5 790.692,-398.5 689.692,-398.5"/>
<text text-anchor="middle" x="740.192" y="-405.5" font-family="Helvetica,sans-Serif" font-size="10.00">IPlugBase_select.h</text>
</a>
</g>
</g>
<!-- Node1&#45;&gt;Node7 -->
<g id="edge6" class="edge"><title>Node1&#45;&gt;Node7</title>
<path fill="none" stroke="midnightblue" d="M482.396,-462.675C528.489,-454.477 610.51,-439.398 680.192,-424 685.901,-422.738 691.896,-421.335 697.797,-419.907"/>
<polygon fill="midnightblue" stroke="midnightblue" points="698.698,-423.29 707.572,-417.501 697.025,-416.492 698.698,-423.29"/>
</g>
<!-- Node8 -->
<g id="node8" class="node"><title>Node8</title>
<g id="a_node8"><a xlink:href="_i_plug_base_graphics_8h.html" target="_top" xlink:title="An IPlugBase class for an IPlug plug&#45;in that uses IGraphics for it&#39;s UI. ">
<polygon fill="white" stroke="black" points="685.692,-336.5 685.692,-355.5 794.692,-355.5 794.692,-336.5 685.692,-336.5"/>
<text text-anchor="middle" x="740.192" y="-343.5" font-family="Helvetica,sans-Serif" font-size="10.00">IPlugBaseGraphics.h</text>
</a>
</g>
</g>
<!-- Node7&#45;&gt;Node8 -->
<g id="edge7" class="edge"><title>Node7&#45;&gt;Node8</title>
<path fill="none" stroke="midnightblue" d="M740.192,-398.403C740.192,-389.938 740.192,-376.728 740.192,-365.82"/>
<polygon fill="midnightblue" stroke="midnightblue" points="743.692,-365.581 740.192,-355.581 736.692,-365.581 743.692,-365.581"/>
</g>
<!-- Node31 -->
<g id="node31" class="node"><title>Node31</title>
<g id="a_node31"><a xlink:href="_i_plug_processor_8h.html" target="_top" xlink:title="The base class for IPlug Audio Processing. ">
<polygon fill="white" stroke="black" points="395.192,-280.5 395.192,-299.5 487.192,-299.5 487.192,-280.5 395.192,-280.5"/>
<text text-anchor="middle" x="441.192" y="-287.5" font-family="Helvetica,sans-Serif" font-size="10.00">IPlugProcessor.h</text>
</a>
</g>
</g>
<!-- Node7&#45;&gt;Node31 -->
<g id="edge52" class="edge"><title>Node7&#45;&gt;Node31</title>
<path fill="none" stroke="midnightblue" d="M718.205,-398.47C665.827,-378.15 533.518,-326.819 472.68,-303.216"/>
<polygon fill="midnightblue" stroke="midnightblue" points="473.799,-299.896 463.21,-299.542 471.267,-306.422 473.799,-299.896"/>
</g>
<!-- Node36 -->
<g id="node36" class="node"><title>Node36</title>
<g id="a_node36"><a xlink:href="_i_plug_presets_8h.html" target="_top" xlink:title="IPlugPresets.h">
<polygon fill="white" stroke="black" points="956.692,-280.5 956.692,-299.5 1037.69,-299.5 1037.69,-280.5 956.692,-280.5"/>
<text text-anchor="middle" x="997.192" y="-287.5" font-family="Helvetica,sans-Serif" font-size="10.00">IPlugPresets.h</text>
</a>
</g>
</g>
<!-- Node7&#45;&gt;Node36 -->
<g id="edge69" class="edge"><title>Node7&#45;&gt;Node36</title>
<path fill="none" stroke="midnightblue" d="M759.089,-398.47C803.832,-378.275 916.43,-327.453 969.149,-303.657"/>
<polygon fill="midnightblue" stroke="midnightblue" points="970.591,-306.846 978.266,-299.542 967.712,-300.466 970.591,-306.846"/>
</g>
<!-- Node9 -->
<g id="node9" class="node"><title>Node9</title>
<g id="a_node9"><a xlink:href="_i_plug_base_8h.html" target="_top" xlink:title="The lowest level base class of an IPlug plug&#45;in. ">
<polygon fill="white" stroke="black" points="753.192,-280.5 753.192,-299.5 823.192,-299.5 823.192,-280.5 753.192,-280.5"/>
<text text-anchor="middle" x="788.192" y="-287.5" font-family="Helvetica,sans-Serif" font-size="10.00">IPlugBase.h</text>
</a>
</g>
</g>
<!-- Node8&#45;&gt;Node9 -->
<g id="edge8" class="edge"><title>Node8&#45;&gt;Node9</title>
<path fill="none" stroke="midnightblue" d="M748.118,-336.083C755.038,-328.298 765.257,-316.801 773.644,-307.367"/>
<polygon fill="midnightblue" stroke="midnightblue" points="776.385,-309.55 780.413,-299.751 771.153,-304.9 776.385,-309.55"/>
</g>
<!-- Node30 -->
<g id="node30" class="node"><title>Node30</title>
<g id="a_node30"><a xlink:href="_i_plug_delegate_8h_source.html" target="_top" xlink:title="IPlugDelegate.h">
<polygon fill="white" stroke="black" points="649.192,-280.5 649.192,-299.5 735.192,-299.5 735.192,-280.5 649.192,-280.5"/>
<text text-anchor="middle" x="692.192" y="-287.5" font-family="Helvetica,sans-Serif" font-size="10.00">IPlugDelegate.h</text>
</a>
</g>
</g>
<!-- Node8&#45;&gt;Node30 -->
<g id="edge51" class="edge"><title>Node8&#45;&gt;Node30</title>
<path fill="none" stroke="midnightblue" d="M732.265,-336.083C725.345,-328.298 715.126,-316.801 706.74,-307.367"/>
<polygon fill="midnightblue" stroke="midnightblue" points="709.23,-304.9 699.97,-299.751 703.998,-309.55 709.23,-304.9"/>
</g>
<!-- Node10 -->
<g id="node10" class="node"><title>Node10</title>
<polygon fill="white" stroke="#bfbfbf" points="1077.19,-0.5 1077.19,-19.5 1123.19,-19.5 1123.19,-0.5 1077.19,-0.5"/>
<text text-anchor="middle" x="1100.19" y="-7.5" font-family="Helvetica,sans-Serif" font-size="10.00">cstring</text>
</g>
<!-- Node9&#45;&gt;Node10 -->
<g id="edge9" class="edge"><title>Node9&#45;&gt;Node10</title>
<path fill="none" stroke="midnightblue" d="M823.405,-286.417C915.634,-277.42 1161.64,-238.414 1227.19,-76 1243.63,-35.2597 1176.32,-19.7704 1133.43,-14.0989"/>
<polygon fill="midnightblue" stroke="midnightblue" points="1133.72,-10.6091 1123.37,-12.8876 1132.88,-17.5589 1133.72,-10.6091"/>
</g>
<!-- Node11 -->
<g id="node11" class="node"><title>Node11</title>
<polygon fill="white" stroke="#bfbfbf" points="368.192,-56.5 368.192,-75.5 414.192,-75.5 414.192,-56.5 368.192,-56.5"/>
<text text-anchor="middle" x="391.192" y="-63.5" font-family="Helvetica,sans-Serif" font-size="10.00">cstdint</text>
</g>
<!-- Node9&#45;&gt;Node11 -->
<g id="edge10" class="edge"><title>Node9&#45;&gt;Node11</title>
<path fill="none" stroke="midnightblue" d="M752.786,-281.726C691.83,-269.193 573.337,-244.786 571.192,-244 558.96,-239.518 477.714,-196.889 468.192,-188 435.557,-157.535 410.865,-110.39 398.998,-84.8735"/>
<polygon fill="midnightblue" stroke="midnightblue" points="402.142,-83.3316 394.836,-75.6586 395.762,-86.2129 402.142,-83.3316"/>
</g>
<!-- Node12 -->
<g id="node12" class="node"><title>Node12</title>
<polygon fill="white" stroke="#bfbfbf" points="469.692,-224.5 469.692,-243.5 518.692,-243.5 518.692,-224.5 469.692,-224.5"/>
<text text-anchor="middle" x="494.192" y="-231.5" font-family="Helvetica,sans-Serif" font-size="10.00">ptrlist.h</text>
</g>
<!-- Node9&#45;&gt;Node12 -->
<g id="edge11" class="edge"><title>Node9&#45;&gt;Node12</title>
<path fill="none" stroke="midnightblue" d="M753.147,-281.724C750.121,-281.128 747.104,-280.546 744.192,-280 650.689,-262.466 626.468,-262.704 533.192,-244 531.744,-243.71 530.268,-243.406 528.778,-243.092"/>
<polygon fill="midnightblue" stroke="midnightblue" points="529.42,-239.65 518.903,-240.929 527.922,-246.488 529.42,-239.65"/>
</g>
<!-- Node13 -->
<g id="node13" class="node"><title>Node13</title>
<polygon fill="white" stroke="#bfbfbf" points="1166.19,-56.5 1166.19,-75.5 1218.19,-75.5 1218.19,-56.5 1166.19,-56.5"/>
<text text-anchor="middle" x="1192.19" y="-63.5" font-family="Helvetica,sans-Serif" font-size="10.00">mutex.h</text>
</g>
<!-- Node9&#45;&gt;Node13 -->
<g id="edge12" class="edge"><title>Node9&#45;&gt;Node13</title>
<path fill="none" stroke="midnightblue" d="M823.198,-282.062C893.349,-266.561 1052.83,-223.093 1151.19,-132 1165.69,-118.577 1177.13,-98.9379 1184.2,-84.763"/>
<polygon fill="midnightblue" stroke="midnightblue" points="1187.44,-86.1093 1188.56,-75.5742 1181.11,-83.1091 1187.44,-86.1093"/>
</g>
<!-- Node14 -->
<g id="node14" class="node"><title>Node14</title>
<g id="a_node14"><a xlink:href="_i_plug_platform_8h.html" target="_top" xlink:title="Include to get consistently named preprocessor macros for different platforms and logging functionali...">
<polygon fill="white" stroke="black" points="892.192,-168.5 892.192,-187.5 976.192,-187.5 976.192,-168.5 892.192,-168.5"/>
<text text-anchor="middle" x="934.192" y="-175.5" font-family="Helvetica,sans-Serif" font-size="10.00">IPlugPlatform.h</text>
</a>
</g>
</g>
<!-- Node9&#45;&gt;Node14 -->
<g id="edge13" class="edge"><title>Node9&#45;&gt;Node14</title>
<path fill="none" stroke="midnightblue" d="M799.648,-280.368C824.488,-261.653 883.555,-217.151 914.505,-193.832"/>
<polygon fill="midnightblue" stroke="midnightblue" points="916.908,-196.404 922.788,-187.591 912.695,-190.814 916.908,-196.404"/>
</g>
<!-- Node23 -->
<g id="node23" class="node"><title>Node23</title>
<g id="a_node23"><a xlink:href="_i_plug_constants_8h.html" target="_top" xlink:title="Constant definitions, magic numbers. ">
<polygon fill="white" stroke="black" points="502.192,-0.5 502.192,-19.5 594.192,-19.5 594.192,-0.5 502.192,-0.5"/>
<text text-anchor="middle" x="548.192" y="-7.5" font-family="Helvetica,sans-Serif" font-size="10.00">IPlugConstants.h</text>
</a>
</g>
</g>
<!-- Node9&#45;&gt;Node23 -->
<g id="edge35" class="edge"><title>Node9&#45;&gt;Node23</title>
<path fill="none" stroke="midnightblue" d="M753.171,-281.589C750.139,-281.023 747.115,-280.484 744.192,-280 681.648,-269.641 514.364,-278.521 461.192,-244 387.927,-196.434 382.729,-160.12 359.192,-76 356.796,-67.4399 353.682,-62.9754 359.192,-56 375.523,-35.323 442.316,-23.1234 491.895,-16.7551"/>
<polygon fill="midnightblue" stroke="midnightblue" points="492.38,-20.2219 501.874,-15.5211 491.52,-13.2748 492.38,-20.2219"/>
</g>
<!-- Node24 -->
<g id="node24" class="node"><title>Node24</title>
<g id="a_node24"><a xlink:href="_i_plug_utilities_8h.html" target="_top" xlink:title="Utility functions and macros. ">
<polygon fill="white" stroke="black" points="796.192,-56.5 796.192,-75.5 876.192,-75.5 876.192,-56.5 796.192,-56.5"/>
<text text-anchor="middle" x="836.192" y="-63.5" font-family="Helvetica,sans-Serif" font-size="10.00">IPlugUtilities.h</text>
</a>
</g>
</g>
<!-- Node9&#45;&gt;Node24 -->
<g id="edge46" class="edge"><title>Node9&#45;&gt;Node24</title>
<path fill="none" stroke="midnightblue" d="M790.073,-280.297C797.151,-247.563 822.273,-131.375 832.156,-85.6664"/>
<polygon fill="midnightblue" stroke="midnightblue" points="835.578,-86.3976 834.271,-75.8837 828.736,-84.9182 835.578,-86.3976"/>
</g>
<!-- Node26 -->
<g id="node26" class="node"><title>Node26</title>
<g id="a_node26"><a xlink:href="_i_plug_structs_8h_source.html" target="_top" xlink:title="IPlugStructs.h">
<polygon fill="white" stroke="black" points="642.692,-224.5 642.692,-243.5 721.692,-243.5 721.692,-224.5 642.692,-224.5"/>
<text text-anchor="middle" x="682.192" y="-231.5" font-family="Helvetica,sans-Serif" font-size="10.00">IPlugStructs.h</text>
</a>
</g>
</g>
<!-- Node9&#45;&gt;Node26 -->
<g id="edge36" class="edge"><title>Node9&#45;&gt;Node26</title>
<path fill="none" stroke="midnightblue" d="M771.161,-280.324C754.162,-271.664 727.815,-258.242 708.199,-248.249"/>
<polygon fill="midnightblue" stroke="midnightblue" points="709.679,-245.075 699.18,-243.655 706.502,-251.312 709.679,-245.075"/>
</g>
<!-- Node29 -->
<g id="node29" class="node"><title>Node29</title>
<g id="a_node29"><a xlink:href="_i_plug_parameter_8h_source.html" target="_top" xlink:title="IPlugParameter.h">
<polygon fill="white" stroke="black" points="1050.19,-112.5 1050.19,-131.5 1142.19,-131.5 1142.19,-112.5 1050.19,-112.5"/>
<text text-anchor="middle" x="1096.19" y="-119.5" font-family="Helvetica,sans-Serif" font-size="10.00">IPlugParameter.h</text>
</a>
</g>
</g>
<!-- Node9&#45;&gt;Node29 -->
<g id="edge47" class="edge"><title>Node9&#45;&gt;Node29</title>
<path fill="none" stroke="midnightblue" d="M805.449,-280.413C831.41,-267.601 882.165,-242.957 926.192,-224 966.52,-206.635 980.394,-210.343 1018.19,-188 1041.75,-174.074 1065.42,-153.133 1080.4,-138.808"/>
<polygon fill="midnightblue" stroke="midnightblue" points="1083.06,-141.104 1087.78,-131.616 1078.18,-136.092 1083.06,-141.104"/>
</g>
<!-- Node14&#45;&gt;Node10 -->
<g id="edge14" class="edge"><title>Node14&#45;&gt;Node10</title>
<path fill="none" stroke="midnightblue" d="M943.116,-168.075C969.925,-141.267 1050,-61.1902 1084.31,-26.8851"/>
<polygon fill="midnightblue" stroke="midnightblue" points="1087.03,-29.1141 1091.62,-19.5681 1082.08,-24.1643 1087.03,-29.1141"/>
</g>
<!-- Node15 -->
<g id="node15" class="node"><title>Node15</title>
<polygon fill="white" stroke="#bfbfbf" points="907.692,-0.5 907.692,-19.5 952.692,-19.5 952.692,-0.5 907.692,-0.5"/>
<text text-anchor="middle" x="930.192" y="-7.5" font-family="Helvetica,sans-Serif" font-size="10.00">cstdlib</text>
</g>
<!-- Node14&#45;&gt;Node15 -->
<g id="edge15" class="edge"><title>Node14&#45;&gt;Node15</title>
<path fill="none" stroke="midnightblue" d="M938.167,-168.145C944.176,-155.205 956.352,-130.645 970.192,-112 983.492,-94.0817 996.797,-96.6763 1005.19,-76 1008.54,-67.764 1009.57,-63.7351 1005.19,-56 995.96,-39.6954 978.204,-28.6539 962.285,-21.5898"/>
<polygon fill="midnightblue" stroke="midnightblue" points="963.285,-18.2184 952.704,-17.6939 960.649,-24.7028 963.285,-18.2184"/>
</g>
<!-- Node16 -->
<g id="node16" class="node"><title>Node16</title>
<g id="a_node16"><a xlink:href="_i_plug_logger_8h.html" target="_top" xlink:title="IPlug logging a.k.a tracing functionailty. ">
<polygon fill="white" stroke="black" points="647.692,-112.5 647.692,-131.5 724.692,-131.5 724.692,-112.5 647.692,-112.5"/>
<text text-anchor="middle" x="686.192" y="-119.5" font-family="Helvetica,sans-Serif" font-size="10.00">IPlugLogger.h</text>
</a>
</g>
</g>
<!-- Node14&#45;&gt;Node16 -->
<g id="edge16" class="edge"><title>Node14&#45;&gt;Node16</title>
<path fill="none" stroke="midnightblue" d="M894.895,-168.444C851.505,-158.996 781.609,-143.776 734.806,-133.585"/>
<polygon fill="midnightblue" stroke="midnightblue" points="735.412,-130.135 724.896,-131.428 733.922,-136.975 735.412,-130.135"/>
</g>
<!-- Node16&#45;&gt;Node10 -->
<g id="edge21" class="edge"><title>Node16&#45;&gt;Node10</title>
<path fill="none" stroke="midnightblue" d="M724.827,-115.349C765.563,-108.684 831.19,-95.9224 885.192,-76 903.097,-69.3942 905.375,-62.8431 923.192,-56 971.817,-37.3232 1030.93,-24.0856 1067.04,-16.9975"/>
<polygon fill="midnightblue" stroke="midnightblue" points="1067.87,-20.4023 1077.03,-15.079 1066.55,-13.5279 1067.87,-20.4023"/>
</g>
<!-- Node16&#45;&gt;Node11 -->
<g id="edge20" class="edge"><title>Node16&#45;&gt;Node11</title>
<path fill="none" stroke="midnightblue" d="M647.343,-115.522C595.989,-108.008 502.818,-93.4317 424.192,-76 424.09,-75.9775 423.988,-75.9549 423.887,-75.9322"/>
<polygon fill="midnightblue" stroke="midnightblue" points="424.744,-72.5387 414.2,-73.5784 423.091,-79.3408 424.744,-72.5387"/>
</g>
<!-- Node16&#45;&gt;Node13 -->
<g id="edge25" class="edge"><title>Node16&#45;&gt;Node13</title>
<path fill="none" stroke="midnightblue" d="M725.056,-116.852C820.205,-106.698 1063.78,-80.7042 1156.04,-70.8584"/>
<polygon fill="midnightblue" stroke="midnightblue" points="1156.44,-74.3353 1166.01,-69.7938 1155.7,-67.3748 1156.44,-74.3353"/>
</g>
<!-- Node17 -->
<g id="node17" class="node"><title>Node17</title>
<polygon fill="white" stroke="#bfbfbf" points="640.692,-0.5 640.692,-19.5 683.692,-19.5 683.692,-0.5 640.692,-0.5"/>
<text text-anchor="middle" x="662.192" y="-7.5" font-family="Helvetica,sans-Serif" font-size="10.00">cstdio</text>
</g>
<!-- Node16&#45;&gt;Node17 -->
<g id="edge17" class="edge"><title>Node16&#45;&gt;Node17</title>
<path fill="none" stroke="midnightblue" d="M684.308,-112.368C680.435,-94.617 671.501,-53.6664 666.249,-29.5974"/>
<polygon fill="midnightblue" stroke="midnightblue" points="669.617,-28.6155 664.066,-19.5914 662.778,-30.1077 669.617,-28.6155"/>
</g>
<!-- Node18 -->
<g id="node18" class="node"><title>Node18</title>
<polygon fill="white" stroke="#bfbfbf" points="779.192,-0.5 779.192,-19.5 825.192,-19.5 825.192,-0.5 779.192,-0.5"/>
<text text-anchor="middle" x="802.192" y="-7.5" font-family="Helvetica,sans-Serif" font-size="10.00">cctype</text>
</g>
<!-- Node16&#45;&gt;Node18 -->
<g id="edge18" class="edge"><title>Node16&#45;&gt;Node18</title>
<path fill="none" stroke="midnightblue" d="M699.999,-112.42C713.085,-103.966 732.951,-90.2748 748.192,-76 764.177,-61.0266 779.884,-41.4107 790.2,-27.6598"/>
<polygon fill="midnightblue" stroke="midnightblue" points="793.039,-29.7063 796.149,-19.5782 787.402,-25.5564 793.039,-29.7063"/>
</g>
<!-- Node19 -->
<g id="node19" class="node"><title>Node19</title>
<polygon fill="white" stroke="#bfbfbf" points="690.692,-56.5 690.692,-75.5 739.692,-75.5 739.692,-56.5 690.692,-56.5"/>
<text text-anchor="middle" x="715.192" y="-63.5" font-family="Helvetica,sans-Serif" font-size="10.00">cstdarg</text>
</g>
<!-- Node16&#45;&gt;Node19 -->
<g id="edge19" class="edge"><title>Node16&#45;&gt;Node19</title>
<path fill="none" stroke="midnightblue" d="M690.98,-112.083C694.95,-104.691 700.717,-93.9533 705.626,-84.8111"/>
<polygon fill="midnightblue" stroke="midnightblue" points="708.844,-86.217 710.492,-75.7511 702.677,-82.9051 708.844,-86.217"/>
</g>
<!-- Node20 -->
<g id="node20" class="node"><title>Node20</title>
<polygon fill="white" stroke="#bfbfbf" points="232.692,-56.5 232.692,-75.5 273.692,-75.5 273.692,-56.5 232.692,-56.5"/>
<text text-anchor="middle" x="253.192" y="-63.5" font-family="Helvetica,sans-Serif" font-size="10.00">ctime</text>
</g>
<!-- Node16&#45;&gt;Node20 -->
<g id="edge22" class="edge"><title>Node16&#45;&gt;Node20</title>
<path fill="none" stroke="midnightblue" d="M647.385,-116.16C562.334,-105.554 360.965,-80.4406 283.912,-70.8312"/>
<polygon fill="midnightblue" stroke="midnightblue" points="284.246,-67.3458 273.89,-69.5813 283.38,-74.292 284.246,-67.3458"/>
</g>
<!-- Node21 -->
<g id="node21" class="node"><title>Node21</title>
<polygon fill="white" stroke="#bfbfbf" points="432.692,-56.5 432.692,-75.5 481.692,-75.5 481.692,-56.5 432.692,-56.5"/>
<text text-anchor="middle" x="457.192" y="-63.5" font-family="Helvetica,sans-Serif" font-size="10.00">cassert</text>
</g>
<!-- Node16&#45;&gt;Node21 -->
<g id="edge23" class="edge"><title>Node16&#45;&gt;Node21</title>
<path fill="none" stroke="midnightblue" d="M649.906,-112.444C606.564,-102.223 534.581,-85.2491 491.933,-75.1924"/>
<polygon fill="midnightblue" stroke="midnightblue" points="492.551,-71.7422 482.015,-72.8536 490.945,-78.5553 492.551,-71.7422"/>
</g>
<!-- Node22 -->
<g id="node22" class="node"><title>Node22</title>
<polygon fill="white" stroke="#bfbfbf" points="932.192,-56.5 932.192,-75.5 996.192,-75.5 996.192,-56.5 932.192,-56.5"/>
<text text-anchor="middle" x="964.192" y="-63.5" font-family="Helvetica,sans-Serif" font-size="10.00">wdlstring.h</text>
</g>
<!-- Node16&#45;&gt;Node22 -->
<g id="edge24" class="edge"><title>Node16&#45;&gt;Node22</title>
<path fill="none" stroke="midnightblue" d="M724.782,-113.535C770.826,-104.623 850.133,-89.2584 918.192,-76 919.45,-75.7549 920.727,-75.5059 922.016,-75.2545"/>
<polygon fill="midnightblue" stroke="midnightblue" points="922.878,-78.6524 932.022,-73.3009 921.537,-71.7821 922.878,-78.6524"/>
</g>
<!-- Node16&#45;&gt;Node23 -->
<g id="edge26" class="edge"><title>Node16&#45;&gt;Node23</title>
<path fill="none" stroke="midnightblue" d="M675.363,-112.368C651.884,-93.6531 596.054,-49.1509 566.8,-25.8324"/>
<polygon fill="midnightblue" stroke="midnightblue" points="568.971,-23.0877 558.97,-19.5914 564.608,-28.5615 568.971,-23.0877"/>
</g>
<!-- Node16&#45;&gt;Node24 -->
<g id="edge27" class="edge"><title>Node16&#45;&gt;Node24</title>
<path fill="none" stroke="midnightblue" d="M709.959,-112.444C735.084,-103.399 774.903,-89.064 803.092,-78.9158"/>
<polygon fill="midnightblue" stroke="midnightblue" points="804.311,-82.1968 812.535,-75.5164 801.94,-75.6106 804.311,-82.1968"/>
</g>
<!-- Node24&#45;&gt;Node10 -->
<g id="edge31" class="edge"><title>Node24&#45;&gt;Node10</title>
<path fill="none" stroke="midnightblue" d="M876.287,-56.7986C928.428,-46.1334 1018.55,-27.6994 1067.03,-17.7823"/>
<polygon fill="midnightblue" stroke="midnightblue" points="1067.91,-21.1764 1077,-15.7433 1066.5,-14.3184 1067.91,-21.1764"/>
</g>
<!-- Node24&#45;&gt;Node14 -->
<g id="edge34" class="edge"><title>Node24&#45;&gt;Node14</title>
<path fill="none" stroke="midnightblue" d="M843.846,-75.5914C860.201,-93.9493 898.777,-137.249 919.845,-160.897"/>
<polygon fill="midnightblue" stroke="midnightblue" points="917.236,-163.23 926.502,-168.368 922.463,-158.574 917.236,-163.23"/>
</g>
<!-- Node24&#45;&gt;Node15 -->
<g id="edge30" class="edge"><title>Node24&#45;&gt;Node15</title>
<path fill="none" stroke="midnightblue" d="M851.294,-56.324C866.095,-47.8215 888.886,-34.7288 906.174,-24.7975"/>
<polygon fill="midnightblue" stroke="midnightblue" points="908.199,-27.6707 915.126,-19.6545 904.712,-21.6009 908.199,-27.6707"/>
</g>
<!-- Node24&#45;&gt;Node17 -->
<g id="edge29" class="edge"><title>Node24&#45;&gt;Node17</title>
<path fill="none" stroke="midnightblue" d="M808.621,-56.4435C777.406,-46.7561 726.638,-31.0008 693.833,-20.8199"/>
<polygon fill="midnightblue" stroke="midnightblue" points="694.449,-17.3464 683.861,-17.7251 692.374,-24.0319 694.449,-17.3464"/>
</g>
<!-- Node24&#45;&gt;Node18 -->
<g id="edge32" class="edge"><title>Node24&#45;&gt;Node18</title>
<path fill="none" stroke="midnightblue" d="M830.577,-56.083C825.824,-48.5341 818.873,-37.4948 813.04,-28.2298"/>
<polygon fill="midnightblue" stroke="midnightblue" points="815.991,-26.3486 807.701,-19.7511 810.068,-30.0783 815.991,-26.3486"/>
</g>
<!-- Node24&#45;&gt;Node23 -->
<g id="edge33" class="edge"><title>Node24&#45;&gt;Node23</title>
<path fill="none" stroke="midnightblue" d="M796.146,-57.4915C746.093,-48.1066 660.16,-31.9941 603.76,-21.4191"/>
<polygon fill="midnightblue" stroke="midnightblue" points="604.061,-17.9147 593.588,-19.5118 602.771,-24.7948 604.061,-17.9147"/>
</g>
<!-- Node25 -->
<g id="node25" class="node"><title>Node25</title>
<polygon fill="white" stroke="#bfbfbf" points="201.192,-0.5 201.192,-19.5 245.192,-19.5 245.192,-0.5 201.192,-0.5"/>
<text text-anchor="middle" x="223.192" y="-7.5" font-family="Helvetica,sans-Serif" font-size="10.00">cmath</text>
</g>
<!-- Node24&#45;&gt;Node25 -->
<g id="edge28" class="edge"><title>Node24&#45;&gt;Node25</title>
<path fill="none" stroke="midnightblue" d="M795.901,-60.7391C780.926,-59.1923 763.787,-57.4658 748.192,-56 561.658,-38.4683 337.57,-20.1866 255.402,-13.5758"/>
<polygon fill="midnightblue" stroke="midnightblue" points="255.458,-10.069 245.21,-12.757 254.897,-17.0466 255.458,-10.069"/>
</g>
<!-- Node26&#45;&gt;Node14 -->
<g id="edge40" class="edge"><title>Node26&#45;&gt;Node14</title>
<path fill="none" stroke="midnightblue" d="M721.844,-224.503C765.841,-215.075 836.902,-199.848 884.559,-189.636"/>
<polygon fill="midnightblue" stroke="midnightblue" points="885.31,-193.054 894.355,-187.536 883.843,-186.209 885.31,-193.054"/>
</g>
<!-- Node26&#45;&gt;Node22 -->
<g id="edge38" class="edge"><title>Node26&#45;&gt;Node22</title>
<path fill="none" stroke="midnightblue" d="M696.956,-224.309C743.022,-197.192 884.382,-113.98 940.69,-80.8345"/>
<polygon fill="midnightblue" stroke="midnightblue" points="942.731,-83.6943 949.573,-75.6051 939.18,-77.6618 942.731,-83.6943"/>
</g>
<!-- Node26&#45;&gt;Node23 -->
<g id="edge39" class="edge"><title>Node26&#45;&gt;Node23</title>
<path fill="none" stroke="midnightblue" d="M674.606,-224.461C654.901,-201.856 601.586,-137.938 572.192,-76 564.939,-60.7174 558.412,-42.6111 554.002,-29.3948"/>
<polygon fill="midnightblue" stroke="midnightblue" points="557.244,-28.0432 550.827,-19.6126 550.586,-30.2047 557.244,-28.0432"/>
</g>
<!-- Node27 -->
<g id="node27" class="node"><title>Node27</title>
<polygon fill="white" stroke="#bfbfbf" points="654.192,-168.5 654.192,-187.5 710.192,-187.5 710.192,-168.5 654.192,-168.5"/>
<text text-anchor="middle" x="682.192" y="-175.5" font-family="Helvetica,sans-Serif" font-size="10.00">algorithm</text>
</g>
<!-- Node26&#45;&gt;Node27 -->
<g id="edge37" class="edge"><title>Node26&#45;&gt;Node27</title>
<path fill="none" stroke="midnightblue" d="M682.192,-224.083C682.192,-217.006 682.192,-206.861 682.192,-197.986"/>
<polygon fill="midnightblue" stroke="midnightblue" points="685.692,-197.751 682.192,-187.751 678.692,-197.751 685.692,-197.751"/>
</g>
<!-- Node28 -->
<g id="node28" class="node"><title>Node28</title>
<g id="a_node28"><a xlink:href="_i_plug_midi_8h_source.html" target="_top" xlink:title="IPlugMidi.h">
<polygon fill="white" stroke="black" points="487.692,-112.5 487.692,-131.5 552.692,-131.5 552.692,-112.5 487.692,-112.5"/>
<text text-anchor="middle" x="520.192" y="-119.5" font-family="Helvetica,sans-Serif" font-size="10.00">IPlugMidi.h</text>
</a>
</g>
</g>
<!-- Node26&#45;&gt;Node28 -->
<g id="edge41" class="edge"><title>Node26&#45;&gt;Node28</title>
<path fill="none" stroke="midnightblue" d="M645.537,-224.45C621.489,-217.521 590.331,-205.917 567.192,-188 550.73,-175.254 537.467,-155.228 529.28,-140.771"/>
<polygon fill="midnightblue" stroke="midnightblue" points="532.274,-138.949 524.446,-131.81 526.113,-142.273 532.274,-138.949"/>
</g>
<!-- Node28&#45;&gt;Node11 -->
<g id="edge43" class="edge"><title>Node28&#45;&gt;Node11</title>
<path fill="none" stroke="midnightblue" d="M499.751,-112.444C478.521,-103.557 445.093,-89.5632 420.937,-79.4514"/>
<polygon fill="midnightblue" stroke="midnightblue" points="422.112,-76.1493 411.536,-75.5164 419.409,-82.6064 422.112,-76.1493"/>
</g>
<!-- Node28&#45;&gt;Node21 -->
<g id="edge42" class="edge"><title>Node28&#45;&gt;Node21</title>
<path fill="none" stroke="midnightblue" d="M510.07,-112.324C500.665,-104.263 486.447,-92.0765 475.123,-82.3695"/>
<polygon fill="midnightblue" stroke="midnightblue" points="477.368,-79.6844 467.498,-75.8339 472.813,-84.9993 477.368,-79.6844"/>
</g>
<!-- Node28&#45;&gt;Node23 -->
<g id="edge44" class="edge"><title>Node28&#45;&gt;Node23</title>
<path fill="none" stroke="midnightblue" d="M521.845,-112.109C524.242,-99.5351 528.971,-75.8732 534.192,-56 536.533,-47.0863 539.524,-37.3046 542.141,-29.1445"/>
<polygon fill="midnightblue" stroke="midnightblue" points="545.493,-30.1533 545.277,-19.5607 538.84,-27.9759 545.493,-30.1533"/>
</g>
<!-- Node28&#45;&gt;Node24 -->
<g id="edge45" class="edge"><title>Node28&#45;&gt;Node24</title>
<path fill="none" stroke="midnightblue" d="M552.819,-115.424C608.127,-105.973 720.637,-86.7466 786.025,-75.5728"/>
<polygon fill="midnightblue" stroke="midnightblue" points="786.831,-78.9858 796.099,-73.8513 785.652,-72.0859 786.831,-78.9858"/>
</g>
<!-- Node29&#45;&gt;Node10 -->
<g id="edge48" class="edge"><title>Node29&#45;&gt;Node10</title>
<path fill="none" stroke="midnightblue" d="M1100.81,-112.339C1105.25,-103.493 1111.65,-89.22 1114.19,-76 1117.23,-60.237 1112.83,-42.4191 1108.19,-29.4301"/>
<polygon fill="midnightblue" stroke="midnightblue" points="1111.31,-27.8185 1104.38,-19.8063 1104.8,-30.3927 1111.31,-27.8185"/>
</g>
<!-- Node29&#45;&gt;Node22 -->
<g id="edge49" class="edge"><title>Node29&#45;&gt;Node22</title>
<path fill="none" stroke="midnightblue" d="M1075.28,-112.444C1053.46,-103.517 1019.04,-89.4387 994.299,-79.3168"/>
<polygon fill="midnightblue" stroke="midnightblue" points="995.59,-76.0634 985.009,-75.5164 992.94,-82.5422 995.59,-76.0634"/>
</g>
<!-- Node29&#45;&gt;Node24 -->
<g id="edge50" class="edge"><title>Node29&#45;&gt;Node24</title>
<path fill="none" stroke="midnightblue" d="M1054.99,-112.444C1009.27,-102.948 935.487,-87.623 886.419,-77.4318"/>
<polygon fill="midnightblue" stroke="midnightblue" points="886.845,-73.9457 876.342,-75.339 885.422,-80.7995 886.845,-73.9457"/>
</g>
<!-- Node31&#45;&gt;Node10 -->
<g id="edge53" class="edge"><title>Node31&#45;&gt;Node10</title>
<path fill="none" stroke="midnightblue" d="M487.299,-284.8C552.505,-278.418 675.2,-264.78 778.192,-244 801.443,-239.309 964.887,-201.782 984.192,-188 999.449,-177.107 1064.11,-71.0748 1089.7,-28.5309"/>
<polygon fill="midnightblue" stroke="midnightblue" points="1092.79,-30.1953 1094.93,-19.8197 1086.78,-26.5936 1092.79,-30.1953"/>
</g>
<!-- Node31&#45;&gt;Node11 -->
<g id="edge54" class="edge"><title>Node31&#45;&gt;Node11</title>
<path fill="none" stroke="midnightblue" d="M438.247,-280.447C435.217,-271.449 430.485,-256.839 427.192,-244 412.547,-186.919 400.004,-118.263 394.368,-85.7843"/>
<polygon fill="midnightblue" stroke="midnightblue" points="397.752,-84.8088 392.613,-75.5436 390.853,-85.9912 397.752,-84.8088"/>
</g>
<!-- Node31&#45;&gt;Node12 -->
<g id="edge55" class="edge"><title>Node31&#45;&gt;Node12</title>
<path fill="none" stroke="midnightblue" d="M449.943,-280.083C457.661,-272.22 469.096,-260.569 478.408,-251.081"/>
<polygon fill="midnightblue" stroke="midnightblue" points="481.096,-253.34 485.603,-243.751 476.1,-248.436 481.096,-253.34"/>
</g>
<!-- Node31&#45;&gt;Node14 -->
<g id="edge56" class="edge"><title>Node31&#45;&gt;Node14</title>
<path fill="none" stroke="midnightblue" d="M487.412,-284.029C544.828,-277.345 645.553,-263.948 730.192,-244 791.895,-229.457 861.924,-205.443 901.801,-191.031"/>
<polygon fill="midnightblue" stroke="midnightblue" points="903.066,-194.295 911.266,-187.586 900.672,-187.718 903.066,-194.295"/>
</g>
<!-- Node31&#45;&gt;Node23 -->
<g id="edge57" class="edge"><title>Node31&#45;&gt;Node23</title>
<path fill="none" stroke="midnightblue" d="M395.044,-284.815C343.626,-279.086 265.313,-266.806 247.192,-244 241.662,-237.041 245.254,-232.675 247.192,-224 265.18,-143.475 261.294,-106.954 326.192,-56 351.431,-36.1831 434.714,-23.3444 491.776,-16.6404"/>
<polygon fill="midnightblue" stroke="midnightblue" points="492.215,-20.1131 501.752,-15.4991 491.419,-13.1585 492.215,-20.1131"/>
</g>
<!-- Node31&#45;&gt;Node24 -->
<g id="edge59" class="edge"><title>Node31&#45;&gt;Node24</title>
<path fill="none" stroke="midnightblue" d="M441.453,-280.163C442.339,-266.339 446.044,-239.573 461.192,-224 550.174,-132.522 617.979,-186.882 733.192,-132 763.652,-117.49 796.155,-95.8161 816.322,-81.5455"/>
<polygon fill="midnightblue" stroke="midnightblue" points="818.58,-84.2333 824.667,-75.5621 814.501,-78.5443 818.58,-84.2333"/>
</g>
<!-- Node31&#45;&gt;Node26 -->
<g id="edge58" class="edge"><title>Node31&#45;&gt;Node26</title>
<path fill="none" stroke="midnightblue" d="M479.379,-280.444C521.332,-271.043 588.786,-255.929 634.262,-245.739"/>
<polygon fill="midnightblue" stroke="midnightblue" points="635.19,-249.118 644.183,-243.516 633.66,-242.288 635.19,-249.118"/>
</g>
<!-- Node32 -->
<g id="node32" class="node"><title>Node32</title>
<g id="a_node32"><a xlink:href="_n_chan_delay_8h_source.html" target="_top" xlink:title="NChanDelay.h">
<polygon fill="white" stroke="black" points="255.692,-224.5 255.692,-243.5 336.692,-243.5 336.692,-224.5 255.692,-224.5"/>
<text text-anchor="middle" x="296.192" y="-231.5" font-family="Helvetica,sans-Serif" font-size="10.00">NChanDelay.h</text>
</a>
</g>
</g>
<!-- Node31&#45;&gt;Node32 -->
<g id="edge60" class="edge"><title>Node31&#45;&gt;Node32</title>
<path fill="none" stroke="midnightblue" d="M418.216,-280.444C394.035,-271.438 355.774,-257.189 328.545,-247.049"/>
<polygon fill="midnightblue" stroke="midnightblue" points="329.652,-243.727 319.06,-243.516 327.209,-250.286 329.652,-243.727"/>
</g>
<!-- Node33 -->
<g id="node33" class="node"><title>Node33</title>
<g id="a_node33"><a xlink:href="_i_plug_processor_8cpp_source.html" target="_top" xlink:title="IPlugProcessor.cpp">
<polygon fill="white" stroke="black" points="129.192,-112.5 129.192,-131.5 231.192,-131.5 231.192,-112.5 129.192,-112.5"/>
<text text-anchor="middle" x="180.192" y="-119.5" font-family="Helvetica,sans-Serif" font-size="10.00">IPlugProcessor.cpp</text>
</a>
</g>
</g>
<!-- Node31&#45;&gt;Node33 -->
<g id="edge61" class="edge"><title>Node31&#45;&gt;Node33</title>
<path fill="none" stroke="midnightblue" d="M395.012,-286.083C333.826,-281.074 230.916,-268.881 204.192,-244 175.466,-217.256 170.832,-168.186 173.746,-141.488"/>
<polygon fill="midnightblue" stroke="midnightblue" points="177.211,-141.987 175.409,-131.546 170.307,-140.832 177.211,-141.987"/>
</g>
<!-- Node33&#45;&gt;Node17 -->
<g id="edge63" class="edge"><title>Node33&#45;&gt;Node17</title>
<path fill="none" stroke="midnightblue" d="M128.945,-114.281C78.2678,-105.662 12.2989,-87.8724 42.1916,-56 84.9209,-10.4407 541.092,-26.7159 603.192,-20 612.151,-19.0311 621.832,-17.6818 630.71,-16.3224"/>
<polygon fill="midnightblue" stroke="midnightblue" points="631.344,-19.7658 640.673,-14.7441 630.249,-12.852 631.344,-19.7658"/>
</g>
<!-- Node33&#45;&gt;Node20 -->
<g id="edge64" class="edge"><title>Node33&#45;&gt;Node20</title>
<path fill="none" stroke="midnightblue" d="M191.92,-112.324C203.029,-104.107 219.934,-91.6017 233.175,-81.8069"/>
<polygon fill="midnightblue" stroke="midnightblue" points="235.291,-84.5948 241.249,-75.8339 231.128,-78.9671 235.291,-84.5948"/>
</g>
<!-- Node33&#45;&gt;Node21 -->
<g id="edge65" class="edge"><title>Node33&#45;&gt;Node21</title>
<path fill="none" stroke="midnightblue" d="M231.62,-112.639C278.747,-104.715 350.65,-91.9714 422.262,-76.0691"/>
<polygon fill="midnightblue" stroke="midnightblue" points="423.371,-79.4076 432.362,-73.8044 421.839,-72.5772 423.371,-79.4076"/>
</g>
<!-- Node33&#45;&gt;Node25 -->
<g id="edge62" class="edge"><title>Node33&#45;&gt;Node25</title>
<path fill="none" stroke="midnightblue" d="M129.119,-118.639C66.5439,-113.854 -27.0827,-99.4216 8.19155,-56 30.8468,-28.112 136.641,-16.8979 190.905,-12.9212"/>
<polygon fill="midnightblue" stroke="midnightblue" points="191.296,-16.4026 201.03,-12.2196 190.812,-9.41933 191.296,-16.4026"/>
</g>
<!-- Node33&#45;&gt;Node31 -->
<g id="edge68" class="edge"><title>Node33&#45;&gt;Node31</title>
<path fill="none" stroke="midnightblue" d="M184.03,-131.546C188,-153.71 189.363,-213.435 222.192,-244 245.682,-265.871 328.036,-277.938 384.856,-283.939"/>
<polygon fill="midnightblue" stroke="midnightblue" points="384.844,-287.456 395.148,-284.99 385.555,-280.492 384.844,-287.456"/>
</g>
<!-- Node34 -->
<g id="node34" class="node"><title>Node34</title>
<polygon fill="white" stroke="#bfbfbf" points="146.192,-56.5 146.192,-75.5 214.192,-75.5 214.192,-56.5 146.192,-56.5"/>
<text text-anchor="middle" x="180.192" y="-63.5" font-family="Helvetica,sans-Serif" font-size="10.00">wdlendian.h</text>
</g>
<!-- Node33&#45;&gt;Node34 -->
<g id="edge66" class="edge"><title>Node33&#45;&gt;Node34</title>
<path fill="none" stroke="midnightblue" d="M180.192,-112.083C180.192,-105.006 180.192,-94.8611 180.192,-85.9865"/>
<polygon fill="midnightblue" stroke="midnightblue" points="183.692,-85.751 180.192,-75.7511 176.692,-85.7511 183.692,-85.751"/>
</g>
<!-- Node35 -->
<g id="node35" class="node"><title>Node35</title>
<polygon fill="white" stroke="#bfbfbf" points="50.6916,-56.5 50.6916,-75.5 127.692,-75.5 127.692,-56.5 50.6916,-56.5"/>
<text text-anchor="middle" x="89.1916" y="-63.5" font-family="Helvetica,sans-Serif" font-size="10.00">wdl_base64.h</text>
</g>
<!-- Node33&#45;&gt;Node35 -->
<g id="edge67" class="edge"><title>Node33&#45;&gt;Node35</title>
<path fill="none" stroke="midnightblue" d="M165.571,-112.324C151.243,-103.822 129.179,-90.7288 112.443,-80.7975"/>
<polygon fill="midnightblue" stroke="midnightblue" points="114.162,-77.7478 103.776,-75.6545 110.59,-83.7677 114.162,-77.7478"/>
</g>
<!-- Node36&#45;&gt;Node10 -->
<g id="edge70" class="edge"><title>Node36&#45;&gt;Node10</title>
<path fill="none" stroke="midnightblue" d="M1037.7,-282.213C1116.81,-267.805 1284.19,-231.16 1284.19,-179 1284.19,-179 1284.19,-179 1284.19,-121 1284.19,-90.2048 1282.82,-76.8926 1260.19,-56 1225.42,-23.8883 1169.52,-14.4525 1133.84,-11.8172"/>
<polygon fill="midnightblue" stroke="midnightblue" points="1133.65,-8.30002 1123.46,-11.2002 1133.24,-15.2877 1133.65,-8.30002"/>
</g>
<!-- Node36&#45;&gt;Node11 -->
<g id="edge71" class="edge"><title>Node36&#45;&gt;Node11</title>
<path fill="none" stroke="midnightblue" d="M956.387,-286.163C874.478,-280.106 692.863,-264.752 634.192,-244 535.381,-209.051 442.066,-120.02 406.425,-83.258"/>
<polygon fill="midnightblue" stroke="midnightblue" points="408.792,-80.6686 399.351,-75.8601 403.733,-85.5064 408.792,-80.6686"/>
</g>
<!-- Node36&#45;&gt;Node12 -->
<g id="edge72" class="edge"><title>Node36&#45;&gt;Node12</title>
<path fill="none" stroke="midnightblue" d="M956.647,-284.869C880.895,-277.116 712.736,-259.748 571.192,-244 557.365,-242.462 542.15,-240.698 528.922,-239.142"/>
<polygon fill="midnightblue" stroke="midnightblue" points="529.146,-235.645 518.805,-237.947 528.325,-242.596 529.146,-235.645"/>
</g>
<!-- Node36&#45;&gt;Node13 -->
<g id="edge73" class="edge"><title>Node36&#45;&gt;Node13</title>
<path fill="none" stroke="midnightblue" d="M1035.58,-280.438C1080.05,-268.263 1151.39,-241.25 1184.19,-188 1203.63,-156.445 1200.12,-111.071 1196.03,-85.8045"/>
<polygon fill="midnightblue" stroke="midnightblue" points="1199.43,-84.9409 1194.19,-75.7325 1192.54,-86.1986 1199.43,-84.9409"/>
</g>
<!-- Node36&#45;&gt;Node14 -->
<g id="edge74" class="edge"><title>Node36&#45;&gt;Node14</title>
<path fill="none" stroke="midnightblue" d="M998.627,-280.393C1000.36,-267.339 1001.96,-242.138 992.192,-224 985.115,-210.855 972.37,-200.317 960.627,-192.754"/>
<polygon fill="midnightblue" stroke="midnightblue" points="962.329,-189.693 951.952,-187.555 958.731,-195.698 962.329,-189.693"/>
</g>
<!-- Node36&#45;&gt;Node23 -->
<g id="edge75" class="edge"><title>Node36&#45;&gt;Node23</title>
<path fill="none" stroke="midnightblue" d="M977.375,-280.47C903.291,-248.563 646.475,-137.766 639.192,-132 601.895,-102.474 571.853,-54.2227 557.448,-28.4776"/>
<polygon fill="midnightblue" stroke="midnightblue" points="560.418,-26.6144 552.557,-19.5112 554.273,-29.9662 560.418,-26.6144"/>
</g>
<!-- Node36&#45;&gt;Node24 -->
<g id="edge77" class="edge"><title>Node36&#45;&gt;Node24</title>
<path fill="none" stroke="midnightblue" d="M1000.28,-280.173C1003.24,-271.198 1007.51,-256.827 1009.19,-244 1013.81,-208.743 1006.99,-195.29 984.192,-168 950.431,-127.584 896.601,-96.454 864.008,-80.0023"/>
<polygon fill="midnightblue" stroke="midnightblue" points="865.533,-76.852 855.017,-75.5647 862.435,-83.1291 865.533,-76.852"/>
</g>
<!-- Node36&#45;&gt;Node26 -->
<g id="edge76" class="edge"><title>Node36&#45;&gt;Node26</title>
<path fill="none" stroke="midnightblue" d="M956.656,-282.051C899.204,-272.202 794.183,-254.199 732.04,-243.545"/>
<polygon fill="midnightblue" stroke="midnightblue" points="732.523,-240.077 722.075,-241.837 731.34,-246.977 732.523,-240.077"/>
</g>
<!-- Node36&#45;&gt;Node29 -->
<g id="edge78" class="edge"><title>Node36&#45;&gt;Node29</title>
<path fill="none" stroke="midnightblue" d="M1016.83,-280.398C1032.44,-272.738 1053.95,-260.234 1068.19,-244 1086.29,-223.375 1087.86,-214.701 1094.19,-188 1097.82,-172.706 1098.09,-154.823 1097.59,-141.69"/>
<polygon fill="midnightblue" stroke="midnightblue" points="1101.07,-141.34 1097.01,-131.556 1094.08,-141.74 1101.07,-141.34"/>
</g>
</g>
</svg>
        <g id="navigator" transform="translate(0 0)" fill="#404254">
                <rect fill="#f2f5e9" fill-opacity="0.5" stroke="#606060" stroke-width=".5" x="0" y="0" width="60" height="60"/>
                <use id="zoomplus" xlink:href="#zoomPlus" x="17" y="9" onmousedown="handleZoom(evt,'in')"/>
                <use id="zoomminus" xlink:href="#zoomMin" x="42" y="9" onmousedown="handleZoom(evt,'out')"/>
                <use id="reset" xlink:href="#resetDef" x="30" y="36" onmousedown="handleReset()"/>
                <g id="arrowUp" xlink:href="#dirArrow" transform="translate(30 24)" onmousedown="handlePan(0,-1)">
                  <use xlink:href="#rim" fill="#404040">
                        <set attributeName="fill" to="#808080" begin="arrowUp.mouseover" end="arrowUp.mouseout"/>
                  </use>
                  <path fill="none" stroke="white" stroke-width="1.5" d="M0,-3.0v7 M-2.5,-0.5L0,-3.0L2.5,-0.5"/>
                </g>
                <g id="arrowRight" xlink:href="#dirArrow" transform="rotate(90) translate(36 -43)" onmousedown="handlePan(1,0)">
                  <use xlink:href="#rim" fill="#404040">
                        <set attributeName="fill" to="#808080" begin="arrowRight.mouseover" end="arrowRight.mouseout"/>
                  </use>
                  <path fill="none" stroke="white" stroke-width="1.5" d="M0,-3.0v7 M-2.5,-0.5L0,-3.0L2.5,-0.5"/>
                </g>
                <g id="arrowDown" xlink:href="#dirArrow" transform="rotate(180) translate(-30 -48)" onmousedown="handlePan(0,1)">
                  <use xlink:href="#rim" fill="#404040">
                        <set attributeName="fill" to="#808080" begin="arrowDown.mouseover" end="arrowDown.mouseout"/>
                  </use>
                  <path fill="none" stroke="white" stroke-width="1.5" d="M0,-3.0v7 M-2.5,-0.5L0,-3.0L2.5,-0.5"/>
                </g>
                <g id="arrowLeft" xlink:href="#dirArrow" transform="rotate(270) translate(-36 17)" onmousedown="handlePan(-1,0)">
                  <use xlink:href="#rim" fill="#404040">
                        <set attributeName="fill" to="#808080" begin="arrowLeft.mouseover" end="arrowLeft.mouseout"/>
                  </use>
                  <path fill="none" stroke="white" stroke-width="1.5" d="M0,-3.0v7 M-2.5,-0.5L0,-3.0L2.5,-0.5"/>
                </g>
        </g>
        <svg viewBox="0 0 15 15" width="100%" height="30px" preserveAspectRatio="xMaxYMin meet">
         <g id="arrow_out" transform="scale(0.3 0.3)">
          <a xlink:href="_i_plug_v_s_t3_8h__incl_org.svg" target="_base">
           <rect id="button" ry="5" rx="5" y="6" x="6" height="38" width="38"
                fill="#f2f5e9" fill-opacity="0.5" stroke="#606060" stroke-width="1.0"/>
           <path id="arrow"
             d="M 11.500037,31.436501 C 11.940474,20.09759 22.043105,11.32322 32.158766,21.979434 L 37.068811,17.246167 C 37.068811,17.246167 37.088388,32 37.088388,32 L 22.160133,31.978069 C 22.160133,31.978069 26.997745,27.140456 26.997745,27.140456 C 18.528582,18.264221 13.291696,25.230495 11.500037,31.436501 z"
             style="fill:#404040;"/>
          </a>
         </g>
        </svg>
</svg>
