<?xml version="1.0" encoding="UTF-8" standalone="no"?>
<!DOCTYPE svg PUBLIC "-//W3C//DTD SVG 1.1//EN"
 "http://www.w3.org/Graphics/SVG/1.1/DTD/svg11.dtd">
<!-- Generated by graphviz version 2.36.0 (20140111.2315)
 -->
<!-- Title: IPlugUtilities.h Pages: 1 -->
<svg width="700pt" height="196pt"
 viewBox="0.00 0.00 700.00 196.00" xmlns="http://www.w3.org/2000/svg" xmlns:xlink="http://www.w3.org/1999/xlink">
<g id="graph0" class="graph" transform="scale(1 1) rotate(0) translate(4 192)">
<title>IPlugUtilities.h</title>
<polygon fill="white" stroke="none" points="-4,4 -4,-192 696,-192 696,4 -4,4"/>
<!-- Node1 -->
<g id="node1" class="node"><title>Node1</title>
<polygon fill="#bfbfbf" stroke="black" points="209,-168.5 209,-187.5 289,-187.5 289,-168.5 209,-168.5"/>
<text text-anchor="middle" x="249" y="-175.5" font-family="Helvetica,sans-Serif" font-size="10.00">IPlugUtilities.h</text>
</g>
<!-- Node2 -->
<g id="node2" class="node"><title>Node2</title>
<polygon fill="white" stroke="#bfbfbf" points="63,-112.5 63,-131.5 107,-131.5 107,-112.5 63,-112.5"/>
<text text-anchor="middle" x="85" y="-119.5" font-family="Helvetica,sans-Serif" font-size="10.00">cmath</text>
</g>
<!-- Node1&#45;&gt;Node2 -->
<g id="edge1" class="edge"><title>Node1&#45;&gt;Node2</title>
<path fill="none" stroke="midnightblue" d="M223.014,-168.444C194.288,-158.985 147.995,-143.742 117.044,-133.551"/>
<polygon fill="midnightblue" stroke="midnightblue" points="117.776,-130.107 107.183,-130.304 115.587,-136.756 117.776,-130.107"/>
</g>
<!-- Node3 -->
<g id="node3" class="node"><title>Node3</title>
<polygon fill="white" stroke="#bfbfbf" points="-0.5,-0.5 -0.5,-19.5 42.5,-19.5 42.5,-0.5 -0.5,-0.5"/>
<text text-anchor="middle" x="21" y="-7.5" font-family="Helvetica,sans-Serif" font-size="10.00">cstdio</text>
</g>
<!-- Node1&#45;&gt;Node3 -->
<g id="edge2" class="edge"><title>Node1&#45;&gt;Node3</title>
<path fill="none" stroke="midnightblue" d="M237.063,-168.309C200.126,-141.416 87.4109,-59.3518 41.1443,-25.6665"/>
<polygon fill="midnightblue" stroke="midnightblue" points="42.9635,-22.6616 32.8191,-19.6051 38.8433,-28.3206 42.9635,-22.6616"/>
</g>
<!-- Node4 -->
<g id="node4" class="node"><title>Node4</title>
<polygon fill="white" stroke="#bfbfbf" points="334.5,-56.5 334.5,-75.5 379.5,-75.5 379.5,-56.5 334.5,-56.5"/>
<text text-anchor="middle" x="357" y="-63.5" font-family="Helvetica,sans-Serif" font-size="10.00">cstdlib</text>
</g>
<!-- Node1&#45;&gt;Node4 -->
<g id="edge3" class="edge"><title>Node1&#45;&gt;Node4</title>
<path fill="none" stroke="midnightblue" d="M276.533,-168.404C295.08,-161.328 318.836,-149.571 334,-132 345.355,-118.843 351.228,-99.7024 354.185,-85.5975"/>
<polygon fill="midnightblue" stroke="midnightblue" points="357.662,-86.0362 355.98,-75.5757 350.772,-84.8018 357.662,-86.0362"/>
</g>
<!-- Node5 -->
<g id="node5" class="node"><title>Node5</title>
<polygon fill="white" stroke="#bfbfbf" points="61,-0.5 61,-19.5 107,-19.5 107,-0.5 61,-0.5"/>
<text text-anchor="middle" x="84" y="-7.5" font-family="Helvetica,sans-Serif" font-size="10.00">cstring</text>
</g>
<!-- Node1&#45;&gt;Node5 -->
<g id="edge4" class="edge"><title>Node1&#45;&gt;Node5</title>
<path fill="none" stroke="midnightblue" d="M243.156,-168.4C228.752,-147.579 189.748,-93.4193 149,-56 136.31,-44.3464 120.436,-33.3014 107.552,-25.0702"/>
<polygon fill="midnightblue" stroke="midnightblue" points="109.124,-21.9263 98.7869,-19.6055 105.421,-27.8663 109.124,-21.9263"/>
</g>
<!-- Node6 -->
<g id="node6" class="node"><title>Node6</title>
<polygon fill="white" stroke="#bfbfbf" points="536,-0.5 536,-19.5 582,-19.5 582,-0.5 536,-0.5"/>
<text text-anchor="middle" x="559" y="-7.5" font-family="Helvetica,sans-Serif" font-size="10.00">cctype</text>
</g>
<!-- Node1&#45;&gt;Node6 -->
<g id="edge5" class="edge"><title>Node1&#45;&gt;Node6</title>
<path fill="none" stroke="midnightblue" d="M270.868,-168.451C292.163,-159.914 325.283,-146.07 353,-132 422.214,-96.8656 500.318,-48.4381 537.328,-24.9279"/>
<polygon fill="midnightblue" stroke="midnightblue" points="539.272,-27.8391 545.821,-19.5108 535.508,-21.9373 539.272,-27.8391"/>
</g>
<!-- Node7 -->
<g id="node7" class="node"><title>Node7</title>
<g id="a_node7"><a xlink:href="_i_plug_constants_8h.html" target="_top" xlink:title="Constant definitions, magic numbers. ">
<polygon fill="white" stroke="black" points="600,-0.5 600,-19.5 692,-19.5 692,-0.5 600,-0.5"/>
<text text-anchor="middle" x="646" y="-7.5" font-family="Helvetica,sans-Serif" font-size="10.00">IPlugConstants.h</text>
</a>
</g>
</g>
<!-- Node1&#45;&gt;Node7 -->
<g id="edge6" class="edge"><title>Node1&#45;&gt;Node7</title>
<path fill="none" stroke="midnightblue" d="M277.997,-168.462C305.768,-160.038 348.694,-146.368 385,-132 473.014,-97.1695 573.756,-47.5945 620.144,-24.1953"/>
<polygon fill="midnightblue" stroke="midnightblue" points="621.852,-27.2534 629.194,-19.6142 618.691,-21.0081 621.852,-27.2534"/>
</g>
<!-- Node8 -->
<g id="node8" class="node"><title>Node8</title>
<g id="a_node8"><a xlink:href="_i_plug_platform_8h.html" target="_top" xlink:title="Include to get consistently named preprocessor macros for different platforms and logging functionali...">
<polygon fill="white" stroke="black" points="242,-112.5 242,-131.5 326,-131.5 326,-112.5 242,-112.5"/>
<text text-anchor="middle" x="284" y="-119.5" font-family="Helvetica,sans-Serif" font-size="10.00">IPlugPlatform.h</text>
</a>
</g>
</g>
<!-- Node1&#45;&gt;Node8 -->
<g id="edge7" class="edge"><title>Node1&#45;&gt;Node8</title>
<path fill="none" stroke="midnightblue" d="M254.78,-168.083C259.672,-160.534 266.827,-149.495 272.833,-140.23"/>
<polygon fill="midnightblue" stroke="midnightblue" points="275.826,-142.046 278.328,-131.751 269.952,-138.239 275.826,-142.046"/>
</g>
<!-- Node8&#45;&gt;Node4 -->
<g id="edge9" class="edge"><title>Node8&#45;&gt;Node4</title>
<path fill="none" stroke="midnightblue" d="M295.729,-112.324C306.837,-104.107 323.742,-91.6017 336.983,-81.8069"/>
<polygon fill="midnightblue" stroke="midnightblue" points="339.1,-84.5948 345.058,-75.8339 334.937,-78.9671 339.1,-84.5948"/>
</g>
<!-- Node8&#45;&gt;Node5 -->
<g id="edge8" class="edge"><title>Node8&#45;&gt;Node5</title>
<path fill="none" stroke="midnightblue" d="M272.482,-112.289C254.734,-99.1004 219.358,-73.725 187,-56 163.952,-43.3744 136.649,-31.5792 115.946,-23.2347"/>
<polygon fill="midnightblue" stroke="midnightblue" points="117.235,-19.9808 106.649,-19.5401 114.65,-26.4859 117.235,-19.9808"/>
</g>
<!-- Node9 -->
<g id="node9" class="node"><title>Node9</title>
<g id="a_node9"><a xlink:href="_i_plug_logger_8h.html" target="_top" xlink:title="IPlug logging a.k.a tracing functionailty. ">
<polygon fill="white" stroke="black" points="239.5,-56.5 239.5,-75.5 316.5,-75.5 316.5,-56.5 239.5,-56.5"/>
<text text-anchor="middle" x="278" y="-63.5" font-family="Helvetica,sans-Serif" font-size="10.00">IPlugLogger.h</text>
</a>
</g>
</g>
<!-- Node8&#45;&gt;Node9 -->
<g id="edge10" class="edge"><title>Node8&#45;&gt;Node9</title>
<path fill="none" stroke="midnightblue" d="M283.009,-112.083C282.214,-104.927 281.071,-94.6353 280.077,-85.6911"/>
<polygon fill="midnightblue" stroke="midnightblue" points="283.555,-85.3034 278.972,-75.7511 276.598,-86.0765 283.555,-85.3034"/>
</g>
<!-- Node9&#45;&gt;Node1 -->
<g id="edge21" class="edge"><title>Node9&#45;&gt;Node1</title>
<path fill="none" stroke="midnightblue" d="M264.936,-75.5641C254.086,-83.5295 239.427,-96.4846 233,-112 226.621,-127.401 232.413,-145.949 238.74,-159.283"/>
<polygon fill="midnightblue" stroke="midnightblue" points="235.741,-161.1 243.49,-168.325 241.938,-157.845 235.741,-161.1"/>
</g>
<!-- Node9&#45;&gt;Node3 -->
<g id="edge11" class="edge"><title>Node9&#45;&gt;Node3</title>
<path fill="none" stroke="midnightblue" d="M239.39,-58.3566C196.247,-50.7032 124.139,-37.2273 52.6906,-19.99"/>
<polygon fill="midnightblue" stroke="midnightblue" points="53.161,-16.5022 42.6164,-17.533 51.5023,-23.3029 53.161,-16.5022"/>
</g>
<!-- Node9&#45;&gt;Node5 -->
<g id="edge15" class="edge"><title>Node9&#45;&gt;Node5</title>
<path fill="none" stroke="midnightblue" d="M247.26,-56.4435C211.614,-46.5215 153.101,-30.2343 116.658,-20.0904"/>
<polygon fill="midnightblue" stroke="midnightblue" points="117.574,-16.7124 107.002,-17.4026 115.697,-23.4561 117.574,-16.7124"/>
</g>
<!-- Node9&#45;&gt;Node6 -->
<g id="edge12" class="edge"><title>Node9&#45;&gt;Node6</title>
<path fill="none" stroke="midnightblue" d="M316.507,-57.7514C319.718,-57.1557 322.914,-56.5656 326,-56 412.129,-40.2126 436.828,-40.2834 525.988,-20.0517"/>
<polygon fill="midnightblue" stroke="midnightblue" points="527.031,-23.4033 535.997,-17.7575 525.467,-16.5802 527.031,-23.4033"/>
</g>
<!-- Node9&#45;&gt;Node7 -->
<g id="edge20" class="edge"><title>Node9&#45;&gt;Node7</title>
<path fill="none" stroke="midnightblue" d="M316.743,-57.5625C319.872,-57.0147 322.987,-56.4868 326,-56 440.129,-37.5602 471.739,-37.583 589.648,-20.1645"/>
<polygon fill="midnightblue" stroke="midnightblue" points="590.425,-23.5875 599.801,-18.6533 589.394,-16.6638 590.425,-23.5875"/>
</g>
<!-- Node10 -->
<g id="node10" class="node"><title>Node10</title>
<polygon fill="white" stroke="#bfbfbf" points="125.5,-0.5 125.5,-19.5 174.5,-19.5 174.5,-0.5 125.5,-0.5"/>
<text text-anchor="middle" x="150" y="-7.5" font-family="Helvetica,sans-Serif" font-size="10.00">cstdarg</text>
</g>
<!-- Node9&#45;&gt;Node10 -->
<g id="edge13" class="edge"><title>Node9&#45;&gt;Node10</title>
<path fill="none" stroke="midnightblue" d="M257.718,-56.4435C236.653,-47.5566 203.483,-33.5632 179.514,-23.4514"/>
<polygon fill="midnightblue" stroke="midnightblue" points="180.761,-20.1787 170.187,-19.5164 178.04,-26.6283 180.761,-20.1787"/>
</g>
<!-- Node11 -->
<g id="node11" class="node"><title>Node11</title>
<polygon fill="white" stroke="#bfbfbf" points="193,-0.5 193,-19.5 239,-19.5 239,-0.5 193,-0.5"/>
<text text-anchor="middle" x="216" y="-7.5" font-family="Helvetica,sans-Serif" font-size="10.00">cstdint</text>
</g>
<!-- Node9&#45;&gt;Node11 -->
<g id="edge14" class="edge"><title>Node9&#45;&gt;Node11</title>
<path fill="none" stroke="midnightblue" d="M268.039,-56.324C258.873,-48.3414 245.063,-36.3128 233.972,-26.6529"/>
<polygon fill="midnightblue" stroke="midnightblue" points="235.982,-23.7624 226.143,-19.8339 231.385,-29.041 235.982,-23.7624"/>
</g>
<!-- Node12 -->
<g id="node12" class="node"><title>Node12</title>
<polygon fill="white" stroke="#bfbfbf" points="257.5,-0.5 257.5,-19.5 298.5,-19.5 298.5,-0.5 257.5,-0.5"/>
<text text-anchor="middle" x="278" y="-7.5" font-family="Helvetica,sans-Serif" font-size="10.00">ctime</text>
</g>
<!-- Node9&#45;&gt;Node12 -->
<g id="edge16" class="edge"><title>Node9&#45;&gt;Node12</title>
<path fill="none" stroke="midnightblue" d="M278,-56.083C278,-49.0059 278,-38.8611 278,-29.9865"/>
<polygon fill="midnightblue" stroke="midnightblue" points="281.5,-29.751 278,-19.7511 274.5,-29.7511 281.5,-29.751"/>
</g>
<!-- Node13 -->
<g id="node13" class="node"><title>Node13</title>
<polygon fill="white" stroke="#bfbfbf" points="316.5,-0.5 316.5,-19.5 365.5,-19.5 365.5,-0.5 316.5,-0.5"/>
<text text-anchor="middle" x="341" y="-7.5" font-family="Helvetica,sans-Serif" font-size="10.00">cassert</text>
</g>
<!-- Node9&#45;&gt;Node13 -->
<g id="edge17" class="edge"><title>Node9&#45;&gt;Node13</title>
<path fill="none" stroke="midnightblue" d="M288.122,-56.324C297.526,-48.2631 311.744,-36.0765 323.069,-26.3695"/>
<polygon fill="midnightblue" stroke="midnightblue" points="325.379,-28.9993 330.694,-19.8339 320.823,-23.6844 325.379,-28.9993"/>
</g>
<!-- Node14 -->
<g id="node14" class="node"><title>Node14</title>
<polygon fill="white" stroke="#bfbfbf" points="384,-0.5 384,-19.5 448,-19.5 448,-0.5 384,-0.5"/>
<text text-anchor="middle" x="416" y="-7.5" font-family="Helvetica,sans-Serif" font-size="10.00">wdlstring.h</text>
</g>
<!-- Node9&#45;&gt;Node14 -->
<g id="edge18" class="edge"><title>Node9&#45;&gt;Node14</title>
<path fill="none" stroke="midnightblue" d="M299.867,-56.4435C322.779,-47.4776 358.975,-33.314 384.866,-23.1827"/>
<polygon fill="midnightblue" stroke="midnightblue" points="386.199,-26.4198 394.236,-19.5164 383.648,-19.9011 386.199,-26.4198"/>
</g>
<!-- Node15 -->
<g id="node15" class="node"><title>Node15</title>
<polygon fill="white" stroke="#bfbfbf" points="466,-0.5 466,-19.5 518,-19.5 518,-0.5 466,-0.5"/>
<text text-anchor="middle" x="492" y="-7.5" font-family="Helvetica,sans-Serif" font-size="10.00">mutex.h</text>
</g>
<!-- Node9&#45;&gt;Node15 -->
<g id="edge19" class="edge"><title>Node9&#45;&gt;Node15</title>
<path fill="none" stroke="midnightblue" d="M312.329,-56.4281C346.332,-47.925 400.156,-34.4305 455.625,-20.3404"/>
<polygon fill="midnightblue" stroke="midnightblue" points="456.801,-23.6529 465.631,-17.7969 455.077,-16.8687 456.801,-23.6529"/>
</g>
</g>
</svg>
