<?xml version="1.0" encoding="UTF-8" standalone="no"?>
<!DOCTYPE svg PUBLIC "-//W3C//DTD SVG 1.1//EN"
 "http://www.w3.org/Graphics/SVG/1.1/DTD/svg11.dtd">
<!-- Generated by graphviz version 2.36.0 (20140111.2315)
 -->
<!-- Title: IPlugAU.h Pages: 1 -->
<!--zoomable 476 -->
<svg id="main" version="1.1" xmlns="http://www.w3.org/2000/svg" xmlns:xlink="http://www.w3.org/1999/xlink" xml:space="preserve" onload="init(evt)">
<style type="text/css"><![CDATA[
.edge:hover path { stroke: red; }
.edge:hover polygon { stroke: red; fill: red; }
]]></style>
<script type="text/javascript"><![CDATA[
var edges = document.getElementsByTagName('g');
if (edges && edges.length) {
  for (var i=0;i<edges.length;i++) {
    if (edges[i].id.substr(0,4)=='edge') {
      edges[i].setAttribute('class','edge');
    }
  }
}
]]></script>
        <defs>
                <circle id="rim" cx="0" cy="0" r="7"/>
                <circle id="rim2" cx="0" cy="0" r="3.5"/>
                <g id="zoomPlus">
                        <use xlink:href="#rim" fill="#404040">
                                <set attributeName="fill" to="#808080" begin="zoomplus.mouseover" end="zoomplus.mouseout"/>
                        </use>
                        <path d="M-4,0h8M0,-4v8" fill="none" stroke="white" stroke-width="1.5" pointer-events="none"/>
                </g>
                <g id="zoomMin">
                        <use xlink:href="#rim" fill="#404040">
                                <set attributeName="fill" to="#808080" begin="zoomminus.mouseover" end="zoomminus.mouseout"/>
                        </use>
                        <path d="M-4,0h8" fill="none" stroke="white" stroke-width="1.5" pointer-events="none"/>
                </g>
                <g id="dirArrow">
                        <path fill="none" stroke="white" stroke-width="1.5" d="M0,-3.0v7 M-2.5,-0.5L0,-3.0L2.5,-0.5"/>
                </g>
               <g id="resetDef">
                       <use xlink:href="#rim2" fill="#404040">
                               <set attributeName="fill" to="#808080" begin="reset.mouseover" end="reset.mouseout"/>
                       </use>
               </g>
        </defs>

<script type="text/javascript">
var viewWidth = 1401;
var viewHeight = 476;
var sectionId = 'dynsection-0';
</script>
<script xlink:href="svgpan.js"/>
<svg id="graph" class="graph">
<g id="viewport">
<title>IPlugAU.h</title>
<polygon fill="white" stroke="none" points="-4,4 -4,-472 1397,-472 1397,4 -4,4"/>
<!-- Node1 -->
<g id="node1" class="node"><title>Node1</title>
<polygon fill="#bfbfbf" stroke="black" points="455,-448.5 455,-467.5 517,-467.5 517,-448.5 455,-448.5"/>
<text text-anchor="middle" x="486" y="-455.5" font-family="Helvetica,sans-Serif" font-size="10.00">IPlugAU.h</text>
</g>
<!-- Node2 -->
<g id="node2" class="node"><title>Node2</title>
<polygon fill="white" stroke="#bfbfbf" points="0,-392.5 0,-411.5 146,-411.5 146,-392.5 0,-392.5"/>
<text text-anchor="middle" x="73" y="-399.5" font-family="Helvetica,sans-Serif" font-size="10.00">CoreServices/CoreServices.h</text>
</g>
<!-- Node1&#45;&gt;Node2 -->
<g id="edge1" class="edge"><title>Node1&#45;&gt;Node2</title>
<path fill="none" stroke="midnightblue" d="M454.958,-452.941C390.316,-444.489 239.678,-424.793 148.075,-412.816"/>
<polygon fill="midnightblue" stroke="midnightblue" points="148.399,-409.329 138.03,-411.503 147.492,-416.27 148.399,-409.329"/>
</g>
<!-- Node3 -->
<g id="node3" class="node"><title>Node3</title>
<polygon fill="white" stroke="#bfbfbf" points="164.5,-392.5 164.5,-411.5 299.5,-411.5 299.5,-392.5 164.5,-392.5"/>
<text text-anchor="middle" x="232" y="-399.5" font-family="Helvetica,sans-Serif" font-size="10.00">AudioUnit/AUComponent.h</text>
</g>
<!-- Node1&#45;&gt;Node3 -->
<g id="edge2" class="edge"><title>Node1&#45;&gt;Node3</title>
<path fill="none" stroke="midnightblue" d="M454.855,-450.379C411.76,-441.217 333.461,-424.57 282.091,-413.649"/>
<polygon fill="midnightblue" stroke="midnightblue" points="282.704,-410.201 272.194,-411.545 281.248,-417.048 282.704,-410.201"/>
</g>
<!-- Node4 -->
<g id="node4" class="node"><title>Node4</title>
<polygon fill="white" stroke="#bfbfbf" points="318,-392.5 318,-411.5 476,-411.5 476,-392.5 318,-392.5"/>
<text text-anchor="middle" x="397" y="-399.5" font-family="Helvetica,sans-Serif" font-size="10.00">AudioUnit/AudioUnitProperties.h</text>
</g>
<!-- Node1&#45;&gt;Node4 -->
<g id="edge3" class="edge"><title>Node1&#45;&gt;Node4</title>
<path fill="none" stroke="midnightblue" d="M471.701,-448.324C457.817,-439.9 436.508,-426.971 420.196,-417.074"/>
<polygon fill="midnightblue" stroke="midnightblue" points="421.629,-413.85 411.264,-411.655 417.998,-419.834 421.629,-413.85"/>
</g>
<!-- Node5 -->
<g id="node5" class="node"><title>Node5</title>
<polygon fill="white" stroke="#bfbfbf" points="494.5,-392.5 494.5,-411.5 657.5,-411.5 657.5,-392.5 494.5,-392.5"/>
<text text-anchor="middle" x="576" y="-399.5" font-family="Helvetica,sans-Serif" font-size="10.00">AudioToolbox/AudioUnitUtilities.h</text>
</g>
<!-- Node1&#45;&gt;Node5 -->
<g id="edge4" class="edge"><title>Node1&#45;&gt;Node5</title>
<path fill="none" stroke="midnightblue" d="M500.46,-448.324C514.5,-439.9 536.048,-426.971 552.543,-417.074"/>
<polygon fill="midnightblue" stroke="midnightblue" points="554.802,-419.801 561.576,-411.655 551.2,-413.798 554.802,-419.801"/>
</g>
<!-- Node6 -->
<g id="node6" class="node"><title>Node6</title>
<polygon fill="white" stroke="#bfbfbf" points="676,-392.5 676,-411.5 780,-411.5 780,-392.5 676,-392.5"/>
<text text-anchor="middle" x="728" y="-399.5" font-family="Helvetica,sans-Serif" font-size="10.00">AvailabilityMacros.h</text>
</g>
<!-- Node1&#45;&gt;Node6 -->
<g id="edge5" class="edge"><title>Node1&#45;&gt;Node6</title>
<path fill="none" stroke="midnightblue" d="M517.142,-450.051C558.378,-440.85 631.512,-424.53 679.881,-413.737"/>
<polygon fill="midnightblue" stroke="midnightblue" points="680.809,-417.116 689.807,-411.522 679.284,-410.284 680.809,-417.116"/>
</g>
<!-- Node7 -->
<g id="node7" class="node"><title>Node7</title>
<g id="a_node7"><a xlink:href="_i_plug_base__select_8h_source.html" target="_top" xlink:title="IPlugBase_select.h">
<polygon fill="white" stroke="black" points="798.5,-392.5 798.5,-411.5 899.5,-411.5 899.5,-392.5 798.5,-392.5"/>
<text text-anchor="middle" x="849" y="-399.5" font-family="Helvetica,sans-Serif" font-size="10.00">IPlugBase_select.h</text>
</a>
</g>
</g>
<!-- Node1&#45;&gt;Node7 -->
<g id="edge6" class="edge"><title>Node1&#45;&gt;Node7</title>
<path fill="none" stroke="midnightblue" d="M517.408,-452.351C570.715,-444.457 682.574,-427.877 788.074,-412.136"/>
<polygon fill="midnightblue" stroke="midnightblue" points="788.888,-415.554 798.262,-410.616 787.855,-408.63 788.888,-415.554"/>
</g>
<!-- Node8 -->
<g id="node8" class="node"><title>Node8</title>
<g id="a_node8"><a xlink:href="_i_plug_base_graphics_8h.html" target="_top" xlink:title="An IPlugBase class for an IPlug plug&#45;in that uses IGraphics for it&#39;s UI. ">
<polygon fill="white" stroke="black" points="794.5,-336.5 794.5,-355.5 903.5,-355.5 903.5,-336.5 794.5,-336.5"/>
<text text-anchor="middle" x="849" y="-343.5" font-family="Helvetica,sans-Serif" font-size="10.00">IPlugBaseGraphics.h</text>
</a>
</g>
</g>
<!-- Node7&#45;&gt;Node8 -->
<g id="edge7" class="edge"><title>Node7&#45;&gt;Node8</title>
<path fill="none" stroke="midnightblue" d="M849,-392.083C849,-385.006 849,-374.861 849,-365.986"/>
<polygon fill="midnightblue" stroke="midnightblue" points="852.5,-365.751 849,-355.751 845.5,-365.751 852.5,-365.751"/>
</g>
<!-- Node31 -->
<g id="node31" class="node"><title>Node31</title>
<g id="a_node31"><a xlink:href="_i_plug_processor_8h.html" target="_top" xlink:title="The base class for IPlug Audio Processing. ">
<polygon fill="white" stroke="black" points="504,-280.5 504,-299.5 596,-299.5 596,-280.5 504,-280.5"/>
<text text-anchor="middle" x="550" y="-287.5" font-family="Helvetica,sans-Serif" font-size="10.00">IPlugProcessor.h</text>
</a>
</g>
</g>
<!-- Node7&#45;&gt;Node31 -->
<g id="edge52" class="edge"><title>Node7&#45;&gt;Node31</title>
<path fill="none" stroke="midnightblue" d="M825.538,-392.368C772.592,-372.89 643.72,-325.479 582.86,-303.089"/>
<polygon fill="midnightblue" stroke="midnightblue" points="583.947,-299.759 573.353,-299.591 581.53,-306.329 583.947,-299.759"/>
</g>
<!-- Node36 -->
<g id="node36" class="node"><title>Node36</title>
<g id="a_node36"><a xlink:href="_i_plug_presets_8h.html" target="_top" xlink:title="IPlugPresets.h">
<polygon fill="white" stroke="black" points="1065.5,-280.5 1065.5,-299.5 1146.5,-299.5 1146.5,-280.5 1065.5,-280.5"/>
<text text-anchor="middle" x="1106" y="-287.5" font-family="Helvetica,sans-Serif" font-size="10.00">IPlugPresets.h</text>
</a>
</g>
</g>
<!-- Node7&#45;&gt;Node36 -->
<g id="edge69" class="edge"><title>Node7&#45;&gt;Node36</title>
<path fill="none" stroke="midnightblue" d="M869.166,-392.368C914.3,-373.051 1023.62,-326.259 1076.45,-303.648"/>
<polygon fill="midnightblue" stroke="midnightblue" points="1078.11,-306.744 1085.93,-299.591 1075.36,-300.309 1078.11,-306.744"/>
</g>
<!-- Node9 -->
<g id="node9" class="node"><title>Node9</title>
<g id="a_node9"><a xlink:href="_i_plug_base_8h.html" target="_top" xlink:title="The lowest level base class of an IPlug plug&#45;in. ">
<polygon fill="white" stroke="black" points="862,-280.5 862,-299.5 932,-299.5 932,-280.5 862,-280.5"/>
<text text-anchor="middle" x="897" y="-287.5" font-family="Helvetica,sans-Serif" font-size="10.00">IPlugBase.h</text>
</a>
</g>
</g>
<!-- Node8&#45;&gt;Node9 -->
<g id="edge8" class="edge"><title>Node8&#45;&gt;Node9</title>
<path fill="none" stroke="midnightblue" d="M856.926,-336.083C863.846,-328.298 874.065,-316.801 882.452,-307.367"/>
<polygon fill="midnightblue" stroke="midnightblue" points="885.194,-309.55 889.221,-299.751 879.962,-304.9 885.194,-309.55"/>
</g>
<!-- Node30 -->
<g id="node30" class="node"><title>Node30</title>
<g id="a_node30"><a xlink:href="_i_plug_delegate_8h_source.html" target="_top" xlink:title="IPlugDelegate.h">
<polygon fill="white" stroke="black" points="758,-280.5 758,-299.5 844,-299.5 844,-280.5 758,-280.5"/>
<text text-anchor="middle" x="801" y="-287.5" font-family="Helvetica,sans-Serif" font-size="10.00">IPlugDelegate.h</text>
</a>
</g>
</g>
<!-- Node8&#45;&gt;Node30 -->
<g id="edge51" class="edge"><title>Node8&#45;&gt;Node30</title>
<path fill="none" stroke="midnightblue" d="M841.074,-336.083C834.154,-328.298 823.935,-316.801 815.548,-307.367"/>
<polygon fill="midnightblue" stroke="midnightblue" points="818.038,-304.9 808.779,-299.751 812.806,-309.55 818.038,-304.9"/>
</g>
<!-- Node10 -->
<g id="node10" class="node"><title>Node10</title>
<polygon fill="white" stroke="#bfbfbf" points="1186,-0.5 1186,-19.5 1232,-19.5 1232,-0.5 1186,-0.5"/>
<text text-anchor="middle" x="1209" y="-7.5" font-family="Helvetica,sans-Serif" font-size="10.00">cstring</text>
</g>
<!-- Node9&#45;&gt;Node10 -->
<g id="edge9" class="edge"><title>Node9&#45;&gt;Node10</title>
<path fill="none" stroke="midnightblue" d="M932.214,-286.417C1024.44,-277.42 1270.45,-238.414 1336,-76 1352.44,-35.2597 1285.13,-19.7704 1242.23,-14.0989"/>
<polygon fill="midnightblue" stroke="midnightblue" points="1242.53,-10.6091 1232.18,-12.8876 1241.69,-17.5589 1242.53,-10.6091"/>
</g>
<!-- Node11 -->
<g id="node11" class="node"><title>Node11</title>
<polygon fill="white" stroke="#bfbfbf" points="477,-56.5 477,-75.5 523,-75.5 523,-56.5 477,-56.5"/>
<text text-anchor="middle" x="500" y="-63.5" font-family="Helvetica,sans-Serif" font-size="10.00">cstdint</text>
</g>
<!-- Node9&#45;&gt;Node11 -->
<g id="edge10" class="edge"><title>Node9&#45;&gt;Node11</title>
<path fill="none" stroke="midnightblue" d="M861.595,-281.726C800.639,-269.193 682.145,-244.786 680,-244 667.769,-239.518 586.522,-196.889 577,-188 544.365,-157.535 519.673,-110.39 507.806,-84.8735"/>
<polygon fill="midnightblue" stroke="midnightblue" points="510.95,-83.3316 503.644,-75.6586 504.571,-86.2129 510.95,-83.3316"/>
</g>
<!-- Node12 -->
<g id="node12" class="node"><title>Node12</title>
<polygon fill="white" stroke="#bfbfbf" points="578.5,-224.5 578.5,-243.5 627.5,-243.5 627.5,-224.5 578.5,-224.5"/>
<text text-anchor="middle" x="603" y="-231.5" font-family="Helvetica,sans-Serif" font-size="10.00">ptrlist.h</text>
</g>
<!-- Node9&#45;&gt;Node12 -->
<g id="edge11" class="edge"><title>Node9&#45;&gt;Node12</title>
<path fill="none" stroke="midnightblue" d="M861.956,-281.724C858.929,-281.128 855.912,-280.546 853,-280 759.497,-262.466 735.276,-262.704 642,-244 640.552,-243.71 639.076,-243.406 637.586,-243.092"/>
<polygon fill="midnightblue" stroke="midnightblue" points="638.228,-239.65 627.711,-240.929 636.731,-246.488 638.228,-239.65"/>
</g>
<!-- Node13 -->
<g id="node13" class="node"><title>Node13</title>
<polygon fill="white" stroke="#bfbfbf" points="1275,-56.5 1275,-75.5 1327,-75.5 1327,-56.5 1275,-56.5"/>
<text text-anchor="middle" x="1301" y="-63.5" font-family="Helvetica,sans-Serif" font-size="10.00">mutex.h</text>
</g>
<!-- Node9&#45;&gt;Node13 -->
<g id="edge12" class="edge"><title>Node9&#45;&gt;Node13</title>
<path fill="none" stroke="midnightblue" d="M932.006,-282.062C1002.16,-266.561 1161.64,-223.093 1260,-132 1274.49,-118.577 1285.94,-98.9379 1293.01,-84.763"/>
<polygon fill="midnightblue" stroke="midnightblue" points="1296.25,-86.1093 1297.37,-75.5742 1289.92,-83.1091 1296.25,-86.1093"/>
</g>
<!-- Node14 -->
<g id="node14" class="node"><title>Node14</title>
<g id="a_node14"><a xlink:href="_i_plug_platform_8h.html" target="_top" xlink:title="Include to get consistently named preprocessor macros for different platforms and logging functionali...">
<polygon fill="white" stroke="black" points="1001,-168.5 1001,-187.5 1085,-187.5 1085,-168.5 1001,-168.5"/>
<text text-anchor="middle" x="1043" y="-175.5" font-family="Helvetica,sans-Serif" font-size="10.00">IPlugPlatform.h</text>
</a>
</g>
</g>
<!-- Node9&#45;&gt;Node14 -->
<g id="edge13" class="edge"><title>Node9&#45;&gt;Node14</title>
<path fill="none" stroke="midnightblue" d="M908.456,-280.368C933.297,-261.653 992.363,-217.151 1023.31,-193.832"/>
<polygon fill="midnightblue" stroke="midnightblue" points="1025.72,-196.404 1031.6,-187.591 1021.5,-190.814 1025.72,-196.404"/>
</g>
<!-- Node23 -->
<g id="node23" class="node"><title>Node23</title>
<g id="a_node23"><a xlink:href="_i_plug_constants_8h.html" target="_top" xlink:title="Constant definitions, magic numbers. ">
<polygon fill="white" stroke="black" points="611,-0.5 611,-19.5 703,-19.5 703,-0.5 611,-0.5"/>
<text text-anchor="middle" x="657" y="-7.5" font-family="Helvetica,sans-Serif" font-size="10.00">IPlugConstants.h</text>
</a>
</g>
</g>
<!-- Node9&#45;&gt;Node23 -->
<g id="edge35" class="edge"><title>Node9&#45;&gt;Node23</title>
<path fill="none" stroke="midnightblue" d="M861.98,-281.589C858.948,-281.023 855.923,-280.484 853,-280 790.456,-269.641 623.172,-278.521 570,-244 496.735,-196.434 491.537,-160.12 468,-76 465.605,-67.4399 462.49,-62.9754 468,-56 484.332,-35.323 551.125,-23.1234 600.703,-16.7551"/>
<polygon fill="midnightblue" stroke="midnightblue" points="601.188,-20.2219 610.683,-15.5211 600.329,-13.2748 601.188,-20.2219"/>
</g>
<!-- Node24 -->
<g id="node24" class="node"><title>Node24</title>
<g id="a_node24"><a xlink:href="_i_plug_utilities_8h.html" target="_top" xlink:title="Utility functions and macros. ">
<polygon fill="white" stroke="black" points="905,-56.5 905,-75.5 985,-75.5 985,-56.5 905,-56.5"/>
<text text-anchor="middle" x="945" y="-63.5" font-family="Helvetica,sans-Serif" font-size="10.00">IPlugUtilities.h</text>
</a>
</g>
</g>
<!-- Node9&#45;&gt;Node24 -->
<g id="edge46" class="edge"><title>Node9&#45;&gt;Node24</title>
<path fill="none" stroke="midnightblue" d="M898.882,-280.297C905.959,-247.563 931.081,-131.375 940.964,-85.6664"/>
<polygon fill="midnightblue" stroke="midnightblue" points="944.387,-86.3976 943.079,-75.8837 937.545,-84.9182 944.387,-86.3976"/>
</g>
<!-- Node26 -->
<g id="node26" class="node"><title>Node26</title>
<g id="a_node26"><a xlink:href="_i_plug_structs_8h_source.html" target="_top" xlink:title="IPlugStructs.h">
<polygon fill="white" stroke="black" points="751.5,-224.5 751.5,-243.5 830.5,-243.5 830.5,-224.5 751.5,-224.5"/>
<text text-anchor="middle" x="791" y="-231.5" font-family="Helvetica,sans-Serif" font-size="10.00">IPlugStructs.h</text>
</a>
</g>
</g>
<!-- Node9&#45;&gt;Node26 -->
<g id="edge36" class="edge"><title>Node9&#45;&gt;Node26</title>
<path fill="none" stroke="midnightblue" d="M879.969,-280.324C862.97,-271.664 836.624,-258.242 817.007,-248.249"/>
<polygon fill="midnightblue" stroke="midnightblue" points="818.488,-245.075 807.988,-243.655 815.31,-251.312 818.488,-245.075"/>
</g>
<!-- Node29 -->
<g id="node29" class="node"><title>Node29</title>
<g id="a_node29"><a xlink:href="_i_plug_parameter_8h_source.html" target="_top" xlink:title="IPlugParameter.h">
<polygon fill="white" stroke="black" points="1159,-112.5 1159,-131.5 1251,-131.5 1251,-112.5 1159,-112.5"/>
<text text-anchor="middle" x="1205" y="-119.5" font-family="Helvetica,sans-Serif" font-size="10.00">IPlugParameter.h</text>
</a>
</g>
</g>
<!-- Node9&#45;&gt;Node29 -->
<g id="edge47" class="edge"><title>Node9&#45;&gt;Node29</title>
<path fill="none" stroke="midnightblue" d="M914.257,-280.413C940.218,-267.601 990.974,-242.957 1035,-224 1075.33,-206.635 1089.2,-210.343 1127,-188 1150.56,-174.074 1174.23,-153.133 1189.21,-138.808"/>
<polygon fill="midnightblue" stroke="midnightblue" points="1191.87,-141.104 1196.59,-131.616 1186.98,-136.092 1191.87,-141.104"/>
</g>
<!-- Node14&#45;&gt;Node10 -->
<g id="edge14" class="edge"><title>Node14&#45;&gt;Node10</title>
<path fill="none" stroke="midnightblue" d="M1051.92,-168.075C1078.73,-141.267 1158.81,-61.1902 1193.11,-26.8851"/>
<polygon fill="midnightblue" stroke="midnightblue" points="1195.84,-29.1141 1200.43,-19.5681 1190.89,-24.1643 1195.84,-29.1141"/>
</g>
<!-- Node15 -->
<g id="node15" class="node"><title>Node15</title>
<polygon fill="white" stroke="#bfbfbf" points="1016.5,-0.5 1016.5,-19.5 1061.5,-19.5 1061.5,-0.5 1016.5,-0.5"/>
<text text-anchor="middle" x="1039" y="-7.5" font-family="Helvetica,sans-Serif" font-size="10.00">cstdlib</text>
</g>
<!-- Node14&#45;&gt;Node15 -->
<g id="edge15" class="edge"><title>Node14&#45;&gt;Node15</title>
<path fill="none" stroke="midnightblue" d="M1046.98,-168.145C1052.98,-155.205 1065.16,-130.645 1079,-112 1092.3,-94.0817 1105.61,-96.6763 1114,-76 1117.34,-67.764 1118.38,-63.7351 1114,-56 1104.77,-39.6954 1087.01,-28.6539 1071.09,-21.5898"/>
<polygon fill="midnightblue" stroke="midnightblue" points="1072.09,-18.2184 1061.51,-17.6939 1069.46,-24.7028 1072.09,-18.2184"/>
</g>
<!-- Node16 -->
<g id="node16" class="node"><title>Node16</title>
<g id="a_node16"><a xlink:href="_i_plug_logger_8h.html" target="_top" xlink:title="IPlug logging a.k.a tracing functionailty. ">
<polygon fill="white" stroke="black" points="756.5,-112.5 756.5,-131.5 833.5,-131.5 833.5,-112.5 756.5,-112.5"/>
<text text-anchor="middle" x="795" y="-119.5" font-family="Helvetica,sans-Serif" font-size="10.00">IPlugLogger.h</text>
</a>
</g>
</g>
<!-- Node14&#45;&gt;Node16 -->
<g id="edge16" class="edge"><title>Node14&#45;&gt;Node16</title>
<path fill="none" stroke="midnightblue" d="M1003.7,-168.444C960.313,-158.996 890.418,-143.776 843.614,-133.585"/>
<polygon fill="midnightblue" stroke="midnightblue" points="844.22,-130.135 833.704,-131.428 842.731,-136.975 844.22,-130.135"/>
</g>
<!-- Node16&#45;&gt;Node10 -->
<g id="edge21" class="edge"><title>Node16&#45;&gt;Node10</title>
<path fill="none" stroke="midnightblue" d="M833.636,-115.349C874.371,-108.684 939.999,-95.9224 994,-76 1011.91,-69.3942 1014.18,-62.8431 1032,-56 1080.63,-37.3232 1139.73,-24.0856 1175.85,-16.9975"/>
<polygon fill="midnightblue" stroke="midnightblue" points="1176.68,-20.4023 1185.84,-15.079 1175.35,-13.5279 1176.68,-20.4023"/>
</g>
<!-- Node16&#45;&gt;Node11 -->
<g id="edge20" class="edge"><title>Node16&#45;&gt;Node11</title>
<path fill="none" stroke="midnightblue" d="M756.151,-115.522C704.797,-108.008 611.626,-93.4317 533,-76 532.899,-75.9775 532.797,-75.9549 532.695,-75.9322"/>
<polygon fill="midnightblue" stroke="midnightblue" points="533.552,-72.5387 523.009,-73.5784 531.899,-79.3408 533.552,-72.5387"/>
</g>
<!-- Node16&#45;&gt;Node13 -->
<g id="edge25" class="edge"><title>Node16&#45;&gt;Node13</title>
<path fill="none" stroke="midnightblue" d="M833.865,-116.852C929.013,-106.698 1172.59,-80.7042 1264.85,-70.8584"/>
<polygon fill="midnightblue" stroke="midnightblue" points="1265.25,-74.3353 1274.82,-69.7938 1264.51,-67.3748 1265.25,-74.3353"/>
</g>
<!-- Node17 -->
<g id="node17" class="node"><title>Node17</title>
<polygon fill="white" stroke="#bfbfbf" points="749.5,-0.5 749.5,-19.5 792.5,-19.5 792.5,-0.5 749.5,-0.5"/>
<text text-anchor="middle" x="771" y="-7.5" font-family="Helvetica,sans-Serif" font-size="10.00">cstdio</text>
</g>
<!-- Node16&#45;&gt;Node17 -->
<g id="edge17" class="edge"><title>Node16&#45;&gt;Node17</title>
<path fill="none" stroke="midnightblue" d="M793.117,-112.368C789.244,-94.617 780.309,-53.6664 775.058,-29.5974"/>
<polygon fill="midnightblue" stroke="midnightblue" points="778.426,-28.6155 772.874,-19.5914 771.587,-30.1077 778.426,-28.6155"/>
</g>
<!-- Node18 -->
<g id="node18" class="node"><title>Node18</title>
<polygon fill="white" stroke="#bfbfbf" points="888,-0.5 888,-19.5 934,-19.5 934,-0.5 888,-0.5"/>
<text text-anchor="middle" x="911" y="-7.5" font-family="Helvetica,sans-Serif" font-size="10.00">cctype</text>
</g>
<!-- Node16&#45;&gt;Node18 -->
<g id="edge18" class="edge"><title>Node16&#45;&gt;Node18</title>
<path fill="none" stroke="midnightblue" d="M808.808,-112.42C821.894,-103.966 841.76,-90.2748 857,-76 872.986,-61.0266 888.692,-41.4107 899.008,-27.6598"/>
<polygon fill="midnightblue" stroke="midnightblue" points="901.847,-29.7063 904.957,-19.5782 896.21,-25.5564 901.847,-29.7063"/>
</g>
<!-- Node19 -->
<g id="node19" class="node"><title>Node19</title>
<polygon fill="white" stroke="#bfbfbf" points="799.5,-56.5 799.5,-75.5 848.5,-75.5 848.5,-56.5 799.5,-56.5"/>
<text text-anchor="middle" x="824" y="-63.5" font-family="Helvetica,sans-Serif" font-size="10.00">cstdarg</text>
</g>
<!-- Node16&#45;&gt;Node19 -->
<g id="edge19" class="edge"><title>Node16&#45;&gt;Node19</title>
<path fill="none" stroke="midnightblue" d="M799.789,-112.083C803.758,-104.691 809.525,-93.9533 814.435,-84.8111"/>
<polygon fill="midnightblue" stroke="midnightblue" points="817.653,-86.217 819.3,-75.7511 811.486,-82.9051 817.653,-86.217"/>
</g>
<!-- Node20 -->
<g id="node20" class="node"><title>Node20</title>
<polygon fill="white" stroke="#bfbfbf" points="341.5,-56.5 341.5,-75.5 382.5,-75.5 382.5,-56.5 341.5,-56.5"/>
<text text-anchor="middle" x="362" y="-63.5" font-family="Helvetica,sans-Serif" font-size="10.00">ctime</text>
</g>
<!-- Node16&#45;&gt;Node20 -->
<g id="edge22" class="edge"><title>Node16&#45;&gt;Node20</title>
<path fill="none" stroke="midnightblue" d="M756.193,-116.16C671.142,-105.554 469.773,-80.4406 392.721,-70.8312"/>
<polygon fill="midnightblue" stroke="midnightblue" points="393.055,-67.3458 382.698,-69.5813 392.188,-74.292 393.055,-67.3458"/>
</g>
<!-- Node21 -->
<g id="node21" class="node"><title>Node21</title>
<polygon fill="white" stroke="#bfbfbf" points="541.5,-56.5 541.5,-75.5 590.5,-75.5 590.5,-56.5 541.5,-56.5"/>
<text text-anchor="middle" x="566" y="-63.5" font-family="Helvetica,sans-Serif" font-size="10.00">cassert</text>
</g>
<!-- Node16&#45;&gt;Node21 -->
<g id="edge23" class="edge"><title>Node16&#45;&gt;Node21</title>
<path fill="none" stroke="midnightblue" d="M758.714,-112.444C715.372,-102.223 643.39,-85.2491 600.742,-75.1924"/>
<polygon fill="midnightblue" stroke="midnightblue" points="601.36,-71.7422 590.823,-72.8536 599.753,-78.5553 601.36,-71.7422"/>
</g>
<!-- Node22 -->
<g id="node22" class="node"><title>Node22</title>
<polygon fill="white" stroke="#bfbfbf" points="1041,-56.5 1041,-75.5 1105,-75.5 1105,-56.5 1041,-56.5"/>
<text text-anchor="middle" x="1073" y="-63.5" font-family="Helvetica,sans-Serif" font-size="10.00">wdlstring.h</text>
</g>
<!-- Node16&#45;&gt;Node22 -->
<g id="edge24" class="edge"><title>Node16&#45;&gt;Node22</title>
<path fill="none" stroke="midnightblue" d="M833.591,-113.535C879.634,-104.623 958.941,-89.2584 1027,-76 1028.26,-75.7549 1029.54,-75.5059 1030.82,-75.2545"/>
<polygon fill="midnightblue" stroke="midnightblue" points="1031.69,-78.6524 1040.83,-73.3009 1030.35,-71.7821 1031.69,-78.6524"/>
</g>
<!-- Node16&#45;&gt;Node23 -->
<g id="edge26" class="edge"><title>Node16&#45;&gt;Node23</title>
<path fill="none" stroke="midnightblue" d="M784.171,-112.368C760.692,-93.6531 704.862,-49.1509 675.608,-25.8324"/>
<polygon fill="midnightblue" stroke="midnightblue" points="677.78,-23.0877 667.778,-19.5914 673.416,-28.5615 677.78,-23.0877"/>
</g>
<!-- Node16&#45;&gt;Node24 -->
<g id="edge27" class="edge"><title>Node16&#45;&gt;Node24</title>
<path fill="none" stroke="midnightblue" d="M818.768,-112.444C843.893,-103.399 883.711,-89.064 911.9,-78.9158"/>
<polygon fill="midnightblue" stroke="midnightblue" points="913.12,-82.1968 921.343,-75.5164 910.749,-75.6106 913.12,-82.1968"/>
</g>
<!-- Node24&#45;&gt;Node10 -->
<g id="edge31" class="edge"><title>Node24&#45;&gt;Node10</title>
<path fill="none" stroke="midnightblue" d="M985.096,-56.7986C1037.24,-46.1334 1127.36,-27.6994 1175.84,-17.7823"/>
<polygon fill="midnightblue" stroke="midnightblue" points="1176.71,-21.1764 1185.81,-15.7433 1175.31,-14.3184 1176.71,-21.1764"/>
</g>
<!-- Node24&#45;&gt;Node14 -->
<g id="edge34" class="edge"><title>Node24&#45;&gt;Node14</title>
<path fill="none" stroke="midnightblue" d="M952.654,-75.5914C969.009,-93.9493 1007.59,-137.249 1028.65,-160.897"/>
<polygon fill="midnightblue" stroke="midnightblue" points="1026.04,-163.23 1035.31,-168.368 1031.27,-158.574 1026.04,-163.23"/>
</g>
<!-- Node24&#45;&gt;Node15 -->
<g id="edge30" class="edge"><title>Node24&#45;&gt;Node15</title>
<path fill="none" stroke="midnightblue" d="M960.103,-56.324C974.903,-47.8215 997.694,-34.7288 1014.98,-24.7975"/>
<polygon fill="midnightblue" stroke="midnightblue" points="1017.01,-27.6707 1023.93,-19.6545 1013.52,-21.6009 1017.01,-27.6707"/>
</g>
<!-- Node24&#45;&gt;Node17 -->
<g id="edge29" class="edge"><title>Node24&#45;&gt;Node17</title>
<path fill="none" stroke="midnightblue" d="M917.429,-56.4435C886.214,-46.7561 835.447,-31.0008 802.642,-20.8199"/>
<polygon fill="midnightblue" stroke="midnightblue" points="803.258,-17.3464 792.67,-17.7251 801.183,-24.0319 803.258,-17.3464"/>
</g>
<!-- Node24&#45;&gt;Node18 -->
<g id="edge32" class="edge"><title>Node24&#45;&gt;Node18</title>
<path fill="none" stroke="midnightblue" d="M939.386,-56.083C934.633,-48.5341 927.682,-37.4948 921.848,-28.2298"/>
<polygon fill="midnightblue" stroke="midnightblue" points="924.8,-26.3486 916.51,-19.7511 918.876,-30.0783 924.8,-26.3486"/>
</g>
<!-- Node24&#45;&gt;Node23 -->
<g id="edge33" class="edge"><title>Node24&#45;&gt;Node23</title>
<path fill="none" stroke="midnightblue" d="M904.955,-57.4915C854.902,-48.1066 768.968,-31.9941 712.568,-21.4191"/>
<polygon fill="midnightblue" stroke="midnightblue" points="712.87,-17.9147 702.396,-19.5118 711.58,-24.7948 712.87,-17.9147"/>
</g>
<!-- Node25 -->
<g id="node25" class="node"><title>Node25</title>
<polygon fill="white" stroke="#bfbfbf" points="310,-0.5 310,-19.5 354,-19.5 354,-0.5 310,-0.5"/>
<text text-anchor="middle" x="332" y="-7.5" font-family="Helvetica,sans-Serif" font-size="10.00">cmath</text>
</g>
<!-- Node24&#45;&gt;Node25 -->
<g id="edge28" class="edge"><title>Node24&#45;&gt;Node25</title>
<path fill="none" stroke="midnightblue" d="M904.71,-60.7391C889.734,-59.1923 872.596,-57.4658 857,-56 670.467,-38.4683 446.378,-20.1866 364.211,-13.5758"/>
<polygon fill="midnightblue" stroke="midnightblue" points="364.266,-10.069 354.018,-12.757 363.706,-17.0466 364.266,-10.069"/>
</g>
<!-- Node26&#45;&gt;Node14 -->
<g id="edge40" class="edge"><title>Node26&#45;&gt;Node14</title>
<path fill="none" stroke="midnightblue" d="M830.652,-224.503C874.649,-215.075 945.71,-199.848 993.367,-189.636"/>
<polygon fill="midnightblue" stroke="midnightblue" points="994.119,-193.054 1003.16,-187.536 992.652,-186.209 994.119,-193.054"/>
</g>
<!-- Node26&#45;&gt;Node22 -->
<g id="edge38" class="edge"><title>Node26&#45;&gt;Node22</title>
<path fill="none" stroke="midnightblue" d="M805.764,-224.309C851.83,-197.192 993.19,-113.98 1049.5,-80.8345"/>
<polygon fill="midnightblue" stroke="midnightblue" points="1051.54,-83.6943 1058.38,-75.6051 1047.99,-77.6618 1051.54,-83.6943"/>
</g>
<!-- Node26&#45;&gt;Node23 -->
<g id="edge39" class="edge"><title>Node26&#45;&gt;Node23</title>
<path fill="none" stroke="midnightblue" d="M783.415,-224.461C763.71,-201.856 710.395,-137.938 681,-76 673.747,-60.7174 667.221,-42.6111 662.811,-29.3948"/>
<polygon fill="midnightblue" stroke="midnightblue" points="666.052,-28.0432 659.635,-19.6126 659.394,-30.2047 666.052,-28.0432"/>
</g>
<!-- Node27 -->
<g id="node27" class="node"><title>Node27</title>
<polygon fill="white" stroke="#bfbfbf" points="763,-168.5 763,-187.5 819,-187.5 819,-168.5 763,-168.5"/>
<text text-anchor="middle" x="791" y="-175.5" font-family="Helvetica,sans-Serif" font-size="10.00">algorithm</text>
</g>
<!-- Node26&#45;&gt;Node27 -->
<g id="edge37" class="edge"><title>Node26&#45;&gt;Node27</title>
<path fill="none" stroke="midnightblue" d="M791,-224.083C791,-217.006 791,-206.861 791,-197.986"/>
<polygon fill="midnightblue" stroke="midnightblue" points="794.5,-197.751 791,-187.751 787.5,-197.751 794.5,-197.751"/>
</g>
<!-- Node28 -->
<g id="node28" class="node"><title>Node28</title>
<g id="a_node28"><a xlink:href="_i_plug_midi_8h_source.html" target="_top" xlink:title="IPlugMidi.h">
<polygon fill="white" stroke="black" points="596.5,-112.5 596.5,-131.5 661.5,-131.5 661.5,-112.5 596.5,-112.5"/>
<text text-anchor="middle" x="629" y="-119.5" font-family="Helvetica,sans-Serif" font-size="10.00">IPlugMidi.h</text>
</a>
</g>
</g>
<!-- Node26&#45;&gt;Node28 -->
<g id="edge41" class="edge"><title>Node26&#45;&gt;Node28</title>
<path fill="none" stroke="midnightblue" d="M754.345,-224.45C730.298,-217.521 699.139,-205.917 676,-188 659.539,-175.254 646.275,-155.228 638.088,-140.771"/>
<polygon fill="midnightblue" stroke="midnightblue" points="641.082,-138.949 633.254,-131.81 634.922,-142.273 641.082,-138.949"/>
</g>
<!-- Node28&#45;&gt;Node11 -->
<g id="edge43" class="edge"><title>Node28&#45;&gt;Node11</title>
<path fill="none" stroke="midnightblue" d="M608.56,-112.444C587.33,-103.557 553.901,-89.5632 529.745,-79.4514"/>
<polygon fill="midnightblue" stroke="midnightblue" points="530.921,-76.1493 520.345,-75.5164 528.218,-82.6064 530.921,-76.1493"/>
</g>
<!-- Node28&#45;&gt;Node21 -->
<g id="edge42" class="edge"><title>Node28&#45;&gt;Node21</title>
<path fill="none" stroke="midnightblue" d="M618.878,-112.324C609.474,-104.263 595.256,-92.0765 583.931,-82.3695"/>
<polygon fill="midnightblue" stroke="midnightblue" points="586.177,-79.6844 576.306,-75.8339 581.621,-84.9993 586.177,-79.6844"/>
</g>
<!-- Node28&#45;&gt;Node23 -->
<g id="edge44" class="edge"><title>Node28&#45;&gt;Node23</title>
<path fill="none" stroke="midnightblue" d="M630.653,-112.109C633.05,-99.5351 637.78,-75.8732 643,-56 645.341,-47.0863 648.333,-37.3046 650.949,-29.1445"/>
<polygon fill="midnightblue" stroke="midnightblue" points="654.301,-30.1533 654.086,-19.5607 647.649,-27.9759 654.301,-30.1533"/>
</g>
<!-- Node28&#45;&gt;Node24 -->
<g id="edge45" class="edge"><title>Node28&#45;&gt;Node24</title>
<path fill="none" stroke="midnightblue" d="M661.627,-115.424C716.935,-105.973 829.446,-86.7466 894.833,-75.5728"/>
<polygon fill="midnightblue" stroke="midnightblue" points="895.639,-78.9858 904.907,-73.8513 894.46,-72.0859 895.639,-78.9858"/>
</g>
<!-- Node29&#45;&gt;Node10 -->
<g id="edge48" class="edge"><title>Node29&#45;&gt;Node10</title>
<path fill="none" stroke="midnightblue" d="M1209.62,-112.339C1214.06,-103.493 1220.45,-89.22 1223,-76 1226.04,-60.237 1221.64,-42.4191 1217,-29.4301"/>
<polygon fill="midnightblue" stroke="midnightblue" points="1220.12,-27.8185 1213.19,-19.8063 1213.61,-30.3927 1220.12,-27.8185"/>
</g>
<!-- Node29&#45;&gt;Node22 -->
<g id="edge49" class="edge"><title>Node29&#45;&gt;Node22</title>
<path fill="none" stroke="midnightblue" d="M1184.08,-112.444C1162.26,-103.517 1127.85,-89.4387 1103.11,-79.3168"/>
<polygon fill="midnightblue" stroke="midnightblue" points="1104.4,-76.0634 1093.82,-75.5164 1101.75,-82.5422 1104.4,-76.0634"/>
</g>
<!-- Node29&#45;&gt;Node24 -->
<g id="edge50" class="edge"><title>Node29&#45;&gt;Node24</title>
<path fill="none" stroke="midnightblue" d="M1163.8,-112.444C1118.08,-102.948 1044.3,-87.623 995.227,-77.4318"/>
<polygon fill="midnightblue" stroke="midnightblue" points="995.654,-73.9457 985.151,-75.339 994.23,-80.7995 995.654,-73.9457"/>
</g>
<!-- Node31&#45;&gt;Node10 -->
<g id="edge53" class="edge"><title>Node31&#45;&gt;Node10</title>
<path fill="none" stroke="midnightblue" d="M596.108,-284.8C661.314,-278.418 784.009,-264.78 887,-244 910.251,-239.309 1073.7,-201.782 1093,-188 1108.26,-177.107 1172.92,-71.0748 1198.51,-28.5309"/>
<polygon fill="midnightblue" stroke="midnightblue" points="1201.59,-30.1953 1203.74,-19.8197 1195.59,-26.5936 1201.59,-30.1953"/>
</g>
<!-- Node31&#45;&gt;Node11 -->
<g id="edge54" class="edge"><title>Node31&#45;&gt;Node11</title>
<path fill="none" stroke="midnightblue" d="M547.056,-280.447C544.025,-271.449 539.294,-256.839 536,-244 521.356,-186.919 508.812,-118.263 503.177,-85.7843"/>
<polygon fill="midnightblue" stroke="midnightblue" points="506.561,-84.8088 501.422,-75.5436 499.661,-85.9912 506.561,-84.8088"/>
</g>
<!-- Node31&#45;&gt;Node12 -->
<g id="edge55" class="edge"><title>Node31&#45;&gt;Node12</title>
<path fill="none" stroke="midnightblue" d="M558.752,-280.083C566.47,-272.22 577.905,-260.569 587.217,-251.081"/>
<polygon fill="midnightblue" stroke="midnightblue" points="589.904,-253.34 594.411,-243.751 584.908,-248.436 589.904,-253.34"/>
</g>
<!-- Node31&#45;&gt;Node14 -->
<g id="edge56" class="edge"><title>Node31&#45;&gt;Node14</title>
<path fill="none" stroke="midnightblue" d="M596.221,-284.029C653.636,-277.345 754.361,-263.948 839,-244 900.703,-229.457 970.733,-205.443 1010.61,-191.031"/>
<polygon fill="midnightblue" stroke="midnightblue" points="1011.87,-194.295 1020.07,-187.586 1009.48,-187.718 1011.87,-194.295"/>
</g>
<!-- Node31&#45;&gt;Node23 -->
<g id="edge57" class="edge"><title>Node31&#45;&gt;Node23</title>
<path fill="none" stroke="midnightblue" d="M503.852,-284.815C452.435,-279.086 374.122,-266.806 356,-244 350.47,-237.041 354.062,-232.675 356,-224 373.988,-143.475 370.103,-106.954 435,-56 460.24,-36.1831 543.522,-23.3444 600.584,-16.6404"/>
<polygon fill="midnightblue" stroke="midnightblue" points="601.024,-20.1131 610.561,-15.4991 600.228,-13.1585 601.024,-20.1131"/>
</g>
<!-- Node31&#45;&gt;Node24 -->
<g id="edge59" class="edge"><title>Node31&#45;&gt;Node24</title>
<path fill="none" stroke="midnightblue" d="M550.262,-280.163C551.147,-266.339 554.852,-239.573 570,-224 658.982,-132.522 726.787,-186.882 842,-132 872.46,-117.49 904.964,-95.8161 925.13,-81.5455"/>
<polygon fill="midnightblue" stroke="midnightblue" points="927.388,-84.2333 933.476,-75.5621 923.309,-78.5443 927.388,-84.2333"/>
</g>
<!-- Node31&#45;&gt;Node26 -->
<g id="edge58" class="edge"><title>Node31&#45;&gt;Node26</title>
<path fill="none" stroke="midnightblue" d="M588.187,-280.444C630.141,-271.043 697.594,-255.929 743.071,-245.739"/>
<polygon fill="midnightblue" stroke="midnightblue" points="743.999,-249.118 752.991,-243.516 742.468,-242.288 743.999,-249.118"/>
</g>
<!-- Node32 -->
<g id="node32" class="node"><title>Node32</title>
<g id="a_node32"><a xlink:href="_n_chan_delay_8h_source.html" target="_top" xlink:title="NChanDelay.h">
<polygon fill="white" stroke="black" points="364.5,-224.5 364.5,-243.5 445.5,-243.5 445.5,-224.5 364.5,-224.5"/>
<text text-anchor="middle" x="405" y="-231.5" font-family="Helvetica,sans-Serif" font-size="10.00">NChanDelay.h</text>
</a>
</g>
</g>
<!-- Node31&#45;&gt;Node32 -->
<g id="edge60" class="edge"><title>Node31&#45;&gt;Node32</title>
<path fill="none" stroke="midnightblue" d="M527.024,-280.444C502.843,-271.438 464.582,-257.189 437.354,-247.049"/>
<polygon fill="midnightblue" stroke="midnightblue" points="438.461,-243.727 427.868,-243.516 436.018,-250.286 438.461,-243.727"/>
</g>
<!-- Node33 -->
<g id="node33" class="node"><title>Node33</title>
<g id="a_node33"><a xlink:href="_i_plug_processor_8cpp_source.html" target="_top" xlink:title="IPlugProcessor.cpp">
<polygon fill="white" stroke="black" points="238,-112.5 238,-131.5 340,-131.5 340,-112.5 238,-112.5"/>
<text text-anchor="middle" x="289" y="-119.5" font-family="Helvetica,sans-Serif" font-size="10.00">IPlugProcessor.cpp</text>
</a>
</g>
</g>
<!-- Node31&#45;&gt;Node33 -->
<g id="edge61" class="edge"><title>Node31&#45;&gt;Node33</title>
<path fill="none" stroke="midnightblue" d="M503.82,-286.083C442.634,-281.074 339.724,-268.881 313,-244 284.275,-217.256 279.64,-168.186 282.555,-141.488"/>
<polygon fill="midnightblue" stroke="midnightblue" points="286.02,-141.987 284.217,-131.546 279.116,-140.832 286.02,-141.987"/>
</g>
<!-- Node33&#45;&gt;Node17 -->
<g id="edge63" class="edge"><title>Node33&#45;&gt;Node17</title>
<path fill="none" stroke="midnightblue" d="M237.753,-114.281C187.076,-105.662 121.107,-87.8724 151,-56 193.729,-10.4407 649.901,-26.7159 712,-20 720.959,-19.0311 730.64,-17.6818 739.519,-16.3224"/>
<polygon fill="midnightblue" stroke="midnightblue" points="740.152,-19.7658 749.482,-14.7441 739.057,-12.852 740.152,-19.7658"/>
</g>
<!-- Node33&#45;&gt;Node20 -->
<g id="edge64" class="edge"><title>Node33&#45;&gt;Node20</title>
<path fill="none" stroke="midnightblue" d="M300.729,-112.324C311.837,-104.107 328.742,-91.6017 341.983,-81.8069"/>
<polygon fill="midnightblue" stroke="midnightblue" points="344.1,-84.5948 350.058,-75.8339 339.937,-78.9671 344.1,-84.5948"/>
</g>
<!-- Node33&#45;&gt;Node21 -->
<g id="edge65" class="edge"><title>Node33&#45;&gt;Node21</title>
<path fill="none" stroke="midnightblue" d="M340.429,-112.639C387.555,-104.715 459.458,-91.9714 531.071,-76.0691"/>
<polygon fill="midnightblue" stroke="midnightblue" points="532.179,-79.4076 541.171,-73.8044 530.647,-72.5772 532.179,-79.4076"/>
</g>
<!-- Node33&#45;&gt;Node25 -->
<g id="edge62" class="edge"><title>Node33&#45;&gt;Node25</title>
<path fill="none" stroke="midnightblue" d="M237.927,-118.639C175.352,-113.854 81.7258,-99.4216 117,-56 139.655,-28.112 245.449,-16.8979 299.713,-12.9212"/>
<polygon fill="midnightblue" stroke="midnightblue" points="300.105,-16.4026 309.839,-12.2196 299.621,-9.41933 300.105,-16.4026"/>
</g>
<!-- Node33&#45;&gt;Node31 -->
<g id="edge68" class="edge"><title>Node33&#45;&gt;Node31</title>
<path fill="none" stroke="midnightblue" d="M292.838,-131.546C296.808,-153.71 298.171,-213.435 331,-244 354.49,-265.871 436.844,-277.938 493.664,-283.939"/>
<polygon fill="midnightblue" stroke="midnightblue" points="493.653,-287.456 503.956,-284.99 494.364,-280.492 493.653,-287.456"/>
</g>
<!-- Node34 -->
<g id="node34" class="node"><title>Node34</title>
<polygon fill="white" stroke="#bfbfbf" points="255,-56.5 255,-75.5 323,-75.5 323,-56.5 255,-56.5"/>
<text text-anchor="middle" x="289" y="-63.5" font-family="Helvetica,sans-Serif" font-size="10.00">wdlendian.h</text>
</g>
<!-- Node33&#45;&gt;Node34 -->
<g id="edge66" class="edge"><title>Node33&#45;&gt;Node34</title>
<path fill="none" stroke="midnightblue" d="M289,-112.083C289,-105.006 289,-94.8611 289,-85.9865"/>
<polygon fill="midnightblue" stroke="midnightblue" points="292.5,-85.751 289,-75.7511 285.5,-85.7511 292.5,-85.751"/>
</g>
<!-- Node35 -->
<g id="node35" class="node"><title>Node35</title>
<polygon fill="white" stroke="#bfbfbf" points="159.5,-56.5 159.5,-75.5 236.5,-75.5 236.5,-56.5 159.5,-56.5"/>
<text text-anchor="middle" x="198" y="-63.5" font-family="Helvetica,sans-Serif" font-size="10.00">wdl_base64.h</text>
</g>
<!-- Node33&#45;&gt;Node35 -->
<g id="edge67" class="edge"><title>Node33&#45;&gt;Node35</title>
<path fill="none" stroke="midnightblue" d="M274.379,-112.324C260.051,-103.822 237.987,-90.7288 221.251,-80.7975"/>
<polygon fill="midnightblue" stroke="midnightblue" points="222.97,-77.7478 212.584,-75.6545 219.398,-83.7677 222.97,-77.7478"/>
</g>
<!-- Node36&#45;&gt;Node10 -->
<g id="edge70" class="edge"><title>Node36&#45;&gt;Node10</title>
<path fill="none" stroke="midnightblue" d="M1146.51,-282.213C1225.62,-267.805 1393,-231.16 1393,-179 1393,-179 1393,-179 1393,-121 1393,-90.2048 1391.62,-76.8926 1369,-56 1334.23,-23.8883 1278.33,-14.4525 1242.65,-11.8172"/>
<polygon fill="midnightblue" stroke="midnightblue" points="1242.46,-8.30002 1232.27,-11.2002 1242.05,-15.2877 1242.46,-8.30002"/>
</g>
<!-- Node36&#45;&gt;Node11 -->
<g id="edge71" class="edge"><title>Node36&#45;&gt;Node11</title>
<path fill="none" stroke="midnightblue" d="M1065.2,-286.163C983.286,-280.106 801.671,-264.752 743,-244 644.189,-209.051 550.875,-120.02 515.234,-83.258"/>
<polygon fill="midnightblue" stroke="midnightblue" points="517.6,-80.6686 508.159,-75.8601 512.541,-85.5064 517.6,-80.6686"/>
</g>
<!-- Node36&#45;&gt;Node12 -->
<g id="edge72" class="edge"><title>Node36&#45;&gt;Node12</title>
<path fill="none" stroke="midnightblue" d="M1065.46,-284.869C989.704,-277.116 821.545,-259.748 680,-244 666.173,-242.462 650.958,-240.698 637.731,-239.142"/>
<polygon fill="midnightblue" stroke="midnightblue" points="637.955,-235.645 627.613,-237.947 637.134,-242.596 637.955,-235.645"/>
</g>
<!-- Node36&#45;&gt;Node13 -->
<g id="edge73" class="edge"><title>Node36&#45;&gt;Node13</title>
<path fill="none" stroke="midnightblue" d="M1144.39,-280.438C1188.85,-268.263 1260.2,-241.25 1293,-188 1312.44,-156.445 1308.93,-111.071 1304.84,-85.8045"/>
<polygon fill="midnightblue" stroke="midnightblue" points="1308.24,-84.9409 1303,-75.7325 1301.35,-86.1986 1308.24,-84.9409"/>
</g>
<!-- Node36&#45;&gt;Node14 -->
<g id="edge74" class="edge"><title>Node36&#45;&gt;Node14</title>
<path fill="none" stroke="midnightblue" d="M1107.44,-280.393C1109.17,-267.339 1110.76,-242.138 1101,-224 1093.92,-210.855 1081.18,-200.317 1069.44,-192.754"/>
<polygon fill="midnightblue" stroke="midnightblue" points="1071.14,-189.693 1060.76,-187.555 1067.54,-195.698 1071.14,-189.693"/>
</g>
<!-- Node36&#45;&gt;Node23 -->
<g id="edge75" class="edge"><title>Node36&#45;&gt;Node23</title>
<path fill="none" stroke="midnightblue" d="M1086.18,-280.47C1012.1,-248.563 755.283,-137.766 748,-132 710.703,-102.474 680.661,-54.2227 666.256,-28.4776"/>
<polygon fill="midnightblue" stroke="midnightblue" points="669.227,-26.6144 661.366,-19.5112 663.081,-29.9662 669.227,-26.6144"/>
</g>
<!-- Node36&#45;&gt;Node24 -->
<g id="edge77" class="edge"><title>Node36&#45;&gt;Node24</title>
<path fill="none" stroke="midnightblue" d="M1109.09,-280.173C1112.05,-271.198 1116.32,-256.827 1118,-244 1122.62,-208.743 1115.8,-195.29 1093,-168 1059.24,-127.584 1005.41,-96.454 972.817,-80.0023"/>
<polygon fill="midnightblue" stroke="midnightblue" points="974.342,-76.852 963.825,-75.5647 971.244,-83.1291 974.342,-76.852"/>
</g>
<!-- Node36&#45;&gt;Node26 -->
<g id="edge76" class="edge"><title>Node36&#45;&gt;Node26</title>
<path fill="none" stroke="midnightblue" d="M1065.46,-282.051C1008.01,-272.202 902.992,-254.199 840.848,-243.545"/>
<polygon fill="midnightblue" stroke="midnightblue" points="841.331,-240.077 830.884,-241.837 840.149,-246.977 841.331,-240.077"/>
</g>
<!-- Node36&#45;&gt;Node29 -->
<g id="edge78" class="edge"><title>Node36&#45;&gt;Node29</title>
<path fill="none" stroke="midnightblue" d="M1125.64,-280.398C1141.25,-272.738 1162.75,-260.234 1177,-244 1195.1,-223.375 1196.67,-214.701 1203,-188 1206.62,-172.706 1206.9,-154.823 1206.39,-141.69"/>
<polygon fill="midnightblue" stroke="midnightblue" points="1209.88,-141.34 1205.82,-131.556 1202.89,-141.74 1209.88,-141.34"/>
</g>
</g>
</svg>
        <g id="navigator" transform="translate(0 0)" fill="#404254">
                <rect fill="#f2f5e9" fill-opacity="0.5" stroke="#606060" stroke-width=".5" x="0" y="0" width="60" height="60"/>
                <use id="zoomplus" xlink:href="#zoomPlus" x="17" y="9" onmousedown="handleZoom(evt,'in')"/>
                <use id="zoomminus" xlink:href="#zoomMin" x="42" y="9" onmousedown="handleZoom(evt,'out')"/>
                <use id="reset" xlink:href="#resetDef" x="30" y="36" onmousedown="handleReset()"/>
                <g id="arrowUp" xlink:href="#dirArrow" transform="translate(30 24)" onmousedown="handlePan(0,-1)">
                  <use xlink:href="#rim" fill="#404040">
                        <set attributeName="fill" to="#808080" begin="arrowUp.mouseover" end="arrowUp.mouseout"/>
                  </use>
                  <path fill="none" stroke="white" stroke-width="1.5" d="M0,-3.0v7 M-2.5,-0.5L0,-3.0L2.5,-0.5"/>
                </g>
                <g id="arrowRight" xlink:href="#dirArrow" transform="rotate(90) translate(36 -43)" onmousedown="handlePan(1,0)">
                  <use xlink:href="#rim" fill="#404040">
                        <set attributeName="fill" to="#808080" begin="arrowRight.mouseover" end="arrowRight.mouseout"/>
                  </use>
                  <path fill="none" stroke="white" stroke-width="1.5" d="M0,-3.0v7 M-2.5,-0.5L0,-3.0L2.5,-0.5"/>
                </g>
                <g id="arrowDown" xlink:href="#dirArrow" transform="rotate(180) translate(-30 -48)" onmousedown="handlePan(0,1)">
                  <use xlink:href="#rim" fill="#404040">
                        <set attributeName="fill" to="#808080" begin="arrowDown.mouseover" end="arrowDown.mouseout"/>
                  </use>
                  <path fill="none" stroke="white" stroke-width="1.5" d="M0,-3.0v7 M-2.5,-0.5L0,-3.0L2.5,-0.5"/>
                </g>
                <g id="arrowLeft" xlink:href="#dirArrow" transform="rotate(270) translate(-36 17)" onmousedown="handlePan(-1,0)">
                  <use xlink:href="#rim" fill="#404040">
                        <set attributeName="fill" to="#808080" begin="arrowLeft.mouseover" end="arrowLeft.mouseout"/>
                  </use>
                  <path fill="none" stroke="white" stroke-width="1.5" d="M0,-3.0v7 M-2.5,-0.5L0,-3.0L2.5,-0.5"/>
                </g>
        </g>
        <svg viewBox="0 0 15 15" width="100%" height="30px" preserveAspectRatio="xMaxYMin meet">
         <g id="arrow_out" transform="scale(0.3 0.3)">
          <a xlink:href="_i_plug_a_u_8h__incl_org.svg" target="_base">
           <rect id="button" ry="5" rx="5" y="6" x="6" height="38" width="38"
                fill="#f2f5e9" fill-opacity="0.5" stroke="#606060" stroke-width="1.0"/>
           <path id="arrow"
             d="M 11.500037,31.436501 C 11.940474,20.09759 22.043105,11.32322 32.158766,21.979434 L 37.068811,17.246167 C 37.068811,17.246167 37.088388,32 37.088388,32 L 22.160133,31.978069 C 22.160133,31.978069 26.997745,27.140456 26.997745,27.140456 C 18.528582,18.264221 13.291696,25.230495 11.500037,31.436501 z"
             style="fill:#404040;"/>
          </a>
         </g>
        </svg>
</svg>
