<?xml version="1.0" encoding="UTF-8" standalone="no"?>
<!DOCTYPE svg PUBLIC "-//W3C//DTD SVG 1.1//EN"
 "http://www.w3.org/Graphics/SVG/1.1/DTD/svg11.dtd">
<!-- Generated by graphviz version 2.36.0 (20140111.2315)
 -->
<!-- Title: ITextControl Pages: 1 -->
<svg width="187pt" height="140pt"
 viewBox="0.00 0.00 187.00 140.00" xmlns="http://www.w3.org/2000/svg" xmlns:xlink="http://www.w3.org/1999/xlink">
<g id="graph0" class="graph" transform="scale(1 1) rotate(0) translate(4 136)">
<title>ITextControl</title>
<polygon fill="white" stroke="none" points="-4,4 -4,-136 183,-136 183,4 -4,4"/>
<!-- Node1 -->
<g id="node1" class="node"><title>Node1</title>
<polygon fill="#bfbfbf" stroke="black" points="51.5,-56.5 51.5,-75.5 122.5,-75.5 122.5,-56.5 51.5,-56.5"/>
<text text-anchor="middle" x="87" y="-63.5" font-family="Helvetica,sans-Serif" font-size="10.00">ITextControl</text>
</g>
<!-- Node3 -->
<g id="node3" class="node"><title>Node3</title>
<g id="a_node3"><a xlink:href="class_i_b_text_control.html" target="_top" xlink:title="Display monospace bitmap font text. ">
<polygon fill="white" stroke="black" points="-0.5,-0.5 -0.5,-19.5 76.5,-19.5 76.5,-0.5 -0.5,-0.5"/>
<text text-anchor="middle" x="38" y="-7.5" font-family="Helvetica,sans-Serif" font-size="10.00">IBTextControl</text>
</a>
</g>
</g>
<!-- Node1&#45;&gt;Node3 -->
<g id="edge2" class="edge"><title>Node1&#45;&gt;Node3</title>
<path fill="none" stroke="midnightblue" d="M71.9655,-48.4314C63.3778,-38.9673 52.9565,-27.4827 45.9408,-19.7511"/>
<polygon fill="midnightblue" stroke="midnightblue" points="69.5967,-51.0293 78.9086,-56.083 74.7807,-46.3254 69.5967,-51.0293"/>
</g>
<!-- Node4 -->
<g id="node4" class="node"><title>Node4</title>
<g id="a_node4"><a xlink:href="class_i_caption_control.html" target="_top" xlink:title="ICaptionControl">
<polygon fill="white" stroke="black" points="94.5,-0.5 94.5,-19.5 179.5,-19.5 179.5,-0.5 94.5,-0.5"/>
<text text-anchor="middle" x="137" y="-7.5" font-family="Helvetica,sans-Serif" font-size="10.00">ICaptionControl</text>
</a>
</g>
</g>
<!-- Node1&#45;&gt;Node4 -->
<g id="edge3" class="edge"><title>Node1&#45;&gt;Node4</title>
<path fill="none" stroke="midnightblue" d="M102.076,-48.7175C110.889,-39.1997 121.666,-27.5608 128.897,-19.7511"/>
<polygon fill="midnightblue" stroke="midnightblue" points="99.4824,-46.3674 95.2565,-56.083 104.619,-51.1233 99.4824,-46.3674"/>
</g>
<!-- Node2 -->
<g id="node2" class="node"><title>Node2</title>
<g id="a_node2"><a xlink:href="class_i_control.html" target="_top" xlink:title="The lowest level base class of an IGraphics control. ">
<polygon fill="white" stroke="black" points="61.5,-112.5 61.5,-131.5 112.5,-131.5 112.5,-112.5 61.5,-112.5"/>
<text text-anchor="middle" x="87" y="-119.5" font-family="Helvetica,sans-Serif" font-size="10.00">IControl</text>
</a>
</g>
</g>
<!-- Node2&#45;&gt;Node1 -->
<g id="edge1" class="edge"><title>Node2&#45;&gt;Node1</title>
<path fill="none" stroke="midnightblue" d="M87,-101.805C87,-92.9102 87,-82.7798 87,-75.7511"/>
<polygon fill="midnightblue" stroke="midnightblue" points="83.5001,-102.083 87,-112.083 90.5001,-102.083 83.5001,-102.083"/>
</g>
</g>
</svg>
