<?xml version="1.0" encoding="UTF-8" standalone="no"?>
<!DOCTYPE svg PUBLIC "-//W3C//DTD SVG 1.1//EN"
 "http://www.w3.org/Graphics/SVG/1.1/DTD/svg11.dtd">
<!-- Generated by graphviz version 2.36.0 (20140111.2315)
 -->
<!-- Title: IControl Pages: 1 -->
<svg width="340pt" height="408pt"
 viewBox="0.00 0.00 340.00 408.00" xmlns="http://www.w3.org/2000/svg" xmlns:xlink="http://www.w3.org/1999/xlink">
<g id="graph0" class="graph" transform="scale(1 1) rotate(0) translate(4 404)">
<title>IControl</title>
<polygon fill="white" stroke="none" points="-4,4 -4,-404 336,-404 336,4 -4,4"/>
<!-- Node1 -->
<g id="node1" class="node"><title>Node1</title>
<polygon fill="#bfbfbf" stroke="black" points="0.5,-190.5 0.5,-209.5 51.5,-209.5 51.5,-190.5 0.5,-190.5"/>
<text text-anchor="middle" x="26" y="-197.5" font-family="Helvetica,sans-Serif" font-size="10.00">IControl</text>
</g>
<!-- Node2 -->
<g id="node2" class="node"><title>Node2</title>
<g id="a_node2"><a xlink:href="class_i_bitmap_control.html" target="_top" xlink:title="A basic control to draw a bitmap, or one frame of a stacked bitmap depending on the current value...">
<polygon fill="white" stroke="black" points="107,-380.5 107,-399.5 189,-399.5 189,-380.5 107,-380.5"/>
<text text-anchor="middle" x="148" y="-387.5" font-family="Helvetica,sans-Serif" font-size="10.00">IBitmapControl</text>
</a>
</g>
</g>
<!-- Node1&#45;&gt;Node2 -->
<g id="edge1" class="edge"><title>Node1&#45;&gt;Node2</title>
<path fill="none" stroke="midnightblue" d="M28.4754,-219.706C32.1736,-255.006 44.9102,-329.23 88,-371 93.2541,-376.093 99.8798,-379.821 106.778,-382.55"/>
<polygon fill="midnightblue" stroke="midnightblue" points="31.9571,-219.344 27.5653,-209.703 24.9859,-219.979 31.9571,-219.344"/>
</g>
<!-- Node4 -->
<g id="node4" class="node"><title>Node4</title>
<g id="a_node4"><a xlink:href="class_i_b_slider_control.html" target="_top" xlink:title="A slider with a bitmap for the handle. ">
<polygon fill="white" stroke="black" points="106.5,-342.5 106.5,-361.5 189.5,-361.5 189.5,-342.5 106.5,-342.5"/>
<text text-anchor="middle" x="148" y="-349.5" font-family="Helvetica,sans-Serif" font-size="10.00">IBSliderControl</text>
</a>
</g>
</g>
<!-- Node1&#45;&gt;Node4 -->
<g id="edge3" class="edge"><title>Node1&#45;&gt;Node4</title>
<path fill="none" stroke="midnightblue" d="M30.7892,-219.708C37.3661,-248.639 53.6242,-302.473 88,-333 93.2301,-337.645 99.608,-341.155 106.214,-343.809"/>
<polygon fill="midnightblue" stroke="midnightblue" points="34.1492,-218.678 28.6621,-209.615 27.2997,-220.122 34.1492,-218.678"/>
</g>
<!-- Node5 -->
<g id="node5" class="node"><title>Node5</title>
<g id="a_node5"><a xlink:href="class_i_dir_browse_control_base.html" target="_top" xlink:title="An abstract IControl base class that you can inherit from in order to make a control that pops up a m...">
<polygon fill="white" stroke="black" points="88.5,-304.5 88.5,-323.5 207.5,-323.5 207.5,-304.5 88.5,-304.5"/>
<text text-anchor="middle" x="148" y="-311.5" font-family="Helvetica,sans-Serif" font-size="10.00">IDirBrowseControlBase</text>
</a>
</g>
</g>
<!-- Node1&#45;&gt;Node5 -->
<g id="edge4" class="edge"><title>Node1&#45;&gt;Node5</title>
<path fill="none" stroke="midnightblue" d="M34.4875,-219.003C43.8778,-240.457 61.967,-274.972 88,-295 93.0321,-298.871 98.8786,-301.968 104.897,-304.44"/>
<polygon fill="midnightblue" stroke="midnightblue" points="37.6618,-217.522 30.5799,-209.641 31.202,-220.218 37.6618,-217.522"/>
</g>
<!-- Node6 -->
<g id="node6" class="node"><title>Node6</title>
<g id="a_node6"><a xlink:href="class_i_graphics_live_edit.html" target="_top" xlink:title="IGraphicsLiveEdit">
<polygon fill="white" stroke="black" points="101,-266.5 101,-285.5 195,-285.5 195,-266.5 101,-266.5"/>
<text text-anchor="middle" x="148" y="-273.5" font-family="Helvetica,sans-Serif" font-size="10.00">IGraphicsLiveEdit</text>
</a>
</g>
</g>
<!-- Node1&#45;&gt;Node6 -->
<g id="edge5" class="edge"><title>Node1&#45;&gt;Node6</title>
<path fill="none" stroke="midnightblue" d="M41.7836,-217.443C53.256,-230.002 70.1661,-246.514 88,-257 94.4007,-260.763 101.637,-263.878 108.794,-266.421"/>
<polygon fill="midnightblue" stroke="midnightblue" points="44.3236,-215.032 35.0747,-209.864 39.0821,-219.671 44.3236,-215.032"/>
</g>
<!-- Node7 -->
<g id="node7" class="node"><title>Node7</title>
<g id="a_node7"><a xlink:href="class_i_knob_control_base.html" target="_top" xlink:title="Parent for knobs, to handle mouse action and ballistics. ">
<polygon fill="white" stroke="black" points="100,-228.5 100,-247.5 196,-247.5 196,-228.5 100,-228.5"/>
<text text-anchor="middle" x="148" y="-235.5" font-family="Helvetica,sans-Serif" font-size="10.00">IKnobControlBase</text>
</a>
</g>
</g>
<!-- Node1&#45;&gt;Node7 -->
<g id="edge6" class="edge"><title>Node1&#45;&gt;Node7</title>
<path fill="none" stroke="midnightblue" d="M61.4205,-210.9C78.9488,-216.45 100.061,-223.136 116.929,-228.478"/>
<polygon fill="midnightblue" stroke="midnightblue" points="62.1634,-207.464 51.5734,-207.782 60.0501,-214.137 62.1634,-207.464"/>
</g>
<!-- Node10 -->
<g id="node10" class="node"><title>Node10</title>
<g id="a_node10"><a xlink:href="class_i_panel_control.html" target="_top" xlink:title="A basic control to fill a rectangle with a color. ">
<polygon fill="white" stroke="black" points="110,-190.5 110,-209.5 186,-209.5 186,-190.5 110,-190.5"/>
<text text-anchor="middle" x="148" y="-197.5" font-family="Helvetica,sans-Serif" font-size="10.00">IPanelControl</text>
</a>
</g>
</g>
<!-- Node1&#45;&gt;Node10 -->
<g id="edge9" class="edge"><title>Node1&#45;&gt;Node10</title>
<path fill="none" stroke="midnightblue" d="M61.963,-200C76.9418,-200 94.4575,-200 109.686,-200"/>
<polygon fill="midnightblue" stroke="midnightblue" points="61.5734,-196.5 51.5734,-200 61.5733,-203.5 61.5734,-196.5"/>
</g>
<!-- Node11 -->
<g id="node11" class="node"><title>Node11</title>
<g id="a_node11"><a xlink:href="class_i_s_v_g_control.html" target="_top" xlink:title="A basic control to draw an SVG image to the screen. ">
<polygon fill="white" stroke="black" points="112,-152.5 112,-171.5 184,-171.5 184,-152.5 112,-152.5"/>
<text text-anchor="middle" x="148" y="-159.5" font-family="Helvetica,sans-Serif" font-size="10.00">ISVGControl</text>
</a>
</g>
</g>
<!-- Node1&#45;&gt;Node11 -->
<g id="edge10" class="edge"><title>Node1&#45;&gt;Node11</title>
<path fill="none" stroke="midnightblue" d="M61.4205,-189.1C78.9488,-183.55 100.061,-176.864 116.929,-171.522"/>
<polygon fill="midnightblue" stroke="midnightblue" points="60.0501,-185.863 51.5734,-192.218 62.1634,-192.536 60.0501,-185.863"/>
</g>
<!-- Node12 -->
<g id="node12" class="node"><title>Node12</title>
<g id="a_node12"><a xlink:href="class_i_switch_control_base.html" target="_top" xlink:title="Parent for switch controls (including buttons a.k.a. ">
<polygon fill="white" stroke="black" points="96,-114.5 96,-133.5 200,-133.5 200,-114.5 96,-114.5"/>
<text text-anchor="middle" x="148" y="-121.5" font-family="Helvetica,sans-Serif" font-size="10.00">ISwitchControlBase</text>
</a>
</g>
</g>
<!-- Node1&#45;&gt;Node12 -->
<g id="edge11" class="edge"><title>Node1&#45;&gt;Node12</title>
<path fill="none" stroke="midnightblue" d="M41.7836,-182.557C53.256,-169.998 70.1661,-153.486 88,-143 94.4007,-139.237 101.637,-136.122 108.794,-133.579"/>
<polygon fill="midnightblue" stroke="midnightblue" points="39.0821,-180.329 35.0747,-190.136 44.3236,-184.968 39.0821,-180.329"/>
</g>
<!-- Node14 -->
<g id="node14" class="node"><title>Node14</title>
<g id="a_node14"><a xlink:href="class_i_text_control.html" target="_top" xlink:title="A basic control to output text to the screen. ">
<polygon fill="white" stroke="black" points="112.5,-76.5 112.5,-95.5 183.5,-95.5 183.5,-76.5 112.5,-76.5"/>
<text text-anchor="middle" x="148" y="-83.5" font-family="Helvetica,sans-Serif" font-size="10.00">ITextControl</text>
</a>
</g>
</g>
<!-- Node1&#45;&gt;Node14 -->
<g id="edge13" class="edge"><title>Node1&#45;&gt;Node14</title>
<path fill="none" stroke="midnightblue" d="M34.4875,-180.997C43.8778,-159.543 61.967,-125.028 88,-105 95.0791,-99.5537 103.77,-95.6418 112.283,-92.8418"/>
<polygon fill="midnightblue" stroke="midnightblue" points="31.202,-179.782 30.5799,-190.359 37.6618,-182.478 31.202,-179.782"/>
</g>
<!-- Node17 -->
<g id="node17" class="node"><title>Node17</title>
<g id="a_node17"><a xlink:href="class_i_v_keyboard_control.html" target="_top" xlink:title="IVKeyboardControl">
<polygon fill="white" stroke="black" points="98.5,-38.5 98.5,-57.5 197.5,-57.5 197.5,-38.5 98.5,-38.5"/>
<text text-anchor="middle" x="148" y="-45.5" font-family="Helvetica,sans-Serif" font-size="10.00">IVKeyboardControl</text>
</a>
</g>
</g>
<!-- Node1&#45;&gt;Node17 -->
<g id="edge16" class="edge"><title>Node1&#45;&gt;Node17</title>
<path fill="none" stroke="midnightblue" d="M30.7892,-180.292C37.3661,-151.361 53.6242,-97.5266 88,-67 92.345,-63.1415 97.4822,-60.0654 102.884,-57.6133"/>
<polygon fill="midnightblue" stroke="midnightblue" points="27.2997,-179.878 28.6621,-190.385 34.1492,-181.322 27.2997,-179.878"/>
</g>
<!-- Node18 -->
<g id="node18" class="node"><title>Node18</title>
<g id="a_node18"><a xlink:href="class_i_v_slider_control.html" target="_top" xlink:title="IVSliderControl">
<polygon fill="white" stroke="black" points="106.5,-0.5 106.5,-19.5 189.5,-19.5 189.5,-0.5 106.5,-0.5"/>
<text text-anchor="middle" x="148" y="-7.5" font-family="Helvetica,sans-Serif" font-size="10.00">IVSliderControl</text>
</a>
</g>
</g>
<!-- Node1&#45;&gt;Node18 -->
<g id="edge17" class="edge"><title>Node1&#45;&gt;Node18</title>
<path fill="none" stroke="midnightblue" d="M28.4754,-180.294C32.1736,-144.994 44.9102,-70.7698 88,-29 93.1769,-23.9817 99.6853,-20.2888 106.474,-17.5711"/>
<polygon fill="midnightblue" stroke="midnightblue" points="24.9859,-180.021 27.5653,-190.297 31.9571,-180.656 24.9859,-180.021"/>
</g>
<!-- Node3 -->
<g id="node3" class="node"><title>Node3</title>
<g id="a_node3"><a xlink:href="class_i_b_switch_control.html" target="_top" xlink:title="A vector switch control. ">
<polygon fill="white" stroke="black" points="244,-380.5 244,-399.5 332,-399.5 332,-380.5 244,-380.5"/>
<text text-anchor="middle" x="288" y="-387.5" font-family="Helvetica,sans-Serif" font-size="10.00">IBSwitchControl</text>
</a>
</g>
</g>
<!-- Node2&#45;&gt;Node3 -->
<g id="edge2" class="edge"><title>Node2&#45;&gt;Node3</title>
<path fill="none" stroke="midnightblue" d="M199.547,-390C213.975,-390 229.564,-390 243.53,-390"/>
<polygon fill="midnightblue" stroke="midnightblue" points="199.286,-386.5 189.286,-390 199.286,-393.5 199.286,-386.5"/>
</g>
<!-- Node8 -->
<g id="node8" class="node"><title>Node8</title>
<g id="a_node8"><a xlink:href="class_i_v_knob_control.html" target="_top" xlink:title="A vector knob control drawn using graphics primitves. ">
<polygon fill="white" stroke="black" points="248,-247.5 248,-266.5 328,-266.5 328,-247.5 248,-247.5"/>
<text text-anchor="middle" x="288" y="-254.5" font-family="Helvetica,sans-Serif" font-size="10.00">IVKnobControl</text>
</a>
</g>
</g>
<!-- Node7&#45;&gt;Node8 -->
<g id="edge7" class="edge"><title>Node7&#45;&gt;Node8</title>
<path fill="none" stroke="midnightblue" d="M206.176,-245.872C220.217,-247.805 234.931,-249.831 247.899,-251.616"/>
<polygon fill="midnightblue" stroke="midnightblue" points="206.49,-242.382 196.106,-244.486 205.535,-249.317 206.49,-242.382"/>
</g>
<!-- Node9 -->
<g id="node9" class="node"><title>Node9</title>
<g id="a_node9"><a xlink:href="class_i_v_s_v_g_knob.html" target="_top" xlink:title="A vector knob control which rotates an SVG image. ">
<polygon fill="white" stroke="black" points="253,-209.5 253,-228.5 323,-228.5 323,-209.5 253,-209.5"/>
<text text-anchor="middle" x="288" y="-216.5" font-family="Helvetica,sans-Serif" font-size="10.00">IVSVGKnob</text>
</a>
</g>
</g>
<!-- Node7&#45;&gt;Node9 -->
<g id="edge8" class="edge"><title>Node7&#45;&gt;Node9</title>
<path fill="none" stroke="midnightblue" d="M206.316,-230.109C222.093,-227.937 238.708,-225.649 252.734,-223.718"/>
<polygon fill="midnightblue" stroke="midnightblue" points="205.535,-226.683 196.106,-231.514 206.49,-233.618 205.535,-226.683"/>
</g>
<!-- Node13 -->
<g id="node13" class="node"><title>Node13</title>
<g id="a_node13"><a xlink:href="class_i_v_switch_control.html" target="_top" xlink:title="A vector switch control. ">
<polygon fill="white" stroke="black" points="244,-114.5 244,-133.5 332,-133.5 332,-114.5 244,-114.5"/>
<text text-anchor="middle" x="288" y="-121.5" font-family="Helvetica,sans-Serif" font-size="10.00">IVSwitchControl</text>
</a>
</g>
</g>
<!-- Node12&#45;&gt;Node13 -->
<g id="edge12" class="edge"><title>Node12&#45;&gt;Node13</title>
<path fill="none" stroke="midnightblue" d="M210.551,-124C221.737,-124 233.188,-124 243.709,-124"/>
<polygon fill="midnightblue" stroke="midnightblue" points="210.386,-120.5 200.386,-124 210.386,-127.5 210.386,-120.5"/>
</g>
<!-- Node15 -->
<g id="node15" class="node"><title>Node15</title>
<g id="a_node15"><a xlink:href="class_i_b_text_control.html" target="_top" xlink:title="Display monospace bitmap font text. ">
<polygon fill="white" stroke="black" points="249.5,-76.5 249.5,-95.5 326.5,-95.5 326.5,-76.5 249.5,-76.5"/>
<text text-anchor="middle" x="288" y="-83.5" font-family="Helvetica,sans-Serif" font-size="10.00">IBTextControl</text>
</a>
</g>
</g>
<!-- Node14&#45;&gt;Node15 -->
<g id="edge14" class="edge"><title>Node14&#45;&gt;Node15</title>
<path fill="none" stroke="midnightblue" d="M194.017,-86C211.885,-86 232.203,-86 249.279,-86"/>
<polygon fill="midnightblue" stroke="midnightblue" points="193.823,-82.5001 183.823,-86 193.823,-89.5001 193.823,-82.5001"/>
</g>
<!-- Node16 -->
<g id="node16" class="node"><title>Node16</title>
<g id="a_node16"><a xlink:href="class_i_caption_control.html" target="_top" xlink:title="ICaptionControl">
<polygon fill="white" stroke="black" points="245.5,-38.5 245.5,-57.5 330.5,-57.5 330.5,-38.5 245.5,-38.5"/>
<text text-anchor="middle" x="288" y="-45.5" font-family="Helvetica,sans-Serif" font-size="10.00">ICaptionControl</text>
</a>
</g>
</g>
<!-- Node14&#45;&gt;Node16 -->
<g id="edge15" class="edge"><title>Node14&#45;&gt;Node16</title>
<path fill="none" stroke="midnightblue" d="M193.473,-73.7538C212.495,-68.516 234.375,-62.4909 252.188,-57.5859"/>
<polygon fill="midnightblue" stroke="midnightblue" points="192.535,-70.3817 183.823,-76.411 194.394,-77.1305 192.535,-70.3817"/>
</g>
</g>
</svg>
