<?xml version="1.0" encoding="UTF-8" standalone="no"?>
<!DOCTYPE svg PUBLIC "-//W3C//DTD SVG 1.1//EN"
 "http://www.w3.org/Graphics/SVG/1.1/DTD/svg11.dtd">
<!-- Generated by graphviz version 2.36.0 (20140111.2315)
 -->
<!-- Title: IPlugVST3 Pages: 1 -->
<svg width="348pt" height="173pt"
 viewBox="0.00 0.00 348.00 173.00" xmlns="http://www.w3.org/2000/svg" xmlns:xlink="http://www.w3.org/1999/xlink">
<g id="graph0" class="graph" transform="scale(1 1) rotate(0) translate(4 169)">
<title>IPlugVST3</title>
<polygon fill="white" stroke="none" points="-4,4 -4,-169 344,-169 344,4 -4,4"/>
<!-- Node1 -->
<g id="node1" class="node"><title>Node1</title>
<polygon fill="#bfbfbf" stroke="black" points="276,-60.5 276,-79.5 340,-79.5 340,-60.5 276,-60.5"/>
<text text-anchor="middle" x="308" y="-67.5" font-family="Helvetica,sans-Serif" font-size="10.00">IPlugVST3</text>
</g>
<!-- Node2 -->
<g id="node2" class="node"><title>Node2</title>
<g id="a_node2"><a xlink:href="class_i_plug_base_graphics.html" target="_top" xlink:title="An IPlugBase class for an IPlug plug&#45;in that uses IGraphics for it&#39;s UI. ">
<polygon fill="white" stroke="black" points="110.5,-126.5 110.5,-145.5 227.5,-145.5 227.5,-126.5 110.5,-126.5"/>
<text text-anchor="middle" x="169" y="-133.5" font-family="Helvetica,sans-Serif" font-size="10.00">IPLUG_BASE_CLASS</text>
</a>
</g>
</g>
<!-- Node2&#45;&gt;Node1 -->
<g id="edge1" class="edge"><title>Node2&#45;&gt;Node1</title>
<path fill="none" stroke="midnightblue" d="M221.728,-123.287C227.997,-121.146 234.222,-118.72 240,-116 260.936,-106.144 282.545,-90.0379 295.372,-79.7341"/>
<polygon fill="midnightblue" stroke="midnightblue" points="220.362,-120.049 211.896,-126.419 222.487,-126.718 220.362,-120.049"/>
</g>
<!-- Node3 -->
<g id="node3" class="node"><title>Node3</title>
<g id="a_node3"><a xlink:href="class_i_plug_base.html" target="_top" xlink:title="The lowest level base class of an IPlug plug&#45;in. ">
<polygon fill="white" stroke="black" points="0,-145.5 0,-164.5 62,-164.5 62,-145.5 0,-145.5"/>
<text text-anchor="middle" x="31" y="-152.5" font-family="Helvetica,sans-Serif" font-size="10.00">IPlugBase</text>
</a>
</g>
</g>
<!-- Node3&#45;&gt;Node2 -->
<g id="edge2" class="edge"><title>Node3&#45;&gt;Node2</title>
<path fill="none" stroke="midnightblue" d="M72.2573,-149.376C84.177,-147.711 97.4693,-145.854 110.265,-144.066"/>
<polygon fill="midnightblue" stroke="midnightblue" points="71.6023,-145.933 62.1828,-150.783 72.5709,-152.866 71.6023,-145.933"/>
</g>
<!-- Node4 -->
<g id="node4" class="node"><title>Node4</title>
<g id="a_node4"><a xlink:href="class_i_delegate.html" target="_top" xlink:title="This pure virtual interface delegates communication in both directions between the UI and the plug&#45;in...">
<polygon fill="white" stroke="black" points="1.5,-107.5 1.5,-126.5 60.5,-126.5 60.5,-107.5 1.5,-107.5"/>
<text text-anchor="middle" x="31" y="-114.5" font-family="Helvetica,sans-Serif" font-size="10.00">IDelegate</text>
</a>
</g>
</g>
<!-- Node4&#45;&gt;Node2 -->
<g id="edge3" class="edge"><title>Node4&#45;&gt;Node2</title>
<path fill="none" stroke="midnightblue" d="M70.495,-122.378C82.8934,-124.11 96.9151,-126.069 110.381,-127.95"/>
<polygon fill="midnightblue" stroke="midnightblue" points="70.8982,-118.9 60.5101,-120.983 69.9296,-125.833 70.8982,-118.9"/>
</g>
<!-- Node5 -->
<g id="node5" class="node"><title>Node5</title>
<g id="a_node5"><a xlink:href="class_i_plug_processor.html" target="_top" xlink:title="IPlugProcessor\&lt; PLUG\l_SAMPLE_DST \&gt;">
<polygon fill="white" stroke="black" points="109.5,-77 109.5,-107 228.5,-107 228.5,-77 109.5,-77"/>
<text text-anchor="start" x="117.5" y="-95" font-family="Helvetica,sans-Serif" font-size="10.00">IPlugProcessor&lt; PLUG</text>
<text text-anchor="middle" x="169" y="-84" font-family="Helvetica,sans-Serif" font-size="10.00">_SAMPLE_DST &gt;</text>
</a>
</g>
</g>
<!-- Node5&#45;&gt;Node1 -->
<g id="edge4" class="edge"><title>Node5&#45;&gt;Node1</title>
<path fill="none" stroke="midnightblue" d="M239.146,-80.8963C251.962,-78.8382 264.748,-76.785 275.709,-75.0248"/>
<polygon fill="midnightblue" stroke="midnightblue" points="238.214,-77.501 228.895,-82.5423 239.324,-84.4125 238.214,-77.501"/>
</g>
<!-- Node6 -->
<g id="node6" class="node"><title>Node6</title>
<g id="a_node6"><a xlink:href="class_i_plug_preset_handler.html" target="_top" xlink:title="Everything to do with saving presets. ">
<polygon fill="white" stroke="black" points="118.5,-38.5 118.5,-57.5 219.5,-57.5 219.5,-38.5 118.5,-38.5"/>
<text text-anchor="middle" x="169" y="-45.5" font-family="Helvetica,sans-Serif" font-size="10.00">IPlugPresetHandler</text>
</a>
</g>
</g>
<!-- Node6&#45;&gt;Node1 -->
<g id="edge5" class="edge"><title>Node6&#45;&gt;Node1</title>
<path fill="none" stroke="midnightblue" d="M230.069,-57.6461C245.809,-60.1738 262.153,-62.7982 275.706,-64.9747"/>
<polygon fill="midnightblue" stroke="midnightblue" points="230.276,-54.1346 219.848,-56.0047 229.166,-61.0461 230.276,-54.1346"/>
</g>
<!-- Node7 -->
<g id="node7" class="node"><title>Node7</title>
<polygon fill="white" stroke="#bfbfbf" points="98.5,-0.5 98.5,-19.5 239.5,-19.5 239.5,-0.5 98.5,-0.5"/>
<text text-anchor="middle" x="169" y="-7.5" font-family="Helvetica,sans-Serif" font-size="10.00">Vst::SingleComponentEffect</text>
</g>
<!-- Node7&#45;&gt;Node1 -->
<g id="edge6" class="edge"><title>Node7&#45;&gt;Node1</title>
<path fill="none" stroke="midnightblue" d="M222.769,-22.5788C228.666,-24.4966 234.518,-26.6363 240,-29 259.911,-37.5853 280.934,-51.3221 294.008,-60.4994"/>
<polygon fill="midnightblue" stroke="midnightblue" points="223.446,-19.1261 212.86,-19.5605 221.406,-25.8224 223.446,-19.1261"/>
</g>
</g>
</svg>
