<?xml version="1.0" encoding="UTF-8" standalone="no"?>
<!DOCTYPE svg PUBLIC "-//W3C//DTD SVG 1.1//EN"
 "http://www.w3.org/Graphics/SVG/1.1/DTD/svg11.dtd">
<!-- Generated by graphviz version 2.36.0 (20140111.2315)
 -->
<!-- Title: IPlugVST Pages: 1 -->
<svg width="392pt" height="152pt"
 viewBox="0.00 0.00 392.00 152.00" xmlns="http://www.w3.org/2000/svg" xmlns:xlink="http://www.w3.org/1999/xlink">
<g id="graph0" class="graph" transform="scale(1 1) rotate(0) translate(4 148)">
<title>IPlugVST</title>
<polygon fill="white" stroke="none" points="-4,4 -4,-148 388,-148 388,4 -4,4"/>
<!-- Node1 -->
<g id="node1" class="node"><title>Node1</title>
<polygon fill="#bfbfbf" stroke="black" points="176.5,-0.5 176.5,-19.5 235.5,-19.5 235.5,-0.5 176.5,-0.5"/>
<text text-anchor="middle" x="206" y="-7.5" font-family="Helvetica,sans-Serif" font-size="10.00">IPlugVST</text>
</g>
<!-- Node2 -->
<g id="node2" class="node"><title>Node2</title>
<g id="a_node2"><a xlink:href="class_i_plug_base_graphics.html" target="_top" xlink:title="An IPlugBase class for an IPlug plug&#45;in that uses IGraphics for it&#39;s UI. ">
<polygon fill="white" stroke="black" points="11.5,-62.5 11.5,-81.5 128.5,-81.5 128.5,-62.5 11.5,-62.5"/>
<text text-anchor="middle" x="70" y="-69.5" font-family="Helvetica,sans-Serif" font-size="10.00">IPLUG_BASE_CLASS</text>
</a>
</g>
</g>
<!-- Node2&#45;&gt;Node1 -->
<g id="edge1" class="edge"><title>Node2&#45;&gt;Node1</title>
<path fill="none" stroke="midnightblue" d="M98.9665,-58.2207C125.369,-46.5726 163.642,-29.6874 186.551,-19.5806"/>
<polygon fill="midnightblue" stroke="midnightblue" points="97.2219,-55.1648 89.4855,-62.4035 100.047,-61.5692 97.2219,-55.1648"/>
</g>
<!-- Node3 -->
<g id="node3" class="node"><title>Node3</title>
<g id="a_node3"><a xlink:href="class_i_plug_base.html" target="_top" xlink:title="The lowest level base class of an IPlug plug&#45;in. ">
<polygon fill="white" stroke="black" points="0,-124.5 0,-143.5 62,-143.5 62,-124.5 0,-124.5"/>
<text text-anchor="middle" x="31" y="-131.5" font-family="Helvetica,sans-Serif" font-size="10.00">IPlugBase</text>
</a>
</g>
</g>
<!-- Node3&#45;&gt;Node2 -->
<g id="edge2" class="edge"><title>Node3&#45;&gt;Node2</title>
<path fill="none" stroke="midnightblue" d="M42.1395,-115.862C49.4264,-104.652 58.6346,-90.4852 64.4226,-81.5806"/>
<polygon fill="midnightblue" stroke="midnightblue" points="39.1031,-114.112 36.5877,-124.403 44.9722,-117.926 39.1031,-114.112"/>
</g>
<!-- Node4 -->
<g id="node4" class="node"><title>Node4</title>
<g id="a_node4"><a xlink:href="class_i_delegate.html" target="_top" xlink:title="This pure virtual interface delegates communication in both directions between the UI and the plug&#45;in...">
<polygon fill="white" stroke="black" points="80.5,-124.5 80.5,-143.5 139.5,-143.5 139.5,-124.5 80.5,-124.5"/>
<text text-anchor="middle" x="110" y="-131.5" font-family="Helvetica,sans-Serif" font-size="10.00">IDelegate</text>
</a>
</g>
</g>
<!-- Node4&#45;&gt;Node2 -->
<g id="edge3" class="edge"><title>Node4&#45;&gt;Node2</title>
<path fill="none" stroke="midnightblue" d="M98.5748,-115.862C91.1011,-104.652 81.6568,-90.4852 75.7204,-81.5806"/>
<polygon fill="midnightblue" stroke="midnightblue" points="95.8097,-118.024 104.269,-124.403 101.634,-114.141 95.8097,-118.024"/>
</g>
<!-- Node5 -->
<g id="node5" class="node"><title>Node5</title>
<g id="a_node5"><a xlink:href="class_i_plug_processor.html" target="_top" xlink:title="IPlugProcessor\&lt; PLUG\l_SAMPLE_DST \&gt;">
<polygon fill="white" stroke="black" points="146.5,-57 146.5,-87 265.5,-87 265.5,-57 146.5,-57"/>
<text text-anchor="start" x="154.5" y="-75" font-family="Helvetica,sans-Serif" font-size="10.00">IPlugProcessor&lt; PLUG</text>
<text text-anchor="middle" x="206" y="-64" font-family="Helvetica,sans-Serif" font-size="10.00">_SAMPLE_DST &gt;</text>
</a>
</g>
</g>
<!-- Node5&#45;&gt;Node1 -->
<g id="edge4" class="edge"><title>Node5&#45;&gt;Node1</title>
<path fill="none" stroke="midnightblue" d="M206,-46.5858C206,-37.0743 206,-26.7864 206,-19.7305"/>
<polygon fill="midnightblue" stroke="midnightblue" points="202.5,-46.7808 206,-56.7808 209.5,-46.7809 202.5,-46.7808"/>
</g>
<!-- Node6 -->
<g id="node6" class="node"><title>Node6</title>
<g id="a_node6"><a xlink:href="class_i_plug_preset_handler.html" target="_top" xlink:title="Everything to do with saving presets. ">
<polygon fill="white" stroke="black" points="283.5,-62.5 283.5,-81.5 384.5,-81.5 384.5,-62.5 283.5,-62.5"/>
<text text-anchor="middle" x="334" y="-69.5" font-family="Helvetica,sans-Serif" font-size="10.00">IPlugPresetHandler</text>
</a>
</g>
</g>
<!-- Node6&#45;&gt;Node1 -->
<g id="edge5" class="edge"><title>Node6&#45;&gt;Node1</title>
<path fill="none" stroke="midnightblue" d="M306.408,-58.0664C281.571,-46.4239 245.771,-29.6429 224.305,-19.5806"/>
<polygon fill="midnightblue" stroke="midnightblue" points="305.121,-61.3282 315.661,-62.4035 308.092,-54.99 305.121,-61.3282"/>
</g>
</g>
</svg>
