<?xml version="1.0" encoding="UTF-8" standalone="no"?>
<!DOCTYPE svg PUBLIC "-//W3C//DTD SVG 1.1//EN"
 "http://www.w3.org/Graphics/SVG/1.1/DTD/svg11.dtd">
<!-- Generated by graphviz version 2.36.0 (20140111.2315)
 -->
<!-- Title: Graphical Class Hierarchy Pages: 1 -->
<svg width="360pt" height="459pt"
 viewBox="0.00 0.00 360.00 458.75" xmlns="http://www.w3.org/2000/svg" xmlns:xlink="http://www.w3.org/1999/xlink">
<g id="graph0" class="graph" transform="scale(1 1) rotate(0) translate(4 454.749)">
<title>Graphical Class Hierarchy</title>
<polygon fill="white" stroke="none" points="-4,4 -4,-454.749 356,-454.749 356,4 -4,4"/>
<!-- Node1 -->
<g id="node1" class="node"><title>Node1</title>
<g id="a_node1"><a xlink:href="class_i_control.html" target="_top" xlink:title="The lowest level base class of an IGraphics control. ">
<polygon fill="white" stroke="black" points="10.5,-241.249 10.5,-260.249 61.5,-260.249 61.5,-241.249 10.5,-241.249"/>
<text text-anchor="middle" x="36" y="-248.249" font-family="Helvetica,sans-Serif" font-size="10.00">IControl</text>
</a>
</g>
</g>
<!-- Node2 -->
<g id="node2" class="node"><title>Node2</title>
<g id="a_node2"><a xlink:href="class_i_bitmap_control.html" target="_top" xlink:title="A basic control to draw a bitmap, or one frame of a stacked bitmap depending on the current value...">
<polygon fill="white" stroke="black" points="127,-393.249 127,-412.249 209,-412.249 209,-393.249 127,-393.249"/>
<text text-anchor="middle" x="168" y="-400.249" font-family="Helvetica,sans-Serif" font-size="10.00">IBitmapControl</text>
</a>
</g>
</g>
<!-- Node1&#45;&gt;Node2 -->
<g id="edge1" class="edge"><title>Node1&#45;&gt;Node2</title>
<path fill="none" stroke="midnightblue" d="M42.2362,-270.113C51.0295,-299.001 71.4871,-353.243 108,-383.749 113.45,-388.302 120.012,-391.771 126.75,-394.411"/>
<polygon fill="midnightblue" stroke="midnightblue" points="45.5642,-269.022 39.428,-260.385 38.8388,-270.963 45.5642,-269.022"/>
</g>
<!-- Node4 -->
<g id="node4" class="node"><title>Node4</title>
<g id="a_node4"><a xlink:href="class_i_b_slider_control.html" target="_top" xlink:title="A slider with a bitmap for the handle. ">
<polygon fill="white" stroke="black" points="126.5,-203.249 126.5,-222.249 209.5,-222.249 209.5,-203.249 126.5,-203.249"/>
<text text-anchor="middle" x="168" y="-210.249" font-family="Helvetica,sans-Serif" font-size="10.00">IBSliderControl</text>
</a>
</g>
</g>
<!-- Node1&#45;&gt;Node4 -->
<g id="edge3" class="edge"><title>Node1&#45;&gt;Node4</title>
<path fill="none" stroke="midnightblue" d="M71.4807,-240.67C91.0009,-234.964 115.272,-227.869 134.463,-222.259"/>
<polygon fill="midnightblue" stroke="midnightblue" points="70.3743,-237.346 61.758,-243.512 72.3384,-244.065 70.3743,-237.346"/>
</g>
<!-- Node5 -->
<g id="node5" class="node"><title>Node5</title>
<g id="a_node5"><a xlink:href="class_i_dir_browse_control_base.html" target="_top" xlink:title="An abstract IControl base class that you can inherit from in order to make a control that pops up a m...">
<polygon fill="white" stroke="black" points="108.5,-431.249 108.5,-450.249 227.5,-450.249 227.5,-431.249 108.5,-431.249"/>
<text text-anchor="middle" x="168" y="-438.249" font-family="Helvetica,sans-Serif" font-size="10.00">IDirBrowseControlBase</text>
</a>
</g>
</g>
<!-- Node1&#45;&gt;Node5 -->
<g id="edge4" class="edge"><title>Node1&#45;&gt;Node5</title>
<path fill="none" stroke="midnightblue" d="M39.73,-270.514C45.6562,-305.91 62.9863,-380.282 108,-421.749 112.195,-425.613 117.182,-428.691 122.453,-431.144"/>
<polygon fill="midnightblue" stroke="midnightblue" points="43.1666,-269.834 38.186,-260.482 36.2481,-270.899 43.1666,-269.834"/>
</g>
<!-- Node6 -->
<g id="node6" class="node"><title>Node6</title>
<g id="a_node6"><a xlink:href="class_i_graphics_live_edit.html" target="_top" xlink:title="IGraphicsLiveEdit">
<polygon fill="white" stroke="black" points="121,-355.249 121,-374.249 215,-374.249 215,-355.249 121,-355.249"/>
<text text-anchor="middle" x="168" y="-362.249" font-family="Helvetica,sans-Serif" font-size="10.00">IGraphicsLiveEdit</text>
</a>
</g>
</g>
<!-- Node1&#45;&gt;Node6 -->
<g id="edge5" class="edge"><title>Node1&#45;&gt;Node6</title>
<path fill="none" stroke="midnightblue" d="M46.3522,-269.45C57.9829,-290.872 79.7949,-325.601 108,-345.749 113.429,-349.627 119.689,-352.741 126.059,-355.233"/>
<polygon fill="midnightblue" stroke="midnightblue" points="49.3455,-267.621 41.6074,-260.385 43.1436,-270.867 49.3455,-267.621"/>
</g>
<!-- Node7 -->
<g id="node7" class="node"><title>Node7</title>
<g id="a_node7"><a xlink:href="class_i_knob_control_base.html" target="_top" xlink:title="Parent for knobs, to handle mouse action and ballistics. ">
<polygon fill="white" stroke="black" points="120,-241.249 120,-260.249 216,-260.249 216,-241.249 120,-241.249"/>
<text text-anchor="middle" x="168" y="-248.249" font-family="Helvetica,sans-Serif" font-size="10.00">IKnobControlBase</text>
</a>
</g>
</g>
<!-- Node1&#45;&gt;Node7 -->
<g id="edge6" class="edge"><title>Node1&#45;&gt;Node7</title>
<path fill="none" stroke="midnightblue" d="M71.971,-250.749C86.7209,-250.749 104.115,-250.749 119.963,-250.749"/>
<polygon fill="midnightblue" stroke="midnightblue" points="71.758,-247.249 61.758,-250.749 71.758,-254.249 71.758,-247.249"/>
</g>
<!-- Node10 -->
<g id="node10" class="node"><title>Node10</title>
<g id="a_node10"><a xlink:href="class_i_panel_control.html" target="_top" xlink:title="A basic control to fill a rectangle with a color. ">
<polygon fill="white" stroke="black" points="130,-127.249 130,-146.249 206,-146.249 206,-127.249 130,-127.249"/>
<text text-anchor="middle" x="168" y="-134.249" font-family="Helvetica,sans-Serif" font-size="10.00">IPanelControl</text>
</a>
</g>
</g>
<!-- Node1&#45;&gt;Node10 -->
<g id="edge9" class="edge"><title>Node1&#45;&gt;Node10</title>
<path fill="none" stroke="midnightblue" d="M46.3522,-232.047C57.9829,-210.625 79.7949,-175.896 108,-155.749 114.48,-151.12 122.143,-147.58 129.765,-144.885"/>
<polygon fill="midnightblue" stroke="midnightblue" points="43.1436,-230.63 41.6074,-241.113 49.3455,-233.876 43.1436,-230.63"/>
</g>
<!-- Node11 -->
<g id="node11" class="node"><title>Node11</title>
<g id="a_node11"><a xlink:href="class_i_s_v_g_control.html" target="_top" xlink:title="A basic control to draw an SVG image to the screen. ">
<polygon fill="white" stroke="black" points="132,-317.249 132,-336.249 204,-336.249 204,-317.249 132,-317.249"/>
<text text-anchor="middle" x="168" y="-324.249" font-family="Helvetica,sans-Serif" font-size="10.00">ISVGControl</text>
</a>
</g>
</g>
<!-- Node1&#45;&gt;Node11 -->
<g id="edge10" class="edge"><title>Node1&#45;&gt;Node11</title>
<path fill="none" stroke="midnightblue" d="M54.3439,-267.711C67.9733,-280.248 87.946,-296.949 108,-307.749 115.39,-311.728 123.754,-315.047 131.812,-317.738"/>
<polygon fill="midnightblue" stroke="midnightblue" points="56.4096,-264.848 46.7334,-260.533 51.6066,-269.94 56.4096,-264.848"/>
</g>
<!-- Node12 -->
<g id="node12" class="node"><title>Node12</title>
<g id="a_node12"><a xlink:href="class_i_switch_control_base.html" target="_top" xlink:title="Parent for switch controls (including buttons a.k.a. ">
<polygon fill="white" stroke="black" points="116,-165.249 116,-184.249 220,-184.249 220,-165.249 116,-165.249"/>
<text text-anchor="middle" x="168" y="-172.249" font-family="Helvetica,sans-Serif" font-size="10.00">ISwitchControlBase</text>
</a>
</g>
</g>
<!-- Node1&#45;&gt;Node12 -->
<g id="edge11" class="edge"><title>Node1&#45;&gt;Node12</title>
<path fill="none" stroke="midnightblue" d="M54.3439,-233.786C67.9733,-221.249 87.946,-204.548 108,-193.749 114.916,-190.024 122.686,-186.878 130.259,-184.285"/>
<polygon fill="midnightblue" stroke="midnightblue" points="51.6066,-231.557 46.7334,-240.965 56.4096,-236.649 51.6066,-231.557"/>
</g>
<!-- Node14 -->
<g id="node14" class="node"><title>Node14</title>
<g id="a_node14"><a xlink:href="class_i_text_control.html" target="_top" xlink:title="A basic control to output text to the screen. ">
<polygon fill="white" stroke="black" points="132.5,-279.249 132.5,-298.249 203.5,-298.249 203.5,-279.249 132.5,-279.249"/>
<text text-anchor="middle" x="168" y="-286.249" font-family="Helvetica,sans-Serif" font-size="10.00">ITextControl</text>
</a>
</g>
</g>
<!-- Node1&#45;&gt;Node14 -->
<g id="edge13" class="edge"><title>Node1&#45;&gt;Node14</title>
<path fill="none" stroke="midnightblue" d="M71.4807,-260.828C91.0009,-266.533 115.272,-273.628 134.463,-279.238"/>
<polygon fill="midnightblue" stroke="midnightblue" points="72.3384,-257.432 61.758,-257.986 70.3743,-264.151 72.3384,-257.432"/>
</g>
<!-- Node17 -->
<g id="node17" class="node"><title>Node17</title>
<g id="a_node17"><a xlink:href="class_i_v_keyboard_control.html" target="_top" xlink:title="IVKeyboardControl">
<polygon fill="white" stroke="black" points="118.5,-89.2486 118.5,-108.249 217.5,-108.249 217.5,-89.2486 118.5,-89.2486"/>
<text text-anchor="middle" x="168" y="-96.2486" font-family="Helvetica,sans-Serif" font-size="10.00">IVKeyboardControl</text>
</a>
</g>
</g>
<!-- Node1&#45;&gt;Node17 -->
<g id="edge16" class="edge"><title>Node1&#45;&gt;Node17</title>
<path fill="none" stroke="midnightblue" d="M42.2362,-231.384C51.0295,-202.496 71.4871,-148.254 108,-117.749 112.625,-113.885 118.049,-110.802 123.702,-108.344"/>
<polygon fill="midnightblue" stroke="midnightblue" points="38.8388,-230.534 39.428,-241.112 45.5642,-232.475 38.8388,-230.534"/>
</g>
<!-- Node18 -->
<g id="node18" class="node"><title>Node18</title>
<g id="a_node18"><a xlink:href="class_i_v_slider_control.html" target="_top" xlink:title="IVSliderControl">
<polygon fill="white" stroke="black" points="126.5,-51.2486 126.5,-70.2486 209.5,-70.2486 209.5,-51.2486 126.5,-51.2486"/>
<text text-anchor="middle" x="168" y="-58.2486" font-family="Helvetica,sans-Serif" font-size="10.00">IVSliderControl</text>
</a>
</g>
</g>
<!-- Node1&#45;&gt;Node18 -->
<g id="edge17" class="edge"><title>Node1&#45;&gt;Node18</title>
<path fill="none" stroke="midnightblue" d="M39.73,-230.983C45.6562,-195.587 62.9863,-121.215 108,-79.7486 113.224,-74.9366 119.676,-71.3429 126.375,-68.6591"/>
<polygon fill="midnightblue" stroke="midnightblue" points="36.2481,-230.599 38.186,-241.015 43.1666,-231.664 36.2481,-230.599"/>
</g>
<!-- Node3 -->
<g id="node3" class="node"><title>Node3</title>
<g id="a_node3"><a xlink:href="class_i_b_switch_control.html" target="_top" xlink:title="A vector switch control. ">
<polygon fill="white" stroke="black" points="264,-393.249 264,-412.249 352,-412.249 352,-393.249 264,-393.249"/>
<text text-anchor="middle" x="308" y="-400.249" font-family="Helvetica,sans-Serif" font-size="10.00">IBSwitchControl</text>
</a>
</g>
</g>
<!-- Node2&#45;&gt;Node3 -->
<g id="edge2" class="edge"><title>Node2&#45;&gt;Node3</title>
<path fill="none" stroke="midnightblue" d="M219.547,-402.749C233.975,-402.749 249.564,-402.749 263.53,-402.749"/>
<polygon fill="midnightblue" stroke="midnightblue" points="219.286,-399.249 209.286,-402.749 219.286,-406.249 219.286,-399.249"/>
</g>
<!-- Node8 -->
<g id="node8" class="node"><title>Node8</title>
<g id="a_node8"><a xlink:href="class_i_v_knob_control.html" target="_top" xlink:title="A vector knob control drawn using graphics primitves. ">
<polygon fill="white" stroke="black" points="268,-155.249 268,-174.249 348,-174.249 348,-155.249 268,-155.249"/>
<text text-anchor="middle" x="308" y="-162.249" font-family="Helvetica,sans-Serif" font-size="10.00">IVKnobControl</text>
</a>
</g>
</g>
<!-- Node7&#45;&gt;Node8 -->
<g id="edge7" class="edge"><title>Node7&#45;&gt;Node8</title>
<path fill="none" stroke="midnightblue" d="M215.592,-237.672C219.884,-235.897 224.085,-233.925 228,-231.749 256.605,-215.843 284.467,-188.689 298.184,-174.32"/>
<polygon fill="midnightblue" stroke="midnightblue" points="214.247,-234.438 206.13,-241.247 216.721,-240.986 214.247,-234.438"/>
</g>
<!-- Node9 -->
<g id="node9" class="node"><title>Node9</title>
<g id="a_node9"><a xlink:href="class_i_v_s_v_g_knob.html" target="_top" xlink:title="A vector knob control which rotates an SVG image. ">
<polygon fill="white" stroke="black" points="273,-241.249 273,-260.249 343,-260.249 343,-241.249 273,-241.249"/>
<text text-anchor="middle" x="308" y="-248.249" font-family="Helvetica,sans-Serif" font-size="10.00">IVSVGKnob</text>
</a>
</g>
</g>
<!-- Node7&#45;&gt;Node9 -->
<g id="edge8" class="edge"><title>Node7&#45;&gt;Node9</title>
<path fill="none" stroke="midnightblue" d="M226.316,-250.749C242.093,-250.749 258.708,-250.749 272.734,-250.749"/>
<polygon fill="midnightblue" stroke="midnightblue" points="226.106,-247.249 216.106,-250.749 226.106,-254.249 226.106,-247.249"/>
</g>
<!-- Node13 -->
<g id="node13" class="node"><title>Node13</title>
<g id="a_node13"><a xlink:href="class_i_v_switch_control.html" target="_top" xlink:title="A vector switch control. ">
<polygon fill="white" stroke="black" points="264,-22.2486 264,-41.2486 352,-41.2486 352,-22.2486 264,-22.2486"/>
<text text-anchor="middle" x="308" y="-29.2486" font-family="Helvetica,sans-Serif" font-size="10.00">IVSwitchControl</text>
</a>
</g>
</g>
<!-- Node12&#45;&gt;Node13 -->
<g id="edge12" class="edge"><title>Node12&#45;&gt;Node13</title>
<path fill="none" stroke="midnightblue" d="M220.195,-160.856C222.94,-159.325 225.566,-157.628 228,-155.749 269.013,-124.079 294.657,-64.6644 303.517,-41.4203"/>
<polygon fill="midnightblue" stroke="midnightblue" points="218.623,-157.729 211.115,-165.205 221.646,-164.042 218.623,-157.729"/>
</g>
<!-- Node15 -->
<g id="node15" class="node"><title>Node15</title>
<g id="a_node15"><a xlink:href="class_i_b_text_control.html" target="_top" xlink:title="Display monospace bitmap font text. ">
<polygon fill="white" stroke="black" points="269.5,-279.249 269.5,-298.249 346.5,-298.249 346.5,-279.249 269.5,-279.249"/>
<text text-anchor="middle" x="308" y="-286.249" font-family="Helvetica,sans-Serif" font-size="10.00">IBTextControl</text>
</a>
</g>
</g>
<!-- Node14&#45;&gt;Node15 -->
<g id="edge14" class="edge"><title>Node14&#45;&gt;Node15</title>
<path fill="none" stroke="midnightblue" d="M214.017,-288.749C231.885,-288.749 252.203,-288.749 269.279,-288.749"/>
<polygon fill="midnightblue" stroke="midnightblue" points="213.823,-285.249 203.823,-288.749 213.823,-292.249 213.823,-285.249"/>
</g>
<!-- Node16 -->
<g id="node16" class="node"><title>Node16</title>
<g id="a_node16"><a xlink:href="class_i_caption_control.html" target="_top" xlink:title="ICaptionControl">
<polygon fill="white" stroke="black" points="265.5,-317.249 265.5,-336.249 350.5,-336.249 350.5,-317.249 265.5,-317.249"/>
<text text-anchor="middle" x="308" y="-324.249" font-family="Helvetica,sans-Serif" font-size="10.00">ICaptionControl</text>
</a>
</g>
</g>
<!-- Node14&#45;&gt;Node16 -->
<g id="edge15" class="edge"><title>Node14&#45;&gt;Node16</title>
<path fill="none" stroke="midnightblue" d="M213.473,-300.995C232.495,-306.233 254.375,-312.258 272.188,-317.163"/>
<polygon fill="midnightblue" stroke="midnightblue" points="214.394,-297.618 203.823,-298.338 212.535,-304.367 214.394,-297.618"/>
</g>
<!-- Node19 -->
<g id="node19" class="node"><title>Node19</title>
<g id="a_node19"><a xlink:href="class_i_vector_base.html" target="_top" xlink:title="A An interface for IVControls, in order for them to share a common set of colors. ...">
<polygon fill="white" stroke="black" points="0.5,-51.2486 0.5,-70.2486 71.5,-70.2486 71.5,-51.2486 0.5,-51.2486"/>
<text text-anchor="middle" x="36" y="-58.2486" font-family="Helvetica,sans-Serif" font-size="10.00">IVectorBase</text>
</a>
</g>
</g>
<!-- Node19&#45;&gt;Node8 -->
<g id="edge20" class="edge"><title>Node19&#45;&gt;Node8</title>
<path fill="none" stroke="midnightblue" d="M67.7277,-47.5358C107.346,-32.6711 177.18,-13.9897 228,-41.7486 273.66,-66.689 296.852,-130.56 304.28,-155.018"/>
<polygon fill="midnightblue" stroke="midnightblue" points="66.3788,-44.3051 58.3363,-51.2021 68.9245,-50.8258 66.3788,-44.3051"/>
</g>
<!-- Node19&#45;&gt;Node10 -->
<g id="edge18" class="edge"><title>Node19&#45;&gt;Node10</title>
<path fill="none" stroke="midnightblue" d="M54.3439,-77.7108C67.9733,-90.248 87.946,-106.949 108,-117.749 114.916,-121.473 122.686,-124.619 130.259,-127.212"/>
<polygon fill="midnightblue" stroke="midnightblue" points="56.4096,-74.8479 46.7334,-70.5326 51.6066,-79.9402 56.4096,-74.8479"/>
</g>
<!-- Node19&#45;&gt;Node13 -->
<g id="edge22" class="edge"><title>Node19&#45;&gt;Node13</title>
<path fill="none" stroke="midnightblue" d="M53.3861,-43.9736C66.7552,-31.5661 86.8343,-15.6705 108,-8.74859 168.162,10.9262 243.362,-8.99904 281.81,-22.1623"/>
<polygon fill="midnightblue" stroke="midnightblue" points="50.7345,-41.669 45.9794,-51.1368 55.6009,-46.7007 50.7345,-41.669"/>
</g>
<!-- Node19&#45;&gt;Node17 -->
<g id="edge19" class="edge"><title>Node19&#45;&gt;Node17</title>
<path fill="none" stroke="midnightblue" d="M79.8839,-73.2839C97.5689,-78.4534 117.734,-84.3477 134.206,-89.1627"/>
<polygon fill="midnightblue" stroke="midnightblue" points="80.3848,-69.7839 69.8045,-70.3376 78.4208,-76.5028 80.3848,-69.7839"/>
</g>
<!-- Node19&#45;&gt;Node18 -->
<g id="edge21" class="edge"><title>Node19&#45;&gt;Node18</title>
<path fill="none" stroke="midnightblue" d="M81.9658,-60.7486C96.2866,-60.7486 112.045,-60.7486 126.065,-60.7486"/>
<polygon fill="midnightblue" stroke="midnightblue" points="81.8376,-57.2487 71.8376,-60.7486 81.8376,-64.2487 81.8376,-57.2487"/>
</g>
</g>
</svg>
